<?xml version="1.0" encoding="UTF-8" standalone="no"?>
<!-- Created with Inkscape (http://www.inkscape.org/) -->

<svg
   xmlns:dc="http://purl.org/dc/elements/1.1/"
   xmlns:cc="http://creativecommons.org/ns#"
   xmlns:rdf="http://www.w3.org/1999/02/22-rdf-syntax-ns#"
   xmlns:svg="http://www.w3.org/2000/svg"
   xmlns="http://www.w3.org/2000/svg"
   xmlns:sodipodi="http://sodipodi.sourceforge.net/DTD/sodipodi-0.dtd"
   xmlns:inkscape="http://www.inkscape.org/namespaces/inkscape"
   width="210mm"
   height="297mm"
   viewBox="0 0 210 297"
   version="1.1"
   id="svg8"
   inkscape:version="0.92.1 r15371"
   sodipodi:docname="HexDimons.svg">
  <defs
     id="defs2">
    <marker
       style="overflow:visible"
       refY="0.0"
       refX="0.0"
       orient="auto"
       id="DistanceX">
      <path
         id="path4487"
         style="stroke:#000000; stroke-width:0.5"
         d="M 3,-3 L -3,3 M 0,-5 L  0,5" />
    </marker>
    <pattern
       y="0"
       x="0"
       width="8"
       patternUnits="userSpaceOnUse"
       id="Hatch"
       height="8">
      <path
         id="path4490"
         stroke-width="0.25"
         stroke="#000000"
         linecap="square"
         d="M8 4 l-4,4" />
      <path
         id="path4492"
         stroke-width="0.25"
         stroke="#000000"
         linecap="square"
         d="M6 2 l-4,4" />
      <path
         id="path4494"
         stroke-width="0.25"
         stroke="#000000"
         linecap="square"
         d="M4 0 l-4,4" />
    </pattern>
    <symbol
       id="*MODEL_SPACE" />
    <symbol
       id="*PAPER_SPACE" />
    <marker
       style="overflow:visible"
       refY="0.0"
       refX="0.0"
       orient="auto"
       id="DistanceX-8">
      <path
         id="path5291"
         style="stroke:#000000; stroke-width:0.5"
         d="M 3,-3 L -3,3 M 0,-5 L  0,5" />
    </marker>
    <pattern
       y="0"
       x="0"
       width="8"
       patternUnits="userSpaceOnUse"
       id="Hatch-6"
       height="8">
      <path
         id="path5294"
         stroke-width="0.25"
         stroke="#000000"
         linecap="square"
         d="M8 4 l-4,4" />
      <path
         id="path5296"
         stroke-width="0.25"
         stroke="#000000"
         linecap="square"
         d="M6 2 l-4,4" />
      <path
         id="path5298"
         stroke-width="0.25"
         stroke="#000000"
         linecap="square"
         d="M4 0 l-4,4" />
    </pattern>
    <symbol
       id="*MODEL_SPACE-9" />
    <symbol
       id="*PAPER_SPACE-6" />
    <marker
       style="overflow:visible"
       refY="0.0"
       refX="0.0"
       orient="auto"
       id="DistanceX-7">
      <path
         id="path5369"
         style="stroke:#000000; stroke-width:0.5"
         d="M 3,-3 L -3,3 M 0,-5 L  0,5" />
    </marker>
    <pattern
       y="0"
       x="0"
       width="8"
       patternUnits="userSpaceOnUse"
       id="Hatch-8"
       height="8">
      <path
         id="path5372"
         stroke-width="0.25"
         stroke="#000000"
         linecap="square"
         d="M8 4 l-4,4" />
      <path
         id="path5374"
         stroke-width="0.25"
         stroke="#000000"
         linecap="square"
         d="M6 2 l-4,4" />
      <path
         id="path5376"
         stroke-width="0.25"
         stroke="#000000"
         linecap="square"
         d="M4 0 l-4,4" />
    </pattern>
    <symbol
       id="*MODEL_SPACE-1" />
    <symbol
       id="*PAPER_SPACE-3" />
    <marker
       style="overflow:visible"
       refY="0.0"
       refX="0.0"
       orient="auto"
       id="DistanceX-4">
      <path
         id="path6016"
         style="stroke:#000000; stroke-width:0.5"
         d="M 3,-3 L -3,3 M 0,-5 L  0,5" />
    </marker>
    <pattern
       y="0"
       x="0"
       width="8"
       patternUnits="userSpaceOnUse"
       id="Hatch-80"
       height="8">
      <path
         id="path6019"
         stroke-width="0.25"
         stroke="#000000"
         linecap="square"
         d="M8 4 l-4,4" />
      <path
         id="path6021"
         stroke-width="0.25"
         stroke="#000000"
         linecap="square"
         d="M6 2 l-4,4" />
      <path
         id="path6023"
         stroke-width="0.25"
         stroke="#000000"
         linecap="square"
         d="M4 0 l-4,4" />
    </pattern>
    <symbol
       id="*MODEL_SPACE-8" />
    <symbol
       id="*PAPER_SPACE-0" />
  </defs>
  <sodipodi:namedview
     id="base"
     pagecolor="#ffffff"
     bordercolor="#666666"
     borderopacity="1.0"
     inkscape:pageopacity="0.0"
     inkscape:pageshadow="2"
     inkscape:zoom="0.7"
     inkscape:cx="377.15399"
     inkscape:cy="971.89526"
     inkscape:document-units="mm"
     inkscape:current-layer="g6204"
     showgrid="false"
     inkscape:window-width="1920"
     inkscape:window-height="1017"
     inkscape:window-x="-8"
     inkscape:window-y="439"
     inkscape:window-maximized="1" />
  <metadata
     id="metadata5">
    <rdf:RDF>
      <cc:Work
         rdf:about="">
        <dc:format>image/svg+xml</dc:format>
        <dc:type
           rdf:resource="http://purl.org/dc/dcmitype/StillImage" />
        <dc:title></dc:title>
      </cc:Work>
    </rdf:RDF>
  </metadata>
  <g
     inkscape:label="Layer 1"
     inkscape:groupmode="layer"
     id="layer1">
    <g
       id="g5011"
       inkscape:label="0"
       transform="matrix(0.26458333,0,0,0.26458333,162.75194,-182.18451)">
      <g
         id="g5327"
         inkscape:label="0"
         transform="translate(1865.8092,-572.09901)">
        <g
           id="g6204"
           inkscape:label="0"
           transform="translate(-2089.506,492.09898)">
          <path
             style="color:#000000;font-style:normal;font-variant:normal;font-weight:normal;font-stretch:normal;font-size:medium;line-height:normal;font-family:sans-serif;font-variant-ligatures:normal;font-variant-position:normal;font-variant-caps:normal;font-variant-numeric:normal;font-variant-alternates:normal;font-feature-settings:normal;text-indent:0;text-align:start;text-decoration:none;text-decoration-line:none;text-decoration-style:solid;text-decoration-color:#000000;letter-spacing:normal;word-spacing:normal;text-transform:none;writing-mode:lr-tb;direction:ltr;text-orientation:mixed;dominant-baseline:auto;baseline-shift:baseline;text-anchor:start;white-space:normal;shape-padding:0;clip-rule:nonzero;display:inline;overflow:visible;visibility:visible;opacity:1;isolation:auto;mix-blend-mode:normal;color-interpolation:sRGB;color-interpolation-filters:linearRGB;solid-color:#000000;solid-opacity:1;vector-effect:none;fill:#000000;fill-opacity:1;fill-rule:nonzero;stroke:none;stroke-width:37.79527664;stroke-linecap:butt;stroke-linejoin:miter;stroke-miterlimit:4;stroke-dasharray:none;stroke-dashoffset:0;stroke-opacity:1;color-rendering:auto;image-rendering:auto;shape-rendering:auto;text-rendering:auto;enable-background:accumulate"
             d="M 288.10742,-296.37109 173.11914,-97.203125 118.35156,-2.34375 3.3613281,196.82617 8.8164062,206.27539 118.35156,395.99414 173.11914,490.85547 288.10742,690.02344 H 518.08789 627.62305 857.60352 L 972.59375,490.85547 999.97656,443.42578 1027.3613,395.99414 1142.3516,196.82617 1027.3613,-2.34375 972.59375,-97.203125 857.60352,-296.37109 H 627.62305 518.08789 Z m 21.82227,37.79492 h 175.42578 l -32.94531,57.06445 h -98.62305 l -16.36719,9.44922 v 0 l -49.3125,85.41016 H 222.2168 Z m 219.07031,0 h 87.71289 l 43.85742,75.96289 -43.85742,75.96094 H 529 l -43.85742,-75.96094 z m 131.35742,0 H 835.7832 l 87.71289,151.92383 h -65.89257 l -49.3125,-85.41016 v 0 l -16.36524,-9.44922 h -98.62305 z m -295.66015,94.85937 h 87.71289 l 21.92968,37.98242 21.92774,37.980474 -43.85742,75.96289 h -87.71289 l -43.85743,-75.96289 21.92969,-37.980474 z m 328.60546,0 h 87.71289 l 21.92969,37.98242 21.92774,37.980474 -43.85743,75.96289 h -87.71289 l -43.85742,-75.96289 z m -65.67968,75.960941 0.002,0.002 -0.002,0.002 z m -427.22852,18.898437 h 87.71289 L 331.96484,7.1054688 288.10742,83.068359 H 200.39453 L 156.53711,7.1054688 Z m 328.60547,0 h 87.71289 L 660.57031,7.1054688 572.85547,159.0293 485.14258,7.1054688 Z m 328.60352,0 h 87.71289 0.002 L 989.17578,7.1074219 945.31836,83.068359 H 857.60352 L 813.74609,7.1054688 Z M 364.69727,26.003906 h 87.71289 L 540.125,177.92773 H 364.69727 l -43.85743,-75.96289 z m 328.60546,0 h 87.71289 l 21.92969,37.980469 21.92774,37.980465 -43.85743,75.96289 H 605.58789 Z m -558.58593,18.896485 32.94726,57.064449 -49.3125,85.41211 v 0 18.89844 l 49.3125,85.41016 -32.94726,57.0664 -87.714847,-151.92578 z m 876.2793,0 87.7129,151.925779 -87.7129,151.92578 -32.94727,-57.0664 49.31247,-85.41016 v 0 -18.89844 L 978.04883,101.96484 Z M 200.39453,120.86328 h 87.71289 l 43.85742,75.96289 -43.85742,75.96289 h -87.71289 l -43.85742,-75.96289 z m 657.20899,0 h 87.71484 l 43.85742,75.96289 -43.85742,75.96289 h -87.71484 l -43.85743,-75.96289 z m -503.81641,75.96094 v 0.004 l -0.002,-0.002 z m 10.91016,18.89844 H 540.125 l -87.71484,151.92578 h -87.71289 l -43.85743,-75.96289 z m 240.89062,0 h 175.42773 l 43.85743,75.96289 -43.85743,75.96289 h -87.71289 z m -32.73047,18.89843 87.71289,151.92383 -43.85742,75.96289 H 529 l -43.85742,-75.96289 z m -372.46289,75.96289 h 87.71289 l 43.85742,75.9629 -21.92968,37.98046 -21.92774,37.98047 h -87.71289 l -43.85742,-75.96093 z m 657.20899,0 h 87.71484 l 43.85742,75.96094 -43.85742,75.96289 h -87.71484 l -43.85743,-75.96093 z m -492.90625,94.85938 h 87.71289 l 43.85742,75.96289 -43.85742,75.96289 h -87.71289 l -43.85743,-75.96289 21.92969,-37.98047 z m 328.60546,0 h 87.71289 l 21.92969,37.98242 21.92774,37.98047 -43.85743,75.96289 h -87.71289 l -43.85742,-75.96289 z m -471.08789,94.85937 h 65.89258 l 49.3125,85.41211 v 0 l 16.36719,9.44922 h 98.62305 l 32.94726,57.06446 H 309.92969 Z m 306.78516,0 h 87.71289 l 43.85742,75.96289 -43.85742,75.9629 H 529 l -43.85742,-75.9629 z m 328.60352,0 h 65.89453 L 835.7832,652.22852 H 660.35547 l 32.94726,-57.06446 h 98.62305 v 0 l 16.36524,-9.44922 z"
             transform="translate(-391.42865,768.57142)"
             id="path6030"
             inkscape:connector-curvature="0"
             sodipodi:nodetypes="ccccccccccccccccccccccccccccccccccccccccccccccccccccccccccccccccccccccccccccccccccccccccccccccccccccccccccccccccccccccccccccccccccccccccccccccccccccccccccccccccccccccccccccccccccccccccccccccccccccccccccccccccccc" />
        </g>
      </g>
    </g>
  </g>
</svg>
