<?xml version="1.0" encoding="UTF-8" standalone="no"?>
<!-- Created with Inkscape (http://www.inkscape.org/) -->

<svg
   xmlns:dc="http://purl.org/dc/elements/1.1/"
   xmlns:cc="http://creativecommons.org/ns#"
   xmlns:rdf="http://www.w3.org/1999/02/22-rdf-syntax-ns#"
   xmlns:svg="http://www.w3.org/2000/svg"
   xmlns="http://www.w3.org/2000/svg"
   xmlns:sodipodi="http://sodipodi.sourceforge.net/DTD/sodipodi-0.dtd"
   xmlns:inkscape="http://www.inkscape.org/namespaces/inkscape"
   width="400mm"
   height="400mm"
   viewBox="0 0 1417.3228 1417.3228"
   id="svg4202"
   version="1.1"
   inkscape:version="0.91 r13725"
   sodipodi:docname="heart.svg">
  <defs
     id="defs4204" />
  <sodipodi:namedview
     id="base"
     pagecolor="#ffffff"
     bordercolor="#666666"
     borderopacity="1.0"
     inkscape:pageopacity="0.0"
     inkscape:pageshadow="2"
     inkscape:zoom="0.65738834"
     inkscape:cx="574.57315"
     inkscape:cy="705.39801"
     inkscape:document-units="px"
     inkscape:current-layer="layer1"
     showgrid="false"
     inkscape:window-width="1400"
     inkscape:window-height="987"
     inkscape:window-x="-8"
     inkscape:window-y="-8"
     inkscape:window-maximized="1" />
  <metadata
     id="metadata4207">
    <rdf:RDF>
      <cc:Work
         rdf:about="">
        <dc:format>image/svg+xml</dc:format>
        <dc:type
           rdf:resource="http://purl.org/dc/dcmitype/StillImage" />
        <dc:title></dc:title>
      </cc:Work>
    </rdf:RDF>
  </metadata>
  <g
     inkscape:label="Layer 1"
     inkscape:groupmode="layer"
     id="layer1"
     transform="translate(0,364.96063)">
    <g
       id="g4929"
       transform="matrix(12.025739,0,0,10.791892,5437.6533,-889.70034)"
       style="stroke:#000000;stroke-width:0.91773462">
      <path
         style="color:#000000;font-style:normal;font-variant:normal;font-weight:normal;font-stretch:normal;font-size:medium;line-height:normal;font-family:sans-serif;text-indent:0;text-align:start;text-decoration:none;text-decoration-line:none;text-decoration-style:solid;text-decoration-color:#000000;letter-spacing:normal;word-spacing:normal;text-transform:none;direction:ltr;block-progression:tb;writing-mode:lr-tb;baseline-shift:baseline;text-anchor:start;white-space:normal;clip-rule:nonzero;display:inline;overflow:visible;visibility:visible;opacity:1;isolation:auto;mix-blend-mode:normal;color-interpolation:sRGB;color-interpolation-filters:linearRGB;solid-color:#000000;solid-opacity:1;fill:#000000;fill-opacity:1;fill-rule:nonzero;stroke:none;stroke-width:0.91773462;stroke-linecap:butt;stroke-linejoin:miter;stroke-miterlimit:4;stroke-dasharray:none;stroke-dashoffset:0;stroke-opacity:1;color-rendering:auto;image-rendering:auto;shape-rendering:auto;text-rendering:auto;enable-background:accumulate"
         d="m 366.13477,179.47656 -158.47657,274.48633 -8.26367,14.31445 -157.736327,273.20508 6.361328,11.01367 151.371089,262.18161 8.2754,14.3321 158.46875,274.4804 316.65625,0 15.64062,0 316.65426,0 158.4746,-274.4863 8.2598,-14.3027 157.7422,-273.21878 -157.7344,-273.20508 -8.2636,-14.31445 -158.4786,-274.48633 -316.5566,0 -15.83594,0 -316.55859,0 z m 12.72851,22.04492 303.83008,0 15.83594,0 303.8301,0 110.8183,191.94141 -119.01168,-92.02148 c -1.44658,-1.27614 -3.45115,-2.09199 -5.48633,-2.5293 -0.004,-0.002 -0.0234,-0.0182 -0.0234,-0.0215 -0.22742,-0.0483 -0.36779,-0.26599 -0.59766,-0.30078 -0.30567,-0.0417 -0.54108,-0.0754 -0.50195,-0.0644 l -0.0977,-0.0234 c -0.0245,-0.003 -0.0478,0.003 -0.0723,0 -0.0122,-0.002 -0.0366,0.002 -0.0488,0 -0.14306,-0.0285 -0.0974,-0.0662 -0.26367,-0.0859 l -0.40625,-0.041 -0.16406,0 c 0.0122,-0.0106 -0.20253,-0.0234 -0.86524,-0.0234 l -0.0742,0 -164.70703,3.62305 c -0.0611,0 -0.0619,0.0212 -0.12304,0.0234 -1.94349,0 -2.01173,0.041 -0.21485,0.041 l -0.14453,0 c -0.0245,0.002 -0.0478,-0.002 -0.0723,0 -0.12349,0.0154 -0.18684,0.0243 -0.28711,0.043 -0.0245,0.002 -0.0498,0.0212 -0.0742,0.0234 -2.01954,0.16788 -3.92624,0.86254 -5.58985,1.90625 -0.0367,0.0208 -0.0356,0.0221 -0.0723,0.043 -0.12227,0.0757 -0.2901,0.0483 -0.40625,0.1289 l -0.28516,0.19336 -0.19141,0.16993 c -0.0245,0.011 -0.14453,0.0859 -0.14453,0.0859 l 0.14453,-0.12695 -0.0488,0.0215 -122.74805,87.4375 -123.29688,-87.8457 -0.1914,-0.10742 c -0.006,-0.004 -0.5842,-0.25566 -1.04883,-0.44922 0.15406,0.0889 0.37852,0.22966 0.76367,0.44922 -1.65553,-1.03087 -3.52869,-1.72462 -5.46875,-1.90625 -0.22987,-0.0483 -0.37852,-0.064 -0.76367,-0.0859 0.0856,0.007 0.33743,0.0144 0.62109,0.043 l 0.28516,0.0215 c 0.58078,0.0746 0.51368,0.0536 -0.23828,-0.043 l -0.38281,-0.043 -0.35938,0 c -0.002,-2.2e-4 -0.0488,0 -0.0488,0 -0.0611,-0.002 -0.0477,-0.0215 -0.12109,-0.0215 l -164.70703,-3.62109 -0.0742,0 -0.0254,-0.0117 0.008,-0.01 c -1.77243,0 -1.88425,0.043 -0.33203,0.043 0.0245,0.003 0.0732,0.019 0.0977,0.0234 -0.27022,0.0439 -2.16054,0.37362 -2.60352,0.44922 -0.12227,0.0527 -0.54243,0.13547 -0.57422,0.15039 -0.0367,0.0176 0.339,-0.0954 0.40625,-0.12891 0.0245,-0.0143 0.12273,-0.0447 0.16797,-0.0644 0.20297,-0.0878 0.25258,-0.13757 0.76367,-0.23633 -0.2372,0.0373 -0.47857,0.0768 -0.74023,0.12891 l -0.14258,0.0215 -0.12305,0.043 c -1.18357,0.28957 -2.36877,0.74974 -3.41601,1.34961 0.0734,-0.0395 -0.21097,0.1241 -0.19141,0.10742 -0.0734,0.0329 -0.23706,0.10633 -0.23828,0.10742 -7.3e-4,4.2e-4 -0.11001,0.0735 -0.16992,0.11524 -0.0611,0.0296 -0.18475,0.10099 -0.52344,0.35742 -0.21519,0.14824 -0.42133,0.27666 -0.45312,0.29883 -0.003,0.002 -0.0488,0.0223 -0.0488,0.0234 l -119.34571,92.27148 110.7793,-191.87305 z m 72.44922,119.10157 99.41602,2.16601 10.81836,43.86719 -110.23438,-46.0332 z m 478.52539,0 -110.21094,46.05468 10.81836,-43.86718 99.39258,-2.1875 z m -506.99023,11.29492 137.95898,57.66992 -4.91992,6.66406 -51.36719,69.47852 -81.67187,-133.8125 z m 535.43359,0.0234 -81.65039,133.77148 -56.26172,-76.12305 137.91211,-57.64843 z m -560.67578,2.44336 86.44922,141.61328 -115.32227,2.76562 -29.56445,0.70703 46.04297,-114.31054 12.39453,-30.77539 z m 585.94141,0 58.43552,145.06445 -15.0449,-0.36524 -129.83984,-3.08593 86.44922,-141.61328 z m -404.78126,4.75781 87.47461,62.3418 -38.58984,11.3789 -38.85547,-33.0664 -10.0293,-40.6543 z m 223.6211,0.0215 -5.70899,23.14649 -4.29687,17.48633 -38.87891,33.06835 -38.59179,-11.38085 87.47656,-62.32032 z m -433.19922,3.85742 -52.44336,130.2129 -61.18164,-42.36719 113.625,-87.84571 z m 642.7773,0 113.625,87.84571 -61.1836,42.36719 -52.4414,-130.2129 z m -210.98824,58.42188 58.29297,78.86328 -145.33789,42.00586 52.08398,-91.08203 34.96094,-29.78711 z m -220.80273,0.043 34.98633,29.76562 52.06054,91.06055 -145.3164,-42.00586 58.26953,-78.82031 z m 122.12695,18.42969 37.49219,11.05859 -37.49219,65.62109 0,-76.67968 z m -23.45117,0.0215 0,76.61523 -37.49219,-65.57812 37.49219,-11.03711 z m 458.89449,29.10352 40.6211,124.14843 -21.4433,-17.40234 -79.7871,-64.76367 60.6093,-41.98242 z m -894.31441,0.0215 60.60937,41.96094 -101.2539,82.16797 40.64453,-124.12891 z M 479.89844,497.1543 377.11523,622.54688 337.7832,500.53906 479.89844,497.1543 Z m 421.35351,0 142.13865,3.38476 -7.666,23.78906 -31.666,98.21876 L 901.25195,497.1543 Z M 503.11133,504.375 662.20508,718.19141 391.5625,640.44141 503.11133,504.375 Z m 374.95312,0.0215 111.52344,136.02344 -270.61719,77.77149 159.09375,-213.79493 z m -346.0332,0.94532 146.81836,42.45508 0,154.8789 L 532.03125,505.3418 Z m 317.08984,0 -146.82031,197.35547 0,-154.90039 146.82031,-42.45508 z m -532.8789,4.13672 43.79883,135.87109 -53.56641,115.55273 -52.60938,-74.14843 -57.02734,-80.36524 60.68164,-49.24805 58.72266,-47.6621 z m 748.66601,0.0215 87.332,70.87109 32.0723,26.03907 -109.6367,154.49414 -45.4688,-98.08789 -8.0722,-17.44532 12.5605,-39.04687 31.2129,-96.82422 z m 119.498,7.33203 129.7012,224.65039 -151.3789,262.19528 -8.2597,14.3028 -152.1094,263.4629 -283.01174,0 150.4707,-122.5996 0.0977,-0.088 0.0977,-0.066 168.57613,-155.9083 0.049,-0.066 c 0.5905,-0.5607 0.3401,-0.3098 0.2851,-0.2988 l 0.1914,-0.2363 c 0.1382,-0.1723 0.5584,-0.646 0.2637,-0.3223 l 0.049,-0.043 0.049,-0.066 c -0.1871,0.2184 0.1738,-0.1994 0.455,-0.5351 0.073,-0.088 0.024,-0.01 0.1231,-0.1289 0.049,-0.066 0.06,-0.034 0.1211,-0.1113 l 0.074,-0.1094 129.7441,-196.04885 0.025,0 c 1.0772,-1.65816 0.8211,-1.6168 0.3321,-0.77148 l 0.049,-0.10938 c 0.1773,-0.30503 0.7512,-1.08955 1.0508,-2.57226 l 0,-0.0215 38.8066,-190.71093 -0.074,0 1.457,-6.64453 0,-0.0449 c 0.3216,-1.58629 0.2214,-3.24889 -0.3105,-4.84375 l -26.9239,-82.26367 z m -987.6269,0.0644 -26.9043,82.17969 c -0.5172,1.58114 -0.61552,3.2365 -0.28906,4.84375 l 0,0.0215 1.36133,6.64257 0.14453,0 0.0254,0.1504 -0.14258,0 38.7832,190.58398 c 0.22865,1.13291 0.55991,1.75977 0.80078,2.16992 0.0978,0.35441 0.28231,0.81088 0.67969,1.38672 l 129.69727,195.9414 0.0977,0.1094 c 0.0245,0.033 0.0244,0.012 0.0488,0.045 l 0.0234,0.043 c 0.0245,0.033 0.0244,0.012 0.0488,0.045 0.41327,0.5344 0.60934,0.7129 0.47851,0.5352 -0.0245,-0.033 0.12435,0.1609 0.0742,0.1093 l 0.18945,0.2364 c 0.0611,0.1097 -0.15415,-0.088 0.35938,0.4277 -0.01,0.022 -0.18925,-0.148 0.28516,0.3008 l 0.0234,0.021 c 0.0611,0.055 -0.048,-0.023 0.0254,0.043 l 0.81055,0.9219 0.2168,0 167.33398,154.7949 0.0488,0.045 c 0.0734,0.066 0.0729,0.044 0.14258,0.1094 0.0245,0.022 0.12304,0.1278 0.12304,0.1289 l 0.0977,0.088 150.51758,122.6231 -283.01758,0 -152.10547,-263.4571 -8.27539,-14.332 L 67.115234,741.48047 196.7793,516.89648 Z m 7.15234,138.63282 85.66016,120.76172 -47.4043,8.59375 -11.50977,2.09961 -26.74609,-131.45508 z m 973.28716,0.0215 -26.7227,131.45899 -15.1641,-2.76758 -43.7968,-7.95117 68.1328,-95.98438 17.5508,-24.75586 z M 392.08789,662.6875 666.3125,741.4668 496.85352,864.45898 482.28711,875.02344 437.0332,768.51172 392.08789,662.6875 Z m 596.97461,0 L 898.88867,875.02344 714.86328,741.4668 929.83789,679.70312 989.0625,662.6875 Z m 20.1309,11.72461 47.0449,101.49414 1.8633,3.98633 -70.94926,45.8418 -58.17382,37.5664 80.21488,-188.88867 z m -637.23637,0.0215 80.24024,188.86914 -63.28516,-40.86914 -65.86328,-42.53906 48.9082,-105.46094 z m 330.34375,84.9961 183,132.80664 -183,129.65627 0,-262.46291 z m -23.45117,0.0215 0,262.43943 -42.31641,-29.96091 -140.6582,-99.69531 178.27148,-129.37696 4.70313,-3.40625 z m -379.60938,36.58008 28.77539,144.05664 -88.21484,-133.27734 59.43945,-10.7793 z m 782.69527,0 59.4395,10.7793 -88.1914,133.23437 28.7519,-144.01367 z m -756.61714,11.23047 133.18359,86.04297 -99.75,81.4375 -19.82226,-99.33203 -13.61133,-68.14844 z m 730.53904,0 -33.4336,167.48047 -99.74997,-81.4375 133.18357,-86.04297 z m -582.85935,102.63086 57.02734,113.96872 34.125,68.1719 -153.69727,-78.416 -39.68945,-20.25197 102.23438,-83.47265 z m 435.15625,0.0215 102.2109,83.47266 -193.36325,98.64448 34.125,-68.1718 57.02735,-113.94534 z m -34.38868,17.31446 -86.61523,173.07418 -74.05469,-53.8554 -3.75,-2.7207 153.57813,-108.82426 10.84179,-7.67382 z M 507.41016,927.25 671.80469,1043.7246 594.00195,1100.3242 507.41016,927.25 Z m -90.82032,113.6895 78.92774,40.289 69.82617,35.6387 -43.77344,21.1953 -104.98047,-97.123 z m 547.99414,0 -104.97851,97.123 -43.79883,-21.2168 148.77734,-75.9062 z m -262.2832,24.7304 68.15625,49.5703 -68.15625,32.4668 0,-82.0371 z m -23.42773,0.024 0,82.0351 -68.1543,-32.4668 68.1543,-49.5683 z m -94.23243,65.748 65.00391,111.6113 -110.16406,-89.7519 45.16015,-21.8594 z m 211.8711,0 45.18164,21.8594 -110.23438,89.7949 65.05274,-111.6543 z m -179.0586,10.8438 61.39649,29.2539 0,76.207 -61.39649,-105.4609 z m 146.2461,0 -61.39844,105.4824 0,-76.2285 61.39844,-29.2539 z"
         transform="matrix(0.08178619,0,0,0.09113688,-452.11091,50.611681)"
         id="path4917"
         inkscape:connector-curvature="0" />
    </g>
    <circle
       style="opacity:1;fill:none;fill-opacity:1;stroke:#ff0000;stroke-width:1.73662305"
       id="path4993-0"
       cx="300.1008"
       cy="73.538628"
       r="19.505699" />
    <circle
       style="opacity:1;fill:none;fill-opacity:1;stroke:#ff0000;stroke-width:1.73662305"
       id="path4993-1"
       cx="250.62183"
       cy="143.45459"
       r="19.505699" />
    <circle
       style="opacity:1;fill:none;fill-opacity:1;stroke:#ff0000;stroke-width:1.73662305"
       id="path4993-2"
       cx="274.28568"
       cy="265.00079"
       r="19.505699" />
    <circle
       style="opacity:1;fill:none;fill-opacity:1;stroke:#ff0000;stroke-width:1.73662305"
       id="path4993-4"
       cx="247.39493"
       cy="404.83267"
       r="19.505699" />
    <circle
       style="opacity:1;fill:none;fill-opacity:1;stroke:#ff0000;stroke-width:1.73662305"
       id="path4993-8"
       cx="276.43695"
       cy="466.14362"
       r="19.505699" />
    <circle
       style="opacity:1;fill:none;fill-opacity:1;stroke:#ff0000;stroke-width:1.73662305"
       id="path4993-7"
       cx="368.94113"
       cy="532.8327"
       r="19.505699" />
    <circle
       style="opacity:1;fill:none;fill-opacity:1;stroke:#ff0000;stroke-width:1.73662305"
       id="path4993-9"
       cx="362.48734"
       cy="406.98395"
       r="19.505699" />
    <circle
       style="opacity:1;fill:none;fill-opacity:1;stroke:#ff0000;stroke-width:1.73662305"
       id="path4993-01"
       cx="494.78986"
       cy="400.53018"
       r="19.505699" />
    <circle
       style="opacity:1;fill:none;fill-opacity:1;stroke:#ff0000;stroke-width:1.73662305"
       id="path4993-3"
       cx="496.9411"
       cy="277.90836"
       r="19.505699" />
    <circle
       style="opacity:1;fill:none;fill-opacity:1;stroke:#ff0000;stroke-width:1.73662305"
       id="path4993-13"
       cx="390.45374"
       cy="182.17728"
       r="19.505699" />
    <circle
       style="opacity:1;fill:none;fill-opacity:1;stroke:#ff0000;stroke-width:1.73662305"
       id="path4993-44"
       cx="397.98315"
       cy="77.841141"
       r="19.505699" />
    <circle
       style="opacity:1;fill:none;fill-opacity:1;stroke:#ff0000;stroke-width:1.73662305"
       id="path4993-96"
       cx="493.71423"
       cy="52.026024"
       r="19.505699" />
    <circle
       style="opacity:1;fill:none;fill-opacity:1;stroke:#ff0000;stroke-width:1.73662305"
       id="path4993-6"
       cx="574.38647"
       cy="106.88316"
       r="19.505699" />
    <circle
       style="opacity:1;fill:none;fill-opacity:1;stroke:#ff0000;stroke-width:1.73662305"
       id="path4993-89"
       cx="615.26044"
       cy="234.88315"
       r="19.505699" />
    <circle
       style="opacity:1;fill:none;fill-opacity:1;stroke:#ff0000;stroke-width:1.73662305"
       id="path4993-69"
       cx="731.42847"
       cy="219.82433"
       r="19.505699" />
    <circle
       style="opacity:1;fill:none;fill-opacity:1;stroke:#ff0000;stroke-width:1.73662305"
       id="path4993-29"
       cx="787.36127"
       cy="109.03442"
       r="19.505699" />
    <circle
       style="opacity:1;fill:none;fill-opacity:1;stroke:#ff0000;stroke-width:1.73662305"
       id="path4993-91"
       cx="860.50409"
       cy="50.950394"
       r="19.505699" />
    <circle
       style="opacity:1;fill:none;fill-opacity:1;stroke:#ff0000;stroke-width:1.73662305"
       id="path4993-76"
       cx="959.46204"
       cy="87.52182"
       r="19.505699" />
    <circle
       style="opacity:1;fill:none;fill-opacity:1;stroke:#ff0000;stroke-width:1.73662305"
       id="path4993-09"
       cx="1054.1176"
       cy="72.462997"
       r="19.505699" />
    <circle
       style="opacity:1;fill:none;fill-opacity:1;stroke:#ff0000;stroke-width:1.73662305"
       id="path4993-17"
       cx="1102.5209"
       cy="142.37895"
       r="19.505699" />
    <circle
       style="opacity:1;fill:none;fill-opacity:1;stroke:#ff0000;stroke-width:1.73662305"
       id="path4993-292"
       cx="1082.084"
       cy="262.84952"
       r="19.505699" />
    <circle
       style="opacity:1;fill:none;fill-opacity:1;stroke:#ff0000;stroke-width:1.73662305"
       id="path4993-03"
       cx="962.68896"
       cy="187.55542"
       r="19.505699" />
    <circle
       style="opacity:1;fill:none;fill-opacity:1;stroke:#ff0000;stroke-width:1.73662305"
       id="path4993-42"
       cx="861.57971"
       cy="262.84952"
       r="19.505699" />
    <circle
       style="opacity:1;fill:none;fill-opacity:1;stroke:#ff0000;stroke-width:1.73662305"
       id="path4993-83"
       cx="843.29401"
       cy="406.98395"
       r="19.505699" />
    <circle
       style="opacity:1;fill:none;fill-opacity:1;stroke:#ff0000;stroke-width:1.73662305"
       id="path4993-05"
       cx="993.88226"
       cy="410.21085"
       r="19.505699" />
    <circle
       style="opacity:1;fill:none;fill-opacity:1;stroke:#ff0000;stroke-width:1.73662305"
       id="path4993-27"
       cx="1114.3529"
       cy="405.90836"
       r="19.505699" />
    <circle
       style="opacity:1;fill:none;fill-opacity:1;stroke:#ff0000;stroke-width:1.73662305"
       id="path4993-94"
       cx="1084.2351"
       cy="467.21924"
       r="19.505699" />
    <circle
       style="opacity:1;fill:none;fill-opacity:1;stroke:#ff0000;stroke-width:1.73662305"
       id="path4993-19"
       cx="982.05029"
       cy="540.36212"
       r="19.505699" />
    <circle
       style="opacity:1;fill:none;fill-opacity:1;stroke:#ff0000;stroke-width:1.73662305"
       id="path4993-82"
       cx="905.68054"
       cy="628.56378"
       r="19.505699" />
    <circle
       style="opacity:1;fill:none;fill-opacity:1;stroke:#ff0000;stroke-width:1.73662305"
       id="path4993-70"
       cx="842.21838"
       cy="752.26123"
       r="19.505699" />
    <circle
       style="opacity:1;fill:none;fill-opacity:1;stroke:#ff0000;stroke-width:1.73662305"
       id="path4993-62"
       cx="761.54608"
       cy="682.34528"
       r="19.505699" />
    <circle
       style="opacity:1;fill:none;fill-opacity:1;stroke:#ff0000;stroke-width:1.73662305"
       id="path4993-95"
       cx="604.50415"
       cy="503.79065"
       r="19.505699" />
    <circle
       style="opacity:1;fill:none;fill-opacity:1;stroke:#ff0000;stroke-width:1.73662305"
       id="path4993-704"
       cx="744.33606"
       cy="518.84949"
       r="19.505699" />
    <circle
       style="opacity:1;fill:none;fill-opacity:1;stroke:#ff0000;stroke-width:1.73662305"
       id="path4993-767"
       cx="592.67218"
       cy="678.04279"
       r="19.505699" />
    <circle
       style="opacity:1;fill:none;fill-opacity:1;stroke:#ff0000;stroke-width:1.73662305"
       id="path4993-051"
       cx="450.68903"
       cy="622.11005"
       r="19.505699" />
    <circle
       style="opacity:1;fill:none;fill-opacity:1;stroke:#ff0000;stroke-width:1.73662305"
       id="path4993-43"
       cx="643.22681"
       cy="750.10999"
       r="19.505699" />
    <circle
       style="opacity:1;fill:none;fill-opacity:1;stroke:#ff0000;stroke-width:1.73662305"
       id="path4993-22"
       cx="713.14282"
       cy="750.10999"
       r="19.505699" />
    <circle
       style="opacity:1;fill:none;fill-opacity:1;stroke:#ff0000;stroke-width:1.73662305"
       id="path4993-81"
       cx="740.03351"
       cy="823.25281"
       r="19.505699" />
    <circle
       style="opacity:1;fill:none;fill-opacity:1;stroke:#ff0000;stroke-width:1.73662305"
       id="path4993-628"
       cx="619.56293"
       cy="825.40411"
       r="19.505699" />
    <circle
       style="opacity:1;fill:none;fill-opacity:1;stroke:#ff0000;stroke-width:1.73662305"
       id="path4993-97"
       cx="419.49573"
       cy="843.68976"
       r="19.505699" />
    <circle
       style="opacity:1;fill:none;fill-opacity:1;stroke:#ff0000;stroke-width:1.73662305"
       id="path4993-06"
       cx="146.28569"
       cy="385.77356"
       r="19.505699" />
    <ellipse
       style="opacity:1;fill:none;fill-opacity:1;stroke:#ff0000;stroke-width:1.69013202"
       id="path4993-5"
       cx="920.73938"
       cy="836.1604"
       rx="19.528944"
       ry="18.453314" />
    <circle
       style="opacity:1;fill:none;fill-opacity:1;stroke:#ff0000;stroke-width:1.73662305"
       id="path4993-34"
       cx="1202.5544"
       cy="385.77356"
       r="19.505699" />
    <circle
       style="opacity:1;fill:none;fill-opacity:1;stroke:#ff0000;stroke-width:1.73662305"
       id="path4993-37"
       cx="679.92798"
       cy="-68.44455"
       r="19.505699" />
    <circle
       style="opacity:1;fill:none;fill-opacity:1;stroke:#ff0000;stroke-width:1.73662305"
       id="path4993-767-2"
       cx="517.37805"
       cy="753.33685"
       r="19.505697" />
    <circle
       style="opacity:1;fill:none;fill-opacity:1;stroke:#ff0000;stroke-width:1.73662305"
       id="path4993-767-4"
       cx="678.44214"
       cy="94.02449"
       r="19.505697" />
    <circle
       style="opacity:1;fill:none;fill-opacity:1;stroke:#ff0000;stroke-width:1.73662305"
       id="path4993-767-1"
       cx="803.1781"
       cy="-3.3304343"
       r="19.505697" />
    <circle
       style="opacity:1;fill:none;fill-opacity:1;stroke:#ff0000;stroke-width:1.73662305"
       id="path4993-767-13"
       cx="553.70612"
       cy="-4.8516054"
       r="19.505697" />
  </g>
</svg>
