0
SECTION
2
HEADER
9
$INSUNITS
70
5
9
$ACADVER
1
AC1014
9
$HANDSEED
5
FFFF
0
ENDSEC
0
SECTION
2
TABLES
0
TABLE
2
VPORT
5
8
100
AcDbSymbolTable
0
ENDTAB
0
TABLE
2
LTYPE
5
5
100
AcDbSymbolTable
0
LTYPE
5
14
100
AcDbSymbolTableRecord
100
AcDbLinetypeTableRecord
2
BYBLOCK
70
0
0
LTYPE
5
15
100
AcDbSymbolTableRecord
100
AcDbLinetypeTableRecord
2
BYLAYER
70
0
0
ENDTAB
0
TABLE
2
LAYER
5
2
100
AcDbSymbolTable
70
2
0
LAYER
5
50
100
AcDbSymbolTableRecord
100
AcDbLayerTableRecord
2
0
70
0
6
CONTINUOUS
0
ENDTAB
0
TABLE
2
STYLE
5
3
100
AcDbSymbolTable
70
1
0
STYLE
5
11
100
AcDbSymbolTableRecord
100
AcDbTextStyleTableRecord
2
STANDARD
70
0
0
ENDTAB
0
TABLE
2
VIEW
5
6
100
AcDbSymbolTable
70
0
0
ENDTAB
0
TABLE
2
UCS
5
7
100
AcDbSymbolTable
70
0
0
ENDTAB
0
TABLE
2
APPID
5
9
100
AcDbSymbolTable
70
2
0
APPID
5
12
100
AcDbSymbolTableRecord
100
AcDbRegAppTableRecord
2
ACAD
70
0
0
ENDTAB
0
TABLE
2
DIMSTYLE
5
A
100
AcDbSymbolTable
70
1
0
ENDTAB
0
TABLE
2
BLOCK_RECORD
5
1
100
AcDbSymbolTable
70
1
0
BLOCK_RECORD
5
1F
100
AcDbSymbolTableRecord
100
AcDbBlockTableRecord
2
*MODEL_SPACE
0
BLOCK_RECORD
5
1B
100
AcDbSymbolTableRecord
100
AcDbBlockTableRecord
2
*PAPER_SPACE
0
ENDTAB
0
ENDSEC
0
SECTION
2
BLOCKS
0
BLOCK
5
20
100
AcDbEntity
100
AcDbBlockBegin
2
*MODEL_SPACE
0
ENDBLK
5
21
100
AcDbEntity
100
AcDbBlockEnd
0
BLOCK
5
1C
100
AcDbEntity
100
AcDbBlockBegin
2
*PAPER_SPACE
0
ENDBLK
5
1D
100
AcDbEntity
100
AcDbBlockEnd
0
ENDSEC
0
SECTION
2
ENTITIES
0
LWPOLYLINE
5
100
100
AcDbEntity
8
0
100
AcDbPolyline
90
7
70
1
43
0.0
10
-4.9999999999999991
20
-7.9936057773011271e-15
10
-2.4999999999999973
20
-1.4433756729740677
10
-2.4999999999999933
20
-4.3301270189221963
10
-4.9999999999999867
20
-5.7735026918962591
10
-7.4999999999999876
20
-4.3301270189222016
10
-7.4999999999999929
20
-1.4433756729740761
10
-7.4999999999999893
20
1.443375672974045
0
LINE
5
101
100
AcDbEntity
8
0
100
AcDbLine
10
-4.9999999999999991
20
-7.9936057773011271e-15
30
0
11
-2.5000000000000022
21
1.443375672974061
31
0
0
LINE
5
102
100
AcDbEntity
8
0
100
AcDbLine
10
-2.4999999999999933
20
-4.3301270189221963
30
0
11
-2.4999999999999982
21
-1.4433756729740681
31
0
0
LINE
5
103
100
AcDbEntity
8
0
100
AcDbLine
10
3.9968028886505635e-15
20
-2.8867513459481282
30
0
11
-2.4999999999999933
21
-4.3301270189221963
31
0
0
LINE
5
104
100
AcDbEntity
8
0
100
AcDbLine
10
2.5000000000000049
20
-4.3301270189221892
30
0
11
3.9968028886505635e-15
21
-2.8867513459481282
31
0
0
LINE
5
105
100
AcDbEntity
8
0
100
AcDbLine
10
2.5000000000000009
20
-1.443375672974061
30
0
11
2.5000000000000049
21
-4.3301270189221892
31
0
0
LINE
5
106
100
AcDbEntity
8
0
100
AcDbLine
10
4.9999999999999991
20
7.1054273576010019e-15
30
0
11
2.5000000000000027
21
-1.443375672974061
31
0
0
LINE
5
107
100
AcDbEntity
8
0
100
AcDbLine
10
2.4999999999999978
20
1.4433756729740672
30
0
11
4.9999999999999991
21
7.1054273576010019e-15
31
0
0
LINE
5
108
100
AcDbEntity
8
0
100
AcDbLine
10
2.4999999999999951
20
4.3301270189221954
30
0
11
2.4999999999999987
21
1.4433756729740672
31
0
0
LINE
5
109
100
AcDbEntity
8
0
100
AcDbLine
10
-2.6645352591003757e-15
20
2.8867513459481282
30
0
11
2.4999999999999951
21
4.3301270189221954
31
0
0
LINE
5
110
100
AcDbEntity
8
0
100
AcDbLine
10
-2.5000000000000027
20
4.330127018922191
30
0
11
-2.2204460492503131e-15
21
2.8867513459481291
31
0
0
LINE
5
111
100
AcDbEntity
8
0
100
AcDbLine
10
-2.5
20
1.4433756729740628
30
0
11
-2.5000000000000027
21
4.330127018922191
31
0
0
LINE
5
112
100
AcDbEntity
8
0
100
AcDbLine
10
-2.4999999999999973
20
-1.4433756729740677
30
0
11
-4.9999999999999991
21
-7.9936057773011271e-15
31
0
0
LWPOLYLINE
5
113
100
AcDbEntity
8
0
100
AcDbPolyline
90
7
70
1
43
0.0
10
-4.9999999999999787
20
-5.7735026918962573
10
-2.4999999999999933
20
-4.3301270189221963
10
3.5527136788005009e-15
20
-2.8867513459481282
10
2.5000000000000053
20
-4.3301270189221892
10
2.5000000000000062
20
-7.2168783648703112
10
1.3322676295501878e-14
20
-8.660254037844382
10
-2.4999999999999885
20
-7.2168783648703219
0
LWPOLYLINE
5
114
100
AcDbEntity
8
0
100
AcDbPolyline
90
7
70
1
43
0.0
10
2.5000000000000089
20
-7.2168783648703032
10
2.5000000000000058
20
-4.3301270189221892
10
2.5000000000000009
20
-1.443375672974061
10
4.9999999999999991
20
6.2172489379008766e-15
10
7.4999999999999947
20
-1.4433756729740548
10
7.4999999999999991
20
-4.3301270189221786
10
5.0000000000000044
20
-5.7735026918962475
0
LWPOLYLINE
5
115
100
AcDbEntity
8
0
100
AcDbPolyline
90
7
70
1
43
0.0
10
7.4999999999999902
20
-1.4433756729740468
10
5
20
6.2172489379008766e-15
10
2.4999999999999973
20
1.4433756729740672
10
2.4999999999999938
20
4.3301270189221954
10
4.9999999999999876
20
5.7735026918962582
10
7.4999999999999876
20
4.3301270189222016
10
7.4999999999999929
20
1.4433756729740734
0
LWPOLYLINE
5
116
100
AcDbEntity
8
0
100
AcDbPolyline
90
7
70
1
43
0.0
10
4.9999999999999805
20
5.7735026918962555
10
2.4999999999999956
20
4.3301270189221954
10
-2.6645352591003757e-15
20
2.8867513459481278
10
-2.5000000000000036
20
4.330127018922191
10
-2.5000000000000027
20
7.2168783648703112
10
-8.8817841970012523e-15
20
8.660254037844382
10
2.4999999999999911
20
7.2168783648703192
0
LINE
5
117
100
AcDbEntity
8
0
100
AcDbLine
10
-2.5000000000000031
20
4.330127018922191
30
0
11
-2.5000000000000053
21
7.2168783648703059
31
0
0
LINE
5
118
100
AcDbEntity
8
0
100
AcDbLine
10
-2.5000000000000053
20
7.2168783648703059
30
0
11
-5.0000000000000009
21
5.7735026918962502
31
0
0
LINE
5
119
100
AcDbEntity
8
0
100
AcDbLine
10
-5.0000000000000009
20
5.7735026918962502
30
0
11
-7.5
21
4.3301270189221839
31
0
0
LINE
5
120
100
AcDbEntity
8
0
100
AcDbLine
10
-7.5
20
4.3301270189221839
30
0
11
-7.4999999999999929
21
1.4433756729740583
31
0
0
LINE
5
121
100
AcDbEntity
8
0
100
AcDbLine
10
-7.4999999999999929
20
1.4433756729740583
30
0
11
-5
21
-2.6645352591003757e-15
31
0
0
LINE
5
122
100
AcDbEntity
8
0
100
AcDbLine
10
-5
20
-2.6645352591003757e-15
30
0
11
-2.5
21
1.4433756729740628
31
0
0
LINE
5
123
100
AcDbEntity
8
0
100
AcDbLine
10
-2.5
20
1.4433756729740628
30
0
11
-2.5000000000000031
21
4.330127018922191
31
0
0
LINE
5
124
100
AcDbEntity
8
0
100
AcDbLine
10
-4.9801180817927442
20
5.7849815227252126
30
0
11
-2.5198819182072651
21
7.205399534041347
31
0
0
LWPOLYLINE
5
125
100
AcDbEntity
8
0
100
AcDbPolyline
90
6
70
1
43
0.0
10
-7.1054273576010019e-15
20
-17.320508075688771
10
-15.000000000000002
20
-8.660254037844382
10
-14.999999999999993
20
8.6602540378443962
10
1.0658141036401503e-14
20
17.320508075688771
10
15.000000000000004
20
8.6602540378443784
10
14.999999999999995
20
-8.6602540378443926
0
LINE
5
126
100
AcDbEntity
8
0
100
AcDbLine
10
-7.5000001490116119
20
1.4433756729740643
30
0
11
-10.000000149011612
21
2.8867513459481287
31
0
0
LINE
5
127
100
AcDbEntity
8
0
100
AcDbLine
10
-10.000000149011612
20
2.8867513459481287
30
0
11
-12.500000149011612
21
1.4433756729740645
31
0
0
LINE
5
128
100
AcDbEntity
8
0
100
AcDbLine
10
-12.500000149011612
20
-1.4433756729740641
30
0
11
-10.000000149011612
21
-2.8867513459481287
31
0
0
LINE
5
129
100
AcDbEntity
8
0
100
AcDbLine
10
-10.000000149011612
20
-2.8867513459481287
30
0
11
-7.5000001490116119
21
-1.4433756729740645
31
0
0
LINE
5
130
100
AcDbEntity
8
0
100
AcDbLine
10
-7.5000001490116119
20
-1.4433756729740645
30
0
11
-7.5000001490116119
21
1.4433756729740643
31
0
0
LINE
5
131
100
AcDbEntity
8
0
100
AcDbLine
10
-12.500000149011612
20
-1.4433756729740641
30
0
11
-14.999999999999996
21
7.1054273576010019e-15
31
0
0
LINE
5
132
100
AcDbEntity
8
0
100
AcDbLine
10
-12.500000149011612
20
1.4433756729740645
30
0
11
-14.999999999999996
21
7.1054273576010019e-15
31
0
0
LINE
5
133
100
AcDbEntity
8
0
100
AcDbLine
10
-4.9999999999999787
20
-5.7735026918962573
30
0
11
-2.4999999999999876
21
-7.216878364870321
31
0
0
LINE
5
134
100
AcDbEntity
8
0
100
AcDbLine
10
-2.5000000745058073
20
-10.103629839866294
30
0
11
-2.5000000745058069
21
-7.2168784939181636
31
0
0
LINE
5
135
100
AcDbEntity
8
0
100
AcDbLine
10
-5.0000000745058069
20
-5.7735028209440991
30
0
11
-7.500000074505806
21
-7.2168784939181636
31
0
0
LINE
5
136
100
AcDbEntity
8
0
100
AcDbLine
10
-7.500000074505806
20
-7.2168784939181636
30
0
11
-7.5000000745058077
21
-10.103629839866292
31
0
0
LINE
5
137
100
AcDbEntity
8
0
100
AcDbLine
10
-7.5000000745058077
20
-10.103629839866292
30
0
11
-7.5000000000000062
21
-12.990381056766573
31
0
0
LINE
5
138
100
AcDbEntity
8
0
100
AcDbLine
10
-5.0000000745058077
20
-11.547005512840355
30
0
11
-2.5000000745058073
21
-10.103629839866294
31
0
0
LINE
5
139
100
AcDbEntity
8
0
100
AcDbLine
10
-5.0000000745058077
20
-11.547005512840355
30
0
11
-7.5000000000000062
21
-12.990381056766573
31
0
0
LINE
5
140
100
AcDbEntity
8
0
100
AcDbLine
10
2.5000000000000098
20
-7.2168783648703041
30
0
11
5.0000000000000053
21
-5.7735026918962467
31
0
0
LINE
5
141
100
AcDbEntity
8
0
100
AcDbLine
10
7.5000000745058042
20
-7.2168784939181663
30
0
11
5.0000000745058042
21
-5.7735028209441008
31
0
0
LINE
5
142
100
AcDbEntity
8
0
100
AcDbLine
10
2.5000000745058042
20
-7.2168784939181645
30
0
11
2.5000000745058029
21
-10.103629839866294
31
0
0
LINE
5
143
100
AcDbEntity
8
0
100
AcDbLine
10
2.5000000745058029
20
-10.103629839866294
30
0
11
5.0000000745058024
21
-11.547005512840359
31
0
0
LINE
5
144
100
AcDbEntity
8
0
100
AcDbLine
10
5.0000000745058024
20
-11.547005512840359
30
0
11
7.4999999999999885
21
-12.990381056766584
31
0
0
LINE
5
145
100
AcDbEntity
8
0
100
AcDbLine
10
7.5000000745058033
20
-10.103629839866295
30
0
11
7.5000000745058042
21
-7.2168784939181663
31
0
0
LINE
5
146
100
AcDbEntity
8
0
100
AcDbLine
10
7.5000000745058033
20
-10.103629839866295
30
0
11
7.4999999999999885
21
-12.990381056766584
31
0
0
LINE
5
147
100
AcDbEntity
8
0
100
AcDbLine
10
7.4999999999999893
20
-1.4433756729740459
30
0
11
7.4999999999999929
21
1.4433756729740752
31
0
0
LINE
5
148
100
AcDbEntity
8
0
100
AcDbLine
10
10.000000149011612
20
2.8867513459481273
30
0
11
7.5000001490116119
21
1.4433756729740637
31
0
0
LINE
5
149
100
AcDbEntity
8
0
100
AcDbLine
10
7.5000001490116119
20
-1.4433756729740652
30
0
11
10.000000149011612
21
-2.88675134594813
31
0
0
LINE
5
150
100
AcDbEntity
8
0
100
AcDbLine
10
10.000000149011612
20
-2.88675134594813
30
0
11
12.500000149011612
21
-1.4433756729740661
31
0
0
LINE
5
151
100
AcDbEntity
8
0
100
AcDbLine
10
12.500000149011612
20
-1.4433756729740661
30
0
11
14.999999999999996
21
-8.9423975563220307e-15
31
0
0
LINE
5
152
100
AcDbEntity
8
0
100
AcDbLine
10
12.500000149011612
20
1.4433756729740626
30
0
11
10.000000149011612
21
2.8867513459481273
31
0
0
LINE
5
153
100
AcDbEntity
8
0
100
AcDbLine
10
12.500000149011612
20
1.4433756729740626
30
0
11
14.999999999999996
21
-8.9423975563220307e-15
31
0
0
LINE
5
154
100
AcDbEntity
8
0
100
AcDbLine
10
4.9999999999999796
20
5.7735026918962555
30
0
11
2.4999999999999885
21
7.2168783648703201
31
0
0
LINE
5
155
100
AcDbEntity
8
0
100
AcDbLine
10
2.5000000745058095
20
10.10362983986629
30
0
11
2.5000000745058077
21
7.2168784939181618
31
0
0
LINE
5
156
100
AcDbEntity
8
0
100
AcDbLine
10
5.0000000745058077
20
5.7735028209440964
30
0
11
7.5000000745058077
21
7.2168784939181592
31
0
0
LINE
5
157
100
AcDbEntity
8
0
100
AcDbLine
10
7.5000000745058077
20
7.2168784939181592
30
0
11
7.5000000745058086
21
10.10362983986629
31
0
0
LINE
5
158
100
AcDbEntity
8
0
100
AcDbLine
10
7.5000000745058086
20
10.10362983986629
30
0
11
7.500000000000008
21
12.990381056766569
31
0
0
LINE
5
159
100
AcDbEntity
8
0
100
AcDbLine
10
5.0000000745058095
20
11.547005512840354
30
0
11
2.5000000745058095
21
10.10362983986629
31
0
0
LINE
5
160
100
AcDbEntity
8
0
100
AcDbLine
10
5.0000000745058095
20
11.547005512840354
30
0
11
7.500000000000008
21
12.990381056766569
31
0
0
LINE
5
161
100
AcDbEntity
8
0
100
AcDbLine
10
-2.5000000000000062
20
7.216878364870305
30
0
11
-5.0000000000000018
21
5.7735026918962493
31
0
0
LINE
5
162
100
AcDbEntity
8
0
100
AcDbLine
10
-7.5000000745057998
20
7.2168784939181698
30
0
11
-5.0000000745058015
21
5.7735028209441035
31
0
0
LINE
5
163
100
AcDbEntity
8
0
100
AcDbLine
10
-2.5000000745058006
20
7.2168784939181654
30
0
11
-2.500000074505798
21
10.103629839866294
31
0
0
LINE
5
164
100
AcDbEntity
8
0
100
AcDbLine
10
-2.500000074505798
20
10.103629839866294
30
0
11
-5.0000000745057971
21
11.547005512840361
31
0
0
LINE
5
165
100
AcDbEntity
8
0
100
AcDbLine
10
-5.0000000745057971
20
11.547005512840361
30
0
11
-7.4999999999999822
21
12.990381056766585
31
0
0
LINE
5
166
100
AcDbEntity
8
0
100
AcDbLine
10
-7.500000074505798
20
10.103629839866297
30
0
11
-7.5000000745057998
21
7.2168784939181698
31
0
0
LINE
5
167
100
AcDbEntity
8
0
100
AcDbLine
10
-7.500000074505798
20
10.103629839866297
30
0
11
-7.4999999999999822
21
12.990381056766585
31
0
0
LINE
5
168
100
AcDbEntity
8
0
100
AcDbLine
10
-10.000000149011612
20
2.8867513459481287
30
0
11
-10.000000149011617
21
5.7735027779281491
31
0
0
LINE
5
169
100
AcDbEntity
8
0
100
AcDbLine
10
-10.000000149011617
20
5.7735027779281491
30
0
11
-7.5
21
4.3301270189221839
31
0
0
LINE
5
170
100
AcDbEntity
8
0
100
AcDbLine
10
-7.4999999999999982
20
7.2168785369341091
30
0
11
-4.9999999999999973
21
5.7735028639600516
31
0
0
LINE
5
171
100
AcDbEntity
8
0
100
AcDbLine
10
-5.0000000745058122
20
5.7735027349122063
30
0
11
-7.5000000745058113
21
4.3301270619381418
31
0
0
LINE
5
172
100
AcDbEntity
8
0
100
AcDbLine
10
-10.000000149011614
20
8.6602542959400743
30
0
11
-7.500000149011619
21
10.103629968914142
31
0
0
LINE
5
173
100
AcDbEntity
8
0
100
AcDbLine
10
-7.5000000745058149
20
10.103629839866292
30
0
11
-7.5000000745058166
21
7.2168784939181627
31
0
0
LINE
5
174
100
AcDbEntity
8
0
100
AcDbLine
10
-12.500000298023235
20
7.2168785369341135
30
0
11
-12.500000298023242
21
10.103629882882238
31
0
0
LINE
5
175
100
AcDbEntity
8
0
100
AcDbLine
10
-12.500000149011623
20
10.103629882882233
30
0
11
-10.000000149011623
21
8.6602542099081674
31
0
0
LINE
5
176
100
AcDbEntity
8
0
100
AcDbLine
10
-12.500000298023238
20
4.3301270189221901
30
0
11
-15.000000298023238
21
5.7735026918962475
31
0
0
LINE
5
177
100
AcDbEntity
8
0
100
AcDbLine
10
-15.000000223517423
20
5.7735028209440911
30
0
11
-12.500000223517423
21
7.2168784939181538
31
0
0
LINE
5
178
100
AcDbEntity
8
0
100
AcDbLine
10
-10.000000149011624
20
2.8867512599162239
30
0
11
-12.500000149011619
21
1.4433755869421567
31
0
0
LINE
5
179
100
AcDbEntity
8
0
100
AcDbLine
10
-12.500000223517423
20
1.4433757159900074
30
0
11
-12.500000223517421
21
4.3301270619381356
31
0
0
LINE
5
180
100
AcDbEntity
8
0
100
AcDbLine
10
-7.5000001490116128
20
-10.103629882882245
30
0
11
-10.000000149011612
21
-8.6602542099081798
31
0
0
LINE
5
181
100
AcDbEntity
8
0
100
AcDbLine
10
-10.000000149011617
20
-8.6602542959400814
30
0
11
-12.500000149011612
21
-10.10362996891415
31
0
0
LINE
5
182
100
AcDbEntity
8
0
100
AcDbLine
10
-12.500000223517414
20
-10.103629839866299
30
0
11
-12.500000223517414
21
-7.2168784939181716
31
0
0
LINE
5
183
100
AcDbEntity
8
0
100
AcDbLine
10
-12.500000298023233
20
-7.216878536934118
30
0
11
-15.000000298023233
21
-5.7735028639600605
31
0
0
LINE
5
184
100
AcDbEntity
8
0
100
AcDbLine
10
-15.00000022351742
20
-5.7735027349122152
30
0
11
-12.500000223517418
21
-4.3301270619381524
31
0
0
LINE
5
185
100
AcDbEntity
8
0
100
AcDbLine
10
-12.500000298023229
20
-4.3301270189221901
30
0
11
-12.500000298023235
21
-1.4433756729740654
31
0
0
LINE
5
186
100
AcDbEntity
8
0
100
AcDbLine
10
5.0000000745058095
20
-11.547005598872255
30
0
11
2.5000000745058086
21
-12.990381271846317
31
0
0
LINE
5
187
100
AcDbEntity
8
0
100
AcDbLine
10
2.5000001490116182
20
-12.990381314862274
30
0
11
2.5000001490116235
21
-15.8771326608104
31
0
0
LINE
5
188
100
AcDbEntity
8
0
100
AcDbLine
10
2.5000000000000053
20
-15.877132660810393
30
0
11
7.1054273576010019e-15
21
-14.433756987836325
31
0
0
LINE
5
189
100
AcDbEntity
8
0
100
AcDbLine
10
-8.8817841970012523e-16
20
-14.433757073868232
30
0
11
-2.4999999999999938
21
-15.8771327468423
31
0
0
LINE
5
190
100
AcDbEntity
8
0
100
AcDbLine
10
-2.5000000745057998
20
-15.87713261779445
30
0
11
-2.500000074505798
21
-12.990381271846321
31
0
0
LINE
5
191
100
AcDbEntity
8
0
100
AcDbLine
10
-2.5000001490116199
20
-12.990381314862267
30
0
11
-5.000000149011619
21
-11.547005641888207
31
0
0
LINE
5
192
100
AcDbEntity
8
0
100
AcDbLine
10
12.500000223517423
20
-1.4433757159900089
30
0
11
12.500000223517421
21
-4.3301270619381373
31
0
0
LINE
5
193
100
AcDbEntity
8
0
100
AcDbLine
10
12.500000298023238
20
-4.3301270189221919
30
0
11
15.000000298023238
21
-5.7735026918962493
31
0
0
LINE
5
194
100
AcDbEntity
8
0
100
AcDbLine
10
15.000000223517423
20
-5.7735028209440928
30
0
11
12.500000223517423
21
-7.2168784939181556
31
0
0
LINE
5
195
100
AcDbEntity
8
0
100
AcDbLine
10
12.500000298023235
20
-7.2168785369341153
30
0
11
12.50000029802324
21
-10.10362988288224
31
0
0
LINE
5
196
100
AcDbEntity
8
0
100
AcDbLine
10
12.500000149011621
20
-10.103629882882235
30
0
11
10.000000149011621
21
-8.6602542099081692
31
0
0
LINE
5
197
100
AcDbEntity
8
0
100
AcDbLine
10
10.000000149011612
20
-8.6602542959400761
30
0
11
7.5000001490116182
21
-10.103629968914143
31
0
0
LINE
5
198
100
AcDbEntity
8
0
100
AcDbLine
10
7.5000001490116137
20
10.103629882882242
30
0
11
10.000000149011612
21
8.6602542099081745
31
0
0
LINE
5
199
100
AcDbEntity
8
0
100
AcDbLine
10
10.000000149011617
20
8.6602542959400797
30
0
11
12.500000149011612
21
10.103629968914145
31
0
0
LINE
5
200
100
AcDbEntity
8
0
100
AcDbLine
10
12.500000223517414
20
10.103629839866297
30
0
11
12.500000223517413
21
7.2168784939181672
31
0
0
LINE
5
201
100
AcDbEntity
8
0
100
AcDbLine
10
12.500000298023233
20
7.2168785369341126
30
0
11
15.000000298023231
21
5.773502863960057
31
0
0
LINE
5
202
100
AcDbEntity
8
0
100
AcDbLine
10
15.000000223517418
20
5.7735027349122117
30
0
11
12.500000223517418
21
4.3301270619381498
31
0
0
LINE
5
203
100
AcDbEntity
8
0
100
AcDbLine
10
12.500000298023229
20
4.3301270189221874
30
0
11
12.500000298023233
21
1.4433756729740619
31
0
0
LINE
5
204
100
AcDbEntity
8
0
100
AcDbLine
10
-5.0000000745058042
20
11.547005598872257
30
0
11
-2.5000000745058024
21
12.990381271846317
31
0
0
LINE
5
205
100
AcDbEntity
8
0
100
AcDbLine
10
-2.5000001490116119
20
12.990381314862274
30
0
11
-2.5000001490116155
21
15.877132660810402
31
0
0
LINE
5
206
100
AcDbEntity
8
0
100
AcDbLine
10
-2.4999999999999973
20
15.877132660810393
30
0
11
0
21
14.433756987836327
31
0
0
LINE
5
207
100
AcDbEntity
8
0
100
AcDbLine
10
7.9936057773011271e-15
20
14.433757073868232
30
0
11
2.5000000000000027
21
15.877132746842298
31
0
0
LINE
5
208
100
AcDbEntity
8
0
100
AcDbLine
10
2.5000000745058069
20
15.877132617794448
30
0
11
2.5000000745058042
21
12.990381271846319
31
0
0
LINE
5
209
100
AcDbEntity
8
0
100
AcDbLine
10
2.5000001490116261
20
12.990381314862265
30
0
11
5.0000001490116244
21
11.547005641888205
31
0
0
ENDSEC
0
SECTION
2
OBJECTS
0
DICTIONARY
5
C
100
AcDbDictionary
3
ACAD_GROUP
350
D
3
ACAD_MLINESTYLE
350
17
0
DICTIONARY
5
D
100
AcDbDictionary
0
DICTIONARY
5
1A
330
C
100
AcDbDictionary
0
DICTIONARY
5
17
100
AcDbDictionary
0
ENDSEC
0
EOF
