0
SECTION
2
HEADER
9
$INSUNITS
70
4
9
$ACADVER
1
AC1014
9
$HANDSEED
5
FFFF
0
ENDSEC
0
SECTION
2
TABLES
0
TABLE
2
VPORT
5
8
100
AcDbSymbolTable
0
ENDTAB
0
TABLE
2
LTYPE
5
5
100
AcDbSymbolTable
0
LTYPE
5
14
100
AcDbSymbolTableRecord
100
AcDbLinetypeTableRecord
2
BYBLOCK
70
0
0
LTYPE
5
15
100
AcDbSymbolTableRecord
100
AcDbLinetypeTableRecord
2
BYLAYER
70
0
0
ENDTAB
0
TABLE
2
LAYER
5
2
100
AcDbSymbolTable
70
2
0
LAYER
5
50
100
AcDbSymbolTableRecord
100
AcDbLayerTableRecord
2
0
70
0
6
CONTINUOUS
0
ENDTAB
0
TABLE
2
STYLE
5
3
100
AcDbSymbolTable
70
1
0
STYLE
5
11
100
AcDbSymbolTableRecord
100
AcDbTextStyleTableRecord
2
STANDARD
70
0
0
ENDTAB
0
TABLE
2
VIEW
5
6
100
AcDbSymbolTable
70
0
0
ENDTAB
0
TABLE
2
UCS
5
7
100
AcDbSymbolTable
70
0
0
ENDTAB
0
TABLE
2
APPID
5
9
100
AcDbSymbolTable
70
2
0
APPID
5
12
100
AcDbSymbolTableRecord
100
AcDbRegAppTableRecord
2
ACAD
70
0
0
ENDTAB
0
TABLE
2
DIMSTYLE
5
A
100
AcDbSymbolTable
70
1
0
ENDTAB
0
TABLE
2
BLOCK_RECORD
5
1
100
AcDbSymbolTable
70
1
0
BLOCK_RECORD
5
1F
100
AcDbSymbolTableRecord
100
AcDbBlockTableRecord
2
*MODEL_SPACE
0
BLOCK_RECORD
5
1B
100
AcDbSymbolTableRecord
100
AcDbBlockTableRecord
2
*PAPER_SPACE
0
ENDTAB
0
ENDSEC
0
SECTION
2
BLOCKS
0
BLOCK
5
20
100
AcDbEntity
100
AcDbBlockBegin
2
*MODEL_SPACE
0
ENDBLK
5
21
100
AcDbEntity
100
AcDbBlockEnd
0
BLOCK
5
1C
100
AcDbEntity
100
AcDbBlockBegin
2
*PAPER_SPACE
0
ENDBLK
5
1D
100
AcDbEntity
100
AcDbBlockEnd
0
ENDSEC
0
SECTION
2
ENTITIES
0
LINE
5
100
100
AcDbEntity
8
0
100
AcDbLine
10
0
20
28.867513459481287
30
0
11
-25
21
14.433756729740644
31
0
0
LINE
5
101
100
AcDbEntity
8
0
100
AcDbLine
10
-25
20
14.433756729740644
30
0
11
-25
21
-14.43375672974064
31
0
0
LINE
5
102
100
AcDbEntity
8
0
100
AcDbLine
10
-25
20
-14.43375672974064
30
0
11
-3.061616997868383e-15
21
-28.867513459481291
31
0
0
LINE
5
103
100
AcDbEntity
8
0
100
AcDbLine
10
-3.061616997868383e-15
20
-28.867513459481291
30
0
11
24.999999999999996
21
-14.433756729740654
31
0
0
LINE
5
104
100
AcDbEntity
8
0
100
AcDbLine
10
24.999999999999996
20
-14.433756729740654
30
0
11
25.000000000000014
21
14.433756729740622
31
0
0
LINE
5
105
100
AcDbEntity
8
0
100
AcDbLine
10
25.000000000000014
20
14.433756729740622
30
0
11
0
21
28.867513459481287
31
0
0
LINE
5
106
100
AcDbEntity
8
0
100
AcDbLine
10
0
20
71.132486540518713
30
0
11
24.999999999999982
21
85.566243270259363
31
0
0
LINE
5
107
100
AcDbEntity
8
0
100
AcDbLine
10
24.999999999999982
20
85.566243270259363
30
0
11
24.999999999999982
21
114.43375672974065
31
0
0
LINE
5
108
100
AcDbEntity
8
0
100
AcDbLine
10
24.999999999999982
20
114.43375672974065
30
0
11
3.061616997868383e-15
21
128.86751345948127
31
0
0
LINE
5
109
100
AcDbEntity
8
0
100
AcDbLine
10
3.061616997868383e-15
20
128.86751345948127
30
0
11
-25.000000000000018
21
114.43375672974064
31
0
0
LINE
5
110
100
AcDbEntity
8
0
100
AcDbLine
10
-25.000000000000018
20
114.43375672974064
30
0
11
-25.000000000000018
21
85.566243270259378
31
0
0
LINE
5
111
100
AcDbEntity
8
0
100
AcDbLine
10
-25.000000000000018
20
85.566243270259378
30
0
11
0
21
71.132486540518713
31
0
0
LINE
5
112
100
AcDbEntity
8
0
100
AcDbLine
10
0
20
71.132486540518713
30
0
11
0
21
28.867513459481287
31
0
0
LWPOLYLINE
5
113
100
AcDbEntity
8
0
100
AcDbPolyline
90
6
70
1
43
0.0
10
-61.602540378443877
20
64.433756729740637
10
-61.602540378443855
20
35.566243270259363
10
-86.602540378443891
20
21.13248654051872
10
-111.60254037844388
20
35.566243270259349
10
-111.60254037844383
20
64.433756729740651
10
-86.602540378443877
20
78.867513459481287
0
LINE
5
114
100
AcDbEntity
8
0
100
AcDbLine
10
-61.602540378443855
20
35.566243270259363
30
0
11
-24.999999999999996
21
14.433756729740645
31
0
0
LWPOLYLINE
5
115
100
AcDbEntity
8
0
100
AcDbPolyline
90
6
70
1
43
0.0
10
-86.602540378443877
20
-21.132486540518709
10
-61.602540378443877
20
-35.566243270259335
10
-61.602540378443898
20
-64.433756729740651
10
-86.602540378443877
20
-78.867513459481273
10
-111.60254037844388
20
-64.433756729740608
10
-111.60254037844388
20
-35.566243270259349
0
LINE
5
116
100
AcDbEntity
8
0
100
AcDbLine
10
-61.602540378443877
20
-35.566243270259335
30
0
11
-25.000000000000004
21
-14.433756729740637
31
0
0
LWPOLYLINE
5
117
100
AcDbEntity
8
0
100
AcDbPolyline
90
6
70
1
43
0.0
10
-24.999999999999993
20
-85.566243270259363
10
-8.8817841970012523e-15
20
-71.132486540518713
10
25.000000000000007
20
-85.566243270259378
10
25.000000000000004
20
-114.43375672974064
10
-1.7763568394002505e-14
20
-128.86751345948127
10
-24.999999999999996
20
-114.43375672974065
0
LINE
5
118
100
AcDbEntity
8
0
100
AcDbLine
10
-8.7112171957238423e-15
20
-71.132486540518713
30
0
11
-3.5352507957496895e-15
21
-28.867513459481287
31
0
0
LWPOLYLINE
5
119
100
AcDbEntity
8
0
100
AcDbPolyline
90
6
70
1
43
0.0
10
61.602540378443855
20
-64.433756729740651
10
61.602540378443848
20
-35.56624327025937
10
86.602540378443877
20
-21.132486540518734
10
111.60254037844383
20
-35.56624327025937
10
111.60254037844382
20
-64.433756729740665
10
86.602540378443834
20
-78.867513459481302
0
LINE
5
120
100
AcDbEntity
8
0
100
AcDbLine
10
61.602540378443848
20
-35.56624327025937
30
0
11
24.999999999999993
21
-14.433756729740651
31
0
0
LINE
5
121
100
AcDbEntity
8
0
100
AcDbLine
10
61.602540378443891
20
35.566243270259307
30
0
11
86.602540378443891
21
21.13248654051867
31
0
0
LINE
5
122
100
AcDbEntity
8
0
100
AcDbLine
10
86.602540378443891
20
21.13248654051867
30
0
11
111.6025403784439
21
35.566243270259285
31
0
0
LINE
5
123
100
AcDbEntity
8
0
100
AcDbLine
10
111.6025403784439
20
35.566243270259285
30
0
11
111.6025403784439
21
64.433756729740551
31
0
0
LINE
5
124
100
AcDbEntity
8
0
100
AcDbLine
10
61.602540378443926
20
64.433756729740622
30
0
11
61.602540378443891
21
35.566243270259307
31
0
0
LINE
5
125
100
AcDbEntity
8
0
100
AcDbLine
10
86.602540378443933
20
78.867513459481231
30
0
11
61.602540378443926
21
64.433756729740622
31
0
0
LINE
5
126
100
AcDbEntity
8
0
100
AcDbLine
10
111.6025403784439
20
64.433756729740551
30
0
11
86.602540378443933
21
78.867513459481231
31
0
0
LINE
5
127
100
AcDbEntity
8
0
100
AcDbLine
10
61.602540378443891
20
35.566243270259307
30
0
11
25.000000000000007
21
14.433756729740622
31
0
0
LINE
5
128
100
AcDbEntity
8
0
100
AcDbLine
10
24.999999999999982
20
85.566243270259363
30
0
11
61.602540378443926
21
64.433756729740622
31
0
0
LINE
5
129
100
AcDbEntity
8
0
100
AcDbLine
10
-61.602540378443877
20
64.433756729740637
30
0
11
-24.999999999999947
21
85.566243270259406
31
0
0
LINE
5
130
100
AcDbEntity
8
0
100
AcDbLine
10
-86.602540378443877
20
-21.132486540518709
30
0
11
-86.602540378443877
21
21.132486540518798
31
0
0
LINE
5
131
100
AcDbEntity
8
0
100
AcDbLine
10
-24.999999999999993
20
-85.566243270259363
30
0
11
-61.602540378443933
21
-64.433756729740622
31
0
0
LINE
5
132
100
AcDbEntity
8
0
100
AcDbLine
10
61.602540378443855
20
-64.433756729740651
30
0
11
24.999999999999925
21
-85.566243270259406
31
0
0
LINE
5
133
100
AcDbEntity
8
0
100
AcDbLine
10
86.602540378443891
20
21.13248654051867
30
0
11
86.602540378443877
21
-21.132486540518837
31
0
0
LWPOLYLINE
5
134
100
AcDbEntity
8
0
100
AcDbPolyline
90
6
70
1
43
0.0
10
-3.5527136788005009e-14
20
-71.132486540518784
10
24.999999999999947
20
-85.566243270259406
10
24.999999999999929
20
-114.43375672974072
10
-5.3290705182007514e-14
20
-128.86751345948136
10
-25.000000000000036
20
-114.43375672974068
10
-25.000000000000053
20
-85.56624327025942
0
LWPOLYLINE
5
135
100
AcDbEntity
8
0
100
AcDbPolyline
90
6
70
1
43
0.0
10
61.602540378443805
20
-135.56624327025943
10
86.602540378443791
20
-121.13248654051878
10
111.60254037844381
20
-135.56624327025946
10
111.60254037844379
20
-164.43375672974071
10
86.602540378443791
20
-178.86751345948136
10
61.602540378443805
20
-164.43375672974071
0
LINE
5
136
100
AcDbEntity
8
0
100
AcDbLine
10
86.602540378443791
20
-121.13248654051878
30
0
11
86.602540378443805
21
-78.867513459481358
31
0
0
LINE
5
137
100
AcDbEntity
8
0
100
AcDbLine
10
148.20508075688767
20
-114.43375672974072
30
0
11
111.60254037844375
21
-135.56624327025946
31
0
0
LINE
5
138
100
AcDbEntity
8
0
100
AcDbLine
10
-5.3290705182007514e-14
20
28.86751345948122
30
0
11
-25.000000000000018
21
14.433756729740583
31
0
0
LINE
5
139
100
AcDbEntity
8
0
100
AcDbLine
10
111.60254037844389
20
35.566243270259292
30
0
11
148.20508075688781
21
14.433756729740512
31
0
0
LINE
5
140
100
AcDbEntity
8
0
100
AcDbLine
10
86.602540378443933
20
78.867513459481202
30
0
11
61.602540378443919
21
64.433756729740594
31
0
0
LINE
5
141
100
AcDbEntity
8
0
100
AcDbLine
10
61.602540378443805
20
-135.56624327025943
30
0
11
24.999999999999865
21
-114.43375672974068
31
0
0
LWPOLYLINE
5
142
100
AcDbEntity
8
0
100
AcDbPolyline
90
6
70
1
43
0.0
10
148.2050807568877
20
14.433756729740557
10
173.2050807568877
20
28.867513459481174
10
198.20508075688767
20
14.433756729740512
10
198.20508075688767
20
-14.433756729740757
10
173.20508075688767
20
-28.867513459481383
10
148.2050807568877
20
-14.433756729740743
0
LINE
5
143
100
AcDbEntity
8
0
100
AcDbLine
10
111.6025403784439
20
64.433756729740566
30
0
11
86.602540378443933
21
78.867513459481202
31
0
0
LINE
5
144
100
AcDbEntity
8
0
100
AcDbLine
10
24.999999999999947
20
14.433756729740566
30
0
11
-5.3290705182007514e-14
21
28.86751345948122
31
0
0
LINE
5
145
100
AcDbEntity
8
0
100
AcDbLine
10
86.602540378443891
20
21.132486540518638
30
0
11
86.602540378443834
21
-21.132486540518784
31
0
0
LINE
5
146
100
AcDbEntity
8
0
100
AcDbLine
10
111.60254037844389
20
35.566243270259292
30
0
11
111.6025403784439
21
64.433756729740566
31
0
0
LINE
5
147
100
AcDbEntity
8
0
100
AcDbLine
10
24.999999999999964
20
-14.433756729740708
30
0
11
61.60254037844382
21
-35.566243270259427
31
0
0
LINE
5
148
100
AcDbEntity
8
0
100
AcDbLine
10
111.60254037844382
20
-35.566243270259442
30
0
11
86.602540378443848
21
-21.13248654051878
31
0
0
LINE
5
149
100
AcDbEntity
8
0
100
AcDbLine
10
86.602540378443891
20
21.132486540518638
30
0
11
111.60254037844389
21
35.566243270259292
31
0
0
LINE
5
150
100
AcDbEntity
8
0
100
AcDbLine
10
-25.000000000000053
20
-14.433756729740725
30
0
11
-7.1054273576010019e-14
21
-28.867513459481351
31
0
0
LINE
5
151
100
AcDbEntity
8
0
100
AcDbLine
10
61.602540378443919
20
64.433756729740594
30
0
11
61.602540378443877
21
35.566243270259328
31
0
0
LINE
5
152
100
AcDbEntity
8
0
100
AcDbLine
10
24.999999999999964
20
-14.433756729740708
30
0
11
24.999999999999947
21
14.433756729740566
31
0
0
LINE
5
153
100
AcDbEntity
8
0
100
AcDbLine
10
111.60254037844382
20
-64.433756729740722
30
0
11
111.60254037844382
21
-35.566243270259442
31
0
0
LWPOLYLINE
5
154
100
AcDbEntity
8
0
100
AcDbPolyline
90
6
70
1
43
0.0
10
173.2050807568877
20
-128.86751345948136
10
148.20508075688767
20
-114.43375672974072
10
148.20508075688767
20
-85.566243270259434
10
173.2050807568877
20
-71.132486540518798
10
198.20508075688767
20
-85.566243270259434
10
198.20508075688764
20
-114.43375672974074
0
LINE
5
155
100
AcDbEntity
8
0
100
AcDbLine
10
-3.5527136788005009e-14
20
-71.132486540518784
30
0
11
-5.3290705182007514e-14
21
-28.86751345948128
31
0
0
LINE
5
156
100
AcDbEntity
8
0
100
AcDbLine
10
24.999999999999947
20
-85.566243270259406
30
0
11
61.60254037844382
21
-64.433756729740708
31
0
0
LINE
5
157
100
AcDbEntity
8
0
100
AcDbLine
10
-7.1054273576010019e-14
20
-28.867513459481351
30
0
11
24.999999999999964
21
-14.433756729740708
31
0
0
LINE
5
158
100
AcDbEntity
8
0
100
AcDbLine
10
61.602540378443877
20
35.566243270259328
30
0
11
86.602540378443891
21
21.132486540518638
31
0
0
LINE
5
159
100
AcDbEntity
8
0
100
AcDbLine
10
-25.000000000000018
20
14.433756729740583
30
0
11
-25.000000000000053
21
-14.433756729740725
31
0
0
LINE
5
160
100
AcDbEntity
8
0
100
AcDbLine
10
24.999999999999947
20
14.433756729740566
30
0
11
61.602540378443877
21
35.566243270259328
31
0
0
LINE
5
161
100
AcDbEntity
8
0
100
AcDbLine
10
148.2050807568877
20
-14.433756729740743
30
0
11
111.60254037844382
21
-35.566243270259442
31
0
0
LINE
5
162
100
AcDbEntity
8
0
100
AcDbLine
10
86.602540378443848
20
-21.13248654051878
30
0
11
61.60254037844382
21
-35.566243270259427
31
0
0
LINE
5
163
100
AcDbEntity
8
0
100
AcDbLine
10
173.20508075688767
20
-28.867513459481383
30
0
11
173.20508075688767
21
-71.132486540518883
31
0
0
LINE
5
164
100
AcDbEntity
8
0
100
AcDbLine
10
86.60254037844382
20
-78.867513459481358
30
0
11
111.60254037844382
21
-64.433756729740722
31
0
0
LINE
5
165
100
AcDbEntity
8
0
100
AcDbLine
10
148.20508075688767
20
-85.566243270259434
30
0
11
111.60254037844382
21
-64.433756729740722
31
0
0
LINE
5
166
100
AcDbEntity
8
0
100
AcDbLine
10
61.60254037844382
20
-35.566243270259427
30
0
11
61.60254037844382
21
-64.433756729740708
31
0
0
LINE
5
167
100
AcDbEntity
8
0
100
AcDbLine
10
61.60254037844382
20
-64.433756729740708
30
0
11
86.60254037844382
21
-78.867513459481358
31
0
0
LWPOLYLINE
5
168
100
AcDbEntity
8
0
100
AcDbPolyline
90
6
70
1
43
0.0
10
148.2050807568877
20
-85.566243270259548
10
173.20508075688767
20
-71.132486540518883
10
198.2050807568877
20
-85.566243270259577
10
198.2050807568877
20
-114.43375672974082
10
173.20508075688764
20
-128.86751345948144
10
148.20508075688767
20
-114.43375672974082
0
LWPOLYLINE
5
169
100
AcDbEntity
8
0
100
AcDbPolyline
90
6
70
1
43
0.0
10
234.80762113533157
20
-64.433756729740836
10
234.80762113533157
20
-35.566243270259562
10
259.8076211353316
20
-21.132486540518926
10
284.80762113533154
20
-35.566243270259569
10
284.80762113533154
20
-64.433756729740864
10
259.80762113533154
20
-78.867513459481501
0
LINE
5
170
100
AcDbEntity
8
0
100
AcDbLine
10
234.80762113533157
20
-35.566243270259562
30
0
11
198.2050807568877
21
-14.433756729740828
31
0
0
LINE
5
171
100
AcDbEntity
8
0
100
AcDbLine
10
259.8076211353316
20
21.132486540518531
30
0
11
259.8076211353316
21
-21.132486540518979
31
0
0
LINE
5
172
100
AcDbEntity
8
0
100
AcDbLine
10
61.602540378443834
20
-35.566243270259513
30
0
11
61.602540378443834
21
-64.433756729740779
31
0
0
LINE
5
173
100
AcDbEntity
8
0
100
AcDbLine
10
111.60254037844389
20
64.433756729740537
30
0
11
148.20508075688784
21
85.566243270259264
31
0
0
LINE
5
174
100
AcDbEntity
8
0
100
AcDbLine
10
61.602540378443926
20
64.433756729740594
30
0
11
61.602540378443877
21
35.566243270259307
31
0
0
LINE
5
175
100
AcDbEntity
8
0
100
AcDbLine
10
234.80762113533157
20
-64.433756729740836
30
0
11
198.20508075688764
21
-85.566243270259577
31
0
0
LWPOLYLINE
5
176
100
AcDbEntity
8
0
100
AcDbPolyline
90
6
70
1
43
0.0
10
148.20508075688775
20
85.566243270259221
10
148.20508075688778
20
114.43375672974045
10
173.20508075688778
20
128.8675134594811
10
198.20508075688778
20
114.43375672974045
10
198.20508075688775
20
85.566243270259179
10
173.20508075688775
20
71.132486540518542
0
LINE
5
177
100
AcDbEntity
8
0
100
AcDbLine
10
86.602540378443905
20
78.867513459481216
30
0
11
61.602540378443926
21
64.433756729740594
31
0
0
LINE
5
178
100
AcDbEntity
8
0
100
AcDbLine
10
86.602540378443834
20
-21.132486540518876
30
0
11
61.602540378443834
21
-35.566243270259513
31
0
0
LINE
5
179
100
AcDbEntity
8
0
100
AcDbLine
10
111.60254037844389
20
35.56624327025925
30
0
11
148.20508075688772
21
14.433756729740498
31
0
0
LINE
5
180
100
AcDbEntity
8
0
100
AcDbLine
10
111.60254037844389
20
64.433756729740537
30
0
11
86.602540378443905
21
78.867513459481216
31
0
0
LINE
5
181
100
AcDbEntity
8
0
100
AcDbLine
10
111.60254037844383
20
-35.566243270259505
30
0
11
148.2050807568877
21
-14.433756729740805
31
0
0
LINE
5
182
100
AcDbEntity
8
0
100
AcDbLine
10
173.2050807568877
20
28.867513459481124
30
0
11
148.20508075688772
21
14.433756729740503
31
0
0
LINE
5
183
100
AcDbEntity
8
0
100
AcDbLine
10
111.60254037844389
20
35.56624327025925
30
0
11
111.60254037844389
21
64.433756729740537
31
0
0
LINE
5
184
100
AcDbEntity
8
0
100
AcDbLine
10
86.602540378443834
20
-78.867513459481444
30
0
11
111.60254037844382
21
-64.433756729740821
31
0
0
LINE
5
185
100
AcDbEntity
8
0
100
AcDbLine
10
61.602540378443877
20
35.566243270259307
30
0
11
86.602540378443834
21
21.132486540518627
31
0
0
LINE
5
186
100
AcDbEntity
8
0
100
AcDbLine
10
111.60254037844383
20
-35.566243270259505
30
0
11
86.602540378443834
21
-21.132486540518876
31
0
0
LINE
5
187
100
AcDbEntity
8
0
100
AcDbLine
10
198.2050807568877
20
14.433756729740468
30
0
11
173.2050807568877
21
28.867513459481124
31
0
0
LWPOLYLINE
5
188
100
AcDbEntity
8
0
100
AcDbPolyline
90
6
70
1
43
0.0
10
284.8076211353316
20
35.566243270259164
10
259.8076211353316
20
21.132486540518531
10
234.8076211353316
20
35.566243270259157
10
234.8076211353316
20
64.43375672974048
10
259.8076211353316
20
78.867513459481103
10
284.8076211353316
20
64.433756729740423
0
LINE
5
189
100
AcDbEntity
8
0
100
AcDbLine
10
148.2050807568877
20
-85.566243270259548
30
0
11
111.60254037844376
21
-64.433756729740765
31
0
0
LINE
5
190
100
AcDbEntity
8
0
100
AcDbLine
10
173.20508075688767
20
-71.132486540518883
30
0
11
173.2050807568877
21
-28.867513459481454
31
0
0
LINE
5
191
100
AcDbEntity
8
0
100
AcDbLine
10
111.60254037844382
20
-64.433756729740821
30
0
11
111.60254037844383
21
-35.566243270259505
31
0
0
LINE
5
192
100
AcDbEntity
8
0
100
AcDbLine
10
86.602540378443834
20
21.132486540518627
30
0
11
111.60254037844389
21
35.56624327025925
31
0
0
LINE
5
193
100
AcDbEntity
8
0
100
AcDbLine
10
61.602540378443834
20
-64.433756729740779
30
0
11
86.602540378443834
21
-78.867513459481444
31
0
0
LINE
5
194
100
AcDbEntity
8
0
100
AcDbLine
10
86.602540378443834
20
-21.132486540518876
30
0
11
86.602540378443834
21
21.132486540518627
31
0
0
LINE
5
195
100
AcDbEntity
8
0
100
AcDbLine
10
173.20508075688775
20
71.132486540518542
30
0
11
173.2050807568877
21
28.867513459481117
31
0
0
LINE
5
196
100
AcDbEntity
8
0
100
AcDbLine
10
148.20508075688772
20
14.433756729740503
30
0
11
148.2050807568877
21
-14.433756729740805
31
0
0
LINE
5
197
100
AcDbEntity
8
0
100
AcDbLine
10
198.20508075688775
20
85.566243270259179
30
0
11
234.80762113533166
21
64.433756729740409
31
0
0
LINE
5
198
100
AcDbEntity
8
0
100
AcDbLine
10
198.2050807568877
20
-14.433756729740823
30
0
11
198.2050807568877
21
14.433756729740468
31
0
0
LINE
5
199
100
AcDbEntity
8
0
100
AcDbLine
10
234.8076211353316
20
35.566243270259157
30
0
11
198.2050807568877
21
14.433756729740466
31
0
0
LINE
5
200
100
AcDbEntity
8
0
100
AcDbLine
10
148.2050807568877
20
-14.433756729740805
30
0
11
173.2050807568877
21
-28.867513459481458
31
0
0
LINE
5
201
100
AcDbEntity
8
0
100
AcDbLine
10
173.2050807568877
20
-28.867513459481458
30
0
11
198.2050807568877
21
-14.433756729740823
31
0
0
LWPOLYLINE
5
202
100
AcDbEntity
8
0
100
AcDbPolyline
90
6
70
1
43
0.0
10
234.80762113533166
20
35.566243270259214
10
234.80762113533166
20
64.43375672974048
10
259.80762113533171
20
78.867513459481131
10
284.80762113533166
20
64.433756729740495
10
284.80762113533166
20
35.566243270259186
10
259.80762113533166
20
21.132486540518556
0
LWPOLYLINE
5
203
100
AcDbEntity
8
0
100
AcDbPolyline
90
6
70
1
43
0.0
10
259.80762113533166
20
121.13248654051856
10
234.80762113533166
20
135.56624327025918
10
234.80762113533174
20
164.43375672974048
10
259.80762113533171
20
178.86751345948113
10
284.80762113533166
20
164.43375672974045
10
284.80762113533166
20
135.56624327025918
0
LINE
5
204
100
AcDbEntity
8
0
100
AcDbLine
10
234.80762113533166
20
135.56624327025918
30
0
11
198.20508075688781
21
114.43375672974049
31
0
0
LINE
5
205
100
AcDbEntity
8
0
100
AcDbLine
10
198.20508075688781
20
185.56624327025924
30
0
11
234.80762113533174
21
164.43375672974045
31
0
0
LINE
5
206
100
AcDbEntity
8
0
100
AcDbLine
10
148.20508075688781
20
-14.433756729740796
30
0
11
173.20508075688778
21
-28.867513459481415
31
0
0
LINE
5
207
100
AcDbEntity
8
0
100
AcDbLine
10
86.602540378443933
20
78.867513459481202
30
0
11
86.602540378443948
21
121.13248654051871
31
0
0
LINE
5
208
100
AcDbEntity
8
0
100
AcDbLine
10
61.602540378443905
20
35.566243270259328
30
0
11
86.602540378443877
21
21.132486540518638
31
0
0
LINE
5
209
100
AcDbEntity
8
0
100
AcDbLine
10
259.80762113533166
20
121.13248654051856
30
0
11
259.80762113533166
21
78.867513459481046
31
0
0
LWPOLYLINE
5
210
100
AcDbEntity
8
0
100
AcDbPolyline
90
6
70
1
43
0.0
10
86.602540378443948
20
121.1324865405186
10
61.602540378443976
20
135.56624327025924
10
61.602540378443997
20
164.43375672974054
10
86.60254037844399
20
178.86751345948116
10
111.60254037844396
20
164.43375672974048
10
111.60254037844396
20
135.56624327025924
0
LINE
5
211
100
AcDbEntity
8
0
100
AcDbLine
10
61.602540378443905
20
64.43375672974058
30
0
11
61.602540378443905
21
35.566243270259328
31
0
0
LINE
5
212
100
AcDbEntity
8
0
100
AcDbLine
10
148.20508075688781
20
14.433756729740495
30
0
11
148.20508075688781
21
-14.433756729740796
31
0
0
LINE
5
213
100
AcDbEntity
8
0
100
AcDbLine
10
111.60254037844393
20
64.433756729740566
30
0
11
148.20508075688781
21
85.566243270259235
31
0
0
LINE
5
214
100
AcDbEntity
8
0
100
AcDbLine
10
86.602540378443933
20
78.867513459481202
30
0
11
61.602540378443905
21
64.43375672974058
31
0
0
LINE
5
215
100
AcDbEntity
8
0
100
AcDbLine
10
173.20508075688781
20
28.867513459481149
30
0
11
173.20508075688781
21
71.13248654051857
31
0
0
LINE
5
216
100
AcDbEntity
8
0
100
AcDbLine
10
148.20508075688781
20
114.43375672974051
30
0
11
148.20508075688781
21
85.566243270259235
31
0
0
LINE
5
217
100
AcDbEntity
8
0
100
AcDbLine
10
111.60254037844393
20
64.433756729740566
30
0
11
86.602540378443933
21
78.867513459481202
31
0
0
LINE
5
218
100
AcDbEntity
8
0
100
AcDbLine
10
198.20508075688781
20
-14.433756729740779
30
0
11
198.20508075688781
21
14.433756729740477
31
0
0
LINE
5
219
100
AcDbEntity
8
0
100
AcDbLine
10
86.602540378443877
20
21.132486540518638
30
0
11
111.60254037844389
21
35.566243270259235
31
0
0
LINE
5
220
100
AcDbEntity
8
0
100
AcDbLine
10
173.20508075688781
20
28.867513459481149
30
0
11
148.20508075688781
21
14.433756729740495
31
0
0
LINE
5
221
100
AcDbEntity
8
0
100
AcDbLine
10
173.20508075688781
20
128.86751345948116
30
0
11
148.20508075688781
21
114.43375672974051
31
0
0
LWPOLYLINE
5
222
100
AcDbEntity
8
0
100
AcDbPolyline
90
6
70
1
43
0.0
10
198.20508075688781
20
214.43375672974048
10
198.20508075688781
20
185.56624327025924
10
173.20508075688781
20
171.13248654051858
10
148.20508075688781
20
185.56624327025924
10
148.20508075688781
20
214.43375672974048
10
173.20508075688787
20
228.86751345948113
0
LINE
5
223
100
AcDbEntity
8
0
100
AcDbLine
10
234.80762113533166
20
35.566243270259214
30
0
11
198.20508075688775
21
14.433756729740459
31
0
0
LINE
5
224
100
AcDbEntity
8
0
100
AcDbLine
10
234.80762113533166
20
64.43375672974048
30
0
11
198.20508075688781
21
85.566243270259207
31
0
0
LINE
5
225
100
AcDbEntity
8
0
100
AcDbLine
10
198.20508075688781
20
14.433756729740477
30
0
11
173.20508075688781
21
28.867513459481149
31
0
0
LINE
5
226
100
AcDbEntity
8
0
100
AcDbLine
10
111.60254037844389
20
35.566243270259235
30
0
11
111.60254037844393
21
64.433756729740566
31
0
0
LINE
5
227
100
AcDbEntity
8
0
100
AcDbLine
10
173.20508075688778
20
-28.867513459481415
30
0
11
198.20508075688781
21
-14.433756729740779
31
0
0
LINE
5
228
100
AcDbEntity
8
0
100
AcDbLine
10
148.20508075688781
20
14.433756729740495
30
0
11
111.60254037844389
21
35.566243270259235
31
0
0
LINE
5
229
100
AcDbEntity
8
0
100
AcDbLine
10
111.60254037844396
20
135.56624327025924
30
0
11
148.20508075688781
21
114.43375672974051
31
0
0
LINE
5
230
100
AcDbEntity
8
0
100
AcDbLine
10
148.20508075688781
20
85.566243270259235
30
0
11
173.20508075688781
21
71.13248654051857
31
0
0
LINE
5
231
100
AcDbEntity
8
0
100
AcDbLine
10
111.60254037844396
20
164.43375672974048
30
0
11
148.2050807568879
21
185.56624327025926
31
0
0
LINE
5
232
100
AcDbEntity
8
0
100
AcDbLine
10
198.20508075688781
20
114.43375672974049
30
0
11
173.20508075688781
21
128.86751345948116
31
0
0
LINE
5
233
100
AcDbEntity
8
0
100
AcDbLine
10
173.20508075688781
20
171.13248654051858
30
0
11
173.20508075688781
21
128.86751345948116
31
0
0
LINE
5
234
100
AcDbEntity
8
0
100
AcDbLine
10
173.20508075688781
20
71.13248654051857
30
0
11
198.20508075688781
21
85.566243270259221
31
0
0
LINE
5
235
100
AcDbEntity
8
0
100
AcDbLine
10
198.20508075688781
20
85.566243270259221
30
0
11
198.20508075688781
21
114.43375672974049
31
0
0
LWPOLYLINE
5
236
100
AcDbEntity
8
0
100
AcDbPolyline
90
6
70
1
43
0.0
10
173.2050807568879
20
171.13248654051861
10
148.2050807568879
20
185.56624327025926
10
148.20508075688792
20
214.43375672974057
10
173.20508075688792
20
228.86751345948119
10
198.20508075688792
20
214.43375672974048
10
198.2050807568879
20
185.56624327025926
0
LWPOLYLINE
5
237
100
AcDbEntity
8
0
100
AcDbPolyline
90
6
70
1
43
0.0
10
111.60254037844408
20
235.56624327025929
10
86.602540378444075
20
221.13248654051864
10
61.602540378444068
20
235.56624327025929
10
61.60254037844409
20
264.43375672974059
10
86.602540378444104
20
278.86751345948119
10
111.60254037844409
20
264.43375672974059
0
LINE
5
238
100
AcDbEntity
8
0
100
AcDbLine
10
86.602540378444075
20
221.13248654051864
30
0
11
86.602540378444047
21
178.86751345948119
31
0
0
LINE
5
239
100
AcDbEntity
8
0
100
AcDbLine
10
25.000000000000185
20
214.43375672974057
30
0
11
61.602540378444118
21
235.56624327025932
31
0
0
LINE
5
240
100
AcDbEntity
8
0
100
AcDbLine
10
173.20508075688787
20
71.132486540518627
30
0
11
198.20508075688787
21
85.566243270259264
31
0
0
LINE
5
241
100
AcDbEntity
8
0
100
AcDbLine
10
61.602540378443962
20
64.43375672974058
30
0
11
25.000000000000043
21
85.566243270259363
31
0
0
LINE
5
242
100
AcDbEntity
8
0
100
AcDbLine
10
86.602540378443891
20
21.132486540518673
30
0
11
111.6025403784439
21
35.566243270259278
31
0
0
LINE
5
243
100
AcDbEntity
8
0
100
AcDbLine
10
111.60254037844408
20
235.56624327025929
30
0
11
148.20508075688798
21
214.43375672974048
31
0
0
LWPOLYLINE
5
244
100
AcDbEntity
8
0
100
AcDbPolyline
90
6
70
1
43
0.0
10
25.000000000000135
20
85.566243270259321
10
1.4210854715202004e-13
20
71.132486540518713
10
-24.999999999999822
20
85.566243270259363
10
-24.999999999999822
20
114.43375672974064
10
1.7763568394002505e-13
20
128.86751345948124
10
25.00000000000016
20
114.43375672974062
0
LINE
5
245
100
AcDbEntity
8
0
100
AcDbLine
10
61.602540378443919
20
35.566243270259307
30
0
11
86.602540378443891
21
21.132486540518673
31
0
0
LINE
5
246
100
AcDbEntity
8
0
100
AcDbLine
10
148.2050807568879
20
85.566243270259292
30
0
11
173.20508075688787
21
71.132486540518627
31
0
0
LINE
5
247
100
AcDbEntity
8
0
100
AcDbLine
10
86.602540378443962
20
78.867513459481231
30
0
11
86.60254037844399
21
121.13248654051866
31
0
0
LINE
5
248
100
AcDbEntity
8
0
100
AcDbLine
10
61.602540378443962
20
64.43375672974058
30
0
11
61.602540378443919
21
35.566243270259307
31
0
0
LINE
5
249
100
AcDbEntity
8
0
100
AcDbLine
10
148.2050807568879
20
114.43375672974057
30
0
11
111.60254037844403
21
135.56624327025926
31
0
0
LINE
5
250
100
AcDbEntity
8
0
100
AcDbLine
10
61.602540378444026
20
135.56624327025932
30
0
11
86.60254037844399
21
121.13248654051864
31
0
0
LINE
5
251
100
AcDbEntity
8
0
100
AcDbLine
10
86.602540378443962
20
78.867513459481231
30
0
11
61.602540378443962
21
64.43375672974058
31
0
0
LINE
5
252
100
AcDbEntity
8
0
100
AcDbLine
10
198.20508075688787
20
114.43375672974057
30
0
11
173.20508075688792
21
128.86751345948119
31
0
0
LINE
5
253
100
AcDbEntity
8
0
100
AcDbLine
10
111.6025403784439
20
35.566243270259278
30
0
11
111.60254037844396
21
64.433756729740537
31
0
0
LINE
5
254
100
AcDbEntity
8
0
100
AcDbLine
10
148.2050807568879
20
114.43375672974057
30
0
11
148.2050807568879
21
85.566243270259292
31
0
0
LINE
5
255
100
AcDbEntity
8
0
100
AcDbLine
10
61.602540378444033
20
164.43375672974057
30
0
11
61.602540378444026
21
135.56624327025932
31
0
0
LWPOLYLINE
5
256
100
AcDbEntity
8
0
100
AcDbPolyline
90
6
70
1
43
0.0
10
1.9539925233402755e-13
20
228.86751345948124
10
25.000000000000185
20
214.43375672974057
10
25.000000000000185
20
185.56624327025929
10
1.5987211554602254e-13
20
171.13248654051864
10
-24.999999999999787
20
185.56624327025929
10
-24.999999999999769
20
214.43375672974059
0
LINE
5
257
100
AcDbEntity
8
0
100
AcDbLine
10
173.2050807568879
20
171.13248654051861
30
0
11
173.2050807568879
21
128.86751345948113
31
0
0
LINE
5
258
100
AcDbEntity
8
0
100
AcDbLine
10
148.2050807568879
20
185.56624327025926
30
0
11
111.60254037844403
21
164.43375672974057
31
0
0
LINE
5
259
100
AcDbEntity
8
0
100
AcDbLine
10
173.20508075688792
20
128.86751345948119
30
0
11
148.2050807568879
21
114.43375672974057
31
0
0
LINE
5
260
100
AcDbEntity
8
0
100
AcDbLine
10
111.60254037844396
20
64.433756729740537
30
0
11
86.602540378443962
21
78.867513459481231
31
0
0
LINE
5
261
100
AcDbEntity
8
0
100
AcDbLine
10
198.20508075688787
20
85.566243270259264
30
0
11
198.20508075688787
21
114.43375672974057
31
0
0
LINE
5
262
100
AcDbEntity
8
0
100
AcDbLine
10
148.2050807568879
20
85.566243270259292
30
0
11
111.60254037844396
21
64.433756729740537
31
0
0
LINE
5
263
100
AcDbEntity
8
0
100
AcDbLine
10
25.00000000000016
20
114.43375672974062
30
0
11
61.602540378444033
21
135.56624327025932
31
0
0
LINE
5
264
100
AcDbEntity
8
0
100
AcDbLine
10
86.60254037844399
20
121.13248654051864
30
0
11
111.60254037844403
21
135.56624327025926
31
0
0
LINE
5
265
100
AcDbEntity
8
0
100
AcDbLine
10
1.7763568394002505e-13
20
128.86751345948124
30
0
11
1.7763568394002505e-13
21
171.13248654051876
31
0
0
LINE
5
266
100
AcDbEntity
8
0
100
AcDbLine
10
86.602540378444047
20
178.86751345948119
30
0
11
61.602540378444033
21
164.43375672974057
31
0
0
LINE
5
267
100
AcDbEntity
8
0
100
AcDbLine
10
25.000000000000185
20
185.56624327025929
30
0
11
61.60254037844404
21
164.43375672974057
31
0
0
LINE
5
268
100
AcDbEntity
8
0
100
AcDbLine
10
111.60254037844403
20
135.56624327025926
30
0
11
111.60254037844403
21
164.43375672974057
31
0
0
LINE
5
269
100
AcDbEntity
8
0
100
AcDbLine
10
111.60254037844403
20
164.43375672974057
30
0
11
86.602540378444047
21
178.86751345948119
31
0
0
LWPOLYLINE
5
270
100
AcDbEntity
8
0
100
AcDbPolyline
90
6
70
1
43
0.0
10
25.000000000000181
20
185.56624327025941
10
1.9095836023552692e-13
20
171.13248654051881
10
-24.999999999999822
20
185.56624327025946
10
-24.999999999999805
20
214.43375672974074
10
2.3980817331903381e-13
20
228.86751345948136
10
25.000000000000206
20
214.43375672974071
0
LWPOLYLINE
5
271
100
AcDbEntity
8
0
100
AcDbPolyline
90
6
70
1
43
0.0
10
-61.602540378443692
20
164.43375672974076
10
-61.602540378443692
20
135.56624327025949
10
-86.602540378443749
20
121.13248654051887
10
-111.60254037844371
20
135.56624327025955
10
-111.60254037844366
20
164.43375672974085
10
-86.602540378443678
20
178.86751345948144
0
LINE
5
272
100
AcDbEntity
8
0
100
AcDbLine
10
-61.602540378443692
20
135.56624327025949
30
0
11
-24.999999999999858
21
114.43375672974074
31
0
0
LINE
5
273
100
AcDbEntity
8
0
100
AcDbLine
10
-86.602540378443763
20
78.867513459481415
30
0
11
-86.602540378443734
21
121.13248654051893
31
0
0
LINE
5
274
100
AcDbEntity
8
0
100
AcDbLine
10
111.60254037844403
20
135.56624327025935
30
0
11
111.60254037844403
21
164.43375672974065
31
0
0
LINE
5
275
100
AcDbEntity
8
0
100
AcDbLine
10
61.602540378443919
20
35.566243270259335
30
0
11
24.999999999999957
21
14.433756729740619
31
0
0
LINE
5
276
100
AcDbEntity
8
0
100
AcDbLine
10
111.60254037844388
20
35.566243270259257
30
0
11
111.60254037844395
21
64.433756729740551
31
0
0
LINE
5
277
100
AcDbEntity
8
0
100
AcDbLine
10
-61.602540378443692
20
164.43375672974076
30
0
11
-24.999999999999744
21
185.56624327025952
31
0
0
LWPOLYLINE
5
278
100
AcDbEntity
8
0
100
AcDbPolyline
90
6
70
1
43
0.0
10
25.000000000000043
20
14.433756729740672
10
25.000000000000014
20
-14.433756729740583
10
-8.8817841970012523e-15
20
-28.867513459481184
10
-24.999999999999982
20
-14.43375672974053
10
-24.99999999999995
20
14.433756729740743
10
4.8849813083506888e-14
20
28.867513459481362
0
LINE
5
279
100
AcDbEntity
8
0
100
AcDbLine
10
86.602540378443891
20
21.132486540518649
30
0
11
111.60254037844388
21
35.566243270259257
31
0
0
LINE
5
280
100
AcDbEntity
8
0
100
AcDbLine
10
86.602540378444019
20
121.13248654051874
30
0
11
111.60254037844403
21
135.56624327025935
31
0
0
LINE
5
281
100
AcDbEntity
8
0
100
AcDbLine
10
61.602540378443926
20
64.433756729740622
30
0
11
25.000000000000099
21
85.566243270259406
31
0
0
LINE
5
282
100
AcDbEntity
8
0
100
AcDbLine
10
61.602540378443919
20
35.566243270259335
30
0
11
86.602540378443891
21
21.132486540518649
31
0
0
LINE
5
283
100
AcDbEntity
8
0
100
AcDbLine
10
61.602540378444019
20
135.56624327025938
30
0
11
25.000000000000135
21
114.43375672974069
31
0
0
LINE
5
284
100
AcDbEntity
8
0
100
AcDbLine
10
9.1038288019262836e-14
20
71.132486540518784
30
0
11
25.000000000000099
21
85.566243270259378
31
0
0
LINE
5
285
100
AcDbEntity
8
0
100
AcDbLine
10
61.602540378443926
20
64.433756729740622
30
0
11
61.602540378443919
21
35.566243270259335
31
0
0
LINE
5
286
100
AcDbEntity
8
0
100
AcDbLine
10
86.602540378444047
20
178.8675134594813
30
0
11
61.602540378444047
21
164.43375672974071
31
0
0
LINE
5
287
100
AcDbEntity
8
0
100
AcDbLine
10
111.60254037844395
20
64.433756729740551
30
0
11
86.60254037844399
21
78.867513459481245
31
0
0
LINE
5
288
100
AcDbEntity
8
0
100
AcDbLine
10
61.602540378444019
20
135.56624327025938
30
0
11
86.602540378444019
21
121.13248654051874
31
0
0
LINE
5
289
100
AcDbEntity
8
0
100
AcDbLine
10
-24.99999999999989
20
85.566243270259449
30
0
11
9.1038288019262836e-14
21
71.132486540518784
31
0
0
LWPOLYLINE
5
290
100
AcDbEntity
8
0
100
AcDbPolyline
90
6
70
1
43
0.0
10
-111.60254037844379
20
64.433756729740793
10
-86.602540378443763
20
78.867513459481415
10
-61.602540378443763
20
64.433756729740779
10
-61.602540378443805
20
35.566243270259449
10
-86.602540378443805
20
21.132486540518851
10
-111.60254037844381
20
35.566243270259541
0
LINE
5
291
100
AcDbEntity
8
0
100
AcDbLine
10
25.000000000000181
20
185.56624327025941
30
0
11
61.602540378444104
21
164.43375672974065
31
0
0
LINE
5
292
100
AcDbEntity
8
0
100
AcDbLine
10
1.9095836023552692e-13
20
171.13248654051881
30
0
11
1.4876988529977098e-13
21
128.86751345948136
31
0
0
LINE
5
293
100
AcDbEntity
8
0
100
AcDbLine
10
61.602540378444047
20
164.43375672974071
30
0
11
61.602540378444019
21
135.56624327025938
31
0
0
LINE
5
294
100
AcDbEntity
8
0
100
AcDbLine
10
86.60254037844399
20
78.867513459481245
30
0
11
61.602540378443926
21
64.433756729740622
31
0
0
LINE
5
295
100
AcDbEntity
8
0
100
AcDbLine
10
111.60254037844403
20
164.43375672974065
30
0
11
86.602540378444047
21
178.8675134594813
31
0
0
LINE
5
296
100
AcDbEntity
8
0
100
AcDbLine
10
86.602540378444019
20
121.13248654051874
30
0
11
86.60254037844399
21
78.867513459481245
31
0
0
LINE
5
297
100
AcDbEntity
8
0
100
AcDbLine
10
4.8849813083506888e-14
20
28.867513459481362
30
0
11
9.3258734068513149e-14
21
71.132486540518784
31
0
0
LINE
5
298
100
AcDbEntity
8
0
100
AcDbLine
10
25.000000000000099
20
85.566243270259378
30
0
11
25.000000000000135
21
114.43375672974069
31
0
0
LINE
5
299
100
AcDbEntity
8
0
100
AcDbLine
10
-24.99999999999995
20
14.433756729740743
30
0
11
-61.602540378443862
21
35.566243270259513
31
0
0
LINE
5
300
100
AcDbEntity
8
0
100
AcDbLine
10
-24.999999999999858
20
114.43375672974074
30
0
11
-24.99999999999989
21
85.566243270259449
31
0
0
LINE
5
301
100
AcDbEntity
8
0
100
AcDbLine
10
-61.602540378443763
20
64.433756729740779
30
0
11
-24.999999999999886
21
85.566243270259449
31
0
0
LINE
5
302
100
AcDbEntity
8
0
100
AcDbLine
10
25.000000000000135
20
114.43375672974069
30
0
11
1.4654943925052066e-13
21
128.86751345948136
31
0
0
LINE
5
303
100
AcDbEntity
8
0
100
AcDbLine
10
1.4654943925052066e-13
20
128.86751345948136
30
0
11
-24.999999999999858
21
114.43375672974074
31
0
0
ENDSEC
0
SECTION
2
OBJECTS
0
DICTIONARY
5
C
100
AcDbDictionary
3
ACAD_GROUP
350
D
3
ACAD_MLINESTYLE
350
17
0
DICTIONARY
5
D
100
AcDbDictionary
0
DICTIONARY
5
1A
330
C
100
AcDbDictionary
0
DICTIONARY
5
17
100
AcDbDictionary
0
ENDSEC
0
EOF
