<?xml version="1.0" encoding="UTF-8" standalone="no"?>
<!-- Created with Inkscape (http://www.inkscape.org/) -->

<svg
   xmlns:dc="http://purl.org/dc/elements/1.1/"
   xmlns:cc="http://creativecommons.org/ns#"
   xmlns:rdf="http://www.w3.org/1999/02/22-rdf-syntax-ns#"
   xmlns:svg="http://www.w3.org/2000/svg"
   xmlns="http://www.w3.org/2000/svg"
   xmlns:sodipodi="http://sodipodi.sourceforge.net/DTD/sodipodi-0.dtd"
   xmlns:inkscape="http://www.inkscape.org/namespaces/inkscape"
   width="210mm"
   height="297mm"
   viewBox="0 0 210 297"
   version="1.1"
   id="svg8"
   inkscape:version="0.92.4 (5da689c313, 2019-01-14)"
   sodipodi:docname="hexgrid.svg">
  <defs
     id="defs2">
    <marker
       style="overflow:visible"
       refY="0.0"
       refX="0.0"
       orient="auto"
       id="DistanceX">
      <path
         id="path817"
         style="stroke:#000000; stroke-width:0.5"
         d="M 3,-3 L -3,3 M 0,-5 L  0,5" />
    </marker>
    <pattern
       y="0"
       x="0"
       width="8"
       patternUnits="userSpaceOnUse"
       id="Hatch"
       height="8">
      <path
         id="path820"
         stroke-width="0.25"
         stroke="#000000"
         linecap="square"
         d="M8 4 l-4,4" />
      <path
         id="path822"
         stroke-width="0.25"
         stroke="#000000"
         linecap="square"
         d="M6 2 l-4,4" />
      <path
         id="path824"
         stroke-width="0.25"
         stroke="#000000"
         linecap="square"
         d="M4 0 l-4,4" />
    </pattern>
    <symbol
       id="*MODEL_SPACE" />
    <symbol
       id="*PAPER_SPACE" />
  </defs>
  <sodipodi:namedview
     id="base"
     pagecolor="#ffffff"
     bordercolor="#666666"
     borderopacity="1.0"
     inkscape:pageopacity="0.0"
     inkscape:pageshadow="2"
     inkscape:zoom="0.35"
     inkscape:cx="-590.46557"
     inkscape:cy="598.44924"
     inkscape:document-units="mm"
     inkscape:current-layer="g1239"
     showgrid="false"
     inkscape:window-width="1920"
     inkscape:window-height="1017"
     inkscape:window-x="-8"
     inkscape:window-y="399"
     inkscape:window-maximized="1" />
  <metadata
     id="metadata5">
    <rdf:RDF>
      <cc:Work
         rdf:about="">
        <dc:format>image/svg+xml</dc:format>
        <dc:type
           rdf:resource="http://purl.org/dc/dcmitype/StillImage" />
        <dc:title></dc:title>
      </cc:Work>
    </rdf:RDF>
  </metadata>
  <g
     inkscape:label="Layer 1"
     inkscape:groupmode="layer"
     id="layer1">
    <g
       id="g1239"
       inkscape:label="0"
       transform="matrix(0.26458333,0,0,0.26458333,-4.2037356,-73.97619)">
      <path
         style="color:#000000;font-style:normal;font-variant:normal;font-weight:normal;font-stretch:normal;font-size:medium;line-height:normal;font-family:sans-serif;font-variant-ligatures:normal;font-variant-position:normal;font-variant-caps:normal;font-variant-numeric:normal;font-variant-alternates:normal;font-feature-settings:normal;text-indent:0;text-align:start;text-decoration:none;text-decoration-line:none;text-decoration-style:solid;text-decoration-color:#000000;letter-spacing:normal;word-spacing:normal;text-transform:none;writing-mode:lr-tb;direction:ltr;text-orientation:mixed;dominant-baseline:auto;baseline-shift:baseline;text-anchor:start;white-space:normal;shape-padding:0;clip-rule:nonzero;display:inline;overflow:visible;visibility:visible;opacity:1;isolation:auto;mix-blend-mode:normal;color-interpolation:sRGB;color-interpolation-filters:linearRGB;solid-color:#000000;solid-opacity:1;vector-effect:none;fill:#000000;fill-opacity:1;fill-rule:nonzero;stroke:none;stroke-width:37.79527664;stroke-linecap:butt;stroke-linejoin:miter;stroke-miterlimit:4;stroke-dasharray:none;stroke-dashoffset:0;stroke-opacity:1;color-rendering:auto;image-rendering:auto;shape-rendering:auto;text-rendering:auto;enable-background:accumulate"
         d="M -549.2793 34.097656 L -631.20312 34.283203 L -719.94922 34.484375 L -833.45898 34.740234 L -844.39062 34.763672 L -889.67969 34.867188 L -889.67969 34.865234 L -925.99414 34.949219 L -927.47461 34.953125 L -928.36133 34.955078 L -986.5 35.080078 L -1098.6777 35.333984 L -1118.9844 35.378906 L -1183.7988 35.525391 L -1183.8008 35.525391 L -1270.6816 35.722656 L -1311.4844 106.76367 L -1311.4844 106.75781 L -1355.6855 183.7168 L -1355.6797 183.71289 L -1440.2168 330.90039 L -1440.2188 330.89844 L -1459.043 363.67188 L -1459.0391 363.67383 L -1544.3145 512.14453 L -1544.3145 512.13867 L -1586.7031 585.94141 L -1586.6973 585.9375 L -1629.9727 661.28516 L -1588.8477 732.14453 L -1588.8516 732.14258 L -1544.3145 808.88281 L -1544.3145 808.87695 L -1487.3242 907.07422 L -1481.8398 916.52148 L -1459.1074 955.69141 L -1459.1113 955.69336 L -1440.1426 988.38086 L -1440.1387 988.37891 L -1410.5078 1039.4375 L -1354.1914 1136.4727 L -1354.1992 1136.4688 L -1311.4844 1210.0684 L -1311.4844 1210.0605 L -1267.8613 1285.2246 L -1235.1074 1285.1523 L -983.67969 1284.584 L -972.74805 1284.5527 L -927.47461 1284.4512 L -889.67969 1284.3672 L -830.63867 1284.2363 L -718.45898 1283.9824 L -546.4668 1283.5938 L -404.92578 1037.1641 L -399.48438 1027.6855 L -328.70703 904.45312 L -187.17383 658.0293 L -198.12891 639.16211 L -330.41992 411.20898 L -335.29883 402.79297 L -406.63867 279.88477 L -549.2793 34.097656 z M -592.75 109.78516 L -559.33594 167.35938 L -581.26172 180.01758 L -656.85156 136.375 L -656.85156 109.93164 L -592.75 109.78516 z M -694.64648 110.01758 L -694.64648 136.375 L -754.36914 170.85547 L -814.08984 205.33594 L -851.88477 183.51562 L -878.29688 168.26562 L -889.67969 161.69336 L -889.67969 110.45703 L -844.22266 110.35352 L -833.28906 110.33203 L -694.64648 110.01758 z M -927.47461 110.54297 L -927.47461 161.69336 L -1003.0664 205.33594 L -1122.5078 136.375 L -1122.5078 110.98047 L -986.33008 110.66992 L -928.19141 110.54492 L -927.47461 110.54297 z M -1160.3047 111.06641 L -1160.3047 136.375 L -1235.8945 180.01758 L -1258.7871 166.80078 L -1226.8613 111.2168 L -1160.3047 111.06641 z M -1141.4062 169.10742 L -1021.9629 238.06836 L -1021.9629 325.35156 L -1141.4062 394.3125 L -1179.2012 372.49219 L -1205.6133 357.24219 L -1216.9961 350.66992 L -1216.9961 212.75 L -1179.2012 190.92969 L -1141.4062 169.10742 z M -675.75 169.10742 L -600.1582 212.75 L -600.1582 350.66992 L -637.95508 372.49219 L -675.74805 394.3125 L -795.19141 325.35156 L -795.19141 238.06836 L -675.75 169.10742 z M -908.57812 194.42578 L -832.98633 238.06836 L -832.98633 325.35156 L -908.57812 368.99414 L -946.37305 347.17188 L -984.16797 325.35156 L -984.16797 238.06836 L -908.57812 194.42578 z M -1277.6113 199.57617 L -1254.793 212.75 L -1254.793 350.66992 L -1292.5879 372.49219 L -1330.3828 394.3125 L -1374.748 368.69922 L -1277.6113 199.57617 z M -540.36523 200.04883 L -472.01172 317.82812 L -442.46875 368.73242 L -486.77344 394.3125 L -562.36328 350.66992 L -562.36328 212.75 L -540.36523 200.04883 z M -1003.0664 358.08398 L -927.47461 401.72656 L -927.47461 539.64648 L -1003.0664 583.28906 L -1062.7871 548.80859 L -1122.5078 514.32812 L -1122.5078 427.04492 L -1003.0664 358.08398 z M -814.08984 358.08398 L -754.36914 392.56445 L -694.64648 427.04492 L -694.64648 514.32812 L -754.36914 548.80859 L -789.625 569.16406 L -814.08984 583.28906 L -851.88477 561.46875 L -877.94922 546.41992 L -878.29688 546.21875 L -889.67969 539.64648 L -889.67969 401.72656 L -814.08984 358.08398 z M -1235.8945 383.40234 L -1198.0996 405.22266 L -1160.3047 427.04492 L -1160.3047 514.32812 L -1198.0996 536.14844 L -1235.8945 557.9707 L -1273.6895 536.14844 L -1311.4844 514.32812 L -1311.4844 427.04492 L -1273.6895 405.22266 L -1235.8945 383.40234 z M -581.26172 383.40234 L -505.66992 427.04492 L -505.66992 514.32812 L -581.26172 557.9707 L -619.05664 536.14844 L -656.85156 514.32812 L -656.85156 427.04297 L -581.26172 383.40234 z M -423.49609 401.42188 L -400.68164 440.73047 L -395.80078 449.15234 L -325.60156 570.10742 L -348.43359 583.28906 L -467.875 514.32812 L -467.875 427.04492 L -423.49609 401.42188 z M -1393.5723 401.47266 L -1349.2812 427.04492 L -1349.2812 514.32812 L -1409.002 548.80859 L -1468.7227 583.28906 L -1490.709 570.5957 L -1393.5723 401.47266 z M -1330.3828 547.06055 L -1292.5879 568.88281 L -1254.793 590.70312 L -1254.793 728.62305 L -1292.5879 750.44531 L -1330.3828 772.26562 L -1449.8262 703.30469 L -1449.8262 616.01953 L -1330.3828 547.06055 z M -1141.4062 547.06055 L -1021.9629 616.01953 L -1021.9629 703.30469 L -1141.4062 772.26562 L -1179.2012 750.44531 L -1198.3438 739.39258 L -1216.9961 728.62305 L -1216.9961 590.70312 L -1141.4062 547.06055 z M -675.75 547.06055 L -600.1582 590.70312 L -600.1582 728.62305 L -614.18945 736.72461 L -625.97461 743.52734 L -675.75 772.26562 L -735.4707 737.78516 L -795.19141 703.30469 L -795.19141 616.01953 L -675.75 547.06055 z M -486.77344 547.06055 L -367.33008 616.01953 L -367.33008 703.30469 L -427.05273 737.78516 L -486.77344 772.26562 L -524.56836 750.44531 L -550.98047 735.19531 L -562.36328 728.62305 L -562.36328 590.70117 L -486.77344 547.06055 z M -908.57812 572.37695 L -832.98633 616.01953 L -832.98633 703.30469 L -908.57812 746.94727 L -919.9707 740.36914 L -920.30859 740.17383 L -946.37305 725.125 L -984.16797 703.30469 L -984.16797 616.01953 L -908.57812 572.37695 z M -306.63086 602.79492 L -274.45703 658.23047 L -307.61523 715.96094 L -329.53516 703.30469 L -329.53516 616.01953 L -306.63086 602.79492 z M -1509.5312 603.36914 L -1487.6211 616.01953 L -1487.6211 703.30469 L -1510.5098 716.51953 L -1542.6816 661.08594 L -1509.5312 603.36914 z M -1468.7246 736.03711 L -1349.2812 804.99609 L -1349.2812 892.28125 L -1393.6445 917.89453 L -1416.459 878.58594 L -1421.9434 869.13086 L -1491.5391 749.20898 L -1468.7246 736.03711 z M -1003.0664 736.03711 L -927.47461 779.67969 L -927.47461 917.59961 L -1003.0664 961.24219 L -1122.5078 892.28125 L -1122.5078 804.99609 L -1003.0664 736.03711 z M -814.08984 736.03711 L -754.36914 770.51562 L -717.60938 791.73828 L -694.64648 804.99609 L -694.64648 892.28125 L -754.36914 926.76172 L -814.08984 961.24219 L -889.67969 917.59961 L -889.67969 779.67969 L -814.08984 736.03711 z M -348.43164 736.03711 L -326.43945 748.73438 L -394.25781 866.80469 L -423.57812 917.85547 L -467.875 892.28125 L -467.875 804.99609 L -348.43164 736.03711 z M -1235.8945 761.35352 L -1198.0996 783.17578 L -1160.3047 804.99609 L -1160.3047 892.28125 L -1198.0996 914.10156 L -1235.8945 935.92383 L -1273.6895 914.10156 L -1311.4844 892.28125 L -1311.4844 804.99609 L -1273.6895 783.17578 L -1235.8945 761.35352 z M -581.26172 761.35352 L -505.66992 804.99609 L -505.66992 892.28125 L -516.18945 898.35352 L -543.4668 914.10156 L -581.26172 935.92383 L -619.05664 914.10156 L -656.85156 892.28125 L -656.85156 804.99609 L -581.26172 761.35352 z M -1330.3828 925.01172 L -1254.793 968.6543 L -1254.793 1106.5762 L -1276.7793 1119.2695 L -1345.127 1001.4941 L -1374.6738 950.58398 L -1330.3828 925.01172 z M -1141.4062 925.01172 L -1021.9629 993.97266 L -1021.9629 1081.2578 L -1141.4062 1150.2188 L -1216.9961 1106.5762 L -1216.9961 968.6543 L -1141.4062 925.01172 z M -675.75 925.01172 L -600.1582 968.65625 L -600.1582 1106.5742 L -637.95508 1128.3965 L -675.75 1150.2188 L -795.19141 1081.2578 L -795.19141 993.97266 L -675.75 925.01172 z M -486.77344 925.01172 L -442.40039 950.63086 L -465.03711 990.04492 L -470.47656 999.52344 L -539.53516 1119.7559 L -562.36328 1106.5762 L -562.36328 968.6543 L -486.77344 925.01172 z M -908.57812 950.33008 L -832.98633 993.97266 L -832.98633 1081.2578 L -908.57812 1124.9004 L -946.37305 1103.0781 L -984.16797 1081.2578 L -984.16797 993.97266 L -908.57812 950.33008 z M -1003.0664 1113.9883 L -927.47461 1157.6309 L -927.47461 1208.8613 L -972.92578 1208.9629 L -983.85742 1208.9941 L -1122.5078 1209.3066 L -1122.5078 1182.9492 L -1003.0664 1113.9883 z M -814.08984 1113.9883 L -754.36914 1148.4688 L -694.64648 1182.9492 L -694.64648 1208.3359 L -830.81641 1208.6465 L -889.67969 1208.7773 L -889.67969 1157.6309 L -814.08984 1113.9883 z M -1235.8945 1139.3066 L -1160.3047 1182.9492 L -1160.3047 1209.3926 L -1235.2852 1209.5625 L -1224.3965 1209.5312 L -1257.8086 1151.959 L -1235.8945 1139.3066 z M -581.26172 1139.3066 L -558.35938 1152.5293 L -590.27734 1208.0996 L -656.85156 1208.25 L -656.85156 1182.9492 L -581.26172 1139.3066 z "
         transform="translate(15.888135,279.59505)"
         id="path831" />
      <g
         transform="matrix(3.7795276,0,0,3.7795276,-1713.9094,624.29381)"
         id="layer1-1"
         inkscape:label="Layer 1" />
    </g>
  </g>
</svg>
