<?xml version="1.0" encoding="UTF-8" standalone="no"?>
<!-- Created with Inkscape (http://www.inkscape.org/) -->

<svg
   xmlns:dc="http://purl.org/dc/elements/1.1/"
   xmlns:cc="http://creativecommons.org/ns#"
   xmlns:rdf="http://www.w3.org/1999/02/22-rdf-syntax-ns#"
   xmlns:svg="http://www.w3.org/2000/svg"
   xmlns="http://www.w3.org/2000/svg"
   xmlns:sodipodi="http://sodipodi.sourceforge.net/DTD/sodipodi-0.dtd"
   xmlns:inkscape="http://www.inkscape.org/namespaces/inkscape"
   width="800mm"
   height="800mm"
   viewBox="0 0 800 800"
   version="1.1"
   id="svg8"
   inkscape:version="0.92.4 (5da689c313, 2019-01-14)"
   sodipodi:docname="KiteWithHoles_2019Aug24.svg">
  <defs
     id="defs2">
    <marker
       style="overflow:visible"
       refY="0"
       refX="0"
       orient="auto"
       id="DistanceX">
      <path
         id="path12"
         style="stroke:#000000;stroke-width:0.5"
         d="M 3,-3 -3,3 M 0,-5 V 5"
         inkscape:connector-curvature="0" />
    </marker>
    <pattern
       y="0"
       x="0"
       width="8"
       patternUnits="userSpaceOnUse"
       id="Hatch"
       height="8">
      <path
         id="path15"
         stroke-width="0.25"
         stroke="#000000"
         linecap="square"
         d="M8 4 l-4,4" />
      <path
         id="path17"
         stroke-width="0.25"
         stroke="#000000"
         linecap="square"
         d="M6 2 l-4,4" />
      <path
         id="path19"
         stroke-width="0.25"
         stroke="#000000"
         linecap="square"
         d="M4 0 l-4,4" />
    </pattern>
    <symbol
       id="*MODEL_SPACE" />
    <symbol
       id="*PAPER_SPACE" />
    <marker
       style="overflow:visible"
       refY="0"
       refX="0"
       orient="auto"
       id="DistanceX-5">
      <path
         id="path111"
         style="stroke:#000000;stroke-width:0.5"
         d="M 3,-3 -3,3 M 0,-5 V 5"
         inkscape:connector-curvature="0" />
    </marker>
    <pattern
       y="0"
       x="0"
       width="8"
       patternUnits="userSpaceOnUse"
       id="Hatch-9"
       height="8">
      <path
         id="path114"
         stroke-width="0.25"
         stroke="#000000"
         linecap="square"
         d="M8 4 l-4,4" />
      <path
         id="path116"
         stroke-width="0.25"
         stroke="#000000"
         linecap="square"
         d="M6 2 l-4,4" />
      <path
         id="path118"
         stroke-width="0.25"
         stroke="#000000"
         linecap="square"
         d="M4 0 l-4,4" />
    </pattern>
    <symbol
       id="*MODEL_SPACE-1" />
    <symbol
       id="*PAPER_SPACE-5" />
    <marker
       style="overflow:visible"
       refY="0"
       refX="0"
       orient="auto"
       id="DistanceX-6">
      <path
         id="path159"
         style="stroke:#000000;stroke-width:0.5"
         d="M 3,-3 -3,3 M 0,-5 V 5"
         inkscape:connector-curvature="0" />
    </marker>
    <pattern
       y="0"
       x="0"
       width="8"
       patternUnits="userSpaceOnUse"
       id="Hatch-92"
       height="8">
      <path
         id="path162"
         stroke-width="0.25"
         stroke="#000000"
         linecap="square"
         d="M8 4 l-4,4" />
      <path
         id="path164"
         stroke-width="0.25"
         stroke="#000000"
         linecap="square"
         d="M6 2 l-4,4" />
      <path
         id="path166"
         stroke-width="0.25"
         stroke="#000000"
         linecap="square"
         d="M4 0 l-4,4" />
    </pattern>
    <symbol
       id="*MODEL_SPACE-3" />
    <symbol
       id="*PAPER_SPACE-6" />
    <marker
       style="overflow:visible"
       refY="0"
       refX="0"
       orient="auto"
       id="DistanceX-0">
      <path
         id="path414"
         style="stroke:#000000;stroke-width:0.5"
         d="M 3,-3 -3,3 M 0,-5 V 5"
         inkscape:connector-curvature="0" />
    </marker>
    <pattern
       y="0"
       x="0"
       width="8"
       patternUnits="userSpaceOnUse"
       id="Hatch-3"
       height="8">
      <path
         id="path417"
         stroke-width="0.25"
         stroke="#000000"
         linecap="square"
         d="M8 4 l-4,4" />
      <path
         id="path419"
         stroke-width="0.25"
         stroke="#000000"
         linecap="square"
         d="M6 2 l-4,4" />
      <path
         id="path421"
         stroke-width="0.25"
         stroke="#000000"
         linecap="square"
         d="M4 0 l-4,4" />
    </pattern>
    <symbol
       id="*MODEL_SPACE-8" />
    <symbol
       id="*PAPER_SPACE-51" />
    <marker
       style="overflow:visible"
       refY="0"
       refX="0"
       orient="auto"
       id="DistanceX-1">
      <path
         id="path546"
         style="stroke:#000000;stroke-width:0.5"
         d="M 3,-3 -3,3 M 0,-5 V 5"
         inkscape:connector-curvature="0" />
    </marker>
    <pattern
       y="0"
       x="0"
       width="8"
       patternUnits="userSpaceOnUse"
       id="Hatch-8"
       height="8">
      <path
         id="path549"
         stroke-width="0.25"
         stroke="#000000"
         linecap="square"
         d="M8 4 l-4,4" />
      <path
         id="path551"
         stroke-width="0.25"
         stroke="#000000"
         linecap="square"
         d="M6 2 l-4,4" />
      <path
         id="path553"
         stroke-width="0.25"
         stroke="#000000"
         linecap="square"
         d="M4 0 l-4,4" />
    </pattern>
    <symbol
       id="*MODEL_SPACE-0" />
    <symbol
       id="*PAPER_SPACE-9" />
  </defs>
  <sodipodi:namedview
     id="base"
     pagecolor="#ffffff"
     bordercolor="#666666"
     borderopacity="1.0"
     inkscape:pageopacity="0.0"
     inkscape:pageshadow="2"
     inkscape:zoom="0.3535534"
     inkscape:cx="554.18709"
     inkscape:cy="753.20634"
     inkscape:document-units="mm"
     inkscape:current-layer="g671"
     showgrid="false"
     inkscape:window-width="2160"
     inkscape:window-height="1360"
     inkscape:window-x="-11"
     inkscape:window-y="-11"
     inkscape:window-maximized="1" />
  <metadata
     id="metadata5">
    <rdf:RDF>
      <cc:Work
         rdf:about="">
        <dc:format>image/svg+xml</dc:format>
        <dc:type
           rdf:resource="http://purl.org/dc/dcmitype/StillImage" />
        <dc:title></dc:title>
      </cc:Work>
    </rdf:RDF>
  </metadata>
  <g
     inkscape:label="Layer 1"
     inkscape:groupmode="layer"
     id="layer1"
     transform="translate(0,503)">
    <g
       id="g671"
       transform="translate(-1187.6498,16.038919)">
      <path
         style="fill:none;stroke:#000000;stroke-width:0.26458332"
         d="m 1257.8891,-195.72022 -0.097,158.75925 a 94.802263,94.802263 0 0 0 -0.061,0.03691 l -0.04,64.65974 a 94.802263,94.802263 0 0 0 0.061,0.187594 l 10e-5,0.07352 a 94.802263,94.802263 0 0 0 -0.061,0.04247 l -0.01,14.765644 a 82.802261,82.802261 0 0 1 0.061,-0.04477 l -0.043,70.160222 a 82.802261,82.802261 0 0 1 -0.061,-0.0419 l -0.01,13.92065 a 94.802263,94.802263 0 0 0 0.061,0.0343 l -0.029,47.04396 a 82.802438,82.802438 0 0 1 -0.061,-0.0419 l -0.01,14.43714 a 94.802263,94.802263 0 0 0 0.061,0.0345 l -0.019,31.86703 0.05,2.4e-4 -0.01,0.049 42.1225,7.45398 a 94.80248,94.80248 0 0 0 0.047,0.0355 l 80.6792,14.27661 a 94.80248,94.80248 0 0 0 0.055,-0.0177 l 88.3826,15.63967 0.01,-0.049 0.043,0.025 107.3982,-185.756699 -0.043,-0.02502 0.032,-0.03819 -318.4303,-267.526231 -0.032,0.0384 z m 18.2923,39.1828 71.3152,59.914486 a 94.802263,94.802263 0 0 0 -42.3522,9.954305 l -5e-4,2.23e-4 a 94.802263,94.802263 0 0 0 -29.0189,22.60893 z m 34.3422,80.59641 a 82.802261,82.802261 0 0 1 48.1796,-8.034221 94.802263,94.802263 0 0 0 -32.4269,36.629524 94.802263,94.802263 0 0 0 -48.9844,1.808573 82.802261,82.802261 0 0 1 33.2317,-30.403876 z m 60.1051,-1.247557 39.4183,33.116829 a 94.802263,94.802263 0 0 0 -31.3034,29.64463 94.802263,94.802263 0 0 0 -40.8298,-29.404901 82.802261,82.802261 0 0 1 32.7149,-33.356558 z m -94.5229,44.748744 a 82.802261,82.802261 0 0 1 45.385,-3.616251 94.802263,94.802263 0 0 0 -3.3704,50.192206 94.802263,94.802263 0 0 0 -42.0462,5.175284 z m 56.9474,-0.43757 a 82.802261,82.802261 0 0 1 39.3234,29.7956162 94.802263,94.802263 0 0 0 -9.0005,34.4455188 94.802263,94.802263 0 0 0 -32.3675,-15.003027 82.802261,82.802261 0 0 1 2.0446,-49.238108 z m 86.7729,-2.978049 4.9889,4.19103 a 82.802438,82.802438 0 0 1 4.5082,43.32525 94.802263,94.802263 0 0 0 -10.9268,4.554717 94.802263,94.802263 0 0 0 -19.9251,13.551601 94.802263,94.802263 0 0 0 -7.4927,-24.7734423 94.802263,94.802263 0 0 0 -4.692,-8.783964 82.802261,82.802261 0 0 1 33.5395,-32.0651917 z m -143.7597,67.993755 a 82.802261,82.802261 0 0 1 45.6486,-5.414283 94.802263,94.802263 0 0 0 3.2834,8.335637 94.802263,94.802263 0 0 0 14.633,22.315078 94.802263,94.802263 0 0 0 -27.1432,8.800079 94.802263,94.802263 0 0 0 -6.2391,3.53061 82.802438,82.802438 0 0 1 -30.1871,-30.16903 z m 103.8895,-22.3514254 5e-4,-2.233e-4 a 82.802261,82.802261 0 0 1 0.1431,0.2719577 82.802261,82.802261 0 0 1 7.6211,30.738833 94.802263,94.802263 0 0 0 -5.9314,8.07639 94.802263,94.802263 0 0 0 -6.6053,-7.365394 82.802261,82.802261 0 0 1 4.772,-31.7215645 z m -43.8676,20.6386934 a 82.802261,82.802261 0 0 1 27.4202,16.376612 94.802263,94.802263 0 0 0 1.5259,9.940506 94.802263,94.802263 0 0 0 -9.7491,-0.527555 82.802438,82.802438 0 0 1 -19.197,-25.789563 z m 104.9006,-48.501755 29.6148,24.8811191 a 94.802263,94.802263 0 0 0 -28.6572,1.3741405 94.802263,94.802263 0 0 0 -0.9576,-26.2552596 z m -164.9393,78.03893 A 94.802263,94.802263 0 0 0 1295.4978,77.179028 94.802263,94.802263 0 0 0 1276.026,98.6892 Z M 1423.781,26.929225 a 82.802261,82.802261 0 0 1 1.687,-0.742639 82.802438,82.802438 0 0 1 -16.5157,27.433637 94.802263,94.802263 0 0 0 -9.7122,1.478854 94.802263,94.802263 0 0 0 0.5488,-9.912844 82.802261,82.802261 0 0 1 23.9921,-18.257008 z m -103.8878,49.068268 a 82.802261,82.802261 0 0 1 31.0637,-7.741052 94.802263,94.802263 0 0 0 7.9005,5.807026 94.802263,94.802263 0 0 0 -7.3928,6.644244 82.802438,82.802438 0 0 1 -31.5714,-4.710218 z m 119.6967,-55.04602 a 82.802261,82.802261 0 0 1 49.2168,2.073421 82.802438,82.802438 0 0 1 -29.7015,39.312605 94.802263,94.802263 0 0 0 -34.4282,-8.965846 94.802263,94.802263 0 0 0 14.9129,-32.42018 z m -132.81,62.6987 a 94.802263,94.802263 0 0 0 34.5118,9.005634 94.802263,94.802263 0 0 0 -14.9008,32.364343 82.802261,82.802261 0 0 1 -49.2702,-2.07931 82.802261,82.802261 0 0 1 29.6592,-39.290667 z m 107.828,-18.447745 a 82.802261,82.802261 0 0 1 31.5153,4.701021 82.802438,82.802438 0 0 1 -31.1507,7.746716 94.802263,94.802263 0 0 0 -7.8011,-5.745529 94.802263,94.802263 0 0 0 7.4365,-6.702208 z m -57.7091,27.215629 a 94.802263,94.802263 0 0 0 9.7307,-1.470938 94.802263,94.802263 0 0 0 -0.5038,10.008191 82.802261,82.802261 0 0 1 -25.7073,18.94037 82.802261,82.802261 0 0 1 16.4804,-27.477623 z m 141.7988,-62.010437 32.8256,27.578228 a 82.802261,82.802261 0 0 1 4.1617,7.485555 82.802261,82.802261 0 0 1 -32.1588,41.034097 94.802263,94.802263 0 0 0 -33.1863,-37.743726 94.802263,94.802263 0 0 0 28.3578,-38.354154 z m -222.6938,104.68456 a 94.802263,94.802263 0 0 0 48.0354,2.59206 94.802263,94.802263 0 0 0 8.1358,49.79968 82.802438,82.802438 0 0 1 -52.1242,-1.37251 82.802261,82.802261 0 0 1 -0.1265,-0.24721 82.802261,82.802261 0 0 1 -3.9453,-10.57151 z m 124.8663,-45.950243 a 94.802263,94.802263 0 0 0 9.8346,0.525323 82.802261,82.802261 0 0 1 19.0201,25.66556 82.802261,82.802261 0 0 1 -27.3521,-16.410551 94.802263,94.802263 0 0 0 -1.5026,-9.780332 z m -16.7623,7.870034 v -0.0013 a 94.802263,94.802263 0 0 0 6.6379,7.396369 82.802438,82.802438 0 0 1 -4.7724,31.7805 82.802438,82.802438 0 0 1 -0.1431,-0.28281 82.802261,82.802261 0 0 1 -7.5938,-30.89921 94.802263,94.802263 0 0 0 5.8686,-7.993535 z m 42.1601,-8.508235 a 94.802263,94.802263 0 0 0 33.3827,-12.328595 82.802261,82.802261 0 0 1 33.4152,36.188169 82.802261,82.802261 0 0 1 -48.8805,6.77129 94.80248,94.80248 0 0 0 -3.247,-8.23289 94.802263,94.802263 0 0 0 -14.6704,-22.397974 z m -58.8447,27.612084 v -0.002 a 94.802263,94.802263 0 0 0 7.5312,24.85358 94.802263,94.802263 0 0 0 4.6969,8.77485 82.802438,82.802438 0 0 1 -36.2818,33.36582 82.802261,82.802261 0 0 1 -0.1466,-0.2903 82.802261,82.802261 0 0 1 -6.6028,-48.61523 94.802263,94.802263 0 0 0 30.7998,-18.08719 z m 35.1007,-1.59343 a 94.802263,94.802263 0 0 0 32.4017,15.00537 82.802261,82.802261 0 0 1 -1.9494,49.26897 82.802438,82.802438 0 0 1 -39.4379,-29.8654 94.802263,94.802263 0 0 0 8.9856,-34.40894 z m 138.9639,-32.513173 a 82.802438,82.802438 0 0 1 1.0199,5.616445 l -29.8899,51.697498 a 94.802263,94.802263 0 0 0 -4.4806,-21.43432 94.802263,94.802263 0 0 0 33.3506,-35.879623 z M 1289.1509,201.02239 a 94.802263,94.802263 0 0 0 48.8061,-2.95797 94.802263,94.802263 0 0 0 13.7229,17.01288 l -59.7071,-10.56506 a 82.802261,82.802261 0 0 1 -2.8219,-3.48985 z m 158.6458,-69.27353 a 94.802263,94.802263 0 0 0 49.5818,-8.13863 82.802261,82.802261 0 0 1 2.4978,37.75095 l -9.7811,16.917 a 82.802438,82.802438 0 0 1 -45.67,3.79625 94.80248,94.80248 0 0 0 3.3715,-50.32557 z m -60.6396,28.56348 a 94.802263,94.802263 0 0 0 40.9745,29.45841 82.802261,82.802261 0 0 1 -32.3293,33.11487 l -18.7579,-3.31956 a 82.802261,82.802261 0 0 1 -27.8143,-26.02033 94.802263,94.802263 0 0 0 37.927,-33.23339 z m 52.535,32.93158 a 94.802263,94.802263 0 0 0 41.7815,-0.0529 l -10.8714,18.80291 a 82.802261,82.802261 0 0 1 -38.169,17.37342 l -19.6989,-3.48571 a 94.80248,94.80248 0 0 0 26.9578,-32.63768 z m 18.2816,40.59233 -0.026,0.046 -0.049,-0.009 a 94.802263,94.802263 0 0 0 0.075,-0.0379 z"
         id="path40"
         inkscape:connector-curvature="0" />
      <circle
         style="fill:#ffff00;stroke:#00ff00;stroke-width:0.10171378"
         id="path52-1"
         cx="1296.5354"
         cy="-107.43499"
         r="5.8991432" />
      <circle
         style="fill:#ffff00;stroke:#00ff00;stroke-width:0.10171378"
         id="path52-4"
         cx="1315.9927"
         cy="-63.282063"
         r="5.8991432" />
      <circle
         style="fill:#ffff00;stroke:#00ff00;stroke-width:0.10171378"
         id="path52-8"
         cx="1348.1719"
         cy="-0.046093021"
         r="5.8991432" />
      <circle
         style="fill:#ffff00;stroke:#00ff00;stroke-width:0.10171378"
         id="path52-8-7"
         cx="1378.1061"
         cy="-47.566612"
         r="5.8991432" />
      <circle
         style="fill:#ffff00;stroke:#00ff00;stroke-width:0.10171378"
         id="path52-8-6"
         cx="1295.0387"
         cy="-10.148881"
         r="5.8991432" />
      <circle
         style="fill:#ffff00;stroke:#00ff00;stroke-width:0.10171378"
         id="path52-8-8"
         cx="1307.9478"
         cy="45.416451"
         r="5.8991432" />
      <circle
         style="fill:#ffff00;stroke:#00ff00;stroke-width:0.10171378"
         id="path52-2"
         cx="1356.2167"
         cy="48.596958"
         r="5.8991432" />
      <circle
         style="fill:#ffff00;stroke:#00ff00;stroke-width:0.10171378"
         id="path52-42"
         cx="1381.4736"
         cy="37.184551"
         r="5.8991432" />
      <circle
         style="fill:#ffff00;stroke:#00ff00;stroke-width:0.10171378"
         id="path52-7"
         cx="1409.5369"
         cy="-1.3557136"
         r="5.8991432" />
      <circle
         style="fill:#ffff00;stroke:#00ff00;stroke-width:0.10171378"
         id="path52-3"
         cx="1407.1047"
         cy="46.164806"
         r="5.8991432" />
      <circle
         style="fill:#ffff00;stroke:#00ff00;stroke-width:0.10171378"
         id="path52-46"
         cx="1454.9995"
         cy="38.681263"
         r="5.8991432" />
      <circle
         style="fill:#ffff00;stroke:#00ff00;stroke-width:0.10171378"
         id="path52-32"
         cx="1450.5094"
         cy="-0.60735887"
         r="5.8991432" />
      <circle
         style="fill:#ffff00;stroke:#00ff00;stroke-width:0.10171378"
         id="path52-5"
         cx="1504.7651"
         cy="68.989624"
         r="5.8991432" />
      <circle
         style="fill:#ffff00;stroke:#00ff00;stroke-width:0.10171378"
         id="path52-16"
         cx="1456.1221"
         cy="99.485069"
         r="5.8991432" />
      <circle
         style="fill:#ffff00;stroke:#00ff00;stroke-width:0.10171378"
         id="path52-77"
         cx="1408.7886"
         cy="95.930389"
         r="5.8991432" />
      <circle
         style="fill:#ffff00;stroke:#00ff00;stroke-width:0.10171378"
         id="path52-6"
         cx="1418.1431"
         cy="71.795952"
         r="5.8991432" />
      <circle
         style="fill:#ffff00;stroke:#00ff00;stroke-width:0.10171378"
         id="path52-0"
         cx="1384.6542"
         cy="107.52989"
         r="5.8991432" />
      <circle
         style="fill:#ffff00;stroke:#00ff00;stroke-width:0.10171378"
         id="path52-23"
         cx="1359.3972"
         cy="99.297989"
         r="5.8991432" />
      <circle
         style="fill:#ffff00;stroke:#00ff00;stroke-width:0.10171378"
         id="path52-59"
         cx="1347.2363"
         cy="74.60228"
         r="5.8991432" />
      <circle
         style="fill:#ffff00;stroke:#00ff00;stroke-width:0.10171378"
         id="path52-83"
         cx="1312.0637"
         cy="105.84609"
         r="5.8991432" />
      <circle
         style="fill:#ffff00;stroke:#00ff00;stroke-width:0.10171378"
         id="path52-426"
         cx="1282.8779"
         cy="77.782799"
         r="5.8991432" />
      <circle
         style="fill:#ffff00;stroke:#00ff00;stroke-width:0.10171378"
         id="path52-89"
         cx="1298.5934"
         cy="163.65648"
         r="5.8991432" />
      <circle
         style="fill:#ffff00;stroke:#00ff00;stroke-width:0.10171378"
         id="path52-10"
         cx="1355.0941"
         cy="148.5023"
         r="5.8991432" />
      <circle
         style="fill:#ffff00;stroke:#00ff00;stroke-width:0.10171378"
         id="path52-64"
         cx="1388.0217"
         cy="196.02283"
         r="5.8991432" />
      <circle
         style="fill:#ffff00;stroke:#00ff00;stroke-width:0.10171378"
         id="path52-9"
         cx="1415.1497"
         cy="146.25725"
         r="5.8991432" />
      <circle
         style="fill:#ffff00;stroke:#00ff00;stroke-width:0.10171378"
         id="path52-168"
         cx="1472.3987"
         cy="154.11496"
         r="5.8991432" />
      <circle
         style="fill:#ffff00;stroke:#00ff00;stroke-width:0.10171378"
         id="path52-15"
         cx="1447.516"
         cy="210.98993"
         r="5.8991432" />
    </g>
    <g
       id="g183"
       inkscape:label="0"
       transform="matrix(0.26458333,0,0,-0.26458333,1363.5668,79.199788)"
       style="fill:#0000ff;stroke:#0000ff;stroke-width:3.77952766">
      <g
         id="g209"
         style="fill:#0000ff;stroke:#0000ff;stroke-width:3.77952766" />
    </g>
  </g>
</svg>
