  0
SECTION
  2
HEADER
  9
$ACADVER
  1
AC1014
  9
$HANDSEED
  5
FFFF
  9
$MEASUREMENT
 70
     1
  0
ENDSEC
  0
SECTION
  2
TABLES
  0
TABLE
  2
VPORT
  5
8
330
0
100
AcDbSymbolTable
 70
     4
  0
VPORT
  5
2E
330
8
100
AcDbSymbolTableRecord
100
AcDbViewportTableRecord
  2
*ACTIVE
 70
     0
 10
0.0
 20
0.0
 11
1.0
 21
1.0
 12
210.0
 22
148.5
 13
0.0
 23
0.0
 14
10.0
 24
10.0
 15
10.0
 25
10.0
 16
0.0
 26
0.0
 36
1.0
 17
0.0
 27
0.0
 37
0.0
 40
341.0
 41
1.24
 42
50.0
 43
0.0
 44
0.0
 50
0.0
 51
0.0
 71
     0
 72
   100
 73
     1
 74
     3
 75
     0
 76
     0
 77
     0
 78
     0
  0
ENDTAB
  0
TABLE
  2
LTYPE
  5
5
330
0
100
AcDbSymbolTable
 70
     1
  0
LTYPE
  5
14
330
5
100
AcDbSymbolTableRecord
100
AcDbLinetypeTableRecord
  2
BYBLOCK
 70
     0
  3

 72
    65
 73
     0
 40
0.0
  0
LTYPE
  5
15
330
5
100
AcDbSymbolTableRecord
100
AcDbLinetypeTableRecord
  2
BYLAYER
 70
     0
  3

 72
    65
 73
     0
 40
0.0
  0
LTYPE
  5
16
330
5
100
AcDbSymbolTableRecord
100
AcDbLinetypeTableRecord
  2
CONTINUOUS
 70
     0
  3
Solid line
 72
    65
 73
     0
 40
0.0
  0
ENDTAB
  0
TABLE
  2
LAYER
  5
2
100
AcDbSymbolTable
 70
2
  0
LAYER
  5
50
100
AcDbSymbolTableRecord
100
AcDbLayerTableRecord
  2
0
 70
0
  6
CONTINUOUS
  0
LAYER
  5
51
100
AcDbSymbolTableRecord
100
AcDbLayerTableRecord
  2
Layer_1
 70
0
  6
CONTINUOUS
  0
ENDTAB
  0
TABLE
  2
STYLE
  5
3
330
0
100
AcDbSymbolTable
 70
     1
  0
STYLE
  5
11
330
3
100
AcDbSymbolTableRecord
100
AcDbTextStyleTableRecord
  2
STANDARD
 70
     0
 40
0.0
 41
1.0
 50
0.0
 71
     0
 42
2.5
  3
txt
  4

  0
ENDTAB
  0
TABLE
  2
VIEW
  5
6
330
0
100
AcDbSymbolTable
 70
     0
  0
ENDTAB
  0
TABLE
  2
UCS
  5
7
330
0
100
AcDbSymbolTable
 70
     0
  0
ENDTAB
  0
TABLE
  2
APPID
  5
9
330
0
100
AcDbSymbolTable
 70
     2
  0
APPID
  5
12
330
9
100
AcDbSymbolTableRecord
100
AcDbRegAppTableRecord
  2
ACAD
 70
     0
  0
ENDTAB
  0
TABLE
  2
DIMSTYLE
  5
A
330
0
100
AcDbSymbolTable
 70
     1
  0
DIMSTYLE
105
27
330
A
100
AcDbSymbolTableRecord
100
AcDbDimStyleTableRecord
  2
ISO-25
 70
     0
  3

  4

  5

  6

  7

 40
1.0
 41
2.5
 42
0.625
 43
3.75
 44
1.25
 45
0.0
 46
0.0
 47
0.0
 48
0.0
140
2.5
141
2.5
142
0.0
143
0.03937007874016
144
1.0
145
0.0
146
1.0
147
0.625
 71
     0
 72
     0
 73
     0
 74
     0
 75
     0
 76
     0
 77
     1
 78
     8
170
     0
171
     3
172
     1
173
     0
174
     0
175
     0
176
     0
177
     0
178
     0
270
     2
271
     2
272
     2
273
     2
274
     3
340
11
275
     0
280
     0
281
     0
282
     0
283
     0
284
     8
285
     0
286
     0
287
     3
288
     0
  0
ENDTAB
  0
TABLE
  2
BLOCK_RECORD
  5
1
330
0
100
AcDbSymbolTable
 70
     1
  0
BLOCK_RECORD
  5
1F
330
1
100
AcDbSymbolTableRecord
100
AcDbBlockTableRecord
  2
*MODEL_SPACE
  0
BLOCK_RECORD
  5
1B
330
1
100
AcDbSymbolTableRecord
100
AcDbBlockTableRecord
  2
*PAPER_SPACE
  0
ENDTAB
  0
ENDSEC
  0
SECTION
  2
BLOCKS
  0
BLOCK
  5
20
330
1F
100
AcDbEntity
  8
0
100
AcDbBlockBegin
  2
*MODEL_SPACE
 70
     0
 10
0.0
 20
0.0
 30
0.0
  3
*MODEL_SPACE
  1

  0
ENDBLK
  5
21
330
1F
100
AcDbEntity
  8
0
100
AcDbBlockEnd
  0
BLOCK
  5
1C
330
1B
100
AcDbEntity
 67
     1
  8
0
100
AcDbBlockBegin
  2
*PAPER_SPACE
  1

  0
ENDBLK
  5
1D
330
1B
100
AcDbEntity
 67
     1
  8
0
100
AcDbBlockEnd
  0
ENDSEC
  0
SECTION
  2
ENTITIES
  0
LWPOLYLINE
  5
100
100
AcDbEntity
  8
Layer_1
 62
7
100
AcDbPolyline
 90
22
 70
1
 10
29.170781
 20
94.046151
 30
0.0
 10
28.801600
 20
93.406883
 30
0.0
 10
28.800620
 20
93.405105
 30
0.0
 10
5.793694
 20
53.556069
 30
0.0
 10
5.793694
 20
53.556069
 30
0.0
 10
5.424512
 20
52.916670
 30
0.0
 10
5.793561
 20
52.277398
 30
0.0
 10
28.801439
 20
12.426588
 30
0.0
 10
29.170620
 20
11.787182
 30
0.0
 10
29.908711
 20
11.787182
 30
0.0
 10
75.924623
 20
11.787182
 30
0.0
 10
76.662707
 20
11.787182
 30
0.0
 10
77.031889
 20
12.426588
 30
0.0
 10
100.039773
 20
52.277398
 30
0.0
 10
100.408822
 20
52.916670
 30
0.0
 10
100.039640
 20
53.556069
 30
0.0
 10
100.039780
 20
53.556069
 30
0.0
 10
77.031923
 20
93.406882
 30
0.0
 10
77.031783
 20
93.406882
 30
0.0
 10
76.662735
 20
94.046150
 30
0.0
 10
75.924650
 20
94.046150
 30
0.0
 10
29.908739
 20
94.046150
 30
0.0
  0
LWPOLYLINE
  5
101
100
AcDbEntity
  8
Layer_1
 62
1
100
AcDbPolyline
 90
3
 70
1
 10
32.863019
 20
90.117668
 30
0.0
 10
50.776388
 20
90.117668
 30
0.0
 10
41.819637
 20
74.604211
 30
0.0
  0
LWPOLYLINE
  5
102
100
AcDbEntity
  8
Layer_1
 62
1
100
AcDbPolyline
 90
3
 70
1
 10
55.057121
 20
90.117668
 30
0.0
 10
72.970488
 20
90.117668
 30
0.0
 10
64.013872
 20
74.604211
 30
0.0
  0
LWPOLYLINE
  5
103
100
AcDbEntity
  8
Layer_1
 62
1
100
AcDbPolyline
 90
3
 70
1
 10
52.916818
 20
88.891211
 30
0.0
 10
61.877390
 20
73.370766
 30
0.0
 10
43.956112
 20
73.370766
 30
0.0
  0
LWPOLYLINE
  5
104
100
AcDbEntity
  8
Layer_1
 62
1
100
AcDbPolyline
 90
3
 70
1
 10
30.726673
 20
88.884358
 30
0.0
 10
39.683425
 20
73.370769
 30
0.0
 10
21.769923
 20
73.370769
 30
0.0
  0
LWPOLYLINE
  5
105
100
AcDbEntity
  8
Layer_1
 62
1
100
AcDbPolyline
 90
3
 70
1
 10
75.106834
 20
88.884218
 30
0.0
 10
84.063450
 20
73.370760
 30
0.0
 10
66.150084
 20
73.370760
 30
0.0
  0
LWPOLYLINE
  5
106
100
AcDbEntity
  8
Layer_1
 62
1
100
AcDbPolyline
 90
3
 70
1
 10
21.761881
 20
70.904008
 30
0.0
 10
39.683425
 20
70.904008
 30
0.0
 10
30.722586
 20
55.383562
 30
0.0
  0
LWPOLYLINE
  5
107
100
AcDbEntity
  8
Layer_1
 62
1
100
AcDbPolyline
 90
3
 70
1
 10
43.955983
 20
70.904008
 30
0.0
 10
61.877526
 20
70.904008
 30
0.0
 10
52.916818
 20
55.383562
 30
0.0
  0
LWPOLYLINE
  5
108
100
AcDbEntity
  8
Layer_1
 62
1
100
AcDbPolyline
 90
3
 70
1
 10
66.150084
 20
70.904008
 30
0.0
 10
84.071625
 20
70.904008
 30
0.0
 10
75.110925
 20
55.383562
 30
0.0
  0
LWPOLYLINE
  5
109
100
AcDbEntity
  8
Layer_1
 62
1
100
AcDbPolyline
 90
3
 70
1
 10
41.819772
 20
69.670562
 30
0.0
 10
50.780472
 20
54.149985
 30
0.0
 10
32.858931
 20
54.149985
 30
0.0
  0
LWPOLYLINE
  5
10a
100
AcDbEntity
  8
Layer_1
 62
1
100
AcDbPolyline
 90
3
 70
1
 10
64.013737
 20
69.670562
 30
0.0
 10
72.974579
 20
54.149985
 30
0.0
 10
55.053037
 20
54.149985
 30
0.0
  0
LWPOLYLINE
  5
10b
100
AcDbEntity
  8
Layer_1
 62
1
100
AcDbPolyline
 90
3
 70
1
 10
19.629622
 20
69.663576
 30
0.0
 10
28.586373
 20
54.149986
 30
0.0
 10
10.672869
 20
54.149986
 30
0.0
  0
LWPOLYLINE
  5
10c
100
AcDbEntity
  8
Layer_1
 62
1
100
AcDbPolyline
 90
3
 70
1
 10
86.203888
 20
69.663442
 30
0.0
 10
95.160504
 20
54.149985
 30
0.0
 10
77.247002
 20
54.149985
 30
0.0
  0
LWPOLYLINE
  5
10d
100
AcDbEntity
  8
Layer_1
 62
1
100
AcDbPolyline
 90
3
 70
1
 10
10.672869
 20
51.683227
 30
0.0
 10
28.586373
 20
51.683227
 30
0.0
 10
19.629490
 20
36.169900
 30
0.0
  0
LWPOLYLINE
  5
10e
100
AcDbEntity
  8
Layer_1
 62
1
100
AcDbPolyline
 90
3
 70
1
 10
32.858931
 20
51.683227
 30
0.0
 10
50.780344
 20
51.683227
 30
0.0
 10
41.819637
 20
36.162784
 30
0.0
  0
LWPOLYLINE
  5
10f
100
AcDbEntity
  8
Layer_1
 62
1
100
AcDbPolyline
 90
3
 70
1
 10
55.053165
 20
51.683227
 30
0.0
 10
72.974579
 20
51.683227
 30
0.0
 10
64.013872
 20
36.162784
 30
0.0
  0
LWPOLYLINE
  5
110
100
AcDbEntity
  8
Layer_1
 62
1
100
AcDbPolyline
 90
3
 70
1
 10
77.247265
 20
51.683227
 30
0.0
 10
95.160504
 20
51.683227
 30
0.0
 10
86.203888
 20
36.169900
 30
0.0
  0
LWPOLYLINE
  5
111
100
AcDbEntity
  8
Layer_1
 62
1
100
AcDbPolyline
 90
3
 70
1
 10
52.916690
 20
50.449914
 30
0.0
 10
61.877526
 20
34.929467
 30
0.0
 10
43.955983
 20
34.929467
 30
0.0
  0
LWPOLYLINE
  5
112
100
AcDbEntity
  8
Layer_1
 62
1
100
AcDbPolyline
 90
3
 70
1
 10
75.110790
 20
50.449914
 30
0.0
 10
84.071497
 20
34.929467
 30
0.0
 10
66.150084
 20
34.929467
 30
0.0
  0
LWPOLYLINE
  5
113
100
AcDbEntity
  8
Layer_1
 62
1
100
AcDbPolyline
 90
3
 70
1
 10
30.722717
 20
50.449774
 30
0.0
 10
39.683425
 20
34.929460
 30
0.0
 10
21.762012
 20
34.929460
 30
0.0
  0
LWPOLYLINE
  5
114
100
AcDbEntity
  8
Layer_1
 62
1
100
AcDbPolyline
 90
3
 70
1
 10
21.769923
 20
32.462567
 30
0.0
 10
39.683290
 20
32.462567
 30
0.0
 10
30.726673
 20
16.949113
 30
0.0
  0
LWPOLYLINE
  5
115
100
AcDbEntity
  8
Layer_1
 62
1
100
AcDbPolyline
 90
3
 70
1
 10
43.955983
 20
32.462567
 30
0.0
 10
61.877526
 20
32.462567
 30
0.0
 10
52.916818
 20
16.942126
 30
0.0
  0
LWPOLYLINE
  5
116
100
AcDbEntity
  8
Layer_1
 62
1
100
AcDbPolyline
 90
3
 70
1
 10
66.150219
 20
32.462567
 30
0.0
 10
84.063450
 20
32.462567
 30
0.0
 10
75.106834
 20
16.949113
 30
0.0
  0
LWPOLYLINE
  5
117
100
AcDbEntity
  8
Layer_1
 62
1
100
AcDbPolyline
 90
3
 70
1
 10
41.819772
 20
31.229256
 30
0.0
 10
50.776516
 20
15.715667
 30
0.0
 10
32.862887
 20
15.715667
 30
0.0
  0
SPLINE
  5
118
100
AcDbEntity
  8
Layer_1
 62
1
100
AcDbSpline
 70
8
 71
3
 72
8
 73
4
 74
0
 40
0
 40
0
 40
0
 40
0
 40
1
 40
1
 40
1
 40
1
 10
54.339285
 20
65.772402
 30
0.0
 10
54.339285
 20
66.280647
 30
0.0
 10
54.068139
 20
66.750286
 30
0.0
 10
53.627985
 20
67.004409
 30
0.0
  0
SPLINE
  5
119
100
AcDbEntity
  8
Layer_1
 62
1
100
AcDbSpline
 70
8
 71
3
 72
8
 73
4
 74
0
 40
0
 40
0
 40
0
 40
0
 40
1
 40
1
 40
1
 40
1
 10
53.627985
 20
67.004409
 30
0.0
 10
53.187832
 20
67.258531
 30
0.0
 10
52.645540
 20
67.258531
 30
0.0
 10
52.205386
 20
67.004409
 30
0.0
  0
SPLINE
  5
11a
100
AcDbEntity
  8
Layer_1
 62
1
100
AcDbSpline
 70
8
 71
3
 72
8
 73
4
 74
0
 40
0
 40
0
 40
0
 40
0
 40
1
 40
1
 40
1
 40
1
 10
52.205386
 20
67.004409
 30
0.0
 10
51.765232
 20
66.750286
 30
0.0
 10
51.494087
 20
66.280647
 30
0.0
 10
51.494087
 20
65.772402
 30
0.0
  0
SPLINE
  5
11b
100
AcDbEntity
  8
Layer_1
 62
1
100
AcDbSpline
 70
8
 71
3
 72
8
 73
4
 74
0
 40
0
 40
0
 40
0
 40
0
 40
1
 40
1
 40
1
 40
1
 10
51.494087
 20
65.772402
 30
0.0
 10
51.494087
 20
65.264156
 30
0.0
 10
51.765232
 20
64.794517
 30
0.0
 10
52.205386
 20
64.540395
 30
0.0
  0
SPLINE
  5
11c
100
AcDbEntity
  8
Layer_1
 62
1
100
AcDbSpline
 70
8
 71
3
 72
8
 73
4
 74
0
 40
0
 40
0
 40
0
 40
0
 40
1
 40
1
 40
1
 40
1
 10
52.205386
 20
64.540395
 30
0.0
 10
52.645540
 20
64.286272
 30
0.0
 10
53.187832
 20
64.286272
 30
0.0
 10
53.627985
 20
64.540395
 30
0.0
  0
SPLINE
  5
11d
100
AcDbEntity
  8
Layer_1
 62
1
100
AcDbSpline
 70
8
 71
3
 72
8
 73
4
 74
0
 40
0
 40
0
 40
0
 40
0
 40
1
 40
1
 40
1
 40
1
 10
53.627985
 20
64.540395
 30
0.0
 10
54.068139
 20
64.794517
 30
0.0
 10
54.339285
 20
65.264156
 30
0.0
 10
54.339285
 20
65.772402
 30
0.0
  0
LWPOLYLINE
  5
11e
100
AcDbEntity
  8
Layer_1
 62
1
100
AcDbPolyline
 90
3
 70
1
 10
64.013737
 20
31.229256
 30
0.0
 10
72.970623
 20
15.715667
 30
0.0
 10
55.056986
 20
15.715667
 30
0.0
  0
SPLINE
  5
11f
100
AcDbEntity
  8
Layer_1
 62
1
100
AcDbSpline
 70
8
 71
3
 72
8
 73
4
 74
0
 40
0
 40
0
 40
0
 40
0
 40
1
 40
1
 40
1
 40
1
 10
43.205902
 20
59.344535
 30
0.0
 10
43.206293
 20
59.853040
 30
0.0
 10
42.935232
 20
60.323086
 30
0.0
 10
42.494918
 20
60.577452
 30
0.0
  0
SPLINE
  5
120
100
AcDbEntity
  8
Layer_1
 62
1
100
AcDbSpline
 70
8
 71
3
 72
8
 73
4
 74
0
 40
0
 40
0
 40
0
 40
0
 40
1
 40
1
 40
1
 40
1
 10
42.494918
 20
60.577452
 30
0.0
 10
42.054604
 20
60.831818
 30
0.0
 10
41.512002
 20
60.831818
 30
0.0
 10
41.071688
 20
60.577452
 30
0.0
  0
SPLINE
  5
121
100
AcDbEntity
  8
Layer_1
 62
1
100
AcDbSpline
 70
8
 71
3
 72
8
 73
4
 74
0
 40
0
 40
0
 40
0
 40
0
 40
1
 40
1
 40
1
 40
1
 10
41.071688
 20
60.577452
 30
0.0
 10
40.631374
 20
60.323086
 30
0.0
 10
40.360314
 20
59.853040
 30
0.0
 10
40.360705
 20
59.344535
 30
0.0
  0
SPLINE
  5
122
100
AcDbEntity
  8
Layer_1
 62
1
100
AcDbSpline
 70
8
 71
3
 72
8
 73
4
 74
0
 40
0
 40
0
 40
0
 40
0
 40
1
 40
1
 40
1
 40
1
 10
40.360705
 20
59.344535
 30
0.0
 10
40.360314
 20
58.836029
 30
0.0
 10
40.631374
 20
58.365983
 30
0.0
 10
41.071688
 20
58.111617
 30
0.0
  0
SPLINE
  5
123
100
AcDbEntity
  8
Layer_1
 62
1
100
AcDbSpline
 70
8
 71
3
 72
8
 73
4
 74
0
 40
0
 40
0
 40
0
 40
0
 40
1
 40
1
 40
1
 40
1
 10
41.071688
 20
58.111617
 30
0.0
 10
41.512002
 20
57.857251
 30
0.0
 10
42.054604
 20
57.857251
 30
0.0
 10
42.494918
 20
58.111617
 30
0.0
  0
SPLINE
  5
124
100
AcDbEntity
  8
Layer_1
 62
1
100
AcDbSpline
 70
8
 71
3
 72
8
 73
4
 74
0
 40
0
 40
0
 40
0
 40
0
 40
1
 40
1
 40
1
 40
1
 10
42.494918
 20
58.111617
 30
0.0
 10
42.935232
 20
58.365983
 30
0.0
 10
43.206293
 20
58.836029
 30
0.0
 10
43.205902
 20
59.344535
 30
0.0
  0
LWPOLYLINE
  5
125
100
AcDbEntity
  8
Layer_1
 62
1
100
AcDbPolyline
 90
1
 70
1
 10
54.339285
 20
65.772402
 30
0.0
  0
SPLINE
  5
126
100
AcDbEntity
  8
Layer_1
 62
1
100
AcDbSpline
 70
8
 71
3
 72
8
 73
4
 74
0
 40
0
 40
0
 40
0
 40
0
 40
1
 40
1
 40
1
 40
1
 10
43.205902
 20
46.488801
 30
0.0
 10
43.206293
 20
46.997307
 30
0.0
 10
42.935232
 20
47.467353
 30
0.0
 10
42.494918
 20
47.721719
 30
0.0
  0
SPLINE
  5
127
100
AcDbEntity
  8
Layer_1
 62
1
100
AcDbSpline
 70
8
 71
3
 72
8
 73
4
 74
0
 40
0
 40
0
 40
0
 40
0
 40
1
 40
1
 40
1
 40
1
 10
42.494918
 20
47.721719
 30
0.0
 10
42.054604
 20
47.976085
 30
0.0
 10
41.512002
 20
47.976085
 30
0.0
 10
41.071688
 20
47.721719
 30
0.0
  0
SPLINE
  5
128
100
AcDbEntity
  8
Layer_1
 62
1
100
AcDbSpline
 70
8
 71
3
 72
8
 73
4
 74
0
 40
0
 40
0
 40
0
 40
0
 40
1
 40
1
 40
1
 40
1
 10
41.071688
 20
47.721719
 30
0.0
 10
40.631374
 20
47.467353
 30
0.0
 10
40.360314
 20
46.997307
 30
0.0
 10
40.360705
 20
46.488801
 30
0.0
  0
SPLINE
  5
129
100
AcDbEntity
  8
Layer_1
 62
1
100
AcDbSpline
 70
8
 71
3
 72
8
 73
4
 74
0
 40
0
 40
0
 40
0
 40
0
 40
1
 40
1
 40
1
 40
1
 10
40.360705
 20
46.488801
 30
0.0
 10
40.360314
 20
45.980295
 30
0.0
 10
40.631374
 20
45.510249
 30
0.0
 10
41.071688
 20
45.255884
 30
0.0
  0
SPLINE
  5
12a
100
AcDbEntity
  8
Layer_1
 62
1
100
AcDbSpline
 70
8
 71
3
 72
8
 73
4
 74
0
 40
0
 40
0
 40
0
 40
0
 40
1
 40
1
 40
1
 40
1
 10
41.071688
 20
45.255884
 30
0.0
 10
41.512002
 20
45.001518
 30
0.0
 10
42.054604
 20
45.001518
 30
0.0
 10
42.494918
 20
45.255884
 30
0.0
  0
SPLINE
  5
12b
100
AcDbEntity
  8
Layer_1
 62
1
100
AcDbSpline
 70
8
 71
3
 72
8
 73
4
 74
0
 40
0
 40
0
 40
0
 40
0
 40
1
 40
1
 40
1
 40
1
 10
42.494918
 20
45.255884
 30
0.0
 10
42.935232
 20
45.510249
 30
0.0
 10
43.206293
 20
45.980295
 30
0.0
 10
43.205902
 20
46.488801
 30
0.0
  0
LWPOLYLINE
  5
12c
100
AcDbEntity
  8
Layer_1
 62
1
100
AcDbPolyline
 90
1
 70
1
 10
43.205902
 20
59.344535
 30
0.0
  0
SPLINE
  5
12d
100
AcDbEntity
  8
Layer_1
 62
1
100
AcDbSpline
 70
8
 71
3
 72
8
 73
4
 74
0
 40
0
 40
0
 40
0
 40
0
 40
1
 40
1
 40
1
 40
1
 10
54.339285
 20
40.060936
 30
0.0
 10
54.339285
 20
40.569182
 30
0.0
 10
54.068139
 20
41.038820
 30
0.0
 10
53.627985
 20
41.292943
 30
0.0
  0
SPLINE
  5
12e
100
AcDbEntity
  8
Layer_1
 62
1
100
AcDbSpline
 70
8
 71
3
 72
8
 73
4
 74
0
 40
0
 40
0
 40
0
 40
0
 40
1
 40
1
 40
1
 40
1
 10
53.627985
 20
41.292943
 30
0.0
 10
53.187832
 20
41.547066
 30
0.0
 10
52.645540
 20
41.547066
 30
0.0
 10
52.205386
 20
41.292943
 30
0.0
  0
SPLINE
  5
12f
100
AcDbEntity
  8
Layer_1
 62
1
100
AcDbSpline
 70
8
 71
3
 72
8
 73
4
 74
0
 40
0
 40
0
 40
0
 40
0
 40
1
 40
1
 40
1
 40
1
 10
52.205386
 20
41.292943
 30
0.0
 10
51.765232
 20
41.038820
 30
0.0
 10
51.494087
 20
40.569182
 30
0.0
 10
51.494087
 20
40.060936
 30
0.0
  0
SPLINE
  5
130
100
AcDbEntity
  8
Layer_1
 62
1
100
AcDbSpline
 70
8
 71
3
 72
8
 73
4
 74
0
 40
0
 40
0
 40
0
 40
0
 40
1
 40
1
 40
1
 40
1
 10
51.494087
 20
40.060936
 30
0.0
 10
51.494087
 20
39.552691
 30
0.0
 10
51.765232
 20
39.083052
 30
0.0
 10
52.205386
 20
38.828929
 30
0.0
  0
SPLINE
  5
131
100
AcDbEntity
  8
Layer_1
 62
1
100
AcDbSpline
 70
8
 71
3
 72
8
 73
4
 74
0
 40
0
 40
0
 40
0
 40
0
 40
1
 40
1
 40
1
 40
1
 10
52.205386
 20
38.828929
 30
0.0
 10
52.645540
 20
38.574806
 30
0.0
 10
53.187832
 20
38.574806
 30
0.0
 10
53.627985
 20
38.828929
 30
0.0
  0
SPLINE
  5
132
100
AcDbEntity
  8
Layer_1
 62
1
100
AcDbSpline
 70
8
 71
3
 72
8
 73
4
 74
0
 40
0
 40
0
 40
0
 40
0
 40
1
 40
1
 40
1
 40
1
 10
53.627985
 20
38.828929
 30
0.0
 10
54.068139
 20
39.083052
 30
0.0
 10
54.339285
 20
39.552691
 30
0.0
 10
54.339285
 20
40.060936
 30
0.0
  0
LWPOLYLINE
  5
133
100
AcDbEntity
  8
Layer_1
 62
1
100
AcDbPolyline
 90
1
 70
1
 10
43.205902
 20
46.488801
 30
0.0
  0
SPLINE
  5
134
100
AcDbEntity
  8
Layer_1
 62
1
100
AcDbSpline
 70
8
 71
3
 72
8
 73
4
 74
0
 40
0
 40
0
 40
0
 40
0
 40
1
 40
1
 40
1
 40
1
 10
65.472665
 20
46.488801
 30
0.0
 10
65.472941
 20
46.997231
 30
0.0
 10
65.201856
 20
47.467158
 30
0.0
 10
64.761589
 20
47.721452
 30
0.0
  0
SPLINE
  5
135
100
AcDbEntity
  8
Layer_1
 62
1
100
AcDbSpline
 70
8
 71
3
 72
8
 73
4
 74
0
 40
0
 40
0
 40
0
 40
0
 40
1
 40
1
 40
1
 40
1
 10
64.761589
 20
47.721452
 30
0.0
 10
64.321322
 20
47.975747
 30
0.0
 10
63.778811
 20
47.975747
 30
0.0
 10
63.338544
 20
47.721452
 30
0.0
  0
SPLINE
  5
136
100
AcDbEntity
  8
Layer_1
 62
1
100
AcDbSpline
 70
8
 71
3
 72
8
 73
4
 74
0
 40
0
 40
0
 40
0
 40
0
 40
1
 40
1
 40
1
 40
1
 10
63.338544
 20
47.721452
 30
0.0
 10
62.898277
 20
47.467158
 30
0.0
 10
62.627191
 20
46.997231
 30
0.0
 10
62.627467
 20
46.488801
 30
0.0
  0
SPLINE
  5
137
100
AcDbEntity
  8
Layer_1
 62
1
100
AcDbSpline
 70
8
 71
3
 72
8
 73
4
 74
0
 40
0
 40
0
 40
0
 40
0
 40
1
 40
1
 40
1
 40
1
 10
62.627467
 20
46.488801
 30
0.0
 10
62.627191
 20
45.980372
 30
0.0
 10
62.898277
 20
45.510445
 30
0.0
 10
63.338544
 20
45.256150
 30
0.0
  0
SPLINE
  5
138
100
AcDbEntity
  8
Layer_1
 62
1
100
AcDbSpline
 70
8
 71
3
 72
8
 73
4
 74
0
 40
0
 40
0
 40
0
 40
0
 40
1
 40
1
 40
1
 40
1
 10
63.338544
 20
45.256150
 30
0.0
 10
63.778811
 20
45.001856
 30
0.0
 10
64.321322
 20
45.001856
 30
0.0
 10
64.761589
 20
45.256150
 30
0.0
  0
SPLINE
  5
139
100
AcDbEntity
  8
Layer_1
 62
1
100
AcDbSpline
 70
8
 71
3
 72
8
 73
4
 74
0
 40
0
 40
0
 40
0
 40
0
 40
1
 40
1
 40
1
 40
1
 10
64.761589
 20
45.256150
 30
0.0
 10
65.201856
 20
45.510445
 30
0.0
 10
65.472941
 20
45.980372
 30
0.0
 10
65.472665
 20
46.488801
 30
0.0
  0
LWPOLYLINE
  5
13a
100
AcDbEntity
  8
Layer_1
 62
1
100
AcDbPolyline
 90
1
 70
1
 10
54.339285
 20
40.060936
 30
0.0
  0
SPLINE
  5
13b
100
AcDbEntity
  8
Layer_1
 62
1
100
AcDbSpline
 70
8
 71
3
 72
8
 73
4
 74
0
 40
0
 40
0
 40
0
 40
0
 40
1
 40
1
 40
1
 40
1
 10
65.472665
 20
59.344535
 30
0.0
 10
65.472941
 20
59.852964
 30
0.0
 10
65.201856
 20
60.322891
 30
0.0
 10
64.761589
 20
60.577186
 30
0.0
  0
SPLINE
  5
13c
100
AcDbEntity
  8
Layer_1
 62
1
100
AcDbSpline
 70
8
 71
3
 72
8
 73
4
 74
0
 40
0
 40
0
 40
0
 40
0
 40
1
 40
1
 40
1
 40
1
 10
64.761589
 20
60.577186
 30
0.0
 10
64.321322
 20
60.831480
 30
0.0
 10
63.778811
 20
60.831480
 30
0.0
 10
63.338544
 20
60.577186
 30
0.0
  0
SPLINE
  5
13d
100
AcDbEntity
  8
Layer_1
 62
1
100
AcDbSpline
 70
8
 71
3
 72
8
 73
4
 74
0
 40
0
 40
0
 40
0
 40
0
 40
1
 40
1
 40
1
 40
1
 10
63.338544
 20
60.577186
 30
0.0
 10
62.898277
 20
60.322891
 30
0.0
 10
62.627191
 20
59.852964
 30
0.0
 10
62.627467
 20
59.344535
 30
0.0
  0
SPLINE
  5
13e
100
AcDbEntity
  8
Layer_1
 62
1
100
AcDbSpline
 70
8
 71
3
 72
8
 73
4
 74
0
 40
0
 40
0
 40
0
 40
0
 40
1
 40
1
 40
1
 40
1
 10
62.627467
 20
59.344535
 30
0.0
 10
62.627191
 20
58.836105
 30
0.0
 10
62.898277
 20
58.366178
 30
0.0
 10
63.338544
 20
58.111884
 30
0.0
  0
SPLINE
  5
13f
100
AcDbEntity
  8
Layer_1
 62
1
100
AcDbSpline
 70
8
 71
3
 72
8
 73
4
 74
0
 40
0
 40
0
 40
0
 40
0
 40
1
 40
1
 40
1
 40
1
 10
63.338544
 20
58.111884
 30
0.0
 10
63.778811
 20
57.857589
 30
0.0
 10
64.321322
 20
57.857589
 30
0.0
 10
64.761589
 20
58.111884
 30
0.0
  0
SPLINE
  5
140
100
AcDbEntity
  8
Layer_1
 62
1
100
AcDbSpline
 70
8
 71
3
 72
8
 73
4
 74
0
 40
0
 40
0
 40
0
 40
0
 40
1
 40
1
 40
1
 40
1
 10
64.761589
 20
58.111884
 30
0.0
 10
65.201856
 20
58.366178
 30
0.0
 10
65.472941
 20
58.836105
 30
0.0
 10
65.472665
 20
59.344535
 30
0.0
  0
LWPOLYLINE
  5
141
100
AcDbEntity
  8
Layer_1
 62
1
100
AcDbPolyline
 90
1
 70
1
 10
65.472665
 20
46.488801
 30
0.0
  0
SPLINE
  5
142
100
AcDbEntity
  8
Layer_1
 62
1
100
AcDbSpline
 70
8
 71
3
 72
8
 73
4
 74
0
 40
0
 40
0
 40
0
 40
0
 40
1
 40
1
 40
1
 40
1
 10
32.072520
 20
65.772402
 30
0.0
 10
32.072520
 20
66.280647
 30
0.0
 10
31.801374
 20
66.750286
 30
0.0
 10
31.361221
 20
67.004409
 30
0.0
  0
SPLINE
  5
143
100
AcDbEntity
  8
Layer_1
 62
1
100
AcDbSpline
 70
8
 71
3
 72
8
 73
4
 74
0
 40
0
 40
0
 40
0
 40
0
 40
1
 40
1
 40
1
 40
1
 10
31.361221
 20
67.004409
 30
0.0
 10
30.921067
 20
67.258532
 30
0.0
 10
30.378775
 20
67.258532
 30
0.0
 10
29.938622
 20
67.004409
 30
0.0
  0
SPLINE
  5
144
100
AcDbEntity
  8
Layer_1
 62
1
100
AcDbSpline
 70
8
 71
3
 72
8
 73
4
 74
0
 40
0
 40
0
 40
0
 40
0
 40
1
 40
1
 40
1
 40
1
 10
29.938622
 20
67.004409
 30
0.0
 10
29.498468
 20
66.750286
 30
0.0
 10
29.227322
 20
66.280647
 30
0.0
 10
29.227322
 20
65.772402
 30
0.0
  0
SPLINE
  5
145
100
AcDbEntity
  8
Layer_1
 62
1
100
AcDbSpline
 70
8
 71
3
 72
8
 73
4
 74
0
 40
0
 40
0
 40
0
 40
0
 40
1
 40
1
 40
1
 40
1
 10
29.227322
 20
65.772402
 30
0.0
 10
29.227322
 20
65.264156
 30
0.0
 10
29.498468
 20
64.794517
 30
0.0
 10
29.938622
 20
64.540395
 30
0.0
  0
SPLINE
  5
146
100
AcDbEntity
  8
Layer_1
 62
1
100
AcDbSpline
 70
8
 71
3
 72
8
 73
4
 74
0
 40
0
 40
0
 40
0
 40
0
 40
1
 40
1
 40
1
 40
1
 10
29.938622
 20
64.540395
 30
0.0
 10
30.378775
 20
64.286272
 30
0.0
 10
30.921067
 20
64.286272
 30
0.0
 10
31.361221
 20
64.540395
 30
0.0
  0
SPLINE
  5
147
100
AcDbEntity
  8
Layer_1
 62
1
100
AcDbSpline
 70
8
 71
3
 72
8
 73
4
 74
0
 40
0
 40
0
 40
0
 40
0
 40
1
 40
1
 40
1
 40
1
 10
31.361221
 20
64.540395
 30
0.0
 10
31.801374
 20
64.794517
 30
0.0
 10
32.072520
 20
65.264156
 30
0.0
 10
32.072520
 20
65.772402
 30
0.0
  0
LWPOLYLINE
  5
148
100
AcDbEntity
  8
Layer_1
 62
1
100
AcDbPolyline
 90
1
 70
1
 10
65.472665
 20
59.344535
 30
0.0
  0
SPLINE
  5
149
100
AcDbEntity
  8
Layer_1
 62
1
100
AcDbSpline
 70
8
 71
3
 72
8
 73
4
 74
0
 40
0
 40
0
 40
0
 40
0
 40
1
 40
1
 40
1
 40
1
 10
20.939138
 20
59.344535
 30
0.0
 10
20.939589
 20
59.853081
 30
0.0
 10
20.668542
 20
60.323190
 30
0.0
 10
20.228203
 20
60.577593
 30
0.0
  0
SPLINE
  5
14a
100
AcDbEntity
  8
Layer_1
 62
1
100
AcDbSpline
 70
8
 71
3
 72
8
 73
4
 74
0
 40
0
 40
0
 40
0
 40
0
 40
1
 40
1
 40
1
 40
1
 10
20.228203
 20
60.577593
 30
0.0
 10
19.787865
 20
60.831997
 30
0.0
 10
19.245215
 20
60.831997
 30
0.0
 10
18.804876
 20
60.577593
 30
0.0
  0
SPLINE
  5
14b
100
AcDbEntity
  8
Layer_1
 62
1
100
AcDbSpline
 70
8
 71
3
 72
8
 73
4
 74
0
 40
0
 40
0
 40
0
 40
0
 40
1
 40
1
 40
1
 40
1
 10
18.804876
 20
60.577593
 30
0.0
 10
18.364537
 20
60.323190
 30
0.0
 10
18.093490
 20
59.853081
 30
0.0
 10
18.093941
 20
59.344535
 30
0.0
  0
SPLINE
  5
14c
100
AcDbEntity
  8
Layer_1
 62
1
100
AcDbSpline
 70
8
 71
3
 72
8
 73
4
 74
0
 40
0
 40
0
 40
0
 40
0
 40
1
 40
1
 40
1
 40
1
 10
18.093941
 20
59.344535
 30
0.0
 10
18.093490
 20
58.835988
 30
0.0
 10
18.364537
 20
58.365879
 30
0.0
 10
18.804876
 20
58.111476
 30
0.0
  0
SPLINE
  5
14d
100
AcDbEntity
  8
Layer_1
 62
1
100
AcDbSpline
 70
8
 71
3
 72
8
 73
4
 74
0
 40
0
 40
0
 40
0
 40
0
 40
1
 40
1
 40
1
 40
1
 10
18.804876
 20
58.111476
 30
0.0
 10
19.245215
 20
57.857072
 30
0.0
 10
19.787865
 20
57.857072
 30
0.0
 10
20.228203
 20
58.111476
 30
0.0
  0
SPLINE
  5
14e
100
AcDbEntity
  8
Layer_1
 62
1
100
AcDbSpline
 70
8
 71
3
 72
8
 73
4
 74
0
 40
0
 40
0
 40
0
 40
0
 40
1
 40
1
 40
1
 40
1
 10
20.228203
 20
58.111476
 30
0.0
 10
20.668542
 20
58.365879
 30
0.0
 10
20.939589
 20
58.835988
 30
0.0
 10
20.939138
 20
59.344535
 30
0.0
  0
LWPOLYLINE
  5
14f
100
AcDbEntity
  8
Layer_1
 62
1
100
AcDbPolyline
 90
1
 70
1
 10
32.072520
 20
65.772402
 30
0.0
  0
SPLINE
  5
150
100
AcDbEntity
  8
Layer_1
 62
1
100
AcDbSpline
 70
8
 71
3
 72
8
 73
4
 74
0
 40
0
 40
0
 40
0
 40
0
 40
1
 40
1
 40
1
 40
1
 10
20.939138
 20
46.488801
 30
0.0
 10
20.939495
 20
46.997284
 30
0.0
 10
20.668427
 20
47.467295
 30
0.0
 10
20.228127
 20
47.721639
 30
0.0
  0
SPLINE
  5
151
100
AcDbEntity
  8
Layer_1
 62
1
100
AcDbSpline
 70
8
 71
3
 72
8
 73
4
 74
0
 40
0
 40
0
 40
0
 40
0
 40
1
 40
1
 40
1
 40
1
 10
20.228127
 20
47.721639
 30
0.0
 10
19.787827
 20
47.975984
 30
0.0
 10
19.245252
 20
47.975984
 30
0.0
 10
18.804952
 20
47.721639
 30
0.0
  0
SPLINE
  5
152
100
AcDbEntity
  8
Layer_1
 62
1
100
AcDbSpline
 70
8
 71
3
 72
8
 73
4
 74
0
 40
0
 40
0
 40
0
 40
0
 40
1
 40
1
 40
1
 40
1
 10
18.804952
 20
47.721639
 30
0.0
 10
18.364652
 20
47.467295
 30
0.0
 10
18.093584
 20
46.997284
 30
0.0
 10
18.093941
 20
46.488801
 30
0.0
  0
SPLINE
  5
153
100
AcDbEntity
  8
Layer_1
 62
1
100
AcDbSpline
 70
8
 71
3
 72
8
 73
4
 74
0
 40
0
 40
0
 40
0
 40
0
 40
1
 40
1
 40
1
 40
1
 10
18.093941
 20
46.488801
 30
0.0
 10
18.093584
 20
45.980318
 30
0.0
 10
18.364652
 20
45.510308
 30
0.0
 10
18.804952
 20
45.255963
 30
0.0
  0
SPLINE
  5
154
100
AcDbEntity
  8
Layer_1
 62
1
100
AcDbSpline
 70
8
 71
3
 72
8
 73
4
 74
0
 40
0
 40
0
 40
0
 40
0
 40
1
 40
1
 40
1
 40
1
 10
18.804952
 20
45.255963
 30
0.0
 10
19.245252
 20
45.001618
 30
0.0
 10
19.787827
 20
45.001618
 30
0.0
 10
20.228127
 20
45.255963
 30
0.0
  0
SPLINE
  5
155
100
AcDbEntity
  8
Layer_1
 62
1
100
AcDbSpline
 70
8
 71
3
 72
8
 73
4
 74
0
 40
0
 40
0
 40
0
 40
0
 40
1
 40
1
 40
1
 40
1
 10
20.228127
 20
45.255963
 30
0.0
 10
20.668427
 20
45.510308
 30
0.0
 10
20.939495
 20
45.980318
 30
0.0
 10
20.939138
 20
46.488801
 30
0.0
  0
LWPOLYLINE
  5
156
100
AcDbEntity
  8
Layer_1
 62
1
100
AcDbPolyline
 90
1
 70
1
 10
20.939138
 20
59.344535
 30
0.0
  0
SPLINE
  5
157
100
AcDbEntity
  8
Layer_1
 62
1
100
AcDbSpline
 70
8
 71
3
 72
8
 73
4
 74
0
 40
0
 40
0
 40
0
 40
0
 40
1
 40
1
 40
1
 40
1
 10
32.072520
 20
40.060936
 30
0.0
 10
32.072746
 20
40.569332
 30
0.0
 10
31.801649
 20
41.039206
 30
0.0
 10
31.361403
 20
41.293469
 30
0.0
  0
SPLINE
  5
158
100
AcDbEntity
  8
Layer_1
 62
1
100
AcDbSpline
 70
8
 71
3
 72
8
 73
4
 74
0
 40
0
 40
0
 40
0
 40
0
 40
1
 40
1
 40
1
 40
1
 10
31.361403
 20
41.293469
 30
0.0
 10
30.921157
 20
41.547733
 30
0.0
 10
30.378686
 20
41.547733
 30
0.0
 10
29.938439
 20
41.293469
 30
0.0
  0
SPLINE
  5
159
100
AcDbEntity
  8
Layer_1
 62
1
100
AcDbSpline
 70
8
 71
3
 72
8
 73
4
 74
0
 40
0
 40
0
 40
0
 40
0
 40
1
 40
1
 40
1
 40
1
 10
29.938439
 20
41.293469
 30
0.0
 10
29.498193
 20
41.039206
 30
0.0
 10
29.227096
 20
40.569332
 30
0.0
 10
29.227322
 20
40.060936
 30
0.0
  0
SPLINE
  5
15a
100
AcDbEntity
  8
Layer_1
 62
1
100
AcDbSpline
 70
8
 71
3
 72
8
 73
4
 74
0
 40
0
 40
0
 40
0
 40
0
 40
1
 40
1
 40
1
 40
1
 10
29.227322
 20
40.060936
 30
0.0
 10
29.227096
 20
39.552540
 30
0.0
 10
29.498193
 20
39.082666
 30
0.0
 10
29.938439
 20
38.828403
 30
0.0
  0
SPLINE
  5
15b
100
AcDbEntity
  8
Layer_1
 62
1
100
AcDbSpline
 70
8
 71
3
 72
8
 73
4
 74
0
 40
0
 40
0
 40
0
 40
0
 40
1
 40
1
 40
1
 40
1
 10
29.938439
 20
38.828403
 30
0.0
 10
30.378686
 20
38.574140
 30
0.0
 10
30.921157
 20
38.574140
 30
0.0
 10
31.361403
 20
38.828403
 30
0.0
  0
SPLINE
  5
15c
100
AcDbEntity
  8
Layer_1
 62
1
100
AcDbSpline
 70
8
 71
3
 72
8
 73
4
 74
0
 40
0
 40
0
 40
0
 40
0
 40
1
 40
1
 40
1
 40
1
 10
31.361403
 20
38.828403
 30
0.0
 10
31.801649
 20
39.082666
 30
0.0
 10
32.072746
 20
39.552540
 30
0.0
 10
32.072520
 20
40.060936
 30
0.0
  0
LWPOLYLINE
  5
15d
100
AcDbEntity
  8
Layer_1
 62
1
100
AcDbPolyline
 90
1
 70
1
 10
20.939138
 20
46.488801
 30
0.0
  0
SPLINE
  5
15e
100
AcDbEntity
  8
Layer_1
 62
1
100
AcDbSpline
 70
8
 71
3
 72
8
 73
4
 74
0
 40
0
 40
0
 40
0
 40
0
 40
1
 40
1
 40
1
 40
1
 10
76.606049
 20
40.060936
 30
0.0
 10
76.606406
 20
40.569420
 30
0.0
 10
76.335338
 20
41.039431
 30
0.0
 10
75.895038
 20
41.293776
 30
0.0
  0
SPLINE
  5
15f
100
AcDbEntity
  8
Layer_1
 62
1
100
AcDbSpline
 70
8
 71
3
 72
8
 73
4
 74
0
 40
0
 40
0
 40
0
 40
0
 40
1
 40
1
 40
1
 40
1
 10
75.895038
 20
41.293776
 30
0.0
 10
75.454737
 20
41.548121
 30
0.0
 10
74.912162
 20
41.548121
 30
0.0
 10
74.471861
 20
41.293776
 30
0.0
  0
SPLINE
  5
160
100
AcDbEntity
  8
Layer_1
 62
1
100
AcDbSpline
 70
8
 71
3
 72
8
 73
4
 74
0
 40
0
 40
0
 40
0
 40
0
 40
1
 40
1
 40
1
 40
1
 10
74.471861
 20
41.293776
 30
0.0
 10
74.031561
 20
41.039431
 30
0.0
 10
73.760493
 20
40.569420
 30
0.0
 10
73.760850
 20
40.060936
 30
0.0
  0
SPLINE
  5
161
100
AcDbEntity
  8
Layer_1
 62
1
100
AcDbSpline
 70
8
 71
3
 72
8
 73
4
 74
0
 40
0
 40
0
 40
0
 40
0
 40
1
 40
1
 40
1
 40
1
 10
73.760850
 20
40.060936
 30
0.0
 10
73.760493
 20
39.552453
 30
0.0
 10
74.031561
 20
39.082442
 30
0.0
 10
74.471861
 20
38.828097
 30
0.0
  0
SPLINE
  5
162
100
AcDbEntity
  8
Layer_1
 62
1
100
AcDbSpline
 70
8
 71
3
 72
8
 73
4
 74
0
 40
0
 40
0
 40
0
 40
0
 40
1
 40
1
 40
1
 40
1
 10
74.471861
 20
38.828097
 30
0.0
 10
74.912162
 20
38.573752
 30
0.0
 10
75.454737
 20
38.573752
 30
0.0
 10
75.895038
 20
38.828097
 30
0.0
  0
SPLINE
  5
163
100
AcDbEntity
  8
Layer_1
 62
1
100
AcDbSpline
 70
8
 71
3
 72
8
 73
4
 74
0
 40
0
 40
0
 40
0
 40
0
 40
1
 40
1
 40
1
 40
1
 10
75.895038
 20
38.828097
 30
0.0
 10
76.335338
 20
39.082442
 30
0.0
 10
76.606406
 20
39.552453
 30
0.0
 10
76.606049
 20
40.060936
 30
0.0
  0
LWPOLYLINE
  5
164
100
AcDbEntity
  8
Layer_1
 62
1
100
AcDbPolyline
 90
1
 70
1
 10
32.072520
 20
40.060936
 30
0.0
  0
SPLINE
  5
165
100
AcDbEntity
  8
Layer_1
 62
1
100
AcDbSpline
 70
8
 71
3
 72
8
 73
4
 74
0
 40
0
 40
0
 40
0
 40
0
 40
1
 40
1
 40
1
 40
1
 10
87.739432
 20
46.488801
 30
0.0
 10
87.739806
 20
46.997296
 30
0.0
 10
87.468742
 20
47.467325
 30
0.0
 10
87.028435
 20
47.721680
 30
0.0
  0
SPLINE
  5
166
100
AcDbEntity
  8
Layer_1
 62
1
100
AcDbSpline
 70
8
 71
3
 72
8
 73
4
 74
0
 40
0
 40
0
 40
0
 40
0
 40
1
 40
1
 40
1
 40
1
 10
87.028435
 20
47.721680
 30
0.0
 10
86.588128
 20
47.976036
 30
0.0
 10
86.045539
 20
47.976036
 30
0.0
 10
85.605232
 20
47.721680
 30
0.0
  0
SPLINE
  5
167
100
AcDbEntity
  8
Layer_1
 62
1
100
AcDbSpline
 70
8
 71
3
 72
8
 73
4
 74
0
 40
0
 40
0
 40
0
 40
0
 40
1
 40
1
 40
1
 40
1
 10
85.605232
 20
47.721680
 30
0.0
 10
85.164925
 20
47.467325
 30
0.0
 10
84.893861
 20
46.997296
 30
0.0
 10
84.894235
 20
46.488801
 30
0.0
  0
SPLINE
  5
168
100
AcDbEntity
  8
Layer_1
 62
1
100
AcDbSpline
 70
8
 71
3
 72
8
 73
4
 74
0
 40
0
 40
0
 40
0
 40
0
 40
1
 40
1
 40
1
 40
1
 10
84.894235
 20
46.488801
 30
0.0
 10
84.893861
 20
45.980306
 30
0.0
 10
85.164925
 20
45.510278
 30
0.0
 10
85.605232
 20
45.255922
 30
0.0
  0
SPLINE
  5
169
100
AcDbEntity
  8
Layer_1
 62
1
100
AcDbSpline
 70
8
 71
3
 72
8
 73
4
 74
0
 40
0
 40
0
 40
0
 40
0
 40
1
 40
1
 40
1
 40
1
 10
85.605232
 20
45.255922
 30
0.0
 10
86.045539
 20
45.001567
 30
0.0
 10
86.588128
 20
45.001567
 30
0.0
 10
87.028435
 20
45.255922
 30
0.0
  0
SPLINE
  5
16a
100
AcDbEntity
  8
Layer_1
 62
1
100
AcDbSpline
 70
8
 71
3
 72
8
 73
4
 74
0
 40
0
 40
0
 40
0
 40
0
 40
1
 40
1
 40
1
 40
1
 10
87.028435
 20
45.255922
 30
0.0
 10
87.468742
 20
45.510278
 30
0.0
 10
87.739806
 20
45.980306
 30
0.0
 10
87.739432
 20
46.488801
 30
0.0
  0
LWPOLYLINE
  5
16b
100
AcDbEntity
  8
Layer_1
 62
1
100
AcDbPolyline
 90
1
 70
1
 10
76.606049
 20
40.060936
 30
0.0
  0
SPLINE
  5
16c
100
AcDbEntity
  8
Layer_1
 62
1
100
AcDbSpline
 70
8
 71
3
 72
8
 73
4
 74
0
 40
0
 40
0
 40
0
 40
0
 40
1
 40
1
 40
1
 40
1
 10
87.739432
 20
59.344535
 30
0.0
 10
87.739771
 20
59.853006
 30
0.0
 10
87.468699
 20
60.322998
 30
0.0
 10
87.028406
 20
60.577331
 30
0.0
  0
SPLINE
  5
16d
100
AcDbEntity
  8
Layer_1
 62
1
100
AcDbSpline
 70
8
 71
3
 72
8
 73
4
 74
0
 40
0
 40
0
 40
0
 40
0
 40
1
 40
1
 40
1
 40
1
 10
87.028406
 20
60.577331
 30
0.0
 10
86.588113
 20
60.831665
 30
0.0
 10
86.045552
 20
60.831665
 30
0.0
 10
85.605259
 20
60.577331
 30
0.0
  0
SPLINE
  5
16e
100
AcDbEntity
  8
Layer_1
 62
1
100
AcDbSpline
 70
8
 71
3
 72
8
 73
4
 74
0
 40
0
 40
0
 40
0
 40
0
 40
1
 40
1
 40
1
 40
1
 10
85.605259
 20
60.577331
 30
0.0
 10
85.164966
 20
60.322998
 30
0.0
 10
84.893894
 20
59.853006
 30
0.0
 10
84.894232
 20
59.344535
 30
0.0
  0
SPLINE
  5
16f
100
AcDbEntity
  8
Layer_1
 62
1
100
AcDbSpline
 70
8
 71
3
 72
8
 73
4
 74
0
 40
0
 40
0
 40
0
 40
0
 40
1
 40
1
 40
1
 40
1
 10
84.894232
 20
59.344535
 30
0.0
 10
84.893894
 20
58.836063
 30
0.0
 10
85.164966
 20
58.366071
 30
0.0
 10
85.605259
 20
58.111738
 30
0.0
  0
SPLINE
  5
170
100
AcDbEntity
  8
Layer_1
 62
1
100
AcDbSpline
 70
8
 71
3
 72
8
 73
4
 74
0
 40
0
 40
0
 40
0
 40
0
 40
1
 40
1
 40
1
 40
1
 10
85.605259
 20
58.111738
 30
0.0
 10
86.045552
 20
57.857404
 30
0.0
 10
86.588113
 20
57.857404
 30
0.0
 10
87.028406
 20
58.111738
 30
0.0
  0
SPLINE
  5
171
100
AcDbEntity
  8
Layer_1
 62
1
100
AcDbSpline
 70
8
 71
3
 72
8
 73
4
 74
0
 40
0
 40
0
 40
0
 40
0
 40
1
 40
1
 40
1
 40
1
 10
87.028406
 20
58.111738
 30
0.0
 10
87.468699
 20
58.366071
 30
0.0
 10
87.739771
 20
58.836063
 30
0.0
 10
87.739432
 20
59.344535
 30
0.0
  0
LWPOLYLINE
  5
172
100
AcDbEntity
  8
Layer_1
 62
1
100
AcDbPolyline
 90
1
 70
1
 10
87.739432
 20
46.488801
 30
0.0
  0
SPLINE
  5
173
100
AcDbEntity
  8
Layer_1
 62
1
100
AcDbSpline
 70
8
 71
3
 72
8
 73
4
 74
0
 40
0
 40
0
 40
0
 40
0
 40
1
 40
1
 40
1
 40
1
 10
76.606047
 20
65.772402
 30
0.0
 10
76.606437
 20
66.280907
 30
0.0
 10
76.335377
 20
66.750953
 30
0.0
 10
75.895063
 20
67.005319
 30
0.0
  0
SPLINE
  5
174
100
AcDbEntity
  8
Layer_1
 62
1
100
AcDbSpline
 70
8
 71
3
 72
8
 73
4
 74
0
 40
0
 40
0
 40
0
 40
0
 40
1
 40
1
 40
1
 40
1
 10
75.895063
 20
67.005319
 30
0.0
 10
75.454749
 20
67.259685
 30
0.0
 10
74.912147
 20
67.259685
 30
0.0
 10
74.471833
 20
67.005319
 30
0.0
  0
SPLINE
  5
175
100
AcDbEntity
  8
Layer_1
 62
1
100
AcDbSpline
 70
8
 71
3
 72
8
 73
4
 74
0
 40
0
 40
0
 40
0
 40
0
 40
1
 40
1
 40
1
 40
1
 10
74.471833
 20
67.005319
 30
0.0
 10
74.031519
 20
66.750953
 30
0.0
 10
73.760459
 20
66.280907
 30
0.0
 10
73.760850
 20
65.772402
 30
0.0
  0
SPLINE
  5
176
100
AcDbEntity
  8
Layer_1
 62
1
100
AcDbSpline
 70
8
 71
3
 72
8
 73
4
 74
0
 40
0
 40
0
 40
0
 40
0
 40
1
 40
1
 40
1
 40
1
 10
73.760850
 20
65.772402
 30
0.0
 10
73.760459
 20
65.263896
 30
0.0
 10
74.031519
 20
64.793850
 30
0.0
 10
74.471833
 20
64.539484
 30
0.0
  0
SPLINE
  5
177
100
AcDbEntity
  8
Layer_1
 62
1
100
AcDbSpline
 70
8
 71
3
 72
8
 73
4
 74
0
 40
0
 40
0
 40
0
 40
0
 40
1
 40
1
 40
1
 40
1
 10
74.471833
 20
64.539484
 30
0.0
 10
74.912147
 20
64.285118
 30
0.0
 10
75.454749
 20
64.285118
 30
0.0
 10
75.895063
 20
64.539484
 30
0.0
  0
SPLINE
  5
178
100
AcDbEntity
  8
Layer_1
 62
1
100
AcDbSpline
 70
8
 71
3
 72
8
 73
4
 74
0
 40
0
 40
0
 40
0
 40
0
 40
1
 40
1
 40
1
 40
1
 10
75.895063
 20
64.539484
 30
0.0
 10
76.335377
 20
64.793850
 30
0.0
 10
76.606437
 20
65.263896
 30
0.0
 10
76.606047
 20
65.772402
 30
0.0
  0
LWPOLYLINE
  5
179
100
AcDbEntity
  8
Layer_1
 62
1
100
AcDbPolyline
 90
1
 70
1
 10
87.739432
 20
59.344535
 30
0.0
  0
SPLINE
  5
17a
100
AcDbEntity
  8
Layer_1
 62
1
100
AcDbSpline
 70
8
 71
3
 72
8
 73
4
 74
0
 40
0
 40
0
 40
0
 40
0
 40
1
 40
1
 40
1
 40
1
 10
32.072520
 20
27.205229
 30
0.0
 10
32.072746
 20
27.713625
 30
0.0
 10
31.801649
 20
28.183499
 30
0.0
 10
31.361403
 20
28.437762
 30
0.0
  0
SPLINE
  5
17b
100
AcDbEntity
  8
Layer_1
 62
1
100
AcDbSpline
 70
8
 71
3
 72
8
 73
4
 74
0
 40
0
 40
0
 40
0
 40
0
 40
1
 40
1
 40
1
 40
1
 10
31.361403
 20
28.437762
 30
0.0
 10
30.921157
 20
28.692025
 30
0.0
 10
30.378686
 20
28.692025
 30
0.0
 10
29.938439
 20
28.437762
 30
0.0
  0
SPLINE
  5
17c
100
AcDbEntity
  8
Layer_1
 62
1
100
AcDbSpline
 70
8
 71
3
 72
8
 73
4
 74
0
 40
0
 40
0
 40
0
 40
0
 40
1
 40
1
 40
1
 40
1
 10
29.938439
 20
28.437762
 30
0.0
 10
29.498193
 20
28.183499
 30
0.0
 10
29.227096
 20
27.713625
 30
0.0
 10
29.227322
 20
27.205229
 30
0.0
  0
SPLINE
  5
17d
100
AcDbEntity
  8
Layer_1
 62
1
100
AcDbSpline
 70
8
 71
3
 72
8
 73
4
 74
0
 40
0
 40
0
 40
0
 40
0
 40
1
 40
1
 40
1
 40
1
 10
29.227322
 20
27.205229
 30
0.0
 10
29.227096
 20
26.696833
 30
0.0
 10
29.498193
 20
26.226959
 30
0.0
 10
29.938439
 20
25.972696
 30
0.0
  0
SPLINE
  5
17e
100
AcDbEntity
  8
Layer_1
 62
1
100
AcDbSpline
 70
8
 71
3
 72
8
 73
4
 74
0
 40
0
 40
0
 40
0
 40
0
 40
1
 40
1
 40
1
 40
1
 10
29.938439
 20
25.972696
 30
0.0
 10
30.378686
 20
25.718433
 30
0.0
 10
30.921157
 20
25.718433
 30
0.0
 10
31.361403
 20
25.972696
 30
0.0
  0
SPLINE
  5
17f
100
AcDbEntity
  8
Layer_1
 62
1
100
AcDbSpline
 70
8
 71
3
 72
8
 73
4
 74
0
 40
0
 40
0
 40
0
 40
0
 40
1
 40
1
 40
1
 40
1
 10
31.361403
 20
25.972696
 30
0.0
 10
31.801649
 20
26.226959
 30
0.0
 10
32.072746
 20
26.696833
 30
0.0
 10
32.072520
 20
27.205229
 30
0.0
  0
LWPOLYLINE
  5
180
100
AcDbEntity
  8
Layer_1
 62
1
100
AcDbPolyline
 90
1
 70
1
 10
76.606047
 20
65.772402
 30
0.0
  0
SPLINE
  5
181
100
AcDbEntity
  8
Layer_1
 62
1
100
AcDbSpline
 70
8
 71
3
 72
8
 73
4
 74
0
 40
0
 40
0
 40
0
 40
0
 40
1
 40
1
 40
1
 40
1
 10
43.205902
 20
20.777361
 30
0.0
 10
43.206293
 20
21.285867
 30
0.0
 10
42.935232
 20
21.755913
 30
0.0
 10
42.494918
 20
22.010279
 30
0.0
  0
SPLINE
  5
182
100
AcDbEntity
  8
Layer_1
 62
1
100
AcDbSpline
 70
8
 71
3
 72
8
 73
4
 74
0
 40
0
 40
0
 40
0
 40
0
 40
1
 40
1
 40
1
 40
1
 10
42.494918
 20
22.010279
 30
0.0
 10
42.054604
 20
22.264645
 30
0.0
 10
41.512002
 20
22.264645
 30
0.0
 10
41.071688
 20
22.010279
 30
0.0
  0
SPLINE
  5
183
100
AcDbEntity
  8
Layer_1
 62
1
100
AcDbSpline
 70
8
 71
3
 72
8
 73
4
 74
0
 40
0
 40
0
 40
0
 40
0
 40
1
 40
1
 40
1
 40
1
 10
41.071688
 20
22.010279
 30
0.0
 10
40.631374
 20
21.755913
 30
0.0
 10
40.360314
 20
21.285867
 30
0.0
 10
40.360705
 20
20.777361
 30
0.0
  0
SPLINE
  5
184
100
AcDbEntity
  8
Layer_1
 62
1
100
AcDbSpline
 70
8
 71
3
 72
8
 73
4
 74
0
 40
0
 40
0
 40
0
 40
0
 40
1
 40
1
 40
1
 40
1
 10
40.360705
 20
20.777361
 30
0.0
 10
40.360314
 20
20.268855
 30
0.0
 10
40.631374
 20
19.798809
 30
0.0
 10
41.071688
 20
19.544443
 30
0.0
  0
SPLINE
  5
185
100
AcDbEntity
  8
Layer_1
 62
1
100
AcDbSpline
 70
8
 71
3
 72
8
 73
4
 74
0
 40
0
 40
0
 40
0
 40
0
 40
1
 40
1
 40
1
 40
1
 10
41.071688
 20
19.544443
 30
0.0
 10
41.512002
 20
19.290078
 30
0.0
 10
42.054604
 20
19.290078
 30
0.0
 10
42.494918
 20
19.544443
 30
0.0
  0
SPLINE
  5
186
100
AcDbEntity
  8
Layer_1
 62
1
100
AcDbSpline
 70
8
 71
3
 72
8
 73
4
 74
0
 40
0
 40
0
 40
0
 40
0
 40
1
 40
1
 40
1
 40
1
 10
42.494918
 20
19.544443
 30
0.0
 10
42.935232
 20
19.798809
 30
0.0
 10
43.206293
 20
20.268855
 30
0.0
 10
43.205902
 20
20.777361
 30
0.0
  0
LWPOLYLINE
  5
187
100
AcDbEntity
  8
Layer_1
 62
1
100
AcDbPolyline
 90
1
 70
1
 10
32.072520
 20
27.205229
 30
0.0
  0
SPLINE
  5
188
100
AcDbEntity
  8
Layer_1
 62
1
100
AcDbSpline
 70
8
 71
3
 72
8
 73
4
 74
0
 40
0
 40
0
 40
0
 40
0
 40
1
 40
1
 40
1
 40
1
 10
54.339285
 20
27.205229
 30
0.0
 10
54.339285
 20
27.713475
 30
0.0
 10
54.068139
 20
28.183113
 30
0.0
 10
53.627985
 20
28.437236
 30
0.0
  0
SPLINE
  5
189
100
AcDbEntity
  8
Layer_1
 62
1
100
AcDbSpline
 70
8
 71
3
 72
8
 73
4
 74
0
 40
0
 40
0
 40
0
 40
0
 40
1
 40
1
 40
1
 40
1
 10
53.627985
 20
28.437236
 30
0.0
 10
53.187832
 20
28.691359
 30
0.0
 10
52.645540
 20
28.691359
 30
0.0
 10
52.205386
 20
28.437236
 30
0.0
  0
SPLINE
  5
18a
100
AcDbEntity
  8
Layer_1
 62
1
100
AcDbSpline
 70
8
 71
3
 72
8
 73
4
 74
0
 40
0
 40
0
 40
0
 40
0
 40
1
 40
1
 40
1
 40
1
 10
52.205386
 20
28.437236
 30
0.0
 10
51.765232
 20
28.183113
 30
0.0
 10
51.494087
 20
27.713475
 30
0.0
 10
51.494087
 20
27.205229
 30
0.0
  0
SPLINE
  5
18b
100
AcDbEntity
  8
Layer_1
 62
1
100
AcDbSpline
 70
8
 71
3
 72
8
 73
4
 74
0
 40
0
 40
0
 40
0
 40
0
 40
1
 40
1
 40
1
 40
1
 10
51.494087
 20
27.205229
 30
0.0
 10
51.494087
 20
26.696983
 30
0.0
 10
51.765232
 20
26.227345
 30
0.0
 10
52.205386
 20
25.973222
 30
0.0
  0
SPLINE
  5
18c
100
AcDbEntity
  8
Layer_1
 62
1
100
AcDbSpline
 70
8
 71
3
 72
8
 73
4
 74
0
 40
0
 40
0
 40
0
 40
0
 40
1
 40
1
 40
1
 40
1
 10
52.205386
 20
25.973222
 30
0.0
 10
52.645540
 20
25.719099
 30
0.0
 10
53.187832
 20
25.719099
 30
0.0
 10
53.627985
 20
25.973222
 30
0.0
  0
SPLINE
  5
18d
100
AcDbEntity
  8
Layer_1
 62
1
100
AcDbSpline
 70
8
 71
3
 72
8
 73
4
 74
0
 40
0
 40
0
 40
0
 40
0
 40
1
 40
1
 40
1
 40
1
 10
53.627985
 20
25.973222
 30
0.0
 10
54.068139
 20
26.227345
 30
0.0
 10
54.339285
 20
26.696983
 30
0.0
 10
54.339285
 20
27.205229
 30
0.0
  0
LWPOLYLINE
  5
18e
100
AcDbEntity
  8
Layer_1
 62
1
100
AcDbPolyline
 90
1
 70
1
 10
43.205902
 20
20.777361
 30
0.0
  0
SPLINE
  5
18f
100
AcDbEntity
  8
Layer_1
 62
1
100
AcDbSpline
 70
8
 71
3
 72
8
 73
4
 74
0
 40
0
 40
0
 40
0
 40
0
 40
1
 40
1
 40
1
 40
1
 10
65.472665
 20
20.777361
 30
0.0
 10
65.472941
 20
21.285791
 30
0.0
 10
65.201856
 20
21.755718
 30
0.0
 10
64.761589
 20
22.010012
 30
0.0
  0
SPLINE
  5
190
100
AcDbEntity
  8
Layer_1
 62
1
100
AcDbSpline
 70
8
 71
3
 72
8
 73
4
 74
0
 40
0
 40
0
 40
0
 40
0
 40
1
 40
1
 40
1
 40
1
 10
64.761589
 20
22.010012
 30
0.0
 10
64.321322
 20
22.264307
 30
0.0
 10
63.778811
 20
22.264307
 30
0.0
 10
63.338544
 20
22.010012
 30
0.0
  0
SPLINE
  5
191
100
AcDbEntity
  8
Layer_1
 62
1
100
AcDbSpline
 70
8
 71
3
 72
8
 73
4
 74
0
 40
0
 40
0
 40
0
 40
0
 40
1
 40
1
 40
1
 40
1
 10
63.338544
 20
22.010012
 30
0.0
 10
62.898277
 20
21.755718
 30
0.0
 10
62.627191
 20
21.285791
 30
0.0
 10
62.627467
 20
20.777361
 30
0.0
  0
SPLINE
  5
192
100
AcDbEntity
  8
Layer_1
 62
1
100
AcDbSpline
 70
8
 71
3
 72
8
 73
4
 74
0
 40
0
 40
0
 40
0
 40
0
 40
1
 40
1
 40
1
 40
1
 10
62.627467
 20
20.777361
 30
0.0
 10
62.627191
 20
20.268931
 30
0.0
 10
62.898277
 20
19.799005
 30
0.0
 10
63.338544
 20
19.544710
 30
0.0
  0
SPLINE
  5
193
100
AcDbEntity
  8
Layer_1
 62
1
100
AcDbSpline
 70
8
 71
3
 72
8
 73
4
 74
0
 40
0
 40
0
 40
0
 40
0
 40
1
 40
1
 40
1
 40
1
 10
63.338544
 20
19.544710
 30
0.0
 10
63.778811
 20
19.290416
 30
0.0
 10
64.321322
 20
19.290416
 30
0.0
 10
64.761589
 20
19.544710
 30
0.0
  0
SPLINE
  5
194
100
AcDbEntity
  8
Layer_1
 62
1
100
AcDbSpline
 70
8
 71
3
 72
8
 73
4
 74
0
 40
0
 40
0
 40
0
 40
0
 40
1
 40
1
 40
1
 40
1
 10
64.761589
 20
19.544710
 30
0.0
 10
65.201856
 20
19.799005
 30
0.0
 10
65.472941
 20
20.268931
 30
0.0
 10
65.472665
 20
20.777361
 30
0.0
  0
LWPOLYLINE
  5
195
100
AcDbEntity
  8
Layer_1
 62
1
100
AcDbPolyline
 90
1
 70
1
 10
54.339285
 20
27.205229
 30
0.0
  0
SPLINE
  5
196
100
AcDbEntity
  8
Layer_1
 62
1
100
AcDbSpline
 70
8
 71
3
 72
8
 73
4
 74
0
 40
0
 40
0
 40
0
 40
0
 40
1
 40
1
 40
1
 40
1
 10
76.606049
 20
27.205229
 30
0.0
 10
76.606406
 20
27.713713
 30
0.0
 10
76.335338
 20
28.183724
 30
0.0
 10
75.895038
 20
28.438068
 30
0.0
  0
SPLINE
  5
197
100
AcDbEntity
  8
Layer_1
 62
1
100
AcDbSpline
 70
8
 71
3
 72
8
 73
4
 74
0
 40
0
 40
0
 40
0
 40
0
 40
1
 40
1
 40
1
 40
1
 10
75.895038
 20
28.438068
 30
0.0
 10
75.454737
 20
28.692413
 30
0.0
 10
74.912162
 20
28.692413
 30
0.0
 10
74.471861
 20
28.438068
 30
0.0
  0
SPLINE
  5
198
100
AcDbEntity
  8
Layer_1
 62
1
100
AcDbSpline
 70
8
 71
3
 72
8
 73
4
 74
0
 40
0
 40
0
 40
0
 40
0
 40
1
 40
1
 40
1
 40
1
 10
74.471861
 20
28.438068
 30
0.0
 10
74.031561
 20
28.183724
 30
0.0
 10
73.760493
 20
27.713713
 30
0.0
 10
73.760850
 20
27.205229
 30
0.0
  0
SPLINE
  5
199
100
AcDbEntity
  8
Layer_1
 62
1
100
AcDbSpline
 70
8
 71
3
 72
8
 73
4
 74
0
 40
0
 40
0
 40
0
 40
0
 40
1
 40
1
 40
1
 40
1
 10
73.760850
 20
27.205229
 30
0.0
 10
73.760493
 20
26.696745
 30
0.0
 10
74.031561
 20
26.226734
 30
0.0
 10
74.471861
 20
25.972389
 30
0.0
  0
SPLINE
  5
19a
100
AcDbEntity
  8
Layer_1
 62
1
100
AcDbSpline
 70
8
 71
3
 72
8
 73
4
 74
0
 40
0
 40
0
 40
0
 40
0
 40
1
 40
1
 40
1
 40
1
 10
74.471861
 20
25.972389
 30
0.0
 10
74.912162
 20
25.718045
 30
0.0
 10
75.454737
 20
25.718045
 30
0.0
 10
75.895038
 20
25.972389
 30
0.0
  0
SPLINE
  5
19b
100
AcDbEntity
  8
Layer_1
 62
1
100
AcDbSpline
 70
8
 71
3
 72
8
 73
4
 74
0
 40
0
 40
0
 40
0
 40
0
 40
1
 40
1
 40
1
 40
1
 10
75.895038
 20
25.972389
 30
0.0
 10
76.335338
 20
26.226734
 30
0.0
 10
76.606406
 20
26.696745
 30
0.0
 10
76.606049
 20
27.205229
 30
0.0
  0
LWPOLYLINE
  5
19c
100
AcDbEntity
  8
Layer_1
 62
1
100
AcDbPolyline
 90
1
 70
1
 10
65.472665
 20
20.777361
 30
0.0
  0
SPLINE
  5
19d
100
AcDbEntity
  8
Layer_1
 62
1
100
AcDbSpline
 70
8
 71
3
 72
8
 73
4
 74
0
 40
0
 40
0
 40
0
 40
0
 40
1
 40
1
 40
1
 40
1
 10
43.205902
 20
85.055974
 30
0.0
 10
43.206293
 20
85.564479
 30
0.0
 10
42.935232
 20
86.034525
 30
0.0
 10
42.494918
 20
86.288891
 30
0.0
  0
SPLINE
  5
19e
100
AcDbEntity
  8
Layer_1
 62
1
100
AcDbSpline
 70
8
 71
3
 72
8
 73
4
 74
0
 40
0
 40
0
 40
0
 40
0
 40
1
 40
1
 40
1
 40
1
 10
42.494918
 20
86.288891
 30
0.0
 10
42.054604
 20
86.543257
 30
0.0
 10
41.512002
 20
86.543257
 30
0.0
 10
41.071688
 20
86.288891
 30
0.0
  0
SPLINE
  5
19f
100
AcDbEntity
  8
Layer_1
 62
1
100
AcDbSpline
 70
8
 71
3
 72
8
 73
4
 74
0
 40
0
 40
0
 40
0
 40
0
 40
1
 40
1
 40
1
 40
1
 10
41.071688
 20
86.288891
 30
0.0
 10
40.631374
 20
86.034525
 30
0.0
 10
40.360314
 20
85.564479
 30
0.0
 10
40.360705
 20
85.055974
 30
0.0
  0
SPLINE
  5
1a0
100
AcDbEntity
  8
Layer_1
 62
1
100
AcDbSpline
 70
8
 71
3
 72
8
 73
4
 74
0
 40
0
 40
0
 40
0
 40
0
 40
1
 40
1
 40
1
 40
1
 10
40.360705
 20
85.055974
 30
0.0
 10
40.360314
 20
84.547468
 30
0.0
 10
40.631374
 20
84.077422
 30
0.0
 10
41.071688
 20
83.823056
 30
0.0
  0
SPLINE
  5
1a1
100
AcDbEntity
  8
Layer_1
 62
1
100
AcDbSpline
 70
8
 71
3
 72
8
 73
4
 74
0
 40
0
 40
0
 40
0
 40
0
 40
1
 40
1
 40
1
 40
1
 10
41.071688
 20
83.823056
 30
0.0
 10
41.512002
 20
83.568690
 30
0.0
 10
42.054604
 20
83.568690
 30
0.0
 10
42.494918
 20
83.823056
 30
0.0
  0
SPLINE
  5
1a2
100
AcDbEntity
  8
Layer_1
 62
1
100
AcDbSpline
 70
8
 71
3
 72
8
 73
4
 74
0
 40
0
 40
0
 40
0
 40
0
 40
1
 40
1
 40
1
 40
1
 10
42.494918
 20
83.823056
 30
0.0
 10
42.935232
 20
84.077422
 30
0.0
 10
43.206293
 20
84.547468
 30
0.0
 10
43.205902
 20
85.055974
 30
0.0
  0
LWPOLYLINE
  5
1a3
100
AcDbEntity
  8
Layer_1
 62
1
100
AcDbPolyline
 90
1
 70
1
 10
76.606049
 20
27.205229
 30
0.0
  0
SPLINE
  5
1a4
100
AcDbEntity
  8
Layer_1
 62
1
100
AcDbSpline
 70
8
 71
3
 72
8
 73
4
 74
0
 40
0
 40
0
 40
0
 40
0
 40
1
 40
1
 40
1
 40
1
 10
65.472665
 20
85.055974
 30
0.0
 10
65.472941
 20
85.564403
 30
0.0
 10
65.201856
 20
86.034330
 30
0.0
 10
64.761589
 20
86.288625
 30
0.0
  0
SPLINE
  5
1a5
100
AcDbEntity
  8
Layer_1
 62
1
100
AcDbSpline
 70
8
 71
3
 72
8
 73
4
 74
0
 40
0
 40
0
 40
0
 40
0
 40
1
 40
1
 40
1
 40
1
 10
64.761589
 20
86.288625
 30
0.0
 10
64.321322
 20
86.542919
 30
0.0
 10
63.778811
 20
86.542919
 30
0.0
 10
63.338544
 20
86.288625
 30
0.0
  0
SPLINE
  5
1a6
100
AcDbEntity
  8
Layer_1
 62
1
100
AcDbSpline
 70
8
 71
3
 72
8
 73
4
 74
0
 40
0
 40
0
 40
0
 40
0
 40
1
 40
1
 40
1
 40
1
 10
63.338544
 20
86.288625
 30
0.0
 10
62.898277
 20
86.034330
 30
0.0
 10
62.627191
 20
85.564403
 30
0.0
 10
62.627467
 20
85.055974
 30
0.0
  0
SPLINE
  5
1a7
100
AcDbEntity
  8
Layer_1
 62
1
100
AcDbSpline
 70
8
 71
3
 72
8
 73
4
 74
0
 40
0
 40
0
 40
0
 40
0
 40
1
 40
1
 40
1
 40
1
 10
62.627467
 20
85.055974
 30
0.0
 10
62.627191
 20
84.547544
 30
0.0
 10
62.898277
 20
84.077617
 30
0.0
 10
63.338544
 20
83.823323
 30
0.0
  0
SPLINE
  5
1a8
100
AcDbEntity
  8
Layer_1
 62
1
100
AcDbSpline
 70
8
 71
3
 72
8
 73
4
 74
0
 40
0
 40
0
 40
0
 40
0
 40
1
 40
1
 40
1
 40
1
 10
63.338544
 20
83.823323
 30
0.0
 10
63.778811
 20
83.569028
 30
0.0
 10
64.321322
 20
83.569028
 30
0.0
 10
64.761589
 20
83.823323
 30
0.0
  0
SPLINE
  5
1a9
100
AcDbEntity
  8
Layer_1
 62
1
100
AcDbSpline
 70
8
 71
3
 72
8
 73
4
 74
0
 40
0
 40
0
 40
0
 40
0
 40
1
 40
1
 40
1
 40
1
 10
64.761589
 20
83.823323
 30
0.0
 10
65.201856
 20
84.077617
 30
0.0
 10
65.472941
 20
84.547544
 30
0.0
 10
65.472665
 20
85.055974
 30
0.0
  0
LWPOLYLINE
  5
1aa
100
AcDbEntity
  8
Layer_1
 62
1
100
AcDbPolyline
 90
1
 70
1
 10
43.205902
 20
85.055974
 30
0.0
  0
SPLINE
  5
1ab
100
AcDbEntity
  8
Layer_1
 62
1
100
AcDbSpline
 70
8
 71
3
 72
8
 73
4
 74
0
 40
0
 40
0
 40
0
 40
0
 40
1
 40
1
 40
1
 40
1
 10
32.072520
 20
78.628112
 30
0.0
 10
32.072746
 20
79.136508
 30
0.0
 10
31.801649
 20
79.606382
 30
0.0
 10
31.361403
 20
79.860645
 30
0.0
  0
SPLINE
  5
1ac
100
AcDbEntity
  8
Layer_1
 62
1
100
AcDbSpline
 70
8
 71
3
 72
8
 73
4
 74
0
 40
0
 40
0
 40
0
 40
0
 40
1
 40
1
 40
1
 40
1
 10
31.361403
 20
79.860645
 30
0.0
 10
30.921157
 20
80.114908
 30
0.0
 10
30.378686
 20
80.114908
 30
0.0
 10
29.938439
 20
79.860645
 30
0.0
  0
SPLINE
  5
1ad
100
AcDbEntity
  8
Layer_1
 62
1
100
AcDbSpline
 70
8
 71
3
 72
8
 73
4
 74
0
 40
0
 40
0
 40
0
 40
0
 40
1
 40
1
 40
1
 40
1
 10
29.938439
 20
79.860645
 30
0.0
 10
29.498193
 20
79.606382
 30
0.0
 10
29.227096
 20
79.136508
 30
0.0
 10
29.227322
 20
78.628112
 30
0.0
  0
SPLINE
  5
1ae
100
AcDbEntity
  8
Layer_1
 62
1
100
AcDbSpline
 70
8
 71
3
 72
8
 73
4
 74
0
 40
0
 40
0
 40
0
 40
0
 40
1
 40
1
 40
1
 40
1
 10
29.227322
 20
78.628112
 30
0.0
 10
29.227096
 20
78.119716
 30
0.0
 10
29.498193
 20
77.649842
 30
0.0
 10
29.938439
 20
77.395579
 30
0.0
  0
SPLINE
  5
1af
100
AcDbEntity
  8
Layer_1
 62
1
100
AcDbSpline
 70
8
 71
3
 72
8
 73
4
 74
0
 40
0
 40
0
 40
0
 40
0
 40
1
 40
1
 40
1
 40
1
 10
29.938439
 20
77.395579
 30
0.0
 10
30.378686
 20
77.141316
 30
0.0
 10
30.921157
 20
77.141316
 30
0.0
 10
31.361403
 20
77.395579
 30
0.0
  0
SPLINE
  5
1b0
100
AcDbEntity
  8
Layer_1
 62
1
100
AcDbSpline
 70
8
 71
3
 72
8
 73
4
 74
0
 40
0
 40
0
 40
0
 40
0
 40
1
 40
1
 40
1
 40
1
 10
31.361403
 20
77.395579
 30
0.0
 10
31.801649
 20
77.649842
 30
0.0
 10
32.072746
 20
78.119716
 30
0.0
 10
32.072520
 20
78.628112
 30
0.0
  0
LWPOLYLINE
  5
1b1
100
AcDbEntity
  8
Layer_1
 62
1
100
AcDbPolyline
 90
1
 70
1
 10
65.472665
 20
85.055974
 30
0.0
  0
SPLINE
  5
1b2
100
AcDbEntity
  8
Layer_1
 62
1
100
AcDbSpline
 70
8
 71
3
 72
8
 73
4
 74
0
 40
0
 40
0
 40
0
 40
0
 40
1
 40
1
 40
1
 40
1
 10
54.339285
 20
78.628112
 30
0.0
 10
54.339285
 20
79.136358
 30
0.0
 10
54.068139
 20
79.605996
 30
0.0
 10
53.627985
 20
79.860119
 30
0.0
  0
SPLINE
  5
1b3
100
AcDbEntity
  8
Layer_1
 62
1
100
AcDbSpline
 70
8
 71
3
 72
8
 73
4
 74
0
 40
0
 40
0
 40
0
 40
0
 40
1
 40
1
 40
1
 40
1
 10
53.627985
 20
79.860119
 30
0.0
 10
53.187832
 20
80.114242
 30
0.0
 10
52.645540
 20
80.114242
 30
0.0
 10
52.205386
 20
79.860119
 30
0.0
  0
SPLINE
  5
1b4
100
AcDbEntity
  8
Layer_1
 62
1
100
AcDbSpline
 70
8
 71
3
 72
8
 73
4
 74
0
 40
0
 40
0
 40
0
 40
0
 40
1
 40
1
 40
1
 40
1
 10
52.205386
 20
79.860119
 30
0.0
 10
51.765232
 20
79.605996
 30
0.0
 10
51.494087
 20
79.136358
 30
0.0
 10
51.494087
 20
78.628112
 30
0.0
  0
SPLINE
  5
1b5
100
AcDbEntity
  8
Layer_1
 62
1
100
AcDbSpline
 70
8
 71
3
 72
8
 73
4
 74
0
 40
0
 40
0
 40
0
 40
0
 40
1
 40
1
 40
1
 40
1
 10
51.494087
 20
78.628112
 30
0.0
 10
51.494087
 20
78.119866
 30
0.0
 10
51.765232
 20
77.650228
 30
0.0
 10
52.205386
 20
77.396105
 30
0.0
  0
SPLINE
  5
1b6
100
AcDbEntity
  8
Layer_1
 62
1
100
AcDbSpline
 70
8
 71
3
 72
8
 73
4
 74
0
 40
0
 40
0
 40
0
 40
0
 40
1
 40
1
 40
1
 40
1
 10
52.205386
 20
77.396105
 30
0.0
 10
52.645540
 20
77.141982
 30
0.0
 10
53.187832
 20
77.141982
 30
0.0
 10
53.627985
 20
77.396105
 30
0.0
  0
SPLINE
  5
1b7
100
AcDbEntity
  8
Layer_1
 62
1
100
AcDbSpline
 70
8
 71
3
 72
8
 73
4
 74
0
 40
0
 40
0
 40
0
 40
0
 40
1
 40
1
 40
1
 40
1
 10
53.627985
 20
77.396105
 30
0.0
 10
54.068139
 20
77.650228
 30
0.0
 10
54.339285
 20
78.119866
 30
0.0
 10
54.339285
 20
78.628112
 30
0.0
  0
LWPOLYLINE
  5
1b8
100
AcDbEntity
  8
Layer_1
 62
1
100
AcDbPolyline
 90
1
 70
1
 10
32.072520
 20
78.628112
 30
0.0
  0
SPLINE
  5
1b9
100
AcDbEntity
  8
Layer_1
 62
1
100
AcDbSpline
 70
8
 71
3
 72
8
 73
4
 74
0
 40
0
 40
0
 40
0
 40
0
 40
1
 40
1
 40
1
 40
1
 10
76.606049
 20
78.628112
 30
0.0
 10
76.606406
 20
79.136596
 30
0.0
 10
76.335338
 20
79.606607
 30
0.0
 10
75.895038
 20
79.860952
 30
0.0
  0
SPLINE
  5
1ba
100
AcDbEntity
  8
Layer_1
 62
1
100
AcDbSpline
 70
8
 71
3
 72
8
 73
4
 74
0
 40
0
 40
0
 40
0
 40
0
 40
1
 40
1
 40
1
 40
1
 10
75.895038
 20
79.860952
 30
0.0
 10
75.454737
 20
80.115297
 30
0.0
 10
74.912162
 20
80.115297
 30
0.0
 10
74.471861
 20
79.860952
 30
0.0
  0
SPLINE
  5
1bb
100
AcDbEntity
  8
Layer_1
 62
1
100
AcDbSpline
 70
8
 71
3
 72
8
 73
4
 74
0
 40
0
 40
0
 40
0
 40
0
 40
1
 40
1
 40
1
 40
1
 10
74.471861
 20
79.860952
 30
0.0
 10
74.031561
 20
79.606607
 30
0.0
 10
73.760493
 20
79.136596
 30
0.0
 10
73.760850
 20
78.628112
 30
0.0
  0
SPLINE
  5
1bc
100
AcDbEntity
  8
Layer_1
 62
1
100
AcDbSpline
 70
8
 71
3
 72
8
 73
4
 74
0
 40
0
 40
0
 40
0
 40
0
 40
1
 40
1
 40
1
 40
1
 10
73.760850
 20
78.628112
 30
0.0
 10
73.760493
 20
78.119629
 30
0.0
 10
74.031561
 20
77.649618
 30
0.0
 10
74.471861
 20
77.395273
 30
0.0
  0
SPLINE
  5
1bd
100
AcDbEntity
  8
Layer_1
 62
1
100
AcDbSpline
 70
8
 71
3
 72
8
 73
4
 74
0
 40
0
 40
0
 40
0
 40
0
 40
1
 40
1
 40
1
 40
1
 10
74.471861
 20
77.395273
 30
0.0
 10
74.912162
 20
77.140928
 30
0.0
 10
75.454737
 20
77.140928
 30
0.0
 10
75.895038
 20
77.395273
 30
0.0
  0
SPLINE
  5
1be
100
AcDbEntity
  8
Layer_1
 62
1
100
AcDbSpline
 70
8
 71
3
 72
8
 73
4
 74
0
 40
0
 40
0
 40
0
 40
0
 40
1
 40
1
 40
1
 40
1
 10
75.895038
 20
77.395273
 30
0.0
 10
76.335338
 20
77.649618
 30
0.0
 10
76.606406
 20
78.119629
 30
0.0
 10
76.606049
 20
78.628112
 30
0.0
  0
LWPOLYLINE
  5
1bf
100
AcDbEntity
  8
Layer_1
 62
1
100
AcDbPolyline
 90
1
 70
1
 10
54.339285
 20
78.628112
 30
0.0
  0
LWPOLYLINE
  5
1c0
100
AcDbEntity
  8
Layer_1
 62
1
100
AcDbPolyline
 90
1
 70
1
 10
76.606049
 20
78.628112
 30
0.0
  0
ENDSEC
  0
SECTION
  2
OBJECTS
  0
DICTIONARY
  5
C
330
0
100
AcDbDictionary
  3
ACAD_GROUP
350
D
  3
ACAD_MLINESTYLE
350
17
  0
DICTIONARY
  5
D
330
C
100
AcDbDictionary
  0
DICTIONARY
  5
1A
330
C
100
AcDbDictionary
  0
DICTIONARY
  5
17
330
C
100
AcDbDictionary
  3
STANDARD
350
18
  0
DICTIONARY
  5
19
330
C
100
AcDbDictionary
  0
ENDSEC
  0
EOF
