0
SECTION
2
HEADER
9
$INSUNITS
70
4
9
$ACADVER
1
AC1014
9
$HANDSEED
5
FFFF
0
ENDSEC
0
SECTION
2
TABLES
0
TABLE
2
VPORT
5
8
100
AcDbSymbolTable
0
ENDTAB
0
TABLE
2
LTYPE
5
5
100
AcDbSymbolTable
0
LTYPE
5
14
100
AcDbSymbolTableRecord
100
AcDbLinetypeTableRecord
2
BYBLOCK
70
0
0
LTYPE
5
15
100
AcDbSymbolTableRecord
100
AcDbLinetypeTableRecord
2
BYLAYER
70
0
0
ENDTAB
0
TABLE
2
LAYER
5
2
100
AcDbSymbolTable
70
2
0
LAYER
5
50
100
AcDbSymbolTableRecord
100
AcDbLayerTableRecord
2
0
70
0
6
CONTINUOUS
0
ENDTAB
0
TABLE
2
STYLE
5
3
100
AcDbSymbolTable
70
1
0
STYLE
5
11
100
AcDbSymbolTableRecord
100
AcDbTextStyleTableRecord
2
STANDARD
70
0
0
ENDTAB
0
TABLE
2
VIEW
5
6
100
AcDbSymbolTable
70
0
0
ENDTAB
0
TABLE
2
UCS
5
7
100
AcDbSymbolTable
70
0
0
ENDTAB
0
TABLE
2
APPID
5
9
100
AcDbSymbolTable
70
2
0
APPID
5
12
100
AcDbSymbolTableRecord
100
AcDbRegAppTableRecord
2
ACAD
70
0
0
ENDTAB
0
TABLE
2
DIMSTYLE
5
A
100
AcDbSymbolTable
70
1
0
ENDTAB
0
TABLE
2
BLOCK_RECORD
5
1
100
AcDbSymbolTable
70
1
0
BLOCK_RECORD
5
1F
100
AcDbSymbolTableRecord
100
AcDbBlockTableRecord
2
*MODEL_SPACE
0
BLOCK_RECORD
5
1B
100
AcDbSymbolTableRecord
100
AcDbBlockTableRecord
2
*PAPER_SPACE
0
ENDTAB
0
ENDSEC
0
SECTION
2
BLOCKS
0
BLOCK
5
20
100
AcDbEntity
100
AcDbBlockBegin
2
*MODEL_SPACE
0
ENDBLK
5
21
100
AcDbEntity
100
AcDbBlockEnd
0
BLOCK
5
1C
100
AcDbEntity
100
AcDbBlockBegin
2
*PAPER_SPACE
0
ENDBLK
5
1D
100
AcDbEntity
100
AcDbBlockEnd
0
ENDSEC
0
SECTION
2
ENTITIES
0
LWPOLYLINE
5
100
100
AcDbEntity
8
0
100
AcDbPolyline
90
6
70
1
43
0.0
10
-173.20464061176222
20
-0.39047477656600549
10
-86.940481381924315
20
149.80438143485696
10
86.264159229838029
20
150.19485621142286
10
173.20464061176224
20
0.39047477656589891
10
86.940481381924286
20
-149.80438143485696
10
-86.264159229837929
20
-150.19485621142294
0
LINE
5
101
100
AcDbEntity
8
0
100
AcDbLine
10
-17.65862513721914
20
149.96057134548107
30
0
11
-34.911456983186305
21
119.92160010319665
31
0
0
LINE
5
102
100
AcDbEntity
8
0
100
AcDbLine
10
-34.911456983186305
20
119.92160010319665
30
0
11
-17.523360706801427
21
89.960723816225808
31
0
0
LINE
5
103
100
AcDbEntity
8
0
100
AcDbLine
10
-17.523360706801427
20
89.960723816225808
30
0
11
17.117567415550639
21
90.038818771539226
31
0
0
LINE
5
104
100
AcDbEntity
8
0
100
AcDbLine
10
17.117567415550639
20
90.038818771539226
30
0
11
34.370399261517754
21
120.07779001382362
31
0
0
LINE
5
105
100
AcDbEntity
8
0
100
AcDbLine
10
34.370399261517754
20
120.07779001382362
30
0
11
16.982302985132872
21
150.03866630079457
31
0
0
LINE
5
106
100
AcDbEntity
8
0
100
AcDbLine
10
16.982302985132872
20
150.03866630079457
30
0
11
-17.65862513721914
21
149.96057134548107
31
0
0
LWPOLYLINE
5
107
100
AcDbEntity
8
0
100
AcDbPolyline
90
6
70
1
43
0.0
10
-121.44614507385782
20
89.726438950286678
10
-86.805216951505741
20
89.804533905600124
10
-69.417120675120827
20
59.843657618629216
10
-86.669952521088035
20
29.80468637634484
10
-121.31088064344002
20
29.726591421031358
10
-138.69897691982493
20
59.687467708002302
0
LWPOLYLINE
5
108
100
AcDbEntity
8
0
100
AcDbPolyline
90
6
70
1
43
0.0
10
-138.42844805899074
20
-60.312227350507882
10
-121.17561621302352
20
-30.273256108223492
10
-86.53468809067148
20
-30.195161152910003
10
-69.146591814286623
20
-60.156037439880961
10
-86.399423660253731
20
-90.19500868216528
10
-121.04035178260581
20
-90.273103637478741
0
LWPOLYLINE
5
109
100
AcDbEntity
8
0
100
AcDbPolyline
90
6
70
1
43
0.0
10
-16.98230298513289
20
-150.03866630079457
10
-34.370399261517768
20
-120.07779001382362
10
-17.117567415550649
20
-90.038818771539226
10
17.523360706801416
20
-89.960723816225808
10
34.911456983186291
20
-119.92160010319665
10
17.658625137219126
20
-149.96057134548107
0
LWPOLYLINE
5
110
100
AcDbEntity
8
0
100
AcDbPolyline
90
6
70
1
43
0.0
10
121.44614507385779
20
-89.726438950286692
10
86.805216951505727
20
-89.804533905600124
10
69.417120675120813
20
-59.843657618629216
10
86.669952521088021
20
-29.804686376344854
10
121.31088064343999
20
-29.726591421031383
10
138.6989769198249
20
-59.68746770800233
0
LWPOLYLINE
5
111
100
AcDbEntity
8
0
100
AcDbPolyline
90
6
70
1
43
0.0
10
138.42844805899074
20
60.312227350507811
10
121.17561621302355
20
30.273256108223432
10
86.534688090671494
20
30.195161152909954
10
69.146591814286651
20
60.156037439880919
10
86.399423660253788
20
90.195008682165238
10
121.04035178260585
20
90.273103637478698
0
LINE
5
112
100
AcDbEntity
8
0
100
AcDbLine
10
34.370399261517754
20
120.07779001382362
30
0
11
17.117567415550639
21
90.038818771539226
31
0
0
LINE
5
113
100
AcDbEntity
8
0
100
AcDbLine
10
17.117567415550639
20
90.038818771539226
30
0
11
34.505663691935538
21
60.07794248456829
31
0
0
LINE
5
114
100
AcDbEntity
8
0
100
AcDbLine
10
34.505663691935538
20
60.07794248456829
30
0
11
69.146591814287603
21
60.156037439881771
31
0
0
LINE
5
115
100
AcDbEntity
8
0
100
AcDbLine
10
69.146591814287603
20
60.156037439881771
30
0
11
86.399423660254769
21
90.195008682166176
31
0
0
LINE
5
116
100
AcDbEntity
8
0
100
AcDbLine
10
86.399423660254769
20
90.195008682166176
30
0
11
69.011327383869855
21
120.15588496913711
31
0
0
LINE
5
117
100
AcDbEntity
8
0
100
AcDbLine
10
69.011327383869855
20
120.15588496913711
30
0
11
34.370399261517754
21
120.07779001382362
31
0
0
LWPOLYLINE
5
118
100
AcDbEntity
8
0
100
AcDbPolyline
90
6
70
1
43
0.0
10
-69.552385105538576
20
119.84350514788454
10
-34.911456983186525
20
119.921600103198
10
-17.523360706801611
20
89.960723816227073
10
-34.776192552768762
20
59.921752573942669
10
-69.417120675120827
20
59.843657618629216
10
-86.805216951505741
20
89.804533905600124
0
LWPOLYLINE
5
119
100
AcDbEntity
8
0
100
AcDbPolyline
90
6
70
1
43
0.0
10
-138.56371248940846
20
-0.31237982125253971
10
-121.31088064344129
20
29.726591421031856
10
-86.669952521089215
20
29.80468637634532
10
-69.281856244704315
20
-0.15618991062560816
10
-86.53468809067148
20
-30.195161152910003
10
-121.17561621302352
20
-30.273256108223492
0
LWPOLYLINE
5
120
100
AcDbEntity
8
0
100
AcDbPolyline
90
6
70
1
43
0.0
10
-69.011327383869869
20
-120.15588496913711
10
-86.399423660254783
20
-90.195008682166161
10
-69.146591814287618
20
-60.156037439881764
10
-34.505663691935546
20
-60.07794248456829
10
-17.117567415550649
20
-90.038818771539226
10
-34.370399261517768
20
-120.07779001382362
0
LWPOLYLINE
5
121
100
AcDbEntity
8
0
100
AcDbPolyline
90
6
70
1
43
0.0
10
69.552385105538562
20
-119.84350514788453
10
34.911456983186483
20
-119.921600103198
10
17.523360706801586
20
-89.960723816227073
10
34.776192552768748
20
-59.921752573942669
10
69.417120675120813
20
-59.843657618629216
10
86.805216951505727
20
-89.804533905600124
0
LWPOLYLINE
5
122
100
AcDbEntity
8
0
100
AcDbPolyline
90
6
70
1
43
0.0
10
138.56371248940846
20
0.31237982125247754
10
121.31088064344127
20
-29.726591421031916
10
86.669952521089201
20
-29.804686376345366
10
69.281856244704301
20
0.15618991062557264
10
86.534688090671494
20
30.195161152909954
10
121.17561621302355
20
30.273256108223432
0
LINE
5
123
100
AcDbEntity
8
0
100
AcDbLine
10
-34.776192552768762
20
59.921752573942669
30
0
11
0
21
0
31
0
0
LINE
5
124
100
AcDbEntity
8
0
100
AcDbLine
10
-69.281856244704315
20
-0.15618991062560816
30
0
11
0
21
0
31
0
0
LINE
5
125
100
AcDbEntity
8
0
100
AcDbLine
10
-34.505663691935567
20
-60.077942484568283
30
0
11
0
21
0
31
0
0
LINE
5
126
100
AcDbEntity
8
0
100
AcDbLine
10
34.776192552768748
20
-59.921752573942669
30
0
11
0
21
0
31
0
0
LINE
5
127
100
AcDbEntity
8
0
100
AcDbLine
10
69.281856244704301
20
0.15618991062559484
30
0
11
0
21
0
31
0
0
LINE
5
128
100
AcDbEntity
8
0
100
AcDbLine
10
34.505663691935602
20
60.077942484568261
30
0
11
0
21
0
31
0
0
ENDSEC
0
SECTION
2
OBJECTS
0
DICTIONARY
5
C
100
AcDbDictionary
3
ACAD_GROUP
350
D
3
ACAD_MLINESTYLE
350
17
0
DICTIONARY
5
D
100
AcDbDictionary
0
DICTIONARY
5
1A
330
C
100
AcDbDictionary
0
DICTIONARY
5
17
100
AcDbDictionary
0
ENDSEC
0
EOF
