0
SECTION
2
HEADER
9
$INSUNITS
70
4
9
$ACADVER
1
AC1014
9
$HANDSEED
5
FFFF
0
ENDSEC
0
SECTION
2
TABLES
0
TABLE
2
VPORT
5
8
100
AcDbSymbolTable
0
ENDTAB
0
TABLE
2
LTYPE
5
5
100
AcDbSymbolTable
0
LTYPE
5
14
100
AcDbSymbolTableRecord
100
AcDbLinetypeTableRecord
2
BYBLOCK
70
0
0
LTYPE
5
15
100
AcDbSymbolTableRecord
100
AcDbLinetypeTableRecord
2
BYLAYER
70
0
0
ENDTAB
0
TABLE
2
LAYER
5
2
100
AcDbSymbolTable
70
2
0
LAYER
5
50
100
AcDbSymbolTableRecord
100
AcDbLayerTableRecord
2
0
70
0
6
CONTINUOUS
0
ENDTAB
0
TABLE
2
STYLE
5
3
100
AcDbSymbolTable
70
1
0
STYLE
5
11
100
AcDbSymbolTableRecord
100
AcDbTextStyleTableRecord
2
STANDARD
70
0
0
ENDTAB
0
TABLE
2
VIEW
5
6
100
AcDbSymbolTable
70
0
0
ENDTAB
0
TABLE
2
UCS
5
7
100
AcDbSymbolTable
70
0
0
ENDTAB
0
TABLE
2
APPID
5
9
100
AcDbSymbolTable
70
2
0
APPID
5
12
100
AcDbSymbolTableRecord
100
AcDbRegAppTableRecord
2
ACAD
70
0
0
ENDTAB
0
TABLE
2
DIMSTYLE
5
A
100
AcDbSymbolTable
70
1
0
ENDTAB
0
TABLE
2
BLOCK_RECORD
5
1
100
AcDbSymbolTable
70
1
0
BLOCK_RECORD
5
1F
100
AcDbSymbolTableRecord
100
AcDbBlockTableRecord
2
*MODEL_SPACE
0
BLOCK_RECORD
5
1B
100
AcDbSymbolTableRecord
100
AcDbBlockTableRecord
2
*PAPER_SPACE
0
ENDTAB
0
ENDSEC
0
SECTION
2
BLOCKS
0
BLOCK
5
20
100
AcDbEntity
100
AcDbBlockBegin
2
*MODEL_SPACE
0
ENDBLK
5
21
100
AcDbEntity
100
AcDbBlockEnd
0
BLOCK
5
1C
100
AcDbEntity
100
AcDbBlockBegin
2
*PAPER_SPACE
0
ENDBLK
5
1D
100
AcDbEntity
100
AcDbBlockEnd
0
ENDSEC
0
SECTION
2
ENTITIES
0
LINE
5
100
100
AcDbEntity
8
0
100
AcDbLine
10
-86.940481381924172
20
149.80438143485699
30
0
11
-173.20464061176216
21
-0.39047477656583673
31
0
0
LINE
5
101
100
AcDbEntity
8
0
100
AcDbLine
10
-173.20464061176216
20
-0.39047477656583673
30
0
11
-86.264159229838029
21
-150.19485621142283
31
0
0
LINE
5
102
100
AcDbEntity
8
0
100
AcDbLine
10
-86.264159229838029
20
-150.19485621142283
30
0
11
86.940481381924144
21
-149.80438143485702
31
0
0
LINE
5
103
100
AcDbEntity
8
0
100
AcDbLine
10
86.940481381924144
20
-149.80438143485702
30
0
11
173.20464061176222
21
0.39047477656579233
31
0
0
LINE
5
104
100
AcDbEntity
8
0
100
AcDbLine
10
173.20464061176222
20
0.39047477656579233
30
0
11
86.2641592298381
21
150.19485621142283
31
0
0
LINE
5
105
100
AcDbEntity
8
0
100
AcDbLine
10
86.2641592298381
20
150.19485621142283
30
0
11
-86.940481381924172
21
149.80438143485699
31
0
0
LINE
5
106
100
AcDbEntity
8
0
100
AcDbLine
10
-0.33816107604317303
20
149.99961882314003
30
0
11
0.33816107604305756
21
-149.99961882313994
31
0
0
CIRCLE
5
107
100
AcDbEntity
8
0
100
AcDbCircle
10
-0.27052868896854432
20
119.99961882314003
30
0
40
6
0
CIRCLE
5
108
100
AcDbEntity
8
0
100
AcDbCircle
10
-104.05798268977284
20
59.765524694470756
30
0
40
6
0
CIRCLE
5
109
100
AcDbEntity
8
0
100
AcDbCircle
10
-103.7874540008043
20
-60.234094128669248
30
0
40
6
0
CIRCLE
5
110
100
AcDbEntity
8
0
100
AcDbCircle
10
0.27052868896852961
20
-119.99961882314003
30
0
40
6
0
CIRCLE
5
111
100
AcDbEntity
8
0
100
AcDbCircle
10
104.0579826897728
20
-59.765524694470777
30
0
40
6
0
CIRCLE
5
112
100
AcDbEntity
8
0
100
AcDbCircle
10
103.78745400080433
20
60.234094128669192
30
0
40
6
0
LINE
5
113
100
AcDbEntity
8
0
100
AcDbLine
10
86.2641592298381
20
150.19485621142283
30
0
11
-86.264159229838029
21
-150.19485621142283
31
0
0
CIRCLE
5
114
100
AcDbEntity
8
0
100
AcDbCircle
10
51.758495537902334
20
90.116913726852786
30
0
40
5.9999999999999956
0
LINE
5
115
100
AcDbEntity
8
0
100
AcDbLine
10
69.011327383869855
20
120.15588496913711
30
0
11
34.370399261517754
21
120.07779001382362
31
0
0
CIRCLE
5
116
100
AcDbEntity
8
0
100
AcDbCircle
10
-52.164288829153932
20
89.882628860913343
30
0
40
5.9999999999999956
0
CIRCLE
5
117
100
AcDbEntity
8
0
100
AcDbCircle
10
-103.92278436705627
20
-0.23428486593942921
30
0
40
5.9999999999999956
0
CIRCLE
5
118
100
AcDbEntity
8
0
100
AcDbCircle
10
-51.758495537902348
20
-90.116913726852786
30
0
40
5.9999999999999956
0
CIRCLE
5
119
100
AcDbEntity
8
0
100
AcDbCircle
10
52.164288829153904
20
-89.882628860913343
30
0
40
5.9999999999999956
0
CIRCLE
5
120
100
AcDbEntity
8
0
100
AcDbCircle
10
103.92278436705627
20
0.23428486593937592
30
0
40
5.9999999999999956
0
CIRCLE
5
121
100
AcDbEntity
8
0
100
AcDbCircle
10
-0.10144832281302188
20
44.999885646941152
30
0
40
5.9999999999999964
0
LINE
5
122
100
AcDbEntity
8
0
100
AcDbLine
10
-17.523360706801427
20
89.960723816225808
30
0
11
17.117567415550639
21
90.038818771539226
31
0
0
CIRCLE
5
123
100
AcDbEntity
8
0
100
AcDbCircle
10
-39.021768299052297
20
22.412085998743201
30
0
40
5.9999999999999964
0
CIRCLE
5
124
100
AcDbEntity
8
0
100
AcDbCircle
10
-38.920319976239313
20
-22.587799648197944
30
0
40
5.9999999999999964
0
CIRCLE
5
125
100
AcDbEntity
8
0
100
AcDbCircle
10
0.1014483228129625
20
-44.999885646941152
30
0
40
5.9999999999999964
0
CIRCLE
5
126
100
AcDbEntity
8
0
100
AcDbCircle
10
39.021768299052241
20
-22.412085998743223
30
0
40
5.9999999999999964
0
CIRCLE
5
127
100
AcDbEntity
8
0
100
AcDbCircle
10
38.92031997623927
20
22.587799648197922
30
0
40
5.9999999999999964
0
CIRCLE
5
128
100
AcDbEntity
8
0
100
AcDbCircle
10
51.657047215088284
20
135.11679937379589
30
0
40
6
0
CIRCLE
5
129
100
AcDbEntity
8
0
100
AcDbCircle
10
-91.186057128208404
20
112.29471485965661
30
0
40
6
0
CIRCLE
5
130
100
AcDbEntity
8
0
100
AcDbCircle
10
-142.84310434329672
20
-22.822084514139263
30
0
40
6
0
CIRCLE
5
131
100
AcDbEntity
8
0
100
AcDbCircle
10
-51.657047215088305
20
-135.11679937379589
30
0
40
6
0
CIRCLE
5
132
100
AcDbEntity
8
0
100
AcDbCircle
10
91.186057128208375
20
-112.29471485965661
30
0
40
6
0
CIRCLE
5
133
100
AcDbEntity
8
0
100
AcDbCircle
10
142.84310434329672
20
22.822084514139185
30
0
40
6
0
LINE
5
134
100
AcDbEntity
8
0
100
AcDbLine
10
86.399423660254769
20
90.195008682166176
30
0
11
69.011327383869855
21
120.15588496913711
31
0
0
CIRCLE
5
135
100
AcDbEntity
8
0
100
AcDbCircle
10
90.678815514142656
20
112.70471337505282
30
0
40
5.999999999999992
0
LINE
5
136
100
AcDbEntity
8
0
100
AcDbLine
10
173.20464061176224
20
0.39047477656590779
30
0
11
86.264159229838029
21
150.19485621142286
31
0
0
CIRCLE
5
137
100
AcDbEntity
8
0
100
AcDbCircle
10
-52.265737151968196
20
134.88251450785643
30
0
40
5.999999999999992
0
CIRCLE
5
138
100
AcDbEntity
8
0
100
AcDbCircle
10
-142.94455266611084
20
22.177801132803651
30
0
40
5.999999999999992
0
CIRCLE
5
139
100
AcDbEntity
8
0
100
AcDbCircle
10
-90.67881551414267
20
-112.70471337505279
30
0
40
5.999999999999992
0
CIRCLE
5
140
100
AcDbEntity
8
0
100
AcDbCircle
10
52.265737151968167
20
-134.88251450785643
30
0
40
5.999999999999992
0
CIRCLE
5
141
100
AcDbEntity
8
0
100
AcDbCircle
10
142.94455266611084
20
-22.177801132803712
30
0
40
5.999999999999992
0
LINE
5
142
100
AcDbEntity
8
0
100
AcDbLine
10
51.758495537902334
20
90.116913726852786
30
0
11
51.565413241048148
21
175.76329050244516
31
0
0
LINE
5
143
100
AcDbEntity
8
0
100
AcDbLine
10
51.758495537902334
20
90.116913726852786
30
0
11
129.73439992080014
21
135.37101509763292
31
0
0
ENDSEC
0
SECTION
2
OBJECTS
0
DICTIONARY
5
C
100
AcDbDictionary
3
ACAD_GROUP
350
D
3
ACAD_MLINESTYLE
350
17
0
DICTIONARY
5
D
100
AcDbDictionary
0
DICTIONARY
5
1A
330
C
100
AcDbDictionary
0
DICTIONARY
5
17
100
AcDbDictionary
0
ENDSEC
0
EOF
