0
SECTION
2
HEADER
9
$INSUNITS
70
5
9
$ACADVER
1
AC1014
9
$HANDSEED
5
FFFF
0
ENDSEC
0
SECTION
2
TABLES
0
TABLE
2
VPORT
5
8
100
AcDbSymbolTable
0
ENDTAB
0
TABLE
2
LTYPE
5
5
100
AcDbSymbolTable
0
LTYPE
5
14
100
AcDbSymbolTableRecord
100
AcDbLinetypeTableRecord
2
BYBLOCK
70
0
0
LTYPE
5
15
100
AcDbSymbolTableRecord
100
AcDbLinetypeTableRecord
2
BYLAYER
70
0
0
ENDTAB
0
TABLE
2
LAYER
5
2
100
AcDbSymbolTable
70
2
0
LAYER
5
50
100
AcDbSymbolTableRecord
100
AcDbLayerTableRecord
2
0
70
0
6
CONTINUOUS
0
ENDTAB
0
TABLE
2
STYLE
5
3
100
AcDbSymbolTable
70
1
0
STYLE
5
11
100
AcDbSymbolTableRecord
100
AcDbTextStyleTableRecord
2
STANDARD
70
0
0
ENDTAB
0
TABLE
2
VIEW
5
6
100
AcDbSymbolTable
70
0
0
ENDTAB
0
TABLE
2
UCS
5
7
100
AcDbSymbolTable
70
0
0
ENDTAB
0
TABLE
2
APPID
5
9
100
AcDbSymbolTable
70
2
0
APPID
5
12
100
AcDbSymbolTableRecord
100
AcDbRegAppTableRecord
2
ACAD
70
0
0
ENDTAB
0
TABLE
2
DIMSTYLE
5
A
100
AcDbSymbolTable
70
1
0
ENDTAB
0
TABLE
2
BLOCK_RECORD
5
1
100
AcDbSymbolTable
70
1
0
BLOCK_RECORD
5
1F
100
AcDbSymbolTableRecord
100
AcDbBlockTableRecord
2
*MODEL_SPACE
0
BLOCK_RECORD
5
1B
100
AcDbSymbolTableRecord
100
AcDbBlockTableRecord
2
*PAPER_SPACE
0
ENDTAB
0
ENDSEC
0
SECTION
2
BLOCKS
0
BLOCK
5
20
100
AcDbEntity
100
AcDbBlockBegin
2
*MODEL_SPACE
0
ENDBLK
5
21
100
AcDbEntity
100
AcDbBlockEnd
0
BLOCK
5
1C
100
AcDbEntity
100
AcDbBlockBegin
2
*PAPER_SPACE
0
ENDBLK
5
1D
100
AcDbEntity
100
AcDbBlockEnd
0
ENDSEC
0
SECTION
2
ENTITIES
0
LWPOLYLINE
5
100
100
AcDbEntity
8
0
100
AcDbPolyline
90
6
70
1
43
0.0
10
-1.5987211554602254e-14
20
-17.320508075688771
10
-15.000000000000005
20
-8.6602540378443749
10
-14.999999999999989
20
8.6602540378444033
10
1.7763568394002505e-14
20
17.320508075688771
10
15.000000000000007
20
8.6602540378443713
10
14.999999999999993
20
-8.6602540378443997
0
CIRCLE
5
101
100
AcDbEntity
8
0
100
AcDbCircle
10
0
20
0
30
0
40
0.60000000000000009
0
CIRCLE
5
102
100
AcDbEntity
8
0
100
AcDbCircle
10
-4.9999999999999929
20
-2.886751345948134
30
0
40
0.59999999999999987
0
CIRCLE
5
103
100
AcDbEntity
8
0
100
AcDbCircle
10
7.5495165674510645e-15
20
-5.7735026918962538
30
0
40
0.59999999999999987
0
CIRCLE
5
104
100
AcDbEntity
8
0
100
AcDbCircle
10
5
20
-2.886751345948122
30
0
40
0.59999999999999987
0
CIRCLE
5
105
100
AcDbEntity
8
0
100
AcDbCircle
10
4.9999999999999929
20
2.8867513459481335
30
0
40
0.59999999999999987
0
CIRCLE
5
106
100
AcDbEntity
8
0
100
AcDbCircle
10
-6.2172489379008766e-15
20
5.7735026918962529
30
0
40
0.59999999999999987
0
CIRCLE
5
107
100
AcDbEntity
8
0
100
AcDbCircle
10
-4.9999999999999991
20
2.8867513459481242
30
0
40
0.59999999999999987
0
CIRCLE
5
108
100
AcDbEntity
8
0
100
AcDbCircle
10
-10.000000149011617
20
5.7735027779281491
30
0
40
0.59999999999999964
0
CIRCLE
5
109
100
AcDbEntity
8
0
100
AcDbCircle
10
-10.000000149011612
20
-5.7735027779281562
30
0
40
0.59999999999999964
0
CIRCLE
5
110
100
AcDbEntity
8
0
100
AcDbCircle
10
1.7763568394002505e-15
20
-11.547005555856307
30
0
40
0.59999999999999964
0
CIRCLE
5
111
100
AcDbEntity
8
0
100
AcDbCircle
10
10.000000149011617
20
-5.77350277792815
30
0
40
0.59999999999999964
0
CIRCLE
5
112
100
AcDbEntity
8
0
100
AcDbCircle
10
10.000000149011614
20
5.7735027779281545
30
0
40
0.59999999999999964
0
CIRCLE
5
113
100
AcDbEntity
8
0
100
AcDbCircle
10
4.4408920985006262e-15
20
11.547005555856307
30
0
40
0.59999999999999964
0
CIRCLE
5
114
100
AcDbEntity
8
0
100
AcDbCircle
10
-10.000000149011612
20
0
30
0
40
0.60000000000000009
0
CIRCLE
5
115
100
AcDbEntity
8
0
100
AcDbCircle
10
-5.0000000745058069
20
-8.6602541668922282
30
0
40
0.60000000000000009
0
CIRCLE
5
116
100
AcDbEntity
8
0
100
AcDbCircle
10
5.0000000745058033
20
-8.6602541668922299
30
0
40
0.60000000000000009
0
CIRCLE
5
117
100
AcDbEntity
8
0
100
AcDbCircle
10
10.000000149011612
20
-1.2246468173960126e-15
30
0
40
0.60000000000000009
0
CIRCLE
5
118
100
AcDbEntity
8
0
100
AcDbCircle
10
5.0000000745058086
20
8.6602541668922246
30
0
40
0.60000000000000009
0
CIRCLE
5
119
100
AcDbEntity
8
0
100
AcDbCircle
10
-5.0000000745057989
20
8.6602541668922317
30
0
40
0.60000000000000009
0
CIRCLE
5
120
100
AcDbEntity
8
0
100
AcDbCircle
10
-13.750000186264522
20
2.8867513459481273
30
0
40
0.59999999999999987
0
LINE
5
121
100
AcDbEntity
8
0
100
AcDbLine
10
-12.500000298023238
20
4.3301270189221901
30
0
11
-15.000000298023238
21
5.7735026918962475
31
0
0
LINE
5
122
100
AcDbEntity
8
0
100
AcDbLine
10
-12.500000149011612
20
1.4433756729740645
30
0
11
-14.999999999999996
21
7.1054273576010019e-15
31
0
0
LINE
5
123
100
AcDbEntity
8
0
100
AcDbLine
10
-13.750000298023238
20
5.0518148554092193
30
0
11
-13.750000074505804
21
0.72168783648703583
31
0
0
LINE
5
124
100
AcDbEntity
8
0
100
AcDbLine
10
-12.500000223517423
20
1.4433757159900074
30
0
11
-12.500000223517421
21
4.3301270619381356
31
0
0
LINE
5
125
100
AcDbEntity
8
0
100
AcDbLine
10
-12.500000223517421
20
2.8867513889640715
30
0
11
-14.999999999999995
21
2.8867513889640737
31
0
0
CIRCLE
5
126
100
AcDbEntity
8
0
100
AcDbCircle
10
-9.375000093132261
20
-10.464473790371775
30
0
40
0.59999999999999987
0
CIRCLE
5
127
100
AcDbEntity
8
0
100
AcDbCircle
10
4.3750000931322592
20
-13.351225136319906
30
0
40
0.59999999999999987
0
CIRCLE
5
128
100
AcDbEntity
8
0
100
AcDbCircle
10
13.750000186264522
20
-2.8867513459481291
30
0
40
0.59999999999999987
0
CIRCLE
5
129
100
AcDbEntity
8
0
100
AcDbCircle
10
9.375000093132261
20
10.464473790371771
30
0
40
0.59999999999999987
0
CIRCLE
5
130
100
AcDbEntity
8
0
100
AcDbCircle
10
-4.3750000931322521
20
13.351225136319906
30
0
40
0.59999999999999987
0
LINE
5
131
100
AcDbEntity
8
0
100
AcDbLine
10
-12.500000149011623
20
10.103629882882233
30
0
11
-15.000000298023238
21
5.7735026918962475
31
0
0
LINE
5
132
100
AcDbEntity
8
0
100
AcDbLine
10
-14.999999999999989
20
8.6602540378444033
30
0
11
-12.500000223517423
21
7.2168784939181538
31
0
0
CIRCLE
5
133
100
AcDbEntity
8
0
100
AcDbCircle
10
-13.750000111758705
20
7.9385662658812786
30
0
40
0.60000000000000053
0
CIRCLE
5
134
100
AcDbEntity
8
0
100
AcDbCircle
10
-13.750000111758713
20
-7.9385662658812688
30
0
40
0.60000000000000053
0
CIRCLE
5
135
100
AcDbEntity
8
0
100
AcDbCircle
10
-8.8817841970012523e-15
20
-15.877132531762548
30
0
40
0.60000000000000053
0
CIRCLE
5
136
100
AcDbEntity
8
0
100
AcDbCircle
10
13.750000111758704
20
-7.9385662658812803
30
0
40
0.60000000000000053
0
CIRCLE
5
137
100
AcDbEntity
8
0
100
AcDbCircle
10
13.750000111758711
20
7.9385662658812652
30
0
40
0.60000000000000053
0
CIRCLE
5
138
100
AcDbEntity
8
0
100
AcDbCircle
10
1.6875389974302379e-14
20
15.877132531762548
30
0
40
0.60000000000000053
0
LINE
5
139
100
AcDbEntity
8
0
100
AcDbLine
10
-12.500000298023229
20
-4.3301270189221901
30
0
11
-12.500000298023235
21
-1.4433756729740654
31
0
0
LINE
5
140
100
AcDbEntity
8
0
100
AcDbLine
10
-12.500000298023231
20
-2.8867513459481278
30
0
11
-15
21
-2.8867513459481255
31
0
0
LINE
5
141
100
AcDbEntity
8
0
100
AcDbLine
10
-15.00000022351742
20
-5.7735027349122152
30
0
11
-12.500000223517418
21
-4.3301270619381524
31
0
0
LINE
5
142
100
AcDbEntity
8
0
100
AcDbLine
10
-12.500000149011612
20
-1.4433756729740641
30
0
11
-14.999999999999996
21
7.1054273576010019e-15
31
0
0
LINE
5
143
100
AcDbEntity
8
0
100
AcDbLine
10
-13.750000223517418
20
-5.0518148984251834
30
0
11
-13.750000074505804
21
-0.7216878364870285
31
0
0
CIRCLE
5
144
100
AcDbEntity
8
0
100
AcDbCircle
10
-13.750000149011612
20
-2.8867513674561058
30
0
40
0.60000000000000053
0
CIRCLE
5
145
100
AcDbEntity
8
0
100
AcDbCircle
10
-4.3750000558793536
20
-13.351225114811925
30
0
40
0.60000000000000053
0
CIRCLE
5
146
100
AcDbEntity
8
0
100
AcDbCircle
10
9.3750000931322575
20
-10.464473747355823
30
0
40
0.60000000000000053
0
CIRCLE
5
147
100
AcDbEntity
8
0
100
AcDbCircle
10
13.750000149011612
20
2.8867513674561041
30
0
40
0.60000000000000053
0
CIRCLE
5
148
100
AcDbEntity
8
0
100
AcDbCircle
10
4.3750000558793545
20
13.351225114811923
30
0
40
0.60000000000000053
0
CIRCLE
5
149
100
AcDbEntity
8
0
100
AcDbCircle
10
-9.3750000931322521
20
10.464473747355827
30
0
40
0.60000000000000053
0
ENDSEC
0
SECTION
2
OBJECTS
0
DICTIONARY
5
C
100
AcDbDictionary
3
ACAD_GROUP
350
D
3
ACAD_MLINESTYLE
350
17
0
DICTIONARY
5
D
100
AcDbDictionary
0
DICTIONARY
5
1A
330
C
100
AcDbDictionary
0
DICTIONARY
5
17
100
AcDbDictionary
0
ENDSEC
0
EOF
