<?xml version="1.0" encoding="UTF-8" standalone="no"?>
<!-- Created with Inkscape (http://www.inkscape.org/) -->

<svg
   xmlns:dc="http://purl.org/dc/elements/1.1/"
   xmlns:cc="http://creativecommons.org/ns#"
   xmlns:rdf="http://www.w3.org/1999/02/22-rdf-syntax-ns#"
   xmlns:svg="http://www.w3.org/2000/svg"
   xmlns="http://www.w3.org/2000/svg"
   xmlns:sodipodi="http://sodipodi.sourceforge.net/DTD/sodipodi-0.dtd"
   xmlns:inkscape="http://www.inkscape.org/namespaces/inkscape"
   width="400mm"
   height="400mm"
   viewBox="0 0 400 400"
   version="1.1"
   id="svg6999"
   inkscape:version="0.92.1 r15371"
   sodipodi:docname="squares.svg">
  <defs
     id="defs6993">
    <marker
       style="overflow:visible"
       refY="0"
       refX="0"
       orient="auto"
       id="DistanceX">
      <path
         id="path4494"
         style="stroke:#000000;stroke-width:0.5"
         d="M 3,-3 -3,3 M 0,-5 V 5"
         inkscape:connector-curvature="0" />
    </marker>
    <pattern
       y="0"
       x="0"
       width="8"
       patternUnits="userSpaceOnUse"
       id="Hatch"
       height="8">
      <path
         id="path4497"
         stroke-width="0.25"
         stroke="#000000"
         linecap="square"
         d="M8 4 l-4,4" />
      <path
         id="path4499"
         stroke-width="0.25"
         stroke="#000000"
         linecap="square"
         d="M6 2 l-4,4" />
      <path
         id="path4501"
         stroke-width="0.25"
         stroke="#000000"
         linecap="square"
         d="M4 0 l-4,4" />
    </pattern>
    <symbol
       id="*MODEL_SPACE" />
    <symbol
       id="*PAPER_SPACE" />
    <marker
       style="overflow:visible"
       refY="0.0"
       refX="0.0"
       orient="auto"
       id="DistanceX-1">
      <path
         id="path5953"
         style="stroke:#000000; stroke-width:0.5"
         d="M 3,-3 L -3,3 M 0,-5 L  0,5" />
    </marker>
    <pattern
       y="0"
       x="0"
       width="8"
       patternUnits="userSpaceOnUse"
       id="Hatch-0"
       height="8">
      <path
         id="path5956"
         stroke-width="0.25"
         stroke="#000000"
         linecap="square"
         d="M8 4 l-4,4" />
      <path
         id="path5958"
         stroke-width="0.25"
         stroke="#000000"
         linecap="square"
         d="M6 2 l-4,4" />
      <path
         id="path5960"
         stroke-width="0.25"
         stroke="#000000"
         linecap="square"
         d="M4 0 l-4,4" />
    </pattern>
    <symbol
       id="*MODEL_SPACE-6" />
    <symbol
       id="*PAPER_SPACE-0" />
  </defs>
  <sodipodi:namedview
     id="base"
     pagecolor="#ffffff"
     bordercolor="#666666"
     borderopacity="1.0"
     inkscape:pageopacity="0.0"
     inkscape:pageshadow="2"
     inkscape:zoom="0.50568182"
     inkscape:cx="795.72464"
     inkscape:cy="808.04817"
     inkscape:document-units="mm"
     inkscape:current-layer="layer1"
     showgrid="false"
     inkscape:window-width="1920"
     inkscape:window-height="1017"
     inkscape:window-x="-8"
     inkscape:window-y="439"
     inkscape:window-maximized="1" />
  <metadata
     id="metadata6996">
    <rdf:RDF>
      <cc:Work
         rdf:about="">
        <dc:format>image/svg+xml</dc:format>
        <dc:type
           rdf:resource="http://purl.org/dc/dcmitype/StillImage" />
        <dc:title></dc:title>
      </cc:Work>
    </rdf:RDF>
  </metadata>
  <g
     inkscape:label="Layer 1"
     inkscape:groupmode="layer"
     id="layer1"
     transform="translate(0,103)">
    <path
       style="color:#000000;font-style:normal;font-variant:normal;font-weight:normal;font-stretch:normal;font-size:medium;line-height:normal;font-family:sans-serif;font-variant-ligatures:normal;font-variant-position:normal;font-variant-caps:normal;font-variant-numeric:normal;font-variant-alternates:normal;font-feature-settings:normal;text-indent:0;text-align:start;text-decoration:none;text-decoration-line:none;text-decoration-style:solid;text-decoration-color:#000000;letter-spacing:normal;word-spacing:normal;text-transform:none;writing-mode:lr-tb;direction:ltr;text-orientation:mixed;dominant-baseline:auto;baseline-shift:baseline;text-anchor:start;white-space:normal;shape-padding:0;clip-rule:nonzero;display:inline;overflow:visible;visibility:visible;opacity:1;isolation:auto;mix-blend-mode:normal;color-interpolation:sRGB;color-interpolation-filters:linearRGB;solid-color:#000000;solid-opacity:1;vector-effect:none;fill:none;fill-opacity:1;fill-rule:nonzero;stroke:#ff0000;stroke-width:0.1;stroke-linecap:butt;stroke-linejoin:miter;stroke-miterlimit:4;stroke-dasharray:none;stroke-dashoffset:0;stroke-opacity:1;color-rendering:auto;image-rendering:auto;shape-rendering:auto;text-rendering:auto;enable-background:accumulate"
       d="m 288.91891,-33.876655 -71.01563,0.160156 -2.88672,0.0078 -22.17383,0.04883 -15.35351,0.03516 -71.01367,0.160157 -90.865237,158.205092 35.64649,61.41992 1.44921,2.49609 18.83594,32.45703 35.646487,61.42188 4.61914,-0.0117 66.39453,-0.15039 2.88672,-0.006 37.52734,-0.0859 71.01367,-0.1582 35.36914,-61.58203 1.4375,-2.50196 18.68946,-32.54296 35.36914,-61.57813 -0.86914,-1.49805 -34.93555,-60.197263 -1.28906,-2.22266 -18.83789,-32.457037 z"
       id="path8129"
       inkscape:connector-curvature="0" />
    <path
       style="color:#000000;font-style:normal;font-variant:normal;font-weight:normal;font-stretch:normal;font-size:medium;line-height:normal;font-family:sans-serif;font-variant-ligatures:normal;font-variant-position:normal;font-variant-caps:normal;font-variant-numeric:normal;font-variant-alternates:normal;font-feature-settings:normal;text-indent:0;text-align:start;text-decoration:none;text-decoration-line:none;text-decoration-style:solid;text-decoration-color:#000000;letter-spacing:normal;word-spacing:normal;text-transform:none;writing-mode:lr-tb;direction:ltr;text-orientation:mixed;dominant-baseline:auto;baseline-shift:baseline;text-anchor:start;white-space:normal;shape-padding:0;clip-rule:nonzero;display:inline;overflow:visible;visibility:visible;opacity:1;isolation:auto;mix-blend-mode:normal;color-interpolation:sRGB;color-interpolation-filters:linearRGB;solid-color:#000000;solid-opacity:1;vector-effect:none;fill:#000000;fill-opacity:1;fill-rule:nonzero;stroke:none;stroke-width:6.4539938;stroke-linecap:butt;stroke-linejoin:miter;stroke-miterlimit:4;stroke-dasharray:none;stroke-dashoffset:0;stroke-opacity:1;color-rendering:auto;image-rendering:auto;shape-rendering:auto;text-rendering:auto;enable-background:accumulate"
       d="m 288.91719,-33.876589 -71.04463,0.159548 -2.88218,0.01054 -6.21736,0.01446 0.004,-0.0028 -15.92722,0.03614 -5.43749,0.01167 0.005,0.0028 -9.89719,0.02169 -58.93788,0.133962 0.005,-0.0028 -12.10953,0.02777 -5.98335,10.417473 0.002,-0.0016 -33.935565,59.085729 v -0.0033 l -10.640394,18.525334 0.0033,-0.0017 -34.276897,59.678303 v -0.003 l -6.03392,10.5053 0.0011,0.002 -0.0011,0.002 35.661002,61.44263 1.445251,2.49416 18.809948,32.40863 35.660435,61.44705 4.7482,-0.0172 66.29644,-0.14899 2.88215,-0.0108 37.4698,-0.0862 71.04239,-0.15955 35.38363,-61.60492 1.43469,-2.49805 18.66263,-32.49479 29.34916,-51.09627 v 0.001 l 6.0339,-10.50476 -5.5e-4,-5.4e-4 5.5e-4,-5.7e-4 -0.36241,-0.62311 -0.57255,-0.98723 -5.09894,-8.78601 v 0.002 L 344.67544,62.196078 343.38749,59.977626 324.57812,27.568978 Z m -14.29966,6.48585 -31.64596,18.2685362 -31.4003,-18.1268042 3.43804,-0.0077 2.88215,-0.01054 z m -90.18864,0.203435 -31.29355,18.0651012 -31.04898,-17.9239102 55.4487,-0.126164 z m -72.9451,1.574225 38.38027,22.1562442 V 40.856224 L 111.48379,18.69998 Z m 89.84452,0 20.23296,11.682619 2.56368,1.480819 4.69148,2.7087402 10.88443,6.284636 V 40.856224 L 201.32831,18.704419 Z m 83.29482,0 V 18.69941 l -20.03452,11.565904 -18.34578,10.59091 V -3.4568348 l 15.4375,-8.9116372 z m -89.84512,5.4e-4 V 18.704419 L 156.40603,40.856224 V -3.4562648 Z m -89.83623,7.779344 V 18.69941 l -20.034495,11.565904 -11.35635,6.555862 z m 186.22333,0.68928 27.83051,47.952309 3.45415,5.95165 L 291.16511,18.69998 Z M 108.21028,20.588237 h 0.004 l -0.002,0.0039 z m 89.84066,0 h 0.005 l -0.002,0.0039 -0.002,-0.0023 z m 89.84066,0 h 0.004 l -0.002,0.0039 z m -89.83844,3.78266 38.36975,22.154593 -38.36975,22.154566 -38.36972,-22.154566 14.52697,-8.388024 21.09456,-12.179565 z m -89.84066,0.0023 29.45364,17.002793 8.91998,5.149552 -8.91998,5.149525 -16.05618,9.268501 -13.39746,7.73432 -38.373072,-22.152346 0.203462,-0.117284 3.561975,-2.056145 z m 179.68135,0 29.45364,17.002793 8.91998,5.149552 -8.91998,5.149525 -16.05617,9.268501 -13.39747,7.73432 -38.37308,-22.152346 0.0223,-0.01278 0.1812,-0.104501 3.56198,-2.056144 z m -131.48782,27.821072 22.1507,12.787136 10.14733,5.858244 6.07395,3.506396 v 44.318055 l -2.49862,-1.44248 -8.2318,-4.75318 -10.58036,-6.10952 -17.0612,-9.851063 z m 83.29483,0 V 96.507827 L 221.56127,106.982 201.32831,118.66464 V 74.345994 Z m -173.13935,5.4e-4 38.38027,22.156244 V 118.66464 L 66.56151,96.508357 Z m 83.30255,0 V 96.508357 L 111.48379,118.66463 V 74.350462 l 31.15513,-17.985044 5.63316,-3.251819 z m 96.37877,0 38.3803,22.156244 v 44.313627 l -38.3803,-22.156283 z m 83.30258,0 v 44.313588 l -38.3803,22.156273 V 74.350462 l 31.15514,-17.985044 z m 6.54197,8.062836 1.71761,2.959418 1.28795,2.218482 28.63433,49.341395 -31.63989,-18.269073 z M 60.019507,60.380998 V 96.507816 L 28.974419,114.43392 Z m 48.192993,12.077279 0.003,0.0051 h -0.005 z m 179.68135,0 0.003,0.0051 h -0.005 z m -89.84069,0.0011 0.003,0.0039 h -0.005 z m -134.762936,29.713253 14.038401,8.10451 24.342445,14.05227 -4.491385,2.59257 -11.02171,6.36245 -22.867751,13.20123 -38.380849,-22.15627 24.342467,-14.05227 z m 89.845116,0 27.61984,15.94444 10.76101,6.21234 -2.3085,1.33243 -2.18291,1.26014 -11.02168,6.36245 -22.86776,13.20125 -38.38141,-22.15627 z m 89.83623,0 14.03836,8.10451 24.34249,14.05227 -15.5131,8.95502 -22.86775,13.20125 -38.38088,-22.15627 z m 89.8451,0 27.61985,15.94444 10.76099,6.21234 -4.49137,2.59257 -11.02171,6.36245 -22.86776,13.20125 -38.38142,-22.15627 4.71042,-2.71927 9.13843,-5.27516 z m -227.87489,27.82163 v 44.31305 l -20.034495,11.5659 -18.345775,10.59091 v -44.31359 l 8.523635,-4.92054 6.91384,-3.9911 z m 6.54201,0 38.38027,22.15627 v 44.31359 l -38.38027,-22.15624 z m 89.84452,0 20.23296,11.68264 2.56368,1.48083 4.69148,2.70873 10.88443,6.28461 v 44.31305 l -38.37255,-22.15179 z m 83.29482,0 v 44.31305 l -20.03452,11.5659 -18.34578,10.59091 v -44.31359 z m 6.54198,0 38.3803,22.15627 v 44.31359 l -38.3803,-22.15624 z m -96.3871,5.7e-4 v 44.3175 l -38.37198,22.15179 v -44.31305 z m -166.394475,3.88884 31.635972,18.2674 v 36.24245 l -1.717067,-2.95834 -1.445802,-2.49138 z m 338.740055,0.34685 -27.61041,48.07016 -3.4258,5.96497 v -36.11458 z m -258.91331,41.96562 h 0.004 l -0.002,0.004 z m 89.84066,0 h 0.005 l -0.001,0.002 -0.002,0.002 z m 89.84066,0 h 0.004 l -0.002,0.004 z m -89.83844,3.78266 38.37085,22.15517 -38.37028,22.16178 -38.37086,-22.16178 z m -89.84066,0.002 38.37418,22.15291 -38.37418,22.15957 -38.373613,-22.15957 z m 179.68135,0 38.37416,22.15291 -38.37416,22.15957 -38.37365,-22.15957 z m -131.48782,27.82106 22.1507,12.78714 10.14733,5.85825 6.07395,3.50642 v 44.3175 l -2.49862,-1.44249 -18.81216,-10.86273 -17.0612,-9.85106 z m 83.29483,0 v 44.31303 l -18.13959,10.4742 -20.23296,11.68262 v -44.31794 z m -89.8368,5.4e-4 v 44.31306 l -38.38027,22.15625 v -44.3136 l 31.15513,-17.98505 5.63316,-3.25181 z m 96.37877,0 38.3803,22.15625 v 44.31306 l -38.3803,-22.15615 z m 76.30367,4.04003 -1.69594,2.95276 -1.43468,2.49808 -28.25077,49.18799 v -36.52299 l 31.15514,-17.98495 z m -248.882715,0.06 31.277995,18.05617 v 35.83777 L 77.111835,217.84353 Z m 79.471555,45.87781 31.38084,18.11622 -3.41803,0.008 -2.88215,0.0108 -56.71441,0.1273 z m 89.83623,0 31.02952,17.91332 -55.42869,0.12451 -6.87385,0.0156 z"
       id="path5206-7-6-0-1"
       inkscape:connector-curvature="0" />
    <g
       id="g6671"
       inkscape:label="0"
       transform="matrix(3.9870153,0,0,3.9870153,395.59052,-3406.6966)"
       style="fill:#000000" />
    <circle
       style="opacity:1;vector-effect:none;fill:#ff0000;fill-opacity:1;stroke:#000000;stroke-width:0.06337151;stroke-linecap:butt;stroke-linejoin:miter;stroke-miterlimit:4;stroke-dasharray:none;stroke-dashoffset:0;stroke-opacity:1"
       id="path5581-0"
       cx="106.73708"
       cy="44.938286"
       r="5.9683142" />
    <circle
       style="opacity:1;vector-effect:none;fill:#ff0000;fill-opacity:1;stroke:#000000;stroke-width:0.06337151;stroke-linecap:butt;stroke-linejoin:miter;stroke-miterlimit:4;stroke-dasharray:none;stroke-dashoffset:0;stroke-opacity:1"
       id="path5581-68"
       cx="198.03914"
       cy="44.938286"
       r="5.9683142" />
    <circle
       style="opacity:1;vector-effect:none;fill:#ff0000;fill-opacity:1;stroke:#000000;stroke-width:0.06337151;stroke-linecap:butt;stroke-linejoin:miter;stroke-miterlimit:4;stroke-dasharray:none;stroke-dashoffset:0;stroke-opacity:1"
       id="path5581-28"
       cx="288.29477"
       cy="44.938286"
       r="5.9683142" />
    <circle
       style="opacity:1;vector-effect:none;fill:#ff0000;fill-opacity:1;stroke:#000000;stroke-width:0.06337151;stroke-linecap:butt;stroke-linejoin:miter;stroke-miterlimit:4;stroke-dasharray:none;stroke-dashoffset:0;stroke-opacity:1"
       id="path5581-7"
       cx="332.24533"
       cy="124.86029"
       r="5.9683142" />
    <circle
       style="opacity:1;vector-effect:none;fill:#ff0000;fill-opacity:1;stroke:#000000;stroke-width:0.06337151;stroke-linecap:butt;stroke-linejoin:miter;stroke-miterlimit:4;stroke-dasharray:none;stroke-dashoffset:0;stroke-opacity:1"
       id="path5581-06"
       cx="243.29776"
       cy="124.86029"
       r="5.9683142" />
    <circle
       style="opacity:1;vector-effect:none;fill:#ff0000;fill-opacity:1;stroke:#000000;stroke-width:0.06337151;stroke-linecap:butt;stroke-linejoin:miter;stroke-miterlimit:4;stroke-dasharray:none;stroke-dashoffset:0;stroke-opacity:1"
       id="path5581-97"
       cx="151.9957"
       cy="124.86029"
       r="5.9683142" />
    <circle
       style="opacity:1;vector-effect:none;fill:#ff0000;fill-opacity:1;stroke:#000000;stroke-width:0.06337151;stroke-linecap:butt;stroke-linejoin:miter;stroke-miterlimit:4;stroke-dasharray:none;stroke-dashoffset:0;stroke-opacity:1"
       id="path5581-53"
       cx="64.094566"
       cy="124.86029"
       r="5.9683142" />
    <circle
       style="opacity:1;vector-effect:none;fill:#ff0000;fill-opacity:1;stroke:#000000;stroke-width:0.06337151;stroke-linecap:butt;stroke-linejoin:miter;stroke-miterlimit:4;stroke-dasharray:none;stroke-dashoffset:0;stroke-opacity:1"
       id="path5581-56"
       cx="287.77151"
       cy="202.1662"
       r="5.9683142" />
    <circle
       style="opacity:1;vector-effect:none;fill:#ff0000;fill-opacity:1;stroke:#000000;stroke-width:0.06337151;stroke-linecap:butt;stroke-linejoin:miter;stroke-miterlimit:4;stroke-dasharray:none;stroke-dashoffset:0;stroke-opacity:1"
       id="path5581-76"
       cx="197.2543"
       cy="202.1662"
       r="5.9683142" />
    <circle
       style="opacity:1;vector-effect:none;fill:#ff0000;fill-opacity:1;stroke:#000000;stroke-width:0.06337151;stroke-linecap:butt;stroke-linejoin:miter;stroke-miterlimit:4;stroke-dasharray:none;stroke-dashoffset:0;stroke-opacity:1"
       id="path5581-08"
       cx="109.6148"
       cy="202.1662"
       r="5.9683142" />
    <circle
       style="opacity:1;vector-effect:none;fill:#ff0000;fill-opacity:1;stroke:#000000;stroke-width:0.06337151;stroke-linecap:butt;stroke-linejoin:miter;stroke-miterlimit:4;stroke-dasharray:none;stroke-dashoffset:0;stroke-opacity:1"
       id="path5581-69"
       cx="243.29776"
       cy="268.74606"
       r="5.9683142" />
    <circle
       style="opacity:1;vector-effect:none;fill:#ff0000;fill-opacity:1;stroke:#000000;stroke-width:0.06337151;stroke-linecap:butt;stroke-linejoin:miter;stroke-miterlimit:4;stroke-dasharray:none;stroke-dashoffset:0;stroke-opacity:1"
       id="path5581-1"
       cx="152.51892"
       cy="268.74606"
       r="5.9683142" />
    <circle
       style="opacity:1;vector-effect:none;fill:#ff0000;fill-opacity:1;stroke:#000000;stroke-width:0.06337151;stroke-linecap:butt;stroke-linejoin:miter;stroke-miterlimit:4;stroke-dasharray:none;stroke-dashoffset:0;stroke-opacity:1"
       id="path5581-49"
       cx="152.51892"
       cy="-19.548689"
       r="5.9683142" />
    <circle
       style="opacity:1;vector-effect:none;fill:#ff0000;fill-opacity:1;stroke:#000000;stroke-width:0.06337151;stroke-linecap:butt;stroke-linejoin:miter;stroke-miterlimit:4;stroke-dasharray:none;stroke-dashoffset:0;stroke-opacity:1"
       id="path5581-15"
       cx="242.77454"
       cy="-19.548689"
       r="5.9683142" />
    <circle
       style="opacity:1;vector-effect:none;fill:#ff0000;fill-opacity:1;stroke:#000000;stroke-width:0.06337151;stroke-linecap:butt;stroke-linejoin:miter;stroke-miterlimit:4;stroke-dasharray:none;stroke-dashoffset:0;stroke-opacity:1"
       id="path5581"
       cx="219.4912"
       cy="6.808567"
       r="5.9683142" />
    <circle
       style="opacity:1;vector-effect:none;fill:#ff0000;fill-opacity:1;stroke:#000000;stroke-width:0.06337151;stroke-linecap:butt;stroke-linejoin:miter;stroke-miterlimit:4;stroke-dasharray:none;stroke-dashoffset:0;stroke-opacity:1"
       id="path5581-6"
       cx="175.01741"
       cy="6.808567"
       r="5.9683142" />
    <circle
       style="opacity:1;vector-effect:none;fill:#ff0000;fill-opacity:1;stroke:#000000;stroke-width:0.06337151;stroke-linecap:butt;stroke-linejoin:miter;stroke-miterlimit:4;stroke-dasharray:none;stroke-dashoffset:0;stroke-opacity:1"
       id="path5581-3"
       cx="130.80524"
       cy="6.808567"
       r="5.9683142" />
    <circle
       style="opacity:1;vector-effect:none;fill:#ff0000;fill-opacity:1;stroke:#000000;stroke-width:0.06337151;stroke-linecap:butt;stroke-linejoin:miter;stroke-miterlimit:4;stroke-dasharray:none;stroke-dashoffset:0;stroke-opacity:1"
       id="path5581-4"
       cx="263.70337"
       cy="6.808567"
       r="5.9683142" />
    <circle
       style="opacity:1;vector-effect:none;fill:#ff0000;fill-opacity:1;stroke:#000000;stroke-width:0.06337151;stroke-linecap:butt;stroke-linejoin:miter;stroke-miterlimit:4;stroke-dasharray:none;stroke-dashoffset:0;stroke-opacity:1"
       id="path5581-59"
       cx="96.534271"
       cy="14.13366"
       r="5.9683142" />
    <circle
       style="opacity:1;vector-effect:none;fill:#ff0000;fill-opacity:1;stroke:#000000;stroke-width:0.06337151;stroke-linecap:butt;stroke-linejoin:miter;stroke-miterlimit:4;stroke-dasharray:none;stroke-dashoffset:0;stroke-opacity:1"
       id="path5581-23"
       cx="298.75916"
       cy="14.13366"
       r="5.9683142" />
    <circle
       style="opacity:1;vector-effect:none;fill:#ff0000;fill-opacity:1;stroke:#000000;stroke-width:0.06337151;stroke-linecap:butt;stroke-linejoin:miter;stroke-miterlimit:4;stroke-dasharray:none;stroke-dashoffset:0;stroke-opacity:1"
       id="path5581-64"
       cx="85.285019"
       cy="85.945732"
       r="5.9683142" />
    <circle
       style="opacity:1;vector-effect:none;fill:#ff0000;fill-opacity:1;stroke:#000000;stroke-width:0.06337151;stroke-linecap:butt;stroke-linejoin:miter;stroke-miterlimit:4;stroke-dasharray:none;stroke-dashoffset:0;stroke-opacity:1"
       id="path5581-5"
       cx="130.80524"
       cy="85.945732"
       r="5.9683142" />
    <circle
       style="opacity:1;vector-effect:none;fill:#ff0000;fill-opacity:1;stroke:#000000;stroke-width:0.06337151;stroke-linecap:butt;stroke-linejoin:miter;stroke-miterlimit:4;stroke-dasharray:none;stroke-dashoffset:0;stroke-opacity:1"
       id="path5581-8"
       cx="175.01741"
       cy="85.945732"
       r="5.9683142" />
    <circle
       style="opacity:1;vector-effect:none;fill:#ff0000;fill-opacity:1;stroke:#000000;stroke-width:0.06337151;stroke-linecap:butt;stroke-linejoin:miter;stroke-miterlimit:4;stroke-dasharray:none;stroke-dashoffset:0;stroke-opacity:1"
       id="path5581-2"
       cx="219.4912"
       cy="85.945732"
       r="5.9683142" />
    <circle
       style="opacity:1;vector-effect:none;fill:#ff0000;fill-opacity:1;stroke:#000000;stroke-width:0.06337151;stroke-linecap:butt;stroke-linejoin:miter;stroke-miterlimit:4;stroke-dasharray:none;stroke-dashoffset:0;stroke-opacity:1"
       id="path5581-03"
       cx="263.70337"
       cy="85.945732"
       r="5.9683142" />
    <circle
       style="opacity:1;vector-effect:none;fill:#ff0000;fill-opacity:1;stroke:#000000;stroke-width:0.06337151;stroke-linecap:butt;stroke-linejoin:miter;stroke-miterlimit:4;stroke-dasharray:none;stroke-dashoffset:0;stroke-opacity:1"
       id="path5581-9"
       cx="309.4852"
       cy="85.945732"
       r="5.9683142" />
    <circle
       style="opacity:1;vector-effect:none;fill:#ff0000;fill-opacity:1;stroke:#000000;stroke-width:0.06337151;stroke-linecap:butt;stroke-linejoin:miter;stroke-miterlimit:4;stroke-dasharray:none;stroke-dashoffset:0;stroke-opacity:1"
       id="path5581-20"
       cx="52.322094"
       cy="90.654724"
       r="5.9683142" />
    <circle
       style="opacity:1;vector-effect:none;fill:#ff0000;fill-opacity:1;stroke:#000000;stroke-width:0.06337151;stroke-linecap:butt;stroke-linejoin:miter;stroke-miterlimit:4;stroke-dasharray:none;stroke-dashoffset:0;stroke-opacity:1"
       id="path5581-02"
       cx="343.75616"
       cy="91.17794"
       r="5.9683142" />
    <circle
       style="opacity:1;vector-effect:none;fill:#ff0000;fill-opacity:1;stroke:#000000;stroke-width:0.06337151;stroke-linecap:butt;stroke-linejoin:miter;stroke-miterlimit:4;stroke-dasharray:none;stroke-dashoffset:0;stroke-opacity:1"
       id="path5581-32"
       cx="309.4852"
       cy="164.29808"
       r="5.9683142" />
    <circle
       style="opacity:1;vector-effect:none;fill:#ff0000;fill-opacity:1;stroke:#000000;stroke-width:0.06337151;stroke-linecap:butt;stroke-linejoin:miter;stroke-miterlimit:4;stroke-dasharray:none;stroke-dashoffset:0;stroke-opacity:1"
       id="path5581-27"
       cx="219.4912"
       cy="164.29808"
       r="5.9683142" />
    <circle
       style="opacity:1;vector-effect:none;fill:#ff0000;fill-opacity:1;stroke:#000000;stroke-width:0.06337151;stroke-linecap:butt;stroke-linejoin:miter;stroke-miterlimit:4;stroke-dasharray:none;stroke-dashoffset:0;stroke-opacity:1"
       id="path5581-79"
       cx="263.70337"
       cy="164.29808"
       r="5.9683142" />
    <circle
       style="opacity:1;vector-effect:none;fill:#ff0000;fill-opacity:1;stroke:#000000;stroke-width:0.06337151;stroke-linecap:butt;stroke-linejoin:miter;stroke-miterlimit:4;stroke-dasharray:none;stroke-dashoffset:0;stroke-opacity:1"
       id="path5581-65"
       cx="175.01741"
       cy="164.29808"
       r="5.9683142" />
    <circle
       style="opacity:1;vector-effect:none;fill:#ff0000;fill-opacity:1;stroke:#000000;stroke-width:0.06337151;stroke-linecap:butt;stroke-linejoin:miter;stroke-miterlimit:4;stroke-dasharray:none;stroke-dashoffset:0;stroke-opacity:1"
       id="path5581-75"
       cx="130.80524"
       cy="164.29808"
       r="5.9683142" />
    <circle
       style="opacity:1;vector-effect:none;fill:#ff0000;fill-opacity:1;stroke:#000000;stroke-width:0.06337151;stroke-linecap:butt;stroke-linejoin:miter;stroke-miterlimit:4;stroke-dasharray:none;stroke-dashoffset:0;stroke-opacity:1"
       id="path5581-37"
       cx="85.285027"
       cy="164.29808"
       r="5.9683142" />
    <circle
       style="opacity:1;vector-effect:none;fill:#ff0000;fill-opacity:1;stroke:#000000;stroke-width:0.06337151;stroke-linecap:butt;stroke-linejoin:miter;stroke-miterlimit:4;stroke-dasharray:none;stroke-dashoffset:0;stroke-opacity:1"
       id="path5581-10"
       cx="52.322094"
       cy="157.23459"
       r="5.9683142" />
    <circle
       style="opacity:1;vector-effect:none;fill:#ff0000;fill-opacity:1;stroke:#000000;stroke-width:0.06337151;stroke-linecap:butt;stroke-linejoin:miter;stroke-miterlimit:4;stroke-dasharray:none;stroke-dashoffset:0;stroke-opacity:1"
       id="path5581-36"
       cx="343.75616"
       cy="157.49622"
       r="5.9683142" />
    <circle
       style="opacity:1;vector-effect:none;fill:#ff0000;fill-opacity:1;stroke:#000000;stroke-width:0.06337151;stroke-linecap:butt;stroke-linejoin:miter;stroke-miterlimit:4;stroke-dasharray:none;stroke-dashoffset:0;stroke-opacity:1"
       id="path5581-038"
       cx="263.70337"
       cy="240.81914"
       r="5.9683142" />
    <circle
       style="opacity:1;vector-effect:none;fill:#ff0000;fill-opacity:1;stroke:#000000;stroke-width:0.06337151;stroke-linecap:butt;stroke-linejoin:miter;stroke-miterlimit:4;stroke-dasharray:none;stroke-dashoffset:0;stroke-opacity:1"
       id="path5581-565"
       cx="219.4912"
       cy="240.81914"
       r="5.9683142" />
    <circle
       style="opacity:1;vector-effect:none;fill:#ff0000;fill-opacity:1;stroke:#000000;stroke-width:0.06337151;stroke-linecap:butt;stroke-linejoin:miter;stroke-miterlimit:4;stroke-dasharray:none;stroke-dashoffset:0;stroke-opacity:1"
       id="path5581-48"
       cx="130.80524"
       cy="240.81914"
       r="5.9683142" />
    <circle
       style="opacity:1;vector-effect:none;fill:#ff0000;fill-opacity:1;stroke:#000000;stroke-width:0.06337151;stroke-linecap:butt;stroke-linejoin:miter;stroke-miterlimit:4;stroke-dasharray:none;stroke-dashoffset:0;stroke-opacity:1"
       id="path5581-43"
       cx="175.01741"
       cy="240.81914"
       r="5.9683142" />
    <circle
       style="opacity:1;vector-effect:none;fill:#ff0000;fill-opacity:1;stroke:#000000;stroke-width:0.06337151;stroke-linecap:butt;stroke-linejoin:miter;stroke-miterlimit:4;stroke-dasharray:none;stroke-dashoffset:0;stroke-opacity:1"
       id="path5581-13"
       cx="97.057495"
       cy="234.54048"
       r="5.9683142" />
    <circle
       style="opacity:1;vector-effect:none;fill:#ff0000;fill-opacity:1;stroke:#000000;stroke-width:0.06337151;stroke-linecap:butt;stroke-linejoin:miter;stroke-miterlimit:4;stroke-dasharray:none;stroke-dashoffset:0;stroke-opacity:1"
       id="path5581-379"
       cx="298.23596"
       cy="235.84854"
       r="5.9683142" />
  </g>
</svg>
