0
SECTION
2
HEADER
9
$INSUNITS
70
4
9
$ACADVER
1
AC1014
9
$HANDSEED
5
FFFF
0
ENDSEC
0
SECTION
2
TABLES
0
TABLE
2
VPORT
5
8
100
AcDbSymbolTable
0
ENDTAB
0
TABLE
2
LTYPE
5
5
100
AcDbSymbolTable
0
LTYPE
5
14
100
AcDbSymbolTableRecord
100
AcDbLinetypeTableRecord
2
BYBLOCK
70
0
0
LTYPE
5
15
100
AcDbSymbolTableRecord
100
AcDbLinetypeTableRecord
2
BYLAYER
70
0
0
ENDTAB
0
TABLE
2
LAYER
5
2
100
AcDbSymbolTable
70
2
0
LAYER
5
50
100
AcDbSymbolTableRecord
100
AcDbLayerTableRecord
2
0
70
0
6
CONTINUOUS
0
ENDTAB
0
TABLE
2
STYLE
5
3
100
AcDbSymbolTable
70
1
0
STYLE
5
11
100
AcDbSymbolTableRecord
100
AcDbTextStyleTableRecord
2
STANDARD
70
0
0
ENDTAB
0
TABLE
2
VIEW
5
6
100
AcDbSymbolTable
70
0
0
ENDTAB
0
TABLE
2
UCS
5
7
100
AcDbSymbolTable
70
0
0
ENDTAB
0
TABLE
2
APPID
5
9
100
AcDbSymbolTable
70
2
0
APPID
5
12
100
AcDbSymbolTableRecord
100
AcDbRegAppTableRecord
2
ACAD
70
0
0
ENDTAB
0
TABLE
2
DIMSTYLE
5
A
100
AcDbSymbolTable
70
1
0
ENDTAB
0
TABLE
2
BLOCK_RECORD
5
1
100
AcDbSymbolTable
70
1
0
BLOCK_RECORD
5
1F
100
AcDbSymbolTableRecord
100
AcDbBlockTableRecord
2
*MODEL_SPACE
0
BLOCK_RECORD
5
1B
100
AcDbSymbolTableRecord
100
AcDbBlockTableRecord
2
*PAPER_SPACE
0
ENDTAB
0
ENDSEC
0
SECTION
2
BLOCKS
0
BLOCK
5
20
100
AcDbEntity
100
AcDbBlockBegin
2
*MODEL_SPACE
0
ENDBLK
5
21
100
AcDbEntity
100
AcDbBlockEnd
0
BLOCK
5
1C
100
AcDbEntity
100
AcDbBlockBegin
2
*PAPER_SPACE
0
ENDBLK
5
1D
100
AcDbEntity
100
AcDbBlockEnd
0
ENDSEC
0
SECTION
2
ENTITIES
0
LWPOLYLINE
5
100
100
AcDbEntity
8
0
100
AcDbPolyline
90
4
70
1
43
0.0
10
151.38880650360261
20
-372.80474049476925
10
-8.8817841970012523e-14
20
-478.80832400916285
10
-151.38880650360255
20
-372.80474049476931
10
1.7763568394002505e-14
20
-48.150397260111077
0
LINE
5
101
100
AcDbEntity
8
0
100
AcDbLine
10
-75.694403251801262
20
-210.47756887744018
30
0
11
75.694403251801262
21
-425.80653225196602
31
0
0
LINE
5
102
100
AcDbEntity
8
0
100
AcDbLine
10
75.694403251801305
20
-210.47756887744015
30
0
11
-75.694403251801319
21
-425.80653225196608
31
0
0
LWPOLYLINE
5
103
100
AcDbEntity
8
0
100
AcDbPolyline
90
4
70
1
43
0.0
10
-151.38880650360255
20
-372.80474049476931
10
1.7763568394002505e-14
20
-48.150397260111077
10
151.38880650360261
20
-372.80474049476925
10
-1.0658141036401503e-13
20
-478.80832400916285
0
LWPOLYLINE
5
104
100
AcDbEntity
8
0
100
AcDbPolyline
90
4
70
1
43
0.0
10
-119.36127049296434
20
-364.22298808516013
10
-1.7763568394002505e-14
20
-108.25191747218454
10
119.36127049296429
20
-364.22298808516013
10
-1.7763568394002505e-14
20
-447.80064945462181
0
LINE
5
105
100
AcDbEntity
8
0
100
AcDbLine
10
-59.680635246482169
20
-236.23745277867238
30
0
11
58.844442701922276
21
-234.44423207998523
31
0
0
CIRCLE
5
106
100
AcDbEntity
8
0
100
AcDbCircle
10
-0.41809627227994639
20
-235.34084242932877
30
0
40
82.802263695930861
210
0
220
0
230
1
0
CIRCLE
5
107
100
AcDbEntity
8
0
100
AcDbCircle
10
-0.41809627227994639
20
-235.34084242932877
30
0
40
94.802263695930861
210
0
220
0
230
1
0
CIRCLE
5
108
100
AcDbEntity
8
0
100
AcDbCircle
10
-58.844934472279853
20
-259.88839351105912
30
0
40
94.802263695930861
210
0
220
0
230
1
0
CIRCLE
5
109
100
AcDbEntity
8
0
100
AcDbCircle
10
-58.844934472279853
20
-259.88839351105912
30
0
40
82.802263695930861
210
0
220
0
230
1
0
CIRCLE
5
110
100
AcDbEntity
8
0
100
AcDbCircle
10
-82.801208135374338
20
-318.56014683698305
30
0
40
94.802263695930861
210
0
220
0
230
1
0
CIRCLE
5
111
100
AcDbEntity
8
0
100
AcDbCircle
10
-82.801208135374338
20
-318.56014683698305
30
0
40
82.802263695930861
210
0
220
0
230
1
0
CIRCLE
5
112
100
AcDbEntity
8
0
100
AcDbCircle
10
-58.253657053643941
20
-376.98698503698296
30
0
40
94.802263695930861
210
0
220
0
230
1
0
CIRCLE
5
113
100
AcDbEntity
8
0
100
AcDbCircle
10
-58.253657053643941
20
-376.98698503698296
30
0
40
82.802263695930861
210
0
220
0
230
1
0
CIRCLE
5
114
100
AcDbEntity
8
0
100
AcDbCircle
10
0.41809627227993629
20
-400.94325870007737
30
0
40
94.802263695930861
210
0
220
0
230
1
0
CIRCLE
5
115
100
AcDbEntity
8
0
100
AcDbCircle
10
0.41809627227993629
20
-400.94325870007737
30
0
40
82.802263695930861
210
0
220
0
230
1
0
CIRCLE
5
116
100
AcDbEntity
8
0
100
AcDbCircle
10
58.844934472279853
20
-376.39570761834705
30
0
40
94.802263695930861
210
0
220
0
230
1
0
CIRCLE
5
117
100
AcDbEntity
8
0
100
AcDbCircle
10
58.844934472279853
20
-376.39570761834705
30
0
40
82.802263695930861
210
0
220
0
230
1
0
CIRCLE
5
118
100
AcDbEntity
8
0
100
AcDbCircle
10
82.801208135374296
20
-317.72395429242317
30
0
40
94.802263695930861
210
0
220
0
230
1
0
CIRCLE
5
119
100
AcDbEntity
8
0
100
AcDbCircle
10
82.801208135374296
20
-317.72395429242317
30
0
40
82.802263695930861
210
0
220
0
230
1
0
CIRCLE
5
120
100
AcDbEntity
8
0
100
AcDbCircle
10
58.253657053643941
20
-259.29711609242327
30
0
40
94.802263695930861
210
0
220
0
230
1
0
CIRCLE
5
121
100
AcDbEntity
8
0
100
AcDbCircle
10
58.253657053643941
20
-259.29711609242327
30
0
40
82.802263695930861
210
0
220
0
230
1
0
ENDSEC
0
SECTION
2
OBJECTS
0
DICTIONARY
5
C
100
AcDbDictionary
3
ACAD_GROUP
350
D
3
ACAD_MLINESTYLE
350
17
0
DICTIONARY
5
D
100
AcDbDictionary
0
DICTIONARY
5
1A
330
C
100
AcDbDictionary
0
DICTIONARY
5
17
100
AcDbDictionary
0
ENDSEC
0
EOF
