<?xml version="1.0" encoding="UTF-8" standalone="no"?>
<!-- Created with Inkscape (http://www.inkscape.org/) -->

<svg
   xmlns:dc="http://purl.org/dc/elements/1.1/"
   xmlns:cc="http://creativecommons.org/ns#"
   xmlns:rdf="http://www.w3.org/1999/02/22-rdf-syntax-ns#"
   xmlns:svg="http://www.w3.org/2000/svg"
   xmlns="http://www.w3.org/2000/svg"
   xmlns:sodipodi="http://sodipodi.sourceforge.net/DTD/sodipodi-0.dtd"
   xmlns:inkscape="http://www.inkscape.org/namespaces/inkscape"
   width="400mm"
   height="400mm"
   viewBox="0 0 400 400"
   version="1.1"
   id="svg8"
   inkscape:version="0.92.1 r15371"
   sodipodi:docname="5Stars.svg">
  <defs
     id="defs2">
    <marker
       style="overflow:visible"
       refY="0"
       refX="0"
       orient="auto"
       id="DistanceX">
      <path
         id="path4487"
         style="stroke:#000000;stroke-width:0.5"
         d="M 3,-3 -3,3 M 0,-5 V 5"
         inkscape:connector-curvature="0" />
    </marker>
    <pattern
       y="0"
       x="0"
       width="8"
       patternUnits="userSpaceOnUse"
       id="Hatch"
       height="8">
      <path
         id="path4490"
         stroke-width="0.25"
         stroke="#000000"
         linecap="square"
         d="M8 4 l-4,4" />
      <path
         id="path4492"
         stroke-width="0.25"
         stroke="#000000"
         linecap="square"
         d="M6 2 l-4,4" />
      <path
         id="path4494"
         stroke-width="0.25"
         stroke="#000000"
         linecap="square"
         d="M4 0 l-4,4" />
    </pattern>
    <symbol
       id="*MODEL_SPACE" />
    <symbol
       id="*PAPER_SPACE" />
  </defs>
  <sodipodi:namedview
     id="base"
     pagecolor="#ffffff"
     bordercolor="#666666"
     borderopacity="1.0"
     inkscape:pageopacity="0.0"
     inkscape:pageshadow="2"
     inkscape:zoom="0.49497475"
     inkscape:cx="762.28134"
     inkscape:cy="674.58174"
     inkscape:document-units="mm"
     inkscape:current-layer="g4843"
     showgrid="false"
     inkscape:window-width="1920"
     inkscape:window-height="1017"
     inkscape:window-x="-8"
     inkscape:window-y="438"
     inkscape:window-maximized="1" />
  <metadata
     id="metadata5">
    <rdf:RDF>
      <cc:Work
         rdf:about="">
        <dc:format>image/svg+xml</dc:format>
        <dc:type
           rdf:resource="http://purl.org/dc/dcmitype/StillImage" />
        <dc:title></dc:title>
      </cc:Work>
    </rdf:RDF>
  </metadata>
  <g
     inkscape:label="Layer 1"
     inkscape:groupmode="layer"
     id="layer1"
     transform="translate(0,103)">
    <g
       id="g4843"
       inkscape:label="0"
       transform="matrix(3.0243458,0,0,3.0243458,139.90114,-3403.7084)">
      <path
         style="color:#000000;font-style:normal;font-variant:normal;font-weight:normal;font-stretch:normal;font-size:medium;line-height:normal;font-family:sans-serif;font-variant-ligatures:normal;font-variant-position:normal;font-variant-caps:normal;font-variant-numeric:normal;font-variant-alternates:normal;font-feature-settings:normal;text-indent:0;text-align:start;text-decoration:none;text-decoration-line:none;text-decoration-style:solid;text-decoration-color:#000000;letter-spacing:normal;word-spacing:normal;text-transform:none;writing-mode:lr-tb;direction:ltr;text-orientation:mixed;dominant-baseline:auto;baseline-shift:baseline;text-anchor:start;white-space:normal;shape-padding:0;clip-rule:nonzero;display:inline;overflow:visible;visibility:visible;opacity:1;isolation:auto;mix-blend-mode:normal;color-interpolation:sRGB;color-interpolation-filters:linearRGB;solid-color:#000000;solid-opacity:1;vector-effect:none;fill:#000000;fill-opacity:1;fill-rule:nonzero;stroke:none;stroke-width:2.66718984;stroke-linecap:butt;stroke-linejoin:miter;stroke-miterlimit:4;stroke-dasharray:none;stroke-dashoffset:0;stroke-opacity:1;color-rendering:auto;image-rendering:auto;shape-rendering:auto;text-rendering:auto;enable-background:accumulate"
         d="m -44.285251,1158.5233 29.68442,51.4162 59.370083,-10e-5 29.684284,-51.4161 -29.684306,-51.4161 -0.758068,10e-5 -58.612015,0 z m 4.513914,1.3339 6.447639,-10e-5 4.379976,7.5862 4.378903,7.5831 -3.223822,5.5841 z m 0.001,-2.6665 11.981676,-20.7515 3.223279,5.5835 -4.378386,7.584 -4.37871,7.584 z m 8.757588,1.3342 3.993658,-6.9174 7.988549,0 0.580981,1.0065 3.412307,5.9106 -3.994312,6.9176 -7.986483,10e-5 z m 5.533223,26.0852 6.447963,-1e-4 4.379444,7.5841 4.37898,7.585 -3.224025,5.5844 z m 8.7e-4,-16.5013 7.216735,0 0.771243,-10e-5 3.993497,-6.9164 3.6089173,6.251 0.3844204,0.6655 0.769605,0 7.2186069,0 -3.6087976,6.2508 -2.206e-4,0 -0.3851476,0.6669 0.3847283,0.6664 5.848e-4,0 3.6084151,6.2506 -7.2181675,0 -0.7691234,10e-5 -0.3850763,0.6668 1.921e-4,8e-4 -3.6088939,6.2496 -3.608791,-6.2496 -3.9e-5,-5e-4 -0.385031,-0.6672 -0.770996,0 -7.216427,10e-5 3.60857,-6.2507 4.64e-4,-10e-5 0.384733,-0.6665 -0.384882,-0.6667 -3.37e-4,0 z m 2.43e-4,-33.0044 7.987991,0 1.781137,-3.0851 2.212123,-3.8316 2.25e-4,10e-5 3.9931446,6.9165 7.9882117,0 -0.00156,9e-4 7.956e-4,2e-4 -3.6086125,6.2489 -0.3851653,0.6668 3.9937277,6.917 -7.2183686,10e-5 -0.7690382,-10e-5 -0.385246,0.6671 2.57e-4,6e-4 -3.6091382,6.2506 -3.608635,-6.2507 1.5e-4,-6e-4 -0.384805,-0.6669 -0.771322,-10e-5 -7.21641,0 3.993866,-6.9172 -0.384865,-0.6668 -4.69e-4,10e-5 -3.6085,-6.249 9.21e-4,10e-5 z m -3.9e-5,-2.6666 11.981327,-20.7514 3.223482,5.5833 -4.378475,7.5842 -4.378474,7.5839 z m 13.521179,59.0896 3.9946554,-6.9173 7.98582363,0 3.99342957,6.9175 -3.99321794,6.9165 -7.98834536,0 z m -1.8e-5,-33.0026 2.5845437,-4.4765 1.409087,-2.4408 8.75712816,0 8.75726074,0 1.4090874,2.4409 2.584556,4.4765 -1.606694,2.7824 -0.838554,1.4521 -0.40408,0.6995 -1.1453553,1.9834 -8.75620632,0 -8.75610248,0 z m 3.6e-5,-33.0043 3.9945669,-6.9175 7.98646885,10e-5 3.99285565,6.9173 -3.99329002,6.9166 -7.98835628,0 z m 0.770296,81.176 3.2233338,-5.5831 8.75703858,0 8.75734812,0 3.2232535,5.5831 z m 1.42e-4,-96.3431 23.960753,0 -3.224278,5.5831 -8.75620721,0 -8.75608969,10e-5 z m 8.7572506,64.6727 3.9930449,-6.9173 7.9861604,0 3.9943001,6.9181 -3.9932314,6.9167 -7.9870698,0 z m 3.477e-4,-33.0034 1.99589331,-3.4581 1.99565599,-3.4584 7.9884318,0 3.9931166,6.9166 -3.9931484,6.9163 -7.9883439,10e-5 z m 5.531668,-23.4196 3.373e-4,0 7.2186344,0 0.769021,0 3.993483,-6.9166 1.25e-4,10e-5 1.98e-4,-3e-4 3.608813,6.2511 0,10e-5 0.384086,0.6655 0.771918,10e-5 7.216307,0 1.31e-4,-10e-5 -3.60846,6.2508 -4.68e-4,10e-5 -0.385149,0.6669 0.384486,0.6661 6e-6,10e-5 3.608795,6.2508 -7.01e-4,0 -7.21597,0 -0.77132,0 -0.384972,0.6668 3.07e-4,8e-4 -3.608777,6.2497 -2.54e-4,-4e-4 -8.2e-5,4e-4 -2.170242,-3.7589 -1.438329,-2.4907 -1.7e-5,-3e-4 -0.385185,-0.6674 -0.768801,0 -7.2187098,10e-5 3.6087858,-6.2509 3.373e-4,1e-4 0.3846434,-0.6666 -0.3848819,-0.6666 -1.166e-4,-10e-5 -0.8073396,-1.3984 z m 2.161e-4,66.007 2.484e-4,0 7.2184902,0 0.769241,-1e-4 3.99338,-6.9165 3.609033,6.2511 0.384304,0.6655 0.771685,-1e-4 7.216528,1e-4 8.33e-4,0 -3.60937,6.2508 -4.65e-4,1e-4 -0.384931,0.6668 0.384441,0.6659 9.71e-4,4e-4 3.608447,6.2507 -2.49e-4,0 -7.21619,0 -0.7711,10e-5 -0.385159,0.6668 2.75e-4,8e-4 -3.608856,6.251 -3.608918,-6.251 2.71e-4,-5e-4 -0.385135,-0.6672 -0.769021,10e-5 -7.2186347,0 3.6086811,-6.2508 5.524e-4,-4e-4 0.3846498,-0.6661 -0.3851022,-0.6667 -1.165e-4,0 -1.5905843,-2.7553 z m 8.7575746,-34.3368 4.379035,-7.583 4.378382,-7.584 7.98846,-10e-5 1.996496,3.4583 1.996608,3.4582 -4.378489,7.584 -4.378387,7.584 -7.988432,0 z m 5.1e-4,16.5023 1.66852,-2.8899 0.66883,-1.1589 0.805949,-1.3953 0.85106,-1.4744 7.986029,10e-5 4.379627,7.5861 4.379018,7.5831 -2.469535,4.2775 -1.069925,1.853 -0.454185,0.7866 -7.988461,10e-5 -4.378405,-7.584 z m 3.22345,-8.2506 0.001,-4e-4 -3e-5,8e-4 z m 2.310331,48.1714 3.223125,-5.5829 8.757116,-10e-5 8.759219,10e-5 3.223241,5.583 z m 1.55e-4,-96.343 23.962352,-10e-5 -3.224135,5.5832 -8.758182,0 -8.755973,10e-5 z m 8.757303,81.1741 3.99445,-6.9175 7.986498,1e-4 3.994582,6.9174 -3.993541,6.9174 -7.988549,0 z m -1.8e-5,-33.0026 3.994099,-6.9174 7.987876,0 3.993269,6.9168 -3.994281,6.918 -7.986497,-10e-5 z m -6.5e-5,-33.0045 3.994551,-6.9173 7.986485,-10e-5 3.994582,6.9174 -3.99363,6.9173 -7.987979,10e-5 z m 5.533924,42.5884 2.2e-4,0 7.216556,0 0.771216,0 3.993484,-6.9166 1.33e-4,3e-4 3.6089,6.2508 0.384189,0.6654 0.769837,10e-5 7.216544,-10e-5 v 0 l -3.993962,6.9178 3.993611,6.917 v 0 l -7.216515,10e-5 -0.769165,0 -0.385148,0.6669 2.91e-4,6e-4 -3.608911,6.2495 -9.9e-5,10e-5 -1.458347,-2.526 -2.150443,-3.7236 9.5e-5,-2e-4 -0.385065,-0.6673 -0.770892,-10e-5 -7.21663,0 3.608686,-6.2506 2.32e-4,10e-5 0.38486,-0.6667 -0.384893,-0.6668 -1.33e-4,10e-5 -1.319506,-2.2858 z m 7.87e-4,-33.0026 v 0 l 5.74e-4,-9e-4 7.987876,-10e-5 0.38393,-0.6651 -6.4e-5,-6e-4 3.608901,-6.2508 4.03e-4,6e-4 2.98e-4,-5e-4 3.99325,6.9165 7.988212,0 -3.993859,6.9177 3.993536,6.917 v 0 l -7.216307,0 -0.768463,0 -0.385574,0.6677 -3.608205,6.2495 -1.38e-4,-3e-4 -6.89e-4,0 -3.608761,-6.2504 9.52e-4,-6e-4 -0.384338,-0.6659 -0.771862,0 -7.215793,0 3.607955,-6.2488 0.385823,-0.6684 -0.384777,-0.6668 -9.82e-4,0 z m 7.215998,64.6734 3e-5,-8e-4 9.58e-4,2e-4 z m 5.3e-5,-82.5094 9e-6,-9e-4 -1.27e-4,2e-4 z m 1.540819,82.5089 4.379115,-7.5851 4.377553,-7.5839 6.447975,0 -11.981578,20.7526 z m 9.16e-4,-82.5094 3.223662,-5.5832 11.979411,20.7514 -6.447844,-10e-5 -4.376491,-7.5839 z m 4.763583,41.2552 3.993246,-6.9164 7.988345,-10e-5 3.993644,6.9174 -3.994684,6.9174 -7.986352,0 z m 9.525847,16.5015 4.378826,-7.5832 4.379774,-7.586 6.447522,-10e-5 -11.982888,20.7534 z m 7.99e-4,-33.0037 3.223337,-5.5835 11.981347,20.7515 -6.447844,-1e-4 -4.378466,-7.5839 z m 7.987361,16.5023 9.89e-4,-7e-4 1.7e-5,0 z"
         id="path4501"
         inkscape:connector-curvature="0" />
      <circle
         style="opacity:1;vector-effect:none;fill:#ff0000;fill-opacity:1;stroke:#00ff00;stroke-width:0.03559259;stroke-linecap:butt;stroke-linejoin:miter;stroke-miterlimit:4;stroke-dasharray:none;stroke-dashoffset:0;stroke-opacity:1"
         id="path5518"
         cx="-1191.6962"
         cy="14.834175"
         r="1.8834413"
         transform="rotate(-90)" />
      <circle
         style="opacity:1;vector-effect:none;fill:#ff0000;fill-opacity:1;stroke:#00ff00;stroke-width:0.03559259;stroke-linecap:butt;stroke-linejoin:miter;stroke-miterlimit:4;stroke-dasharray:none;stroke-dashoffset:0;stroke-opacity:1"
         id="path5518-8"
         cx="-1170.4745"
         cy="22.06208"
         r="1.8834412"
         transform="rotate(-90)" />
      <circle
         style="opacity:1;vector-effect:none;fill:#ff0000;fill-opacity:1;stroke:#00ff00;stroke-width:0.03559259;stroke-linecap:butt;stroke-linejoin:miter;stroke-miterlimit:4;stroke-dasharray:none;stroke-dashoffset:0;stroke-opacity:1"
         id="path5518-3"
         cx="-1174.842"
         cy="5.6250687"
         r="1.8834412"
         transform="rotate(-90)" />
      <circle
         style="opacity:1;vector-effect:none;fill:#ff0000;fill-opacity:1;stroke:#00ff00;stroke-width:0.03559259;stroke-linecap:butt;stroke-linejoin:miter;stroke-miterlimit:4;stroke-dasharray:none;stroke-dashoffset:0;stroke-opacity:1"
         id="path5518-6"
         cx="-1175.2488"
         cy="-13.658134"
         r="1.8834412"
         transform="rotate(-90)" />
      <circle
         style="opacity:1;vector-effect:none;fill:#ff0000;fill-opacity:1;stroke:#00ff00;stroke-width:0.03559259;stroke-linecap:butt;stroke-linejoin:miter;stroke-miterlimit:4;stroke-dasharray:none;stroke-dashoffset:0;stroke-opacity:1"
         id="path5518-9"
         cx="-1191.4949"
         cy="-3.8579633"
         r="1.8834412"
         transform="rotate(-90)" />
      <circle
         style="opacity:1;vector-effect:none;fill:#ff0000;fill-opacity:1;stroke:#00ff00;stroke-width:0.03559259;stroke-linecap:butt;stroke-linejoin:miter;stroke-miterlimit:4;stroke-dasharray:none;stroke-dashoffset:0;stroke-opacity:1"
         id="path5518-2"
         cx="-1158.5017"
         cy="-0.1605757"
         r="1.8834412"
         transform="rotate(-90)" />
      <circle
         style="opacity:1;vector-effect:none;fill:#ff0000;fill-opacity:1;stroke:#00ff00;stroke-width:0.03559259;stroke-linecap:butt;stroke-linejoin:miter;stroke-miterlimit:4;stroke-dasharray:none;stroke-dashoffset:0;stroke-opacity:1"
         id="path5518-1"
         cx="-1146.569"
         cy="21.948433"
         r="1.8834412"
         transform="rotate(-90)" />
      <circle
         style="opacity:1;vector-effect:none;fill:#ff0000;fill-opacity:1;stroke:#00ff00;stroke-width:0.03559259;stroke-linecap:butt;stroke-linejoin:miter;stroke-miterlimit:4;stroke-dasharray:none;stroke-dashoffset:0;stroke-opacity:1"
         id="path5518-66"
         cx="-1142.2449"
         cy="5.7636795"
         r="1.8834412"
         transform="rotate(-90)" />
      <circle
         style="opacity:1;vector-effect:none;fill:#ff0000;fill-opacity:1;stroke:#00ff00;stroke-width:0.03559259;stroke-linecap:butt;stroke-linejoin:miter;stroke-miterlimit:4;stroke-dasharray:none;stroke-dashoffset:0;stroke-opacity:1"
         id="path5518-13"
         cx="-1142.1296"
         cy="-13.783134"
         r="1.8834412"
         transform="rotate(-90)" />
      <circle
         style="opacity:1;vector-effect:none;fill:#ff0000;fill-opacity:1;stroke:#00ff00;stroke-width:0.03559259;stroke-linecap:butt;stroke-linejoin:miter;stroke-miterlimit:4;stroke-dasharray:none;stroke-dashoffset:0;stroke-opacity:1"
         id="path5518-63"
         cx="-1158.5017"
         cy="-22.906548"
         r="1.8834412"
         transform="rotate(-90)" />
      <circle
         style="opacity:1;vector-effect:none;fill:#ff0000;fill-opacity:1;stroke:#00ff00;stroke-width:0.03559259;stroke-linecap:butt;stroke-linejoin:miter;stroke-miterlimit:4;stroke-dasharray:none;stroke-dashoffset:0;stroke-opacity:1"
         id="path5518-0"
         cx="-1125.6238"
         cy="-3.8325117"
         r="1.8834412"
         transform="rotate(-90)" />
      <circle
         style="opacity:1;vector-effect:none;fill:#ff0000;fill-opacity:1;stroke:#00ff00;stroke-width:0.03559259;stroke-linecap:butt;stroke-linejoin:miter;stroke-miterlimit:4;stroke-dasharray:none;stroke-dashoffset:0;stroke-opacity:1"
         id="path5518-00"
         cx="-1125.6462"
         cy="15.068672"
         r="1.8834412"
         transform="rotate(-90)" />
      <circle
         style="opacity:1;vector-effect:none;fill:#ff0000;fill-opacity:1;stroke:#00ff00;stroke-width:0.03559259;stroke-linecap:butt;stroke-linejoin:miter;stroke-miterlimit:4;stroke-dasharray:none;stroke-dashoffset:0;stroke-opacity:1"
         id="path5518-62"
         cx="-1125.606"
         cy="33.962654"
         r="1.8834412"
         transform="rotate(-90)" />
      <circle
         style="opacity:1;vector-effect:none;fill:#ff0000;fill-opacity:1;stroke:#00ff00;stroke-width:0.03559259;stroke-linecap:butt;stroke-linejoin:miter;stroke-miterlimit:4;stroke-dasharray:none;stroke-dashoffset:0;stroke-opacity:1"
         id="path5518-7"
         cx="-1142.1296"
         cy="43.456551"
         r="1.8834412"
         transform="rotate(-90)" />
      <circle
         style="opacity:1;vector-effect:none;fill:#ff0000;fill-opacity:1;stroke:#00ff00;stroke-width:0.03559259;stroke-linecap:butt;stroke-linejoin:miter;stroke-miterlimit:4;stroke-dasharray:none;stroke-dashoffset:0;stroke-opacity:1"
         id="path5518-31"
         cx="-1158.5017"
         cy="34.20826"
         r="1.8834412"
         transform="rotate(-90)" />
      <circle
         style="opacity:1;vector-effect:none;fill:#ff0000;fill-opacity:1;stroke:#00ff00;stroke-width:0.03559259;stroke-linecap:butt;stroke-linejoin:miter;stroke-miterlimit:4;stroke-dasharray:none;stroke-dashoffset:0;stroke-opacity:1"
         id="path5518-5"
         cx="-1158.5017"
         cy="52.954964"
         r="1.8834412"
         transform="rotate(-90)" />
      <circle
         style="opacity:1;vector-effect:none;fill:#ff0000;fill-opacity:1;stroke:#00ff00;stroke-width:0.03559259;stroke-linecap:butt;stroke-linejoin:miter;stroke-miterlimit:4;stroke-dasharray:none;stroke-dashoffset:0;stroke-opacity:1"
         id="path5518-4"
         cx="-1175.2488"
         cy="43.706673"
         r="1.8834412"
         transform="rotate(-90)" />
      <circle
         style="opacity:1;vector-effect:none;fill:#ff0000;fill-opacity:1;stroke:#00ff00;stroke-width:0.03559259;stroke-linecap:butt;stroke-linejoin:miter;stroke-miterlimit:4;stroke-dasharray:none;stroke-dashoffset:0;stroke-opacity:1"
         id="path5518-96"
         cx="-1191.2421"
         cy="34.052254"
         r="1.8834412"
         transform="rotate(-90)" />
      <circle
         style="opacity:1;vector-effect:none;fill:#ff0000;fill-opacity:1;stroke:#00ff00;stroke-width:0.03559259;stroke-linecap:butt;stroke-linejoin:miter;stroke-miterlimit:4;stroke-dasharray:none;stroke-dashoffset:0;stroke-opacity:1"
         id="path5518-76"
         cx="-1193.8176"
         cy="46.956062"
         r="1.8834412"
         transform="rotate(-90)" />
      <circle
         style="opacity:1;vector-effect:none;fill:#ff0000;fill-opacity:1;stroke:#00ff00;stroke-width:0.03559259;stroke-linecap:butt;stroke-linejoin:miter;stroke-miterlimit:4;stroke-dasharray:none;stroke-dashoffset:0;stroke-opacity:1"
         id="path5518-32"
         cx="-1203.7437"
         cy="28.959236"
         r="1.8834412"
         transform="rotate(-90)" />
      <circle
         style="opacity:1;vector-effect:none;fill:#ff0000;fill-opacity:1;stroke:#00ff00;stroke-width:0.03559259;stroke-linecap:butt;stroke-linejoin:miter;stroke-miterlimit:4;stroke-dasharray:none;stroke-dashoffset:0;stroke-opacity:1"
         id="path5518-009"
         cx="-1203.7437"
         cy="1.714058"
         r="1.8834412"
         transform="rotate(-90)" />
      <circle
         style="opacity:1;vector-effect:none;fill:#ff0000;fill-opacity:1;stroke:#00ff00;stroke-width:0.03559259;stroke-linecap:butt;stroke-linejoin:miter;stroke-miterlimit:4;stroke-dasharray:none;stroke-dashoffset:0;stroke-opacity:1"
         id="path5518-22"
         cx="-1194.0179"
         cy="-17.071587"
         r="1.8834412"
         transform="rotate(-90)" />
      <circle
         style="opacity:1;vector-effect:none;fill:#ff0000;fill-opacity:1;stroke:#00ff00;stroke-width:0.03559259;stroke-linecap:butt;stroke-linejoin:miter;stroke-miterlimit:4;stroke-dasharray:none;stroke-dashoffset:0;stroke-opacity:1"
         id="path5518-61"
         cx="-1169.6246"
         cy="-31.155083"
         r="1.8834412"
         transform="rotate(-90)" />
      <circle
         style="opacity:1;vector-effect:none;fill:#ff0000;fill-opacity:1;stroke:#00ff00;stroke-width:0.03559259;stroke-linecap:butt;stroke-linejoin:miter;stroke-miterlimit:4;stroke-dasharray:none;stroke-dashoffset:0;stroke-opacity:1"
         id="path5518-960"
         cx="-1147.6587"
         cy="-31.112724"
         r="1.8834412"
         transform="rotate(-90)" />
      <circle
         style="opacity:1;vector-effect:none;fill:#ff0000;fill-opacity:1;stroke:#00ff00;stroke-width:0.03559259;stroke-linecap:butt;stroke-linejoin:miter;stroke-miterlimit:4;stroke-dasharray:none;stroke-dashoffset:0;stroke-opacity:1"
         id="path5518-38"
         cx="-1124.5632"
         cy="-17.778557"
         r="1.8834412"
         transform="rotate(-90)" />
      <circle
         style="opacity:1;vector-effect:none;fill:#ff0000;fill-opacity:1;stroke:#00ff00;stroke-width:0.03559259;stroke-linecap:butt;stroke-linejoin:miter;stroke-miterlimit:4;stroke-dasharray:none;stroke-dashoffset:0;stroke-opacity:1"
         id="path5518-94"
         cx="-1113.4969"
         cy="1.2502519"
         r="1.8834412"
         transform="rotate(-90)" />
      <circle
         style="opacity:1;vector-effect:none;fill:#ff0000;fill-opacity:1;stroke:#00ff00;stroke-width:0.03559259;stroke-linecap:butt;stroke-linejoin:miter;stroke-miterlimit:4;stroke-dasharray:none;stroke-dashoffset:0;stroke-opacity:1"
         id="path5518-77"
         cx="-1113.2598"
         cy="29.209114"
         r="1.8834412"
         transform="rotate(-90)" />
      <circle
         style="opacity:1;vector-effect:none;fill:#ff0000;fill-opacity:1;stroke:#00ff00;stroke-width:0.03559259;stroke-linecap:butt;stroke-linejoin:miter;stroke-miterlimit:4;stroke-dasharray:none;stroke-dashoffset:0;stroke-opacity:1"
         id="path5518-39"
         cx="-1124.4746"
         cy="47.70533"
         r="1.8834412"
         transform="rotate(-90)" />
      <circle
         style="opacity:1;vector-effect:none;fill:#ff0000;fill-opacity:1;stroke:#00ff00;stroke-width:0.03559259;stroke-linecap:butt;stroke-linejoin:miter;stroke-miterlimit:4;stroke-dasharray:none;stroke-dashoffset:0;stroke-opacity:1"
         id="path5518-55"
         cx="-1148.5035"
         cy="61.578377"
         r="1.8834412"
         transform="rotate(-90)" />
      <circle
         style="opacity:1;vector-effect:none;fill:#ff0000;fill-opacity:1;stroke:#00ff00;stroke-width:0.03559259;stroke-linecap:butt;stroke-linejoin:miter;stroke-miterlimit:4;stroke-dasharray:none;stroke-dashoffset:0;stroke-opacity:1"
         id="path5518-35"
         cx="-1167.6251"
         cy="62.078377"
         r="1.8834412"
         transform="rotate(-90)" />
    </g>
  </g>
</svg>
