<?xml version="1.0" encoding="UTF-8" standalone="no"?>
<!-- Created with Inkscape (http://www.inkscape.org/) -->

<svg
   xmlns:dc="http://purl.org/dc/elements/1.1/"
   xmlns:cc="http://creativecommons.org/ns#"
   xmlns:rdf="http://www.w3.org/1999/02/22-rdf-syntax-ns#"
   xmlns:svg="http://www.w3.org/2000/svg"
   xmlns="http://www.w3.org/2000/svg"
   xmlns:sodipodi="http://sodipodi.sourceforge.net/DTD/sodipodi-0.dtd"
   xmlns:inkscape="http://www.inkscape.org/namespaces/inkscape"
   width="400mm"
   height="400mm"
   viewBox="0 0 400 400"
   version="1.1"
   id="svg8"
   inkscape:version="0.92.1 r15371"
   sodipodi:docname="mountains.svg">
  <defs
     id="defs2">
    <marker
       style="overflow:visible"
       refY="0"
       refX="0"
       orient="auto"
       id="DistanceX">
      <path
         id="path4487"
         style="stroke:#000000;stroke-width:0.5"
         d="M 3,-3 -3,3 M 0,-5 V 5"
         inkscape:connector-curvature="0" />
    </marker>
    <pattern
       y="0"
       x="0"
       width="8"
       patternUnits="userSpaceOnUse"
       id="Hatch"
       height="8">
      <path
         id="path4490"
         stroke-width="0.25"
         stroke="#000000"
         linecap="square"
         d="M8 4 l-4,4" />
      <path
         id="path4492"
         stroke-width="0.25"
         stroke="#000000"
         linecap="square"
         d="M6 2 l-4,4" />
      <path
         id="path4494"
         stroke-width="0.25"
         stroke="#000000"
         linecap="square"
         d="M4 0 l-4,4" />
    </pattern>
    <symbol
       id="*MODEL_SPACE" />
    <symbol
       id="*PAPER_SPACE" />
    <marker
       style="overflow:visible"
       refY="0"
       refX="0"
       orient="auto"
       id="DistanceX-5">
      <path
         id="path4944"
         style="stroke:#000000;stroke-width:0.5"
         d="M 3,-3 -3,3 M 0,-5 V 5"
         inkscape:connector-curvature="0" />
    </marker>
    <pattern
       y="0"
       x="0"
       width="8"
       patternUnits="userSpaceOnUse"
       id="Hatch-4"
       height="8">
      <path
         id="path4947"
         stroke-width="0.25"
         stroke="#000000"
         linecap="square"
         d="M8 4 l-4,4" />
      <path
         id="path4949"
         stroke-width="0.25"
         stroke="#000000"
         linecap="square"
         d="M6 2 l-4,4" />
      <path
         id="path4951"
         stroke-width="0.25"
         stroke="#000000"
         linecap="square"
         d="M4 0 l-4,4" />
    </pattern>
    <symbol
       id="*MODEL_SPACE-9" />
    <symbol
       id="*PAPER_SPACE-4" />
    <marker
       id="DistanceX-88"
       orient="auto"
       refX="0.0"
       refY="0.0"
       style="overflow:visible">
      <path
         d="M 3,-3 L -3,3 M 0,-5 L  0,5"
         style="stroke:#000000; stroke-width:0.5"
         id="path4487-0" />
    </marker>
    <pattern
       height="8"
       id="Hatch-86"
       patternUnits="userSpaceOnUse"
       width="8"
       x="0"
       y="0">
      <path
         d="M8 4 l-4,4"
         linecap="square"
         stroke="#000000"
         stroke-width="0.25"
         id="path4490-0" />
      <path
         d="M6 2 l-4,4"
         linecap="square"
         stroke="#000000"
         stroke-width="0.25"
         id="path4492-9" />
      <path
         d="M4 0 l-4,4"
         linecap="square"
         stroke="#000000"
         stroke-width="0.25"
         id="path4494-1" />
    </pattern>
    <symbol
       id="*MODEL_SPACE-0" />
    <symbol
       id="*PAPER_SPACE-2" />
    <marker
       id="DistanceX-8"
       orient="auto"
       refX="0.0"
       refY="0.0"
       style="overflow:visible">
      <path
         d="M 3,-3 L -3,3 M 0,-5 L  0,5"
         style="stroke:#000000; stroke-width:0.5"
         id="path5291" />
    </marker>
    <pattern
       height="8"
       id="Hatch-6"
       patternUnits="userSpaceOnUse"
       width="8"
       x="0"
       y="0">
      <path
         d="M8 4 l-4,4"
         linecap="square"
         stroke="#000000"
         stroke-width="0.25"
         id="path5294" />
      <path
         d="M6 2 l-4,4"
         linecap="square"
         stroke="#000000"
         stroke-width="0.25"
         id="path5296" />
      <path
         d="M4 0 l-4,4"
         linecap="square"
         stroke="#000000"
         stroke-width="0.25"
         id="path5298" />
    </pattern>
    <symbol
       id="*MODEL_SPACE-9-8" />
    <symbol
       id="*PAPER_SPACE-6" />
    <marker
       id="DistanceX-7"
       orient="auto"
       refX="0.0"
       refY="0.0"
       style="overflow:visible">
      <path
         d="M 3,-3 L -3,3 M 0,-5 L  0,5"
         style="stroke:#000000; stroke-width:0.5"
         id="path5369" />
    </marker>
    <pattern
       height="8"
       id="Hatch-8"
       patternUnits="userSpaceOnUse"
       width="8"
       x="0"
       y="0">
      <path
         d="M8 4 l-4,4"
         linecap="square"
         stroke="#000000"
         stroke-width="0.25"
         id="path5372" />
      <path
         d="M6 2 l-4,4"
         linecap="square"
         stroke="#000000"
         stroke-width="0.25"
         id="path5374" />
      <path
         d="M4 0 l-4,4"
         linecap="square"
         stroke="#000000"
         stroke-width="0.25"
         id="path5376" />
    </pattern>
    <symbol
       id="*MODEL_SPACE-1" />
    <symbol
       id="*PAPER_SPACE-3" />
    <marker
       id="DistanceX-4"
       orient="auto"
       refX="0.0"
       refY="0.0"
       style="overflow:visible">
      <path
         d="M 3,-3 L -3,3 M 0,-5 L  0,5"
         style="stroke:#000000; stroke-width:0.5"
         id="path6016" />
    </marker>
    <pattern
       height="8"
       id="Hatch-80"
       patternUnits="userSpaceOnUse"
       width="8"
       x="0"
       y="0">
      <path
         d="M8 4 l-4,4"
         linecap="square"
         stroke="#000000"
         stroke-width="0.25"
         id="path6019" />
      <path
         d="M6 2 l-4,4"
         linecap="square"
         stroke="#000000"
         stroke-width="0.25"
         id="path6021" />
      <path
         d="M4 0 l-4,4"
         linecap="square"
         stroke="#000000"
         stroke-width="0.25"
         id="path6023" />
    </pattern>
    <symbol
       id="*MODEL_SPACE-8" />
    <symbol
       id="*PAPER_SPACE-0" />
    <marker
       id="DistanceX-81"
       orient="auto"
       refX="0"
       refY="0"
       style="overflow:visible">
      <path
         inkscape:connector-curvature="0"
         d="M 3,-3 -3,3 M 0,-5 V 5"
         style="stroke:#000000;stroke-width:0.5"
         id="path9039" />
    </marker>
    <pattern
       height="8"
       id="Hatch-13"
       patternUnits="userSpaceOnUse"
       width="8"
       x="0"
       y="0">
      <path
         d="M8 4 l-4,4"
         linecap="square"
         stroke="#000000"
         stroke-width="0.25"
         id="path9042" />
      <path
         d="M6 2 l-4,4"
         linecap="square"
         stroke="#000000"
         stroke-width="0.25"
         id="path9044" />
      <path
         d="M4 0 l-4,4"
         linecap="square"
         stroke="#000000"
         stroke-width="0.25"
         id="path9046" />
    </pattern>
    <symbol
       id="*MODEL_SPACE-13" />
    <symbol
       id="*PAPER_SPACE-5" />
    <marker
       id="DistanceX-2"
       orient="auto"
       refX="0"
       refY="0"
       style="overflow:visible">
      <path
         inkscape:connector-curvature="0"
         d="M 3,-3 -3,3 M 0,-5 V 5"
         style="stroke:#000000;stroke-width:0.5"
         id="path9426" />
    </marker>
    <pattern
       height="8"
       id="Hatch-5"
       patternUnits="userSpaceOnUse"
       width="8"
       x="0"
       y="0">
      <path
         d="M8 4 l-4,4"
         linecap="square"
         stroke="#000000"
         stroke-width="0.25"
         id="path9429" />
      <path
         d="M6 2 l-4,4"
         linecap="square"
         stroke="#000000"
         stroke-width="0.25"
         id="path9431" />
      <path
         d="M4 0 l-4,4"
         linecap="square"
         stroke="#000000"
         stroke-width="0.25"
         id="path9433" />
    </pattern>
    <symbol
       id="*MODEL_SPACE-3" />
    <symbol
       id="*PAPER_SPACE-4-2" />
    <marker
       id="DistanceX-3"
       orient="auto"
       refX="0"
       refY="0"
       style="overflow:visible">
      <path
         inkscape:connector-curvature="0"
         d="M 3,-3 -3,3 M 0,-5 V 5"
         style="stroke:#000000;stroke-width:0.5"
         id="path9837" />
    </marker>
    <pattern
       height="8"
       id="Hatch-6-6"
       patternUnits="userSpaceOnUse"
       width="8"
       x="0"
       y="0">
      <path
         d="M8 4 l-4,4"
         linecap="square"
         stroke="#000000"
         stroke-width="0.25"
         id="path9840" />
      <path
         d="M6 2 l-4,4"
         linecap="square"
         stroke="#000000"
         stroke-width="0.25"
         id="path9842" />
      <path
         d="M4 0 l-4,4"
         linecap="square"
         stroke="#000000"
         stroke-width="0.25"
         id="path9844" />
    </pattern>
    <symbol
       id="*MODEL_SPACE-9-0" />
    <symbol
       id="*PAPER_SPACE-7" />
    <marker
       id="DistanceX-9"
       orient="auto"
       refX="0"
       refY="0"
       style="overflow:visible">
      <path
         inkscape:connector-curvature="0"
         d="M 3,-3 -3,3 M 0,-5 V 5"
         style="stroke:#000000;stroke-width:0.5"
         id="path10272" />
    </marker>
    <pattern
       height="8"
       id="Hatch-1"
       patternUnits="userSpaceOnUse"
       width="8"
       x="0"
       y="0">
      <path
         d="M8 4 l-4,4"
         linecap="square"
         stroke="#000000"
         stroke-width="0.25"
         id="path10275" />
      <path
         d="M6 2 l-4,4"
         linecap="square"
         stroke="#000000"
         stroke-width="0.25"
         id="path10277" />
      <path
         d="M4 0 l-4,4"
         linecap="square"
         stroke="#000000"
         stroke-width="0.25"
         id="path10279" />
    </pattern>
    <symbol
       id="*MODEL_SPACE-98" />
    <symbol
       id="*PAPER_SPACE-0-7" />
    <marker
       id="DistanceX-25"
       orient="auto"
       refX="0"
       refY="0"
       style="overflow:visible">
      <path
         inkscape:connector-curvature="0"
         d="M 3,-3 -3,3 M 0,-5 V 5"
         style="stroke:#000000;stroke-width:0.5"
         id="path10731" />
    </marker>
    <pattern
       height="8"
       id="Hatch-17"
       patternUnits="userSpaceOnUse"
       width="8"
       x="0"
       y="0">
      <path
         d="M8 4 l-4,4"
         linecap="square"
         stroke="#000000"
         stroke-width="0.25"
         id="path10734" />
      <path
         d="M6 2 l-4,4"
         linecap="square"
         stroke="#000000"
         stroke-width="0.25"
         id="path10736" />
      <path
         d="M4 0 l-4,4"
         linecap="square"
         stroke="#000000"
         stroke-width="0.25"
         id="path10738" />
    </pattern>
    <symbol
       id="*MODEL_SPACE-94" />
    <symbol
       id="*PAPER_SPACE-8" />
    <marker
       id="DistanceX-90"
       orient="auto"
       refX="0"
       refY="0"
       style="overflow:visible">
      <path
         inkscape:connector-curvature="0"
         d="M 3,-3 -3,3 M 0,-5 V 5"
         style="stroke:#000000;stroke-width:0.5"
         id="path11214" />
    </marker>
    <pattern
       height="8"
       id="Hatch-0"
       patternUnits="userSpaceOnUse"
       width="8"
       x="0"
       y="0">
      <path
         d="M8 4 l-4,4"
         linecap="square"
         stroke="#000000"
         stroke-width="0.25"
         id="path11217" />
      <path
         d="M6 2 l-4,4"
         linecap="square"
         stroke="#000000"
         stroke-width="0.25"
         id="path11219" />
      <path
         d="M4 0 l-4,4"
         linecap="square"
         stroke="#000000"
         stroke-width="0.25"
         id="path11221" />
    </pattern>
    <symbol
       id="*MODEL_SPACE-97" />
    <symbol
       id="*PAPER_SPACE-3-5" />
    <marker
       id="DistanceX-4-2"
       orient="auto"
       refX="0"
       refY="0"
       style="overflow:visible">
      <path
         inkscape:connector-curvature="0"
         d="M 3,-3 -3,3 M 0,-5 V 5"
         style="stroke:#000000;stroke-width:0.5"
         id="path11721" />
    </marker>
    <pattern
       height="8"
       id="Hatch-8-6"
       patternUnits="userSpaceOnUse"
       width="8"
       x="0"
       y="0">
      <path
         d="M8 4 l-4,4"
         linecap="square"
         stroke="#000000"
         stroke-width="0.25"
         id="path11724" />
      <path
         d="M6 2 l-4,4"
         linecap="square"
         stroke="#000000"
         stroke-width="0.25"
         id="path11726" />
      <path
         d="M4 0 l-4,4"
         linecap="square"
         stroke="#000000"
         stroke-width="0.25"
         id="path11728" />
    </pattern>
    <symbol
       id="*MODEL_SPACE-8-4" />
    <symbol
       id="*PAPER_SPACE-81" />
  </defs>
  <sodipodi:namedview
     id="base"
     pagecolor="#ffffff"
     bordercolor="#666666"
     borderopacity="1.0"
     inkscape:pageopacity="0.0"
     inkscape:pageshadow="2"
     inkscape:zoom="0.35"
     inkscape:cx="1051.2281"
     inkscape:cy="422.04816"
     inkscape:document-units="mm"
     inkscape:current-layer="g13856"
     showgrid="false"
     inkscape:window-width="1920"
     inkscape:window-height="1017"
     inkscape:window-x="-8"
     inkscape:window-y="439"
     inkscape:window-maximized="1" />
  <metadata
     id="metadata5">
    <rdf:RDF>
      <cc:Work
         rdf:about="">
        <dc:format>image/svg+xml</dc:format>
        <dc:type
           rdf:resource="http://purl.org/dc/dcmitype/StillImage" />
        <dc:title></dc:title>
      </cc:Work>
    </rdf:RDF>
  </metadata>
  <g
     inkscape:label="Layer 1"
     inkscape:groupmode="layer"
     id="layer1"
     transform="translate(0,103)">
    <g
       id="g4559"
       inkscape:label="0"
       transform="matrix(0.26458333,0,0,0.26458333,-107.34525,-198.81548)"
       style="display:inline">
      <g
         id="g5046"
         inkscape:label="0"
         transform="translate(2245.7143,-131.93113)">
        <g
           id="g5156"
           transform="translate(-738.56578,142.03236)" />
      </g>
      <g
         id="layer1-4"
         inkscape:label="Layer 1"
         transform="matrix(3.7795276,0,0,3.7795276,-618.57072,-597.16364)">
        <g
           transform="matrix(0.26458333,0,0,0.26458333,162.75194,-182.18451)"
           inkscape:label="0"
           id="g5011">
          <g
             transform="translate(1865.8092,-572.09901)"
             inkscape:label="0"
             id="g5327">
            <g
               transform="translate(-2089.506,492.09898)"
               inkscape:label="0"
               id="g6204" />
          </g>
        </g>
      </g>
      <g
         transform="matrix(3.7795276,0,0,3.7795276,2181.2375,1078.7626)"
         id="layer1-3"
         inkscape:label="Layer 1">
        <g
           transform="matrix(2.271327,1.3113512,-1.3113512,2.271327,1990.252,-2300.3551)"
           inkscape:label="0"
           id="g11448" />
        <g
           transform="rotate(30,373.27119,243.45146)"
           id="g12797" />
      </g>
      <g
         id="g13856"
         transform="rotate(-60,1181.5397,1131.5759)"
         style="fill:none;stroke:#ff0000;stroke-width:3.77952761">
        <g
           transform="matrix(0.18596867,0.32210719,-0.63843792,0.36860231,1852.8411,-1475.0169)"
           id="g7655"
           style="fill:none;stroke:#0000ff;stroke-width:7.21786261">
          <g
             transform="matrix(1.0614679,0,0,1,23.435773,-13.702472)"
             id="g7797"
             style="fill:none;stroke:#0000ff;stroke-width:7.00575876">
            <path
               sodipodi:nodetypes="cccccccccccccccccccccccccccccccccccscccccccccccccccccccccsccccccccccsccccccccccccccccccccscccccccccccccccccccccccccccccccccccccccccsscccccsccccccccccccccccccccccccccccccccccccccccccccccccccccccccccccccccccccccccccccccccccccccccccsccccccccscccccccccccccccccccccccccccccsscssccccsssccccscccccccsccccccsccccccccccccscccccscccsccccccccccccccccccccccccccsccccccccccccccccccccccccccccccscccccccccccscccccccsccsccccccacccccccccccccc"
               inkscape:connector-curvature="0"
               id="path4738"
               d="m 3991.5343,1778.0352 -27.2982,25.2617 -826.7497,766.9121 854.0084,792.1551 h 1708.0414 l 854.0231,-792.1711 -854.0084,-792.1552 h -27.6396 z m 1652.7425,51.2679 798.739,740.8873 -105.4383,97.8014 c -3.7257,-1.686 -7.6692,-3.2679 -11.8632,-4.8298 -10.7731,-4.012 -21.6991,-7.5459 -34.1748,-7.5269 h -0.3909 l -0.3857,0.016 c -68.2787,2.6314 -138.6453,-16.0139 -211.3265,-34.5716 -4.9668,-1.268 -13.9494,-4.9446 -26.5168,-9.6835 -1.7262,-0.6507 -12.177,-10.9108 -31.439,-13.3182 -3.6367,-0.4547 -7.2464,-0.7153 -10.8095,-0.8345 -10.689,-0.3575 -20.9511,0.5628 -30.227,1.3723 -5.4683,0.4771 -10.5542,0.8459 -14.9995,1.0916 -2.0826,-0.066 -3.7865,-7e-4 -5.2984,0.083 l -0.025,-0.4901 c -1.4374,0.05 -2.8845,0.147 -4.3339,0.2649 -8.6608,-8.9332 -20.0788,-16.8073 -34.8029,-24.5331 -17.0705,-8.9567 -38.068,-16.9375 -61.4583,-21.338 -38.281,-11.9143 -75.1518,-7.2721 -104.7058,-6.3399 l -2.1125,0.066 -2.058,0.4874 c -94.9532,22.426 -174.5014,62.4533 -256.2862,118.8215 -16.2898,-10.8066 -32.493,-30.5139 -61.4581,-47.5429 l -6.9556,-4.0906 -7.9106,1.6214 c -14.5221,2.9739 -35.6219,-2.7062 -67.3699,-19.192 -15.209,-7.8977 -29.7888,-7.5235 -43.6389,-7.3255 -6.925,0.099 -13.4126,0.5437 -18.8782,1.1313 -5.4655,0.5875 -8.8247,0.8516 -14.119,2.4718 -6.131,1.8763 -12.7683,0.8744 -23.128,2.5275 -44.6571,-20.5667 -93.0925,-40.5383 -138.3168,-58.7894 -21.2043,-15.3007 -44.5081,-22.4408 -67.4293,-22.9859 v 0 c -3.4141,-0.081 -6.8186,-0.018 -10.2059,0.1828 -26.624,1.5773 -52.1428,10.7571 -77.1406,22.562 -23.5626,8.9466 -58.6458,9.8286 -88.5092,10.8306 -0.086,0 -0.1669,0.01 -0.2522,0.014 l -0.035,-0.7789 c 5.9146,-0.2746 -4.0563,-1.1992 -13.4711,-4.9649 -9.4148,-3.7658 -21.4379,-9.1609 -33.8631,-14.7013 -12.4251,-5.5404 -25.2643,-11.2325 -37.0144,-15.7823 -11.7502,-4.5497 -21.2557,-8.3553 -33.1161,-8.9151 l -2.5429,-0.1325 -2.5032,0.4927 c -46.3363,9.1269 -65.6697,25.7868 -87.2971,35.687 -23.2881,-2.6948 -41.721,-1.0685 -65.1388,0.7471 l -6.0108,0.4637 -4.8531,3.5819 c -6.4585,4.7693 -12.8988,10.0264 -18.2154,13.1303 -5.3166,3.1039 -7.7086,2.5402 -5.9266,3.06 -35.4495,-10.341 -83.7527,-22.479 -126.1865,-1.5287 -7.9116,-2.8373 -16.5173,-5.3555 -27.1449,-4.9728 -3.1782,0.1144 -6.3526,0.5804 -9.5183,1.3485 -19.4281,-5.2605 -45.0697,-10.6363 -63.6498,-16.7626 -1.8524,-4.7586 -4.8224,-9.2876 -10.5918,-13.3342 -5.3107,-3.7248 -4.0078,-9.6319 -9.003,-9.1036 -4.3651,0.4617 -15.7767,6.2274 -18.0034,7.2543 -17.2649,-6.0438 -20.4664,-16.9578 -33.8963,-11.4838 -7.0943,2.8916 -20.5804,12.221 -25.3752,17.7151 -12.2637,-4.7671 -27.1363,-18.0656 -35.3913,-14.0079 -7.8032,3.8357 -16.6941,12.4672 -23.4499,16.3447 -14.8585,8.5281 -24.2928,20.239 -32.0079,29.5801 -8.491,1.9749 -15.6086,7.6954 -24.3498,16.8871 -0.4379,0.2679 -0.9953,0.6012 -1.5435,0.8584 -0.4897,0.2297 -0.6235,0.1381 -0.7025,0.093 l -0.5986,-0.029 c -29.0664,-1.4242 -61.4261,-35.19 -99.5907,-57.425 l -15.1976,-8.8542 -11.3883,13.3979 c -4.3345,5.0958 -16.4342,10.0978 -33.5218,15.2603 -15.5197,4.6889 -34.6969,9.8057 -51.0494,23.6642 -1.4213,0.1945 -2.5531,0.3307 -4.21,0.5696 -7.0763,1.0201 -16.1537,2.4143 -25.2156,3.8124 -9.0617,1.398 -18.1013,2.799 -24.9038,3.8151 -3.4013,0.508 -6.2619,0.9215 -8.1578,1.1737 -0.2923,0.039 -0.3505,0.043 -0.5937,0.074 -0.1243,-0.017 -0.2467,-0.023 -0.371,-0.04 0.1352,0.021 0.2884,0.045 0.3414,0.045 -0.4183,0.053 -0.8379,0.1048 -1.039,0.1271 0.1155,-0.034 0.071,-0.1589 0.4997,-0.1961 -19.1194,-2.4729 -35.9226,3.5409 -49.2388,9.6914 -14.3113,6.61 -26.0848,13.2464 -35.7776,15.655 l -3.7648,0.9353 -3.181,2.2176 c -32.6552,22.7516 -58.4207,26.549 -98.6161,40.1299 -41.372,-1.1352 -79.5428,26.7264 -101.7971,69.4425 -0.4813,0.2159 -0.9069,0.4543 -1.3456,0.6279 -3.5629,1.4102 -6.8757,2.6287 -8.9989,3.4707 -14.062,5.5758 -22.7849,14.7008 -30.8008,21.8757 -8.0159,7.1752 -14.9931,12.7929 -22.7074,15.8248 -9.8205,5.4118 -17.7604,10.5471 -24.1073,15.353 L 3248.03,2570.209 4046.7393,1829.3057 Z M 3843.254,2574.3102 c 0.067,0.01 0.1312,0.015 0.1978,0.024 -0.073,-0.011 -0.1616,-0.026 -0.1831,-0.026 -0.01,6e-4 -0.01,0 -0.015,0 z m 907.9865,-28.9152 c 2.1917,0.4969 9.3257,2.2466 18.2549,5.7041 10.3195,3.9958 22.7246,9.4693 35.0702,14.9742 7.3878,3.2943 14.7065,6.5648 21.7328,9.6092 -1.2835,1.3412 -2.5266,2.6354 -3.4828,3.5608 -1.2295,1.1899 -2.297,1.6578 -2.3549,1.6664 l -2.2262,1.3936 c -61.4938,38.405 -83.214,61.4448 -146.6972,93.6074 l -2.1966,1.1102 -1.875,1.5869 c -32.8581,27.777 -40.4021,35.5131 -83.2602,64.2577 l -0.6975,0.469 -0.658,0.5192 c -18.1324,14.3811 -36.2819,35.2386 -54.9576,56.2566 -18.6758,21.0182 -37.6694,42.1207 -53.3499,55.0962 l -1.7265,1.4307 -1.3902,1.7618 c -44.1588,56.0862 -112.7916,75.2975 -177.7554,117.971 l -3.7054,2.4322 -2.4043,3.7196 c -6.2627,9.6829 -26.0746,27.5995 -42.1396,43.3596 -2.4999,2.4524 -3.1791,3.4503 -5.2836,5.9505 -2.1044,2.5002 -4.7974,5.7612 -8.049,9.7337 -6.5031,7.9452 -15.2095,18.7068 -25.3886,31.3738 -20.3583,25.334 -46.6008,58.265 -72.6091,91.1118 -26.0082,32.8468 -51.7699,65.5945 -71.1892,90.5898 -9.7096,12.4976 -17.8268,23.0434 -23.6571,30.7829 -2.9152,3.8697 -5.2451,7.0192 -7.02,9.5086 -0.4246,0.5953 -0.753,1.0963 -1.123,1.632 l -96.7065,-89.7049 c 3.3875,-5.3972 7.8207,-12.2881 13.2236,-20.5379 11.9986,-18.3206 27.9551,-42.2049 43.9652,-66.0991 16.0101,-23.8941 32.08,-47.8055 44.3956,-66.3374 6.1577,-9.2659 11.3718,-17.1759 15.2272,-23.1555 1.9277,-2.9898 3.5058,-5.4829 4.7641,-7.5427 1.2583,-2.0598 1.639,-1.7619 3.6213,-6.8115 19.4186,-49.4674 66.8491,-100.9305 112.8045,-133.9096 l 1.7859,-1.2796 1.4792,-1.6214 c 25.2789,-27.6783 63.5649,-57.8183 94.322,-93.9492 27.8521,-32.7183 50.146,-73.0678 46.0825,-120.1938 8.4533,-5.9008 15.9378,-12.7414 22.6529,-19.2265 17.2487,-16.6577 32.1151,-31.7794 45.1574,-36.5798 l 3.9132,-1.4413 3.0623,-2.8215 c 9.9224,-9.1347 13.4675,-9.7159 16.3948,-9.8213 2.9272,-0.1058 9.1009,1.7274 20.2486,5.7545 l 9.6568,3.4892 8.6871,-5.4736 c 25.4717,-16.0501 65.7746,-9.3262 101.4509,1.081 15.9945,4.6658 29.2877,-1.5107 38.8894,-7.1162 7.1571,-4.1784 12.7489,-8.4924 17.3347,-12.0493 22.1483,-1.7558 36.1693,-2.874 56.14,0.085 l 5.6546,0.8372 5.2984,-2.1406 c 31.0186,-12.5346 42.0273,-26.3086 80.6333,-34.6034 z m -457.9609,9.3443 c 0.047,0.052 0.1365,0.1867 0.2424,0.4133 -0.044,-0.075 -0.2257,-0.2725 -0.2474,-0.3206 -0.051,-0.1136 -0.043,-0.1445 0.01,-0.093 z m -24.3052,0.1431 c 0.1719,0.1585 0.9378,0.9743 3.2898,3.6111 3.6557,4.0984 9.6096,7.7387 15.4845,8.7879 3.0125,0.5379 5.7388,0.4996 8.1579,0.196 l 0.2621,1.5208 10.6858,4.4456 c 11.1356,4.6337 23.7097,8.3974 36.0053,11.6307 -13.0463,9.7954 -23.5157,21.3925 -33.3437,30.8837 -15.7061,15.1679 -27.4364,23.6683 -40.0124,23.3038 l -6.3966,-0.1854 -5.4171,3.4123 c -34.4454,21.6983 -73.6526,38.7353 -113.6901,58.3868 0.7094,-9.6555 1.9223,-21.0541 2.7704,-33.7529 1.0402,-15.5734 -0.3512,-33.9778 -7.8609,-51.3289 1.7595,-0.9181 3.3553,-1.8242 4.6255,-2.6413 0.885,-0.5693 1.6431,-1.091 2.3746,-1.6269 0.7316,-0.5355 -0.058,0.7932 3.6015,-3.1527 3.4839,-3.7567 5.3287,-5.2965 6.2681,-6.0855 0.2064,-0.022 0.1132,0 0.3364,-0.024 6.6042,-0.721 13.8757,-5.8204 17.0329,-9.4954 9.5388,-11.1026 17.8235,-20.909 24.6318,-24.8166 6.2136,-3.5663 10.8984,-5.047 23.4643,0.7233 0.5368,1.033 0.8855,1.6859 1.6177,3.1581 l 39.0328,-3.5952 v 0 c 2.8126,-9.8642 7.3923,-13.041 7.3515,-13.0243 -0.02,0.01 -0.4441,-0.4897 -0.2721,-0.3312 z m 775.3737,1.632 c 15.8702,0.1907 30.1617,4.6543 45.5086,16.3439 l 2.251,1.7142 2.622,1.0597 c 47.7261,19.2488 99.0023,40.3375 144.7531,61.6428 l 6.9308,3.2295 7.3911,-1.9843 c 1.6867,-0.4528 15.0109,0.8235 32.5322,-4.5384 -1.8482,0.5656 2.1695,-0.4257 6.3177,-0.8715 4.1481,-0.4461 9.5175,-0.8147 14.9848,-0.8929 10.9346,-0.1564 23.3047,2.4133 23.6621,2.599 31.0877,16.1429 58.5158,26.8591 85.9958,24.3026 18.7787,12.6827 32.9965,29.8988 55.5563,43.7914 0.5456,1.1485 0.8835,6.1156 7.8068,13.8403 19.1421,21.3571 47.4549,27.5859 74.0684,34.6034 26.6135,7.0173 53.8484,14.8694 57.1442,17.0168 l 0.4552,0.2968 0.4698,0.2728 c 15.2222,8.8327 20.0246,22.7101 20.036,22.4985 -0.4268,7.9663 -6.0096,24.8044 -12.9268,39.5894 -5.384,11.5074 -10.653,20.9968 -14.6879,28.1999 -17.0593,12.3111 -54.1414,42.6297 -105.7798,85.5534 -8.3293,6.9237 -17.5398,14.6446 -26.4719,22.1116 -3.5018,-4.4229 -7.5585,-9.9295 -11.9177,-16.1665 -11.6196,-16.6245 -25.5033,-38.487 -39.4881,-61.0016 -27.4264,-44.1556 -53.1452,-88.6194 -70.8081,-109.7712 -22.2612,-32.8686 -26.6842,-39.5969 -33.8582,-46.1414 -7.231,-6.5963 -11.9441,-9.0311 -43.3962,-43.1396 l -1.1875,-1.285 -1.3852,-1.073 c -41.7959,-32.4226 -129.9333,-95.4504 -266.6849,-124.6526 11.7418,-3.9078 22.8642,-6.3661 33.2002,-6.9785 2.3394,-0.1386 4.639,-0.1968 6.9062,-0.1695 z m -1035.4296,9.3999 c 20.5492,15.2501 45.6911,38.8207 78.0212,49.4584 18.786,14.2241 19.318,27.5512 17.8889,48.9497 -1.1425,17.1048 -6.785,37.2527 -3.5917,58.8239 -10.5248,5.8822 -21.0123,12.0828 -31.3895,18.8131 -41.6672,15.9169 -79.0509,38.5988 -115.2286,61.5871 -2.4568,-7.4891 -2.893,-13.654 -4.111,-33.7316 1.4378,-1.8935 3.9706,-4.777 7.0397,-7.8555 6.5061,-6.5256 13.3342,-11.8394 19.4571,-18.9456 l 7.2871,-8.4567 -2.9287,-10.7723 c -7.3367,-26.991 -24.7319,-47.3179 -35.8024,-68.2557 -10.2921,-19.4657 -16.0601,-36.7841 -10.1069,-59.5286 7.8619,-5.7564 20.0686,-10.0904 34.6546,-14.4973 12.1442,-3.669 26.163,-7.3268 38.8102,-15.5889 z m -162.0729,8.8701 c 0.2368,0.044 0.46,0.049 0.6975,0.095 -0.4345,-0.084 -0.3412,-0.03 -0.6975,-0.093 z m 274.3332,2.5116 c 0.1467,-0.063 -0.139,0.3437 -0.1038,0.3179 0.07,-0.052 -0.069,0.049 -0.282,0.1855 -0.06,0.039 -0.1852,0.1013 -0.2572,0.1457 0.1096,-0.095 0.6049,-0.6327 0.6431,-0.6491 z m 1678.235,10.6478 c 17.0666,-0.032 33.462,1.2308 48.7293,6.1545 l 1.3209,0.4265 1.3655,0.249 c 19.0583,3.4719 36.7928,10.2051 50.6287,17.4646 0.8488,0.4455 1.6381,0.9077 2.4587,1.3618 -11.9182,4.7508 -23.5988,9.9949 -34.6001,14.6246 -93.089,8.3777 -181.8925,57.0748 -260.1398,93.4352 -13.7204,-4.2725 -28.575,-6.9544 -43.7278,-10.9498 -15.4719,-4.0796 -29.7941,-9.4415 -40.052,-14.2139 75.7395,-51.3799 147.4404,-86.736 233.1928,-107.2357 13.8673,-0.4812 27.5499,-1.2913 40.8238,-1.3168 z m -926.652,2.4639 c 173.146,4.5585 285.8913,68.7698 346.863,112.1211 -44.4815,33.1922 -95.32,65.4276 -140.0433,108.0757 -53.5134,42.5322 -144.7895,93.5591 -195.7332,157.1842 2.6717,-3.3368 1.1777,-1.3137 0.3612,-0.5616 -0.8166,0.7519 -2.1292,1.9295 -3.8093,3.4177 -3.3604,2.9763 -8.2309,7.2265 -14.3368,12.5102 -12.2118,10.5675 -29.3838,25.3007 -49.8325,42.7847 -40.8973,34.9679 -94.9118,80.9579 -148.874,126.9629 -53.9622,46.005 -107.8719,92.0248 -148.6217,127.0981 -13.9493,12.0061 -25.576,22.0803 -35.931,31.0955 h -410.2656 c 0.1206,-0.1603 0.1591,-0.2155 0.282,-0.3788 5.5923,-7.4235 13.6306,-17.8785 23.2713,-30.2875 19.2816,-24.818 45.0029,-57.5073 70.9567,-90.2852 25.9539,-32.7778 52.1509,-65.655 72.4161,-90.8732 10.1326,-12.6091 18.7898,-23.3077 25.1512,-31.0797 3.1807,-3.8861 5.7935,-7.0465 7.6829,-9.2913 1.8895,-2.2449 3.8913,-4.3159 2.5626,-3.0124 13.2163,-12.9653 31.9951,-28.2054 44.9546,-46.2341 56.7505,-36.3286 130.3765,-57.6716 183.2615,-123.6194 19.1978,-16.224 38.0979,-37.5862 56.239,-58.0026 18.5714,-20.9006 36.5369,-40.7396 49.3872,-51.0029 41.9766,-28.212 53.6287,-38.9906 84.2002,-64.8777 64.6969,-33.0865 89.2302,-57.5441 146.1036,-93.2338 6.9889,-2.7531 9.8199,-6.3494 13.0407,-9.4662 3.8355,-3.7117 7.2677,-7.5093 10.5423,-10.8731 4.9508,-5.0857 10.3049,-7.4172 10.1713,-8.1706 z m -981.3871,19.2981 c -0.6006,25.0508 7.445,47.3559 17.0231,65.4711 10.3182,19.515 21.577,36.0113 27.9909,48.8251 -3.3326,3.1631 -4.6265,4.2832 -8.6081,8.2767 -4.0181,4.0302 -8.0243,8.2658 -11.6307,13.199 -3.6064,4.9335 -8.6566,9.9304 -7.8857,22.5091 1.985,32.3857 3.8851,41.7939 10.2851,58.49 -18.4592,11.6269 -36.8582,22.7777 -55.6058,32.5237 -13.4391,2.1813 -24.1925,8.2446 -33.5415,13.7263 -10.3995,6.0976 -19.4544,11.834 -27.4269,14.8736 0.253,-0.084 0.5034,-0.1715 0.7569,-0.2544 l -0.8954,0.3127 c 0.046,-0.018 0.093,-0.041 0.1385,-0.058 -22.0088,7.2639 -42.531,16.7173 -61.9084,27.6117 -2.9044,-13.2359 -7.0845,-26.1892 -12.4271,-38.5695 -2.8825,-10.562 -4.4234,-27.0555 -3.5472,-42.0137 l 0.04,-0.7047 -0.01,-0.7074 c -0.3562,-41.3358 35.9101,-87.1277 71.4662,-116.0555 l 1.1181,-0.9087 0.9795,-1.0518 c 16.4383,-17.6101 17.7477,-38.3403 21.4458,-55.7241 3.223,-15.15 7.0314,-29.0851 18.1016,-43.6722 0.7473,0.083 1.4944,0.1853 2.241,0.3312 5.4225,1.0601 4.867,0.3995 5.6051,0.3577 0.7382,-0.042 1.2209,-0.091 1.7216,-0.1431 1.0016,-0.1031 1.9874,-0.226 3.1563,-0.3816 2.3378,-0.311 5.3145,-0.7452 8.8207,-1.2689 7.0124,-1.0475 16.0669,-2.4531 25.1018,-3.8469 2.5519,-0.3937 4.9912,-0.7642 7.4899,-1.1471 z m -109.7224,26.332 c -1.4766,5.1667 -2.6572,10.1148 -3.6312,14.6933 -4.0902,19.2267 -6.584,30.592 -10.854,35.4591 -35.6993,29.4292 -75.2935,73.1428 -83.5125,126.3298 l -3.75,-1.3831 c -14.0032,-5.1582 -38.6353,-22.4458 -66.2767,-39.1735 -13.1543,-7.9606 -27.3193,-15.9006 -42.4464,-22.1406 1.7078,-0.74 3.7336,-1.804 6.6935,-3.7515 l 5.0263,-3.3065 2.5131,-5.463 c 16.9055,-36.7162 45.1993,-54.1951 68.5772,-52.3091 l 4.4029,0.355 4.1754,-1.4465 c 37.9909,-13.1745 70.4399,-18.1564 109.7917,-44.7028 3.2356,-0.9448 6.3082,-2.026 9.2907,-3.1606 z m 2223.958,3.2348 c 3.9309,-0.024 7.5426,0.1221 10.656,0.5114 -0.5643,-0.071 7.438,5.5136 21.8268,10.9391 11.6743,4.4019 20.7186,8.4677 30.9491,11.0797 72.0695,18.4016 145.9762,38.6603 222.5616,35.8646 1.3311,0 6.0415,0.8588 11.4577,2.3419 l -658.7996,611.0844 h -505.488 c 0.3293,-0.2971 0.5254,-0.4574 0.8658,-0.7658 54.5092,-49.3739 123.7015,-109.8464 192.9876,-169.374 69.286,-59.5274 138.6898,-118.1305 193.6851,-163.8447 52.9266,-43.9944 93.5986,-76.6171 104.3251,-84.3294 50.283,-17.138 143.799,-55.9733 199.9235,-92.6932 32.7247,-19.1921 42.6224,-51.4426 46.4881,-77.2635 3.5226,-23.5288 5.0307,-42.9355 13.0061,-57.0489 5.2794,-2.4641 9.6008,-4.3105 14.5791,-6.4167 19.789,-7.7665 39.5494,-14.8259 50.9952,-17.2077 0.1621,0 0.2958,0 0.4549,0 9.5413,0.2945 18.7128,-0.8517 28.0157,-1.6637 7.5178,-0.6561 14.9585,-1.1724 21.5102,-1.2135 z m -163.7798,35.3611 c -3.617,15.1091 -4.5122,29.6762 -6.3521,41.966 -3.3609,22.4505 -6.4217,35.7564 -26.3483,47.3388 l -0.4998,0.2915 -0.4799,0.3153 c -35.6455,23.4289 -95.8755,51.1403 -144.1,70.6877 5.4724,-13.0872 9.9823,-27.0396 10.7601,-41.5447 0.9724,-18.1565 -7.3054,-33.7732 -20.9906,-46.507 61.726,-29.1713 125.9117,-60.1305 188.0106,-72.5476 z m -1567.3104,6.7268 c -1.1532,27.7759 -15.2442,51.9873 -36.5445,77.0091 -26.4407,31.0604 -63.1437,60.1913 -91.9127,91.3343 -50.7154,36.801 -101.8293,90.7648 -125.5978,151.3132 1.5704,-4.0005 0.5828,-1.2907 -0.3611,0.2543 -0.9439,1.5452 -2.4002,3.8519 -4.2248,6.6817 -3.6494,5.6601 -8.8041,13.4791 -14.9107,22.668 -12.2133,18.3779 -28.2714,42.2809 -44.3016,66.2051 -16.0301,23.924 -32.0294,47.8622 -44.2125,66.4645 -3.5199,5.3747 -6.5965,10.1269 -9.3995,14.5001 l -200.9822,-186.4253 c 35.3124,-27.1769 72.1801,-50.4735 113.7346,-64.0723 l 0.4502,-0.1484 0.4403,-0.1643 c 13.8579,-5.2375 24.7935,-12.6131 33.967,-17.9917 9.1735,-5.3789 16.2126,-8.3573 20.6938,-8.7351 l 4.116,-0.347 3.6807,-1.8811 c 74.7611,-38.1978 137.5299,-91.269 207.5272,-117.5337 l 2.1866,-0.8214 1.9541,-1.2823 c 56.9349,-37.3397 123.0171,-59.9372 183.6969,-97.0277 z m 978.3495,48.7483 c 24.0821,25.4513 32.8009,32.1165 35.6986,34.7597 3.2895,3.0008 4.9838,5.5825 27.7434,39.1841 l 0.668,0.9909 0.7816,0.906 c 9.4301,10.9934 39.8478,60.4835 68.0923,105.9562 14.1221,22.7362 28.2346,45.0029 40.7445,62.9013 4.9711,7.1121 9.6591,13.4915 14.1537,19.0966 -42.4048,35.6606 -88.7916,75.0239 -135.5166,115.1679 -69.4666,59.6823 -138.8444,120.3116 -193.8138,170.1025 -12.4432,11.271 -24.0255,21.8892 -34.8328,31.9197 h -529.5409 c 40.5428,-34.8902 93.9757,-80.5073 147.5779,-126.2052 53.949,-45.9938 107.9636,-91.9855 148.9185,-127.0027 20.4775,-17.5086 37.6855,-32.268 50.0254,-42.9463 6.17,-5.3391 11.1134,-9.6489 14.7029,-12.8282 1.7947,-1.5896 3.245,-2.891 4.4178,-3.9713 1.1728,-1.0803 0.8998,-0.2424 3.9725,-4.08 42.0282,-52.4903 131.0644,-104.3428 189.4356,-150.8259 l 0.7618,-0.6014 0.6976,-0.6728 c 43.3136,-41.5676 96.412,-74.3965 145.312,-111.8536 z m -1302.7724,40.1617 c -0.3394,1.9701 -0.9293,1.2707 -0.01,0.014 0,0 0.01,-0.014 0.01,-0.014 z m -425.1466,10.1339 c 21.117,2.7295 44.327,13.8494 66.9149,27.5189 23.7019,14.3437 45.5255,30.8999 68.2407,40.4744 11.2726,12.2943 21.0652,27.7657 28.4213,44.573 0.9326,2.6055 1.9694,5.1748 3.1414,7.6936 l 0.03,-0.014 c 4.8456,12.619 8.2586,25.8144 9.9041,38.8688 -10.5464,7.354 -20.775,15.0281 -30.7711,22.8667 l -177.0974,-164.2687 c 2.737,-1.4015 5.507,-2.9376 8.3013,-4.6787 l 0.1831,-0.066 0.1831,-0.072 c 8.8806,-3.4902 16.2448,-8.1368 22.549,-12.8971 z"
               style="color:#000000;font-style:normal;font-variant:normal;font-weight:normal;font-stretch:normal;font-size:medium;line-height:normal;font-family:sans-serif;font-variant-ligatures:normal;font-variant-position:normal;font-variant-caps:normal;font-variant-numeric:normal;font-variant-alternates:normal;font-feature-settings:normal;text-indent:0;text-align:start;text-decoration:none;text-decoration-line:none;text-decoration-style:solid;text-decoration-color:#000000;letter-spacing:normal;word-spacing:normal;text-transform:none;writing-mode:lr-tb;direction:ltr;text-orientation:mixed;dominant-baseline:auto;baseline-shift:baseline;text-anchor:start;white-space:normal;shape-padding:0;clip-rule:nonzero;display:inline;overflow:visible;visibility:visible;opacity:1;isolation:auto;mix-blend-mode:normal;color-interpolation:sRGB;color-interpolation-filters:linearRGB;solid-color:#000000;solid-opacity:1;vector-effect:none;fill:none;fill-opacity:1;fill-rule:evenodd;stroke:#0000ff;stroke-width:7.00575876;stroke-linecap:butt;stroke-linejoin:miter;stroke-miterlimit:4;stroke-dasharray:none;stroke-dashoffset:0;stroke-opacity:1;color-rendering:auto;image-rendering:auto;shape-rendering:auto;text-rendering:auto;enable-background:accumulate" />
          </g>
        </g>
        <g
           id="g13946"
           transform="translate(-1.3047871e-6,-1.0216306e-5)">
          <path
             inkscape:connector-curvature="0"
             id="path13911"
             d="m -314.44844,1805.1647 -27.2982,25.2617 -826.74966,766.9121 854.00836,792.1551 H 1393.5535 l 854.0232,-792.1711 -854.0085,-792.1552 h -27.6396 z"
             style="color:#000000;font-style:normal;font-variant:normal;font-weight:normal;font-stretch:normal;font-size:medium;line-height:normal;font-family:sans-serif;font-variant-ligatures:normal;font-variant-position:normal;font-variant-caps:normal;font-variant-numeric:normal;font-variant-alternates:normal;font-feature-settings:normal;text-indent:0;text-align:start;text-decoration:none;text-decoration-line:none;text-decoration-style:solid;text-decoration-color:#000000;letter-spacing:normal;word-spacing:normal;text-transform:none;writing-mode:lr-tb;direction:ltr;text-orientation:mixed;dominant-baseline:auto;baseline-shift:baseline;text-anchor:start;white-space:normal;shape-padding:0;clip-rule:nonzero;display:inline;overflow:visible;visibility:visible;opacity:1;isolation:auto;mix-blend-mode:normal;color-interpolation:sRGB;color-interpolation-filters:linearRGB;solid-color:#000000;solid-opacity:1;vector-effect:none;fill:none;fill-opacity:1;fill-rule:evenodd;stroke:#ff0000;stroke-width:7.00575876;stroke-linecap:butt;stroke-linejoin:miter;stroke-miterlimit:4;stroke-dasharray:none;stroke-dashoffset:0;stroke-opacity:1;color-rendering:auto;image-rendering:auto;shape-rendering:auto;text-rendering:auto;enable-background:accumulate"
             transform="matrix(0.19739978,0.34190644,-0.63843792,0.3686023,2733.2681,-10.275583)" />
          <circle
             style="display:inline;opacity:1;fill:none;stroke:#ff0000;stroke-width:3.77952766;stroke-opacity:1"
             id="path13410-2-1"
             cx="1856.4902"
             cy="0.44733799"
             r="21.362774"
             transform="rotate(60)" />
          <circle
             style="display:inline;opacity:1;fill:none;stroke:#ff0000;stroke-width:3.77952766;stroke-opacity:1"
             id="path13410-2-3"
             cx="1944.2771"
             cy="-151.60393"
             r="21.362774"
             transform="rotate(60)" />
          <circle
             style="display:inline;opacity:1;fill:none;stroke:#ff0000;stroke-width:3.77952766;stroke-opacity:1"
             id="path13410-2-11"
             cx="2032.064"
             cy="-303.65521"
             r="21.362774"
             transform="rotate(60)" />
          <circle
             style="display:inline;opacity:1;fill:none;stroke:#ff0000;stroke-width:3.77952766;stroke-opacity:1"
             id="path13410-2-4"
             cx="1629.2538"
             cy="-9.8869095"
             r="21.362774"
             transform="rotate(60)" />
          <circle
             style="display:inline;opacity:1;fill:none;stroke:#ff0000;stroke-width:3.77952766;stroke-opacity:1"
             id="path13410-2-2"
             cx="1713.6863"
             cy="-156.12822"
             r="21.362774"
             transform="rotate(60)" />
          <circle
             style="display:inline;opacity:1;fill:none;stroke:#ff0000;stroke-width:3.77952766;stroke-opacity:1"
             id="path13410-2-7"
             cx="1402.9874"
             cy="-12.680085"
             r="21.362774"
             transform="rotate(60)" />
          <circle
             style="display:inline;opacity:1;fill:none;stroke:#ff0000;stroke-width:3.77952766;stroke-opacity:1"
             id="path13410-2-5"
             cx="1560.0667"
             cy="-284.74911"
             r="21.362774"
             transform="rotate(60)" />
          <circle
             style="display:inline;opacity:1;fill:none;stroke:#ff0000;stroke-width:3.77952766;stroke-opacity:1"
             id="path13410-2-29"
             cx="1413.4926"
             cy="-362.22662"
             r="21.362774"
             transform="rotate(60)" />
          <circle
             style="display:inline;opacity:1;fill:none;stroke:#ff0000;stroke-width:3.77952766;stroke-opacity:1"
             id="path13410-2-31"
             cx="1195.9016"
             cy="-152.8604"
             r="21.362774"
             transform="rotate(60)" />
          <circle
             style="display:inline;opacity:1;fill:none;stroke:#ff0000;stroke-width:3.77952766;stroke-opacity:1"
             id="path13410-2-9"
             cx="1821.874"
             cy="-290.98709"
             r="21.362774"
             transform="rotate(60)" />
          <circle
             style="display:inline;opacity:1;fill:none;stroke:#ff0000;stroke-width:3.77952766;stroke-opacity:1"
             id="path13410-2-54"
             cx="1292.064"
             cy="-115.08366"
             r="21.362774"
             transform="rotate(60)" />
          <circle
             style="display:inline;opacity:1;fill:none;stroke:#ff0000;stroke-width:3.77952766;stroke-opacity:1"
             id="path13410-2-8"
             cx="1246.1764"
             cy="-395.60382"
             r="21.362774"
             transform="rotate(60)" />
          <circle
             style="display:inline;opacity:1;fill:none;stroke:#ff0000;stroke-width:3.77952766;stroke-opacity:1"
             id="path13410-2-36"
             cx="1165.2678"
             cy="-292.74664"
             r="21.362774"
             transform="rotate(60)" />
          <g
             style="fill:none;stroke:#ff0000;stroke-width:3.77952766"
             id="g13661"
             transform="rotate(60,1181.5387,1131.579)">
            <circle
               r="21.362774"
               cy="679.67548"
               cx="955.71429"
               id="path13410-2-49"
               style="display:inline;opacity:1;fill:none;stroke:#ff0000;stroke-width:3.77952766;stroke-opacity:1" />
            <circle
               r="21.362774"
               cy="685.38983"
               cx="1174.2858"
               id="path13410-2-15"
               style="display:inline;opacity:1;fill:none;stroke:#ff0000;stroke-width:3.77952766;stroke-opacity:1" />
            <circle
               r="21.362774"
               cy="689.6626"
               cx="1392.8572"
               id="path13410-2-84"
               style="display:inline;opacity:1;fill:none;stroke:#ff0000;stroke-width:3.77952766;stroke-opacity:1" />
          </g>
          <circle
             style="display:inline;opacity:1;fill:none;stroke:#ff0000;stroke-width:3.77952766;stroke-opacity:1"
             id="path13410-2-12"
             cx="1781.3944"
             cy="-643.89117"
             r="21.362774"
             transform="rotate(60)" />
          <circle
             style="display:inline;opacity:1;fill:none;stroke:#ff0000;stroke-width:3.77952766;stroke-opacity:1"
             id="path13410-2-0-7"
             cx="1172.9569"
             cy="-643.89117"
             r="21.362774"
             transform="rotate(60)" />
          <circle
             style="display:inline;opacity:1;fill:none;stroke:#ff0000;stroke-width:3.77952766;stroke-opacity:1"
             id="path13410-2-23-0"
             cx="1375.7694"
             cy="-643.89117"
             r="21.362774"
             transform="rotate(60)" />
          <circle
             style="display:inline;opacity:1;fill:none;stroke:#ff0000;stroke-width:3.77952766;stroke-opacity:1"
             id="path13410-2-77-3"
             cx="1578.5819"
             cy="-643.89117"
             r="21.362774"
             transform="rotate(60)" />
          <circle
             style="display:inline;opacity:1;fill:none;stroke:#ff0000;stroke-width:3.77952766;stroke-opacity:1"
             id="path13410-2-84-5"
             cx="1984.2069"
             cy="-643.89117"
             r="21.362774"
             transform="rotate(60)" />
          <circle
             style="display:inline;opacity:1;fill:none;stroke:#ff0000;stroke-width:3.77952766;stroke-opacity:1"
             id="path13410-2-0"
             cx="1267.7783"
             cy="-774.12708"
             r="21.362774"
             transform="rotate(60)" />
          <circle
             style="display:inline;opacity:1;fill:none;stroke:#ff0000;stroke-width:3.77952766;stroke-opacity:1"
             id="path13410-2-23"
             cx="1471.1116"
             cy="-774.12708"
             r="21.362774"
             transform="rotate(60)" />
          <circle
             style="display:inline;opacity:1;fill:none;stroke:#ff0000;stroke-width:3.77952766;stroke-opacity:1"
             id="path13410-2-77"
             cx="1674.4449"
             cy="-774.12708"
             r="21.362774"
             transform="rotate(60)" />
          <circle
             style="display:inline;opacity:1;fill:none;stroke:#ff0000;stroke-width:3.77952766;stroke-opacity:1"
             id="path13410-2-84-5-1"
             cx="1877.7782"
             cy="-774.12708"
             r="21.362774"
             transform="rotate(60)" />
          <circle
             style="display:inline;opacity:1;fill:none;stroke:#ff0000;stroke-width:3.77952766;stroke-opacity:1"
             id="path13410-2-0-7-0"
             cx="1069.2069"
             cy="-513.65521"
             r="21.362774"
             transform="rotate(60)" />
          <circle
             style="display:inline;opacity:1;fill:none;stroke:#ff0000;stroke-width:3.77952766;stroke-opacity:1"
             id="path13410-2-84-5-5"
             cx="1820.6354"
             cy="-513.65521"
             r="21.362774"
             transform="rotate(60)" />
          <circle
             style="display:inline;opacity:1;fill:none;stroke:#ff0000;stroke-width:3.77952766;stroke-opacity:1"
             id="path13410-2-84-5-8"
             cx="2077.7783"
             cy="-513.65521"
             r="21.362774"
             transform="rotate(60)" />
          <circle
             style="display:inline;opacity:1;fill:none;stroke:#ff0000;stroke-width:3.77952766;stroke-opacity:1"
             id="path13410-2-84-5-5-0"
             cx="1460.6355"
             cy="-539.36957"
             r="21.362774"
             transform="rotate(60)" />
          <circle
             style="display:inline;opacity:1;fill:none;stroke:#ff0000;stroke-width:3.77952766;stroke-opacity:1"
             id="path13410-2-5-2"
             cx="1481.527"
             cy="-148.7146"
             r="21.362774"
             transform="rotate(60)" />
        </g>
      </g>
    </g>
  </g>
</svg>
