0
SECTION
2
HEADER
9
$INSUNITS
70
4
9
$ACADVER
1
AC1014
9
$HANDSEED
5
FFFF
0
ENDSEC
0
SECTION
2
TABLES
0
TABLE
2
VPORT
5
8
100
AcDbSymbolTable
0
ENDTAB
0
TABLE
2
LTYPE
5
5
100
AcDbSymbolTable
0
LTYPE
5
14
100
AcDbSymbolTableRecord
100
AcDbLinetypeTableRecord
2
BYBLOCK
70
0
0
LTYPE
5
15
100
AcDbSymbolTableRecord
100
AcDbLinetypeTableRecord
2
BYLAYER
70
0
0
ENDTAB
0
TABLE
2
LAYER
5
2
100
AcDbSymbolTable
70
2
0
LAYER
5
50
100
AcDbSymbolTableRecord
100
AcDbLayerTableRecord
2
0
70
0
6
CONTINUOUS
0
ENDTAB
0
TABLE
2
STYLE
5
3
100
AcDbSymbolTable
70
1
0
STYLE
5
11
100
AcDbSymbolTableRecord
100
AcDbTextStyleTableRecord
2
STANDARD
70
0
0
ENDTAB
0
TABLE
2
VIEW
5
6
100
AcDbSymbolTable
70
0
0
ENDTAB
0
TABLE
2
UCS
5
7
100
AcDbSymbolTable
70
0
0
ENDTAB
0
TABLE
2
APPID
5
9
100
AcDbSymbolTable
70
2
0
APPID
5
12
100
AcDbSymbolTableRecord
100
AcDbRegAppTableRecord
2
ACAD
70
0
0
ENDTAB
0
TABLE
2
DIMSTYLE
5
A
100
AcDbSymbolTable
70
1
0
ENDTAB
0
TABLE
2
BLOCK_RECORD
5
1
100
AcDbSymbolTable
70
1
0
BLOCK_RECORD
5
1F
100
AcDbSymbolTableRecord
100
AcDbBlockTableRecord
2
*MODEL_SPACE
0
BLOCK_RECORD
5
1B
100
AcDbSymbolTableRecord
100
AcDbBlockTableRecord
2
*PAPER_SPACE
0
ENDTAB
0
ENDSEC
0
SECTION
2
BLOCKS
0
BLOCK
5
20
100
AcDbEntity
100
AcDbBlockBegin
2
*MODEL_SPACE
0
ENDBLK
5
21
100
AcDbEntity
100
AcDbBlockEnd
0
BLOCK
5
1C
100
AcDbEntity
100
AcDbBlockBegin
2
*PAPER_SPACE
0
ENDBLK
5
1D
100
AcDbEntity
100
AcDbBlockEnd
0
ENDSEC
0
SECTION
2
ENTITIES
0
LINE
5
100
100
AcDbEntity
8
0
100
AcDbLine
10
0
20
0
30
0
11
0
21
320
31
0
0
CIRCLE
5
101
100
AcDbEntity
8
0
100
AcDbCircle
10
0
20
0
30
0
40
320
0
SPLINE
5
102
100
AcDbEntity
8
0
100
AcDbSpline
70
12
71
2
41
1
41
3
41
1
72
6
73
3
74
0
42
0.000000001
43
0.0000000001
44
0.0000000001
40
0
40
0
40
0
40
33.919942511743734
40
33.919942511743734
40
33.919942511743734
10
0
20
320
30
0
10
-75
20
160
30
0
10
0
20
0
30
0
0
SPLINE
5
103
100
AcDbEntity
8
0
100
AcDbSpline
70
12
71
2
41
1
41
3
41
1
72
6
73
3
74
0
42
0.000000001
43
0.0000000001
44
0.0000000001
40
0
40
0
40
0
40
33.919942511743734
40
33.919942511743734
40
33.919942511743734
10
0
20
320
30
0
10
75
20
160
30
0
10
0
20
0
30
0
0
LWPOLYLINE
5
104
100
AcDbEntity
8
0
100
AcDbPolyline
90
6
70
1
43
0.0
10
-369.50417228136047
20
1.4210854715202004e-13
10
-184.75208614068012
20
320
10
184.75208614068049
20
319.99999999999977
10
369.50417228136047
20
-2.8421709430404007e-13
10
184.75208614068003
20
-320.00000000000006
10
-184.75208614068038
20
-319.99999999999989
0
SPLINE
5
105
100
AcDbEntity
8
0
100
AcDbSpline
70
12
71
2
41
1
41
3
41
1
72
6
73
3
74
0
42
0.000000001
43
0.0000000001
44
0.0000000001
40
0
40
0
40
0
40
33.919942511743734
40
33.919942511743734
40
33.919942511743734
10
-82.822094432806637
20
309.09626441250185
30
0
10
-113.85548418808342
20
135.13670382356187
30
0
10
0
20
0
30
0
0
SPLINE
5
106
100
AcDbEntity
8
0
100
AcDbSpline
70
12
71
2
41
1
41
3
41
1
72
6
73
3
74
0
42
0.000000001
43
0.0000000001
44
0.0000000001
40
0
40
0
40
0
40
33.919942511743741
40
33.919942511743741
40
33.919942511743741
10
-82.822094432806637
20
309.09626441250185
30
0
10
31.033389755276808
20
173.95956058894001
30
0
10
0
20
0
30
0
0
SPLINE
5
107
100
AcDbEntity
8
0
100
AcDbSpline
70
12
71
2
41
1
41
3
41
1
72
6
73
3
74
0
42
0.000000001
43
0.0000000001
44
0.0000000001
40
0
40
0
40
0
40
33.919942511743734
40
33.919942511743734
40
33.919942511743734
10
-159.99999999999997
20
277.12812921102039
30
0
10
-144.95190528383284
20
101.06406460551015
30
0
10
0
20
0
30
0
0
SPLINE
5
108
100
AcDbEntity
8
0
100
AcDbSpline
70
12
71
2
41
1
41
3
41
1
72
6
73
3
74
0
42
0.000000001
43
0.0000000001
44
0.0000000001
40
0
40
0
40
0
40
33.919942511743734
40
33.919942511743734
40
33.919942511743734
10
-159.99999999999997
20
277.12812921102039
30
0
10
-15.048094716167093
20
176.06406460551014
30
0
10
0
20
0
30
0
0
SPLINE
5
109
100
AcDbEntity
8
0
100
AcDbSpline
70
12
71
2
41
1
41
3
41
1
72
6
73
3
74
0
42
0.000000001
43
0.0000000001
44
0.0000000001
40
0
40
0
40
0
40
33.919942511743741
40
33.919942511743741
40
33.919942511743741
10
-226.27416997969522
20
226.27416997969519
30
0
10
-166.17009357883865
20
60.104076400856499
30
0
10
0
20
0
30
0
0
SPLINE
5
110
100
AcDbEntity
8
0
100
AcDbSpline
70
12
71
2
41
1
41
3
41
1
72
6
73
3
74
0
42
0.000000001
43
0.0000000001
44
0.0000000001
40
0
40
0
40
0
40
33.919942511743741
40
33.919942511743741
40
33.919942511743741
10
-226.27416997969522
20
226.27416997969519
30
0
10
-60.104076400856528
20
166.1700935788387
30
0
10
0
20
0
30
0
0
SPLINE
5
111
100
AcDbEntity
8
0
100
AcDbSpline
70
12
71
2
41
1
41
3
41
1
72
6
73
3
74
0
42
0.000000001
43
0.0000000001
44
0.0000000001
40
0
40
0
40
0
40
33.919942511743741
40
33.919942511743741
40
33.919942511743741
10
-277.12812921102034
20
160.00000000000003
30
0
10
-176.06406460551017
20
15.048094716167125
30
0
10
0
20
0
30
0
0
SPLINE
5
112
100
AcDbEntity
8
0
100
AcDbSpline
70
12
71
2
41
1
41
3
41
1
72
6
73
3
74
0
42
0.000000001
43
0.0000000001
44
0.0000000001
40
0
40
0
40
0
40
33.919942511743734
40
33.919942511743734
40
33.919942511743734
10
-277.12812921102034
20
160.00000000000003
30
0
10
-101.06406460551015
20
144.9519052838329
30
0
10
0
20
0
30
0
0
SPLINE
5
113
100
AcDbEntity
8
0
100
AcDbSpline
70
12
71
2
41
1
41
3
41
1
72
6
73
3
74
0
42
0.000000001
43
0.0000000001
44
0.0000000001
40
0
40
0
40
0
40
33.919942511743741
40
33.919942511743741
40
33.919942511743741
10
-309.09626441250185
20
82.822094432806708
30
0
10
-173.95956058894001
20
-31.033389755276758
30
0
10
0
20
0
30
0
0
SPLINE
5
114
100
AcDbEntity
8
0
100
AcDbSpline
70
12
71
2
41
1
41
3
41
1
72
6
73
3
74
0
42
0.000000001
43
0.0000000001
44
0.0000000001
40
0
40
0
40
0
40
33.919942511743741
40
33.919942511743741
40
33.919942511743741
10
-309.09626441250185
20
82.822094432806708
30
0
10
-135.13670382356187
20
113.85548418808349
30
0
10
0
20
0
30
0
0
SPLINE
5
115
100
AcDbEntity
8
0
100
AcDbSpline
70
12
71
2
41
1
41
3
41
1
72
6
73
3
74
0
42
0.000000001
43
0.0000000001
44
0.0000000001
40
0
40
0
40
0
40
33.919942511743741
40
33.919942511743741
40
33.919942511743741
10
-320.00000000000006
20
-7.1054273576010019e-14
30
0
10
-160
20
-74.999999999999986
30
0
10
0
20
0
30
0
0
SPLINE
5
116
100
AcDbEntity
8
0
100
AcDbSpline
70
12
71
2
41
1
41
3
41
1
72
6
73
3
74
0
42
0.000000001
43
0.0000000001
44
0.0000000001
40
0
40
0
40
0
40
33.919942511743741
40
33.919942511743741
40
33.919942511743741
10
-320.00000000000006
20
-7.1054273576010019e-14
30
0
10
-159.99999999999997
20
75
30
0
10
0
20
0
30
0
0
SPLINE
5
117
100
AcDbEntity
8
0
100
AcDbSpline
70
12
71
2
41
1
41
3
41
1
72
6
73
3
74
0
42
0.000000001
43
0.0000000001
44
0.0000000001
40
0
40
0
40
0
40
33.919942511743734
40
33.919942511743734
40
33.919942511743734
10
-309.09626441250185
20
-82.822094432806637
30
0
10
-135.1367038235619
20
-113.85548418808342
30
0
10
0
20
0
30
0
0
SPLINE
5
118
100
AcDbEntity
8
0
100
AcDbSpline
70
12
71
2
41
1
41
3
41
1
72
6
73
3
74
0
42
0.000000001
43
0.0000000001
44
0.0000000001
40
0
40
0
40
0
40
33.919942511743741
40
33.919942511743741
40
33.919942511743741
10
-309.09626441250185
20
-82.822094432806637
30
0
10
-173.95956058894001
20
31.033389755276826
30
0
10
0
20
0
30
0
0
SPLINE
5
119
100
AcDbEntity
8
0
100
AcDbSpline
70
12
71
2
41
1
41
3
41
1
72
6
73
3
74
0
42
0.000000001
43
0.0000000001
44
0.0000000001
40
0
40
0
40
0
40
33.919942511743741
40
33.919942511743741
40
33.919942511743741
10
-277.12812921102045
20
-159.99999999999994
30
0
10
-101.0640646055102
20
-144.95190528383284
30
0
10
0
20
0
30
0
0
SPLINE
5
120
100
AcDbEntity
8
0
100
AcDbSpline
70
12
71
2
41
1
41
3
41
1
72
6
73
3
74
0
42
0.000000001
43
0.0000000001
44
0.0000000001
40
0
40
0
40
0
40
33.919942511743734
40
33.919942511743734
40
33.919942511743734
10
-277.12812921102045
20
-159.99999999999994
30
0
10
-176.06406460551014
20
-15.048094716167057
30
0
10
0
20
0
30
0
0
SPLINE
5
121
100
AcDbEntity
8
0
100
AcDbSpline
70
12
71
2
41
1
41
3
41
1
72
6
73
3
74
0
42
0.000000001
43
0.0000000001
44
0.0000000001
40
0
40
0
40
0
40
33.919942511743741
40
33.919942511743741
40
33.919942511743741
10
-226.27416997969527
20
-226.27416997969519
30
0
10
-60.104076400856556
20
-166.1700935788387
30
0
10
0
20
0
30
0
0
SPLINE
5
122
100
AcDbEntity
8
0
100
AcDbSpline
70
12
71
2
41
1
41
3
41
1
72
6
73
3
74
0
42
0.000000001
43
0.0000000001
44
0.0000000001
40
0
40
0
40
0
40
33.919942511743741
40
33.919942511743741
40
33.919942511743741
10
-226.27416997969527
20
-226.27416997969519
30
0
10
-166.1700935788387
20
-60.10407640085652
30
0
10
0
20
0
30
0
0
SPLINE
5
123
100
AcDbEntity
8
0
100
AcDbSpline
70
12
71
2
41
1
41
3
41
1
72
6
73
3
74
0
42
0.000000001
43
0.0000000001
44
0.0000000001
40
0
40
0
40
0
40
33.919942511743727
40
33.919942511743727
40
33.919942511743727
10
-160.00000000000011
20
-277.12812921102028
30
0
10
-15.048094716167164
20
-176.06406460551017
30
0
10
0
20
0
30
0
0
SPLINE
5
124
100
AcDbEntity
8
0
100
AcDbSpline
70
12
71
2
41
1
41
3
41
1
72
6
73
3
74
0
42
0.000000001
43
0.0000000001
44
0.0000000001
40
0
40
0
40
0
40
33.919942511743727
40
33.919942511743727
40
33.919942511743727
10
-160.00000000000011
20
-277.12812921102028
30
0
10
-144.95190528383296
20
-101.06406460551013
30
0
10
0
20
0
30
0
0
SPLINE
5
125
100
AcDbEntity
8
0
100
AcDbSpline
70
12
71
2
41
1
41
3
41
1
72
6
73
3
74
0
42
0.000000001
43
0.0000000001
44
0.0000000001
40
0
40
0
40
0
40
33.919942511743734
40
33.919942511743734
40
33.919942511743734
10
-82.822094432806722
20
-309.0962644125018
30
0
10
31.033389755276758
20
-173.95956058894001
30
0
10
0
20
0
30
0
0
SPLINE
5
126
100
AcDbEntity
8
0
100
AcDbSpline
70
12
71
2
41
1
41
3
41
1
72
6
73
3
74
0
42
0.000000001
43
0.0000000001
44
0.0000000001
40
0
40
0
40
0
40
33.919942511743741
40
33.919942511743741
40
33.919942511743741
10
-82.822094432806722
20
-309.0962644125018
30
0
10
-113.85548418808347
20
-135.13670382356187
30
0
10
0
20
0
30
0
0
SPLINE
5
127
100
AcDbEntity
8
0
100
AcDbSpline
70
12
71
2
41
1
41
3
41
1
72
6
73
3
74
0
42
0.000000001
43
0.0000000001
44
0.0000000001
40
0
40
0
40
0
40
33.919942511743734
40
33.919942511743734
40
33.919942511743734
10
-3.9188697572715304e-14
20
-320
30
0
10
74.999999999999986
20
-160.00000000000003
30
0
10
0
20
0
30
0
0
SPLINE
5
128
100
AcDbEntity
8
0
100
AcDbSpline
70
12
71
2
41
1
41
3
41
1
72
6
73
3
74
0
42
0.000000001
43
0.0000000001
44
0.0000000001
40
0
40
0
40
0
40
33.919942511743734
40
33.919942511743734
40
33.919942511743734
10
-3.9188697572715304e-14
20
-320
30
0
10
-75.000000000000028
20
-160
30
0
10
0
20
0
30
0
0
SPLINE
5
129
100
AcDbEntity
8
0
100
AcDbSpline
70
12
71
2
41
1
41
3
41
1
72
6
73
3
74
0
42
0.000000001
43
0.0000000001
44
0.0000000001
40
0
40
0
40
0
40
33.919942511743741
40
33.919942511743741
40
33.919942511743741
10
82.822094432806509
20
-309.09626441250197
30
0
10
113.85548418808341
20
-135.1367038235619
30
0
10
0
20
0
30
0
0
SPLINE
5
130
100
AcDbEntity
8
0
100
AcDbSpline
70
12
71
2
41
1
41
3
41
1
72
6
73
3
74
0
42
0.000000001
43
0.0000000001
44
0.0000000001
40
0
40
0
40
0
40
33.919942511743741
40
33.919942511743741
40
33.919942511743741
10
82.822094432806509
20
-309.09626441250197
30
0
10
-31.033389755276879
20
-173.95956058894001
30
0
10
0
20
0
30
0
0
SPLINE
5
131
100
AcDbEntity
8
0
100
AcDbSpline
70
12
71
2
41
1
41
3
41
1
72
6
73
3
74
0
42
0.000000001
43
0.0000000001
44
0.0000000001
40
0
40
0
40
0
40
33.919942511743741
40
33.919942511743741
40
33.919942511743741
10
159.99999999999994
20
-277.12812921102045
30
0
10
144.95190528383284
20
-101.0640646055102
30
0
10
0
20
0
30
0
0
SPLINE
5
132
100
AcDbEntity
8
0
100
AcDbSpline
70
12
71
2
41
1
41
3
41
1
72
6
73
3
74
0
42
0.000000001
43
0.0000000001
44
0.0000000001
40
0
40
0
40
0
40
33.919942511743741
40
33.919942511743741
40
33.919942511743741
10
159.99999999999994
20
-277.12812921102045
30
0
10
15.048094716167036
20
-176.06406460551023
30
0
10
0
20
0
30
0
0
SPLINE
5
133
100
AcDbEntity
8
0
100
AcDbSpline
70
12
71
2
41
1
41
3
41
1
72
6
73
3
74
0
42
0.000000001
43
0.0000000001
44
0.0000000001
40
0
40
0
40
0
40
33.919942511743734
40
33.919942511743734
40
33.919942511743734
10
226.27416997969507
20
-226.27416997969533
30
0
10
166.17009357883859
20
-60.104076400856627
30
0
10
0
20
0
30
0
0
SPLINE
5
134
100
AcDbEntity
8
0
100
AcDbSpline
70
12
71
2
41
1
41
3
41
1
72
6
73
3
74
0
42
0.000000001
43
0.0000000001
44
0.0000000001
40
0
40
0
40
0
40
33.919942511743741
40
33.919942511743741
40
33.919942511743741
10
226.27416997969507
20
-226.27416997969533
30
0
10
60.104076400856428
20
-166.1700935788387
30
0
10
0
20
0
30
0
0
SPLINE
5
135
100
AcDbEntity
8
0
100
AcDbSpline
70
12
71
2
41
1
41
3
41
1
72
6
73
3
74
0
42
0.000000001
43
0.0000000001
44
0.0000000001
40
0
40
0
40
0
40
33.919942511743727
40
33.919942511743727
40
33.919942511743727
10
277.12812921102028
20
-160.00000000000006
30
0
10
176.06406460551014
20
-15.048094716167196
30
0
10
0
20
0
30
0
0
SPLINE
5
136
100
AcDbEntity
8
0
100
AcDbSpline
70
12
71
2
41
1
41
3
41
1
72
6
73
3
74
0
42
0.000000001
43
0.0000000001
44
0.0000000001
40
0
40
0
40
0
40
33.919942511743734
40
33.919942511743734
40
33.919942511743734
10
277.12812921102028
20
-160.00000000000006
30
0
10
101.06406460551013
20
-144.95190528383296
30
0
10
0
20
0
30
0
0
SPLINE
5
137
100
AcDbEntity
8
0
100
AcDbSpline
70
12
71
2
41
1
41
3
41
1
72
6
73
3
74
0
42
0.000000001
43
0.0000000001
44
0.0000000001
40
0
40
0
40
0
40
33.919942511743734
40
33.919942511743734
40
33.919942511743734
10
309.0962644125018
20
-82.82209443280685
30
0
10
173.95956058894004
20
31.033389755276669
30
0
10
0
20
0
30
0
0
SPLINE
5
138
100
AcDbEntity
8
0
100
AcDbSpline
70
12
71
2
41
1
41
3
41
1
72
6
73
3
74
0
42
0.000000001
43
0.0000000001
44
0.0000000001
40
0
40
0
40
0
40
33.919942511743734
40
33.919942511743734
40
33.919942511743734
10
309.0962644125018
20
-82.82209443280685
30
0
10
135.13670382356176
20
-113.85548418808355
30
0
10
0
20
0
30
0
0
SPLINE
5
139
100
AcDbEntity
8
0
100
AcDbSpline
70
12
71
2
41
1
41
3
41
1
72
6
73
3
74
0
42
0.000000001
43
0.0000000001
44
0.0000000001
40
0
40
0
40
0
40
33.919942511743741
40
33.919942511743741
40
33.919942511743741
10
320
20
-7.1054273576010019e-14
30
0
10
160
20
74.999999999999972
30
0
10
0
20
0
30
0
0
SPLINE
5
140
100
AcDbEntity
8
0
100
AcDbSpline
70
12
71
2
41
1
41
3
41
1
72
6
73
3
74
0
42
0.000000001
43
0.0000000001
44
0.0000000001
40
0
40
0
40
0
40
33.919942511743734
40
33.919942511743734
40
33.919942511743734
10
320
20
-7.1054273576010019e-14
30
0
10
160
20
-75.000000000000028
30
0
10
0
20
0
30
0
0
SPLINE
5
141
100
AcDbEntity
8
0
100
AcDbSpline
70
12
71
2
41
1
41
3
41
1
72
6
73
3
74
0
42
0.000000001
43
0.0000000001
44
0.0000000001
40
0
40
0
40
0
40
33.919942511743741
40
33.919942511743741
40
33.919942511743741
10
309.09626441250191
20
82.822094432806466
30
0
10
135.13670382356193
20
113.85548418808341
30
0
10
0
20
0
30
0
0
SPLINE
5
142
100
AcDbEntity
8
0
100
AcDbSpline
70
12
71
2
41
1
41
3
41
1
72
6
73
3
74
0
42
0.000000001
43
0.0000000001
44
0.0000000001
40
0
40
0
40
0
40
33.919942511743741
40
33.919942511743741
40
33.919942511743741
10
309.09626441250191
20
82.822094432806466
30
0
10
173.95956058894001
20
-31.033389755276897
30
0
10
0
20
0
30
0
0
SPLINE
5
143
100
AcDbEntity
8
0
100
AcDbSpline
70
12
71
2
41
1
41
3
41
1
72
6
73
3
74
0
42
0.000000001
43
0.0000000001
44
0.0000000001
40
0
40
0
40
0
40
33.919942511743741
40
33.919942511743741
40
33.919942511743741
10
277.12812921102051
20
159.99999999999977
30
0
10
101.06406460551031
20
144.95190528383284
30
0
10
0
20
0
30
0
0
SPLINE
5
144
100
AcDbEntity
8
0
100
AcDbSpline
70
12
71
2
41
1
41
3
41
1
72
6
73
3
74
0
42
0.000000001
43
0.0000000001
44
0.0000000001
40
0
40
0
40
0
40
33.919942511743741
40
33.919942511743741
40
33.919942511743741
10
277.12812921102051
20
159.99999999999977
30
0
10
176.06406460551017
20
15.048094716166958
30
0
10
0
20
0
30
0
0
SPLINE
5
145
100
AcDbEntity
8
0
100
AcDbSpline
70
12
71
2
41
1
41
3
41
1
72
6
73
3
74
0
42
0.000000001
43
0.0000000001
44
0.0000000001
40
0
40
0
40
0
40
33.919942511743734
40
33.919942511743734
40
33.919942511743734
10
226.27416997969527
20
226.27416997969516
30
0
10
60.104076400856563
20
166.17009357883865
30
0
10
0
20
0
30
0
0
SPLINE
5
146
100
AcDbEntity
8
0
100
AcDbSpline
70
12
71
2
41
1
41
3
41
1
72
6
73
3
74
0
42
0.000000001
43
0.0000000001
44
0.0000000001
40
0
40
0
40
0
40
33.919942511743734
40
33.919942511743734
40
33.919942511743734
10
226.27416997969527
20
226.27416997969516
30
0
10
166.17009357883865
20
60.104076400856492
30
0
10
0
20
0
30
0
0
SPLINE
5
147
100
AcDbEntity
8
0
100
AcDbSpline
70
12
71
2
41
1
41
3
41
1
72
6
73
3
74
0
42
0.000000001
43
0.0000000001
44
0.0000000001
40
0
40
0
40
0
40
33.919942511743734
40
33.919942511743734
40
33.919942511743734
10
160.00000000000014
20
277.12812921102028
30
0
10
15.048094716167196
20
176.06406460551017
30
0
10
0
20
0
30
0
0
SPLINE
5
148
100
AcDbEntity
8
0
100
AcDbSpline
70
12
71
2
41
1
41
3
41
1
72
6
73
3
74
0
42
0.000000001
43
0.0000000001
44
0.0000000001
40
0
40
0
40
0
40
33.919942511743734
40
33.919942511743734
40
33.919942511743734
10
160.00000000000014
20
277.12812921102028
30
0
10
144.95190528383296
20
101.06406460551014
30
0
10
0
20
0
30
0
0
SPLINE
5
149
100
AcDbEntity
8
0
100
AcDbSpline
70
12
71
2
41
1
41
3
41
1
72
6
73
3
74
0
42
0.000000001
43
0.0000000001
44
0.0000000001
40
0
40
0
40
0
40
33.919942511743741
40
33.919942511743741
40
33.919942511743741
10
82.822094432806892
20
309.0962644125018
30
0
10
-31.033389755276662
20
173.95956058894004
30
0
10
0
20
0
30
0
0
SPLINE
5
150
100
AcDbEntity
8
0
100
AcDbSpline
70
12
71
2
41
1
41
3
41
1
72
6
73
3
74
0
42
0.000000001
43
0.0000000001
44
0.0000000001
40
0
40
0
40
0
40
33.919942511743734
40
33.919942511743734
40
33.919942511743734
10
82.822094432806892
20
309.0962644125018
30
0
10
113.85548418808355
20
135.13670382356176
30
0
10
0
20
0
30
0
0
LINE
5
151
100
AcDbEntity
8
0
100
AcDbLine
10
0
20
0
30
0
11
-444.8402350907815
21
1.2434497875801753e-13
31
0
0
ENDSEC
0
SECTION
2
OBJECTS
0
DICTIONARY
5
C
100
AcDbDictionary
3
ACAD_GROUP
350
D
3
ACAD_MLINESTYLE
350
17
0
DICTIONARY
5
D
100
AcDbDictionary
0
DICTIONARY
5
1A
330
C
100
AcDbDictionary
0
DICTIONARY
5
17
100
AcDbDictionary
0
ENDSEC
0
EOF
