0
SECTION
2
HEADER
9
$INSUNITS
70
4
9
$ACADVER
1
AC1014
9
$HANDSEED
5
FFFF
0
ENDSEC
0
SECTION
2
TABLES
0
TABLE
2
VPORT
5
8
100
AcDbSymbolTable
0
ENDTAB
0
TABLE
2
LTYPE
5
5
100
AcDbSymbolTable
0
LTYPE
5
14
100
AcDbSymbolTableRecord
100
AcDbLinetypeTableRecord
2
BYBLOCK
70
0
0
LTYPE
5
15
100
AcDbSymbolTableRecord
100
AcDbLinetypeTableRecord
2
BYLAYER
70
0
0
ENDTAB
0
TABLE
2
LAYER
5
2
100
AcDbSymbolTable
70
2
0
LAYER
5
50
100
AcDbSymbolTableRecord
100
AcDbLayerTableRecord
2
0
70
0
6
CONTINUOUS
0
ENDTAB
0
TABLE
2
STYLE
5
3
100
AcDbSymbolTable
70
1
0
STYLE
5
11
100
AcDbSymbolTableRecord
100
AcDbTextStyleTableRecord
2
STANDARD
70
0
0
ENDTAB
0
TABLE
2
VIEW
5
6
100
AcDbSymbolTable
70
0
0
ENDTAB
0
TABLE
2
UCS
5
7
100
AcDbSymbolTable
70
0
0
ENDTAB
0
TABLE
2
APPID
5
9
100
AcDbSymbolTable
70
2
0
APPID
5
12
100
AcDbSymbolTableRecord
100
AcDbRegAppTableRecord
2
ACAD
70
0
0
ENDTAB
0
TABLE
2
DIMSTYLE
5
A
100
AcDbSymbolTable
70
1
0
ENDTAB
0
TABLE
2
BLOCK_RECORD
5
1
100
AcDbSymbolTable
70
1
0
BLOCK_RECORD
5
1F
100
AcDbSymbolTableRecord
100
AcDbBlockTableRecord
2
*MODEL_SPACE
0
BLOCK_RECORD
5
1B
100
AcDbSymbolTableRecord
100
AcDbBlockTableRecord
2
*PAPER_SPACE
0
ENDTAB
0
ENDSEC
0
SECTION
2
BLOCKS
0
BLOCK
5
20
100
AcDbEntity
100
AcDbBlockBegin
2
*MODEL_SPACE
0
ENDBLK
5
21
100
AcDbEntity
100
AcDbBlockEnd
0
BLOCK
5
1C
100
AcDbEntity
100
AcDbBlockBegin
2
*PAPER_SPACE
0
ENDBLK
5
1D
100
AcDbEntity
100
AcDbBlockEnd
0
ENDSEC
0
SECTION
2
ENTITIES
0
SPLINE
5
100
100
AcDbEntity
8
0
100
AcDbSpline
70
1064
71
2
72
6
73
3
74
0
42
0.000000001
43
0.0000000001
44
0.0000000001
40
0
40
0
40
0
40
33.919942511743734
40
33.919942511743734
40
33.919942511743734
10
0
20
320
30
0
10
-75
20
160
30
0
10
0
20
0
30
0
0
SPLINE
5
101
100
AcDbEntity
8
0
100
AcDbSpline
70
1064
71
2
72
6
73
3
74
0
42
0.000000001
43
0.0000000001
44
0.0000000001
40
0
40
0
40
0
40
33.919942511743741
40
33.919942511743741
40
33.919942511743741
10
-82.822094432806637
20
309.09626441250185
30
0
10
31.033389755276808
20
173.95956058894001
30
0
10
0
20
0
30
0
0
SPLINE
5
102
100
AcDbEntity
8
0
100
AcDbSpline
70
1064
71
2
72
6
73
3
74
0
42
0.000000001
43
0.0000000001
44
0.0000000001
40
0
40
0
40
0
40
33.919942511743734
40
33.919942511743734
40
33.919942511743734
10
0
20
320
30
0
10
75
20
160
30
0
10
0
20
0
30
0
0
SPLINE
5
103
100
AcDbEntity
8
0
100
AcDbSpline
70
1064
71
2
72
6
73
3
74
0
42
0.000000001
43
0.0000000001
44
0.0000000001
40
0
40
0
40
0
40
33.919942511743741
40
33.919942511743741
40
33.919942511743741
10
82.822094432806892
20
309.0962644125018
30
0
10
-31.033389755276662
20
173.95956058894004
30
0
10
0
20
0
30
0
0
LINE
5
104
100
AcDbEntity
8
0
100
AcDbLine
10
-32.58104512781707
20
247.47760752650021
30
0
11
32.581045127817127
21
247.47760752649998
31
0
0
CIRCLE
5
105
100
AcDbEntity
8
0
100
AcDbCircle
10
3.388889173331462e-14
20
247.47760752650012
30
0
40
6.0500000000000043
0
LINE
5
106
100
AcDbEntity
8
0
100
AcDbLine
10
0
20
320
30
0
11
-3.6416506691894361e-15
21
-5.4315469067350739e-14
31
0
0
CIRCLE
5
107
100
AcDbEntity
8
0
100
AcDbCircle
10
36.854754815220396
20
279.93965546118721
30
0
40
6.0500000000000078
0
CIRCLE
5
108
100
AcDbEntity
8
0
100
AcDbCircle
10
0
20
0
30
0
40
320
0
LINE
5
109
100
AcDbEntity
8
0
100
AcDbLine
10
82.036028754567269
20
408.75216183914642
30
0
11
82.036028754567269
21
623.12550280414973
31
0
0
LINE
5
110
100
AcDbEntity
8
0
100
AcDbLine
10
82.036028754567269
20
623.12550280414973
30
0
11
0
21
0
31
0
0
SPLINE
5
111
100
AcDbEntity
8
0
100
AcDbSpline
70
1064
71
2
72
6
73
3
74
0
42
0.000000001
43
0.0000000001
44
0.0000000001
40
0
40
0
40
0
40
33.919942511743734
40
33.919942511743734
40
33.919942511743734
10
160.00000000000014
20
277.12812921102028
30
0
10
15.048094716167196
20
176.06406460551017
30
0
10
0
20
0
30
0
0
LINE
5
112
100
AcDbEntity
8
0
100
AcDbLine
10
8.3019016786224516e-14
20
200.00770737864175
30
0
11
51.765803836884494
21
193.19261001389674
31
0
0
CIRCLE
5
113
100
AcDbEntity
8
0
100
AcDbCircle
10
25.8829019184423
20
196.60015869626926
30
0
40
6.0499999999999972
0
CIRCLE
5
114
100
AcDbEntity
8
0
100
AcDbCircle
10
-36.854754815220353
20
279.93965546118721
30
0
40
6.0500000000000078
0
CIRCLE
5
115
100
AcDbEntity
8
0
100
AcDbCircle
10
-64.051918064265124
20
239.04501253807641
30
0
40
6.0500000000000043
0
CIRCLE
5
116
100
AcDbEntity
8
0
100
AcDbCircle
10
-25.882901918442165
20
196.60015869626929
30
0
40
6.0499999999999972
0
CIRCLE
5
117
100
AcDbEntity
8
0
100
AcDbCircle
10
-108.05267381036587
20
260.86223056366151
30
0
40
6.0500000000000078
0
CIRCLE
5
118
100
AcDbEntity
8
0
100
AcDbCircle
10
-123.73880376325003
20
214.32189498574414
30
0
40
6.0500000000000043
0
CIRCLE
5
119
100
AcDbEntity
8
0
100
AcDbCircle
10
-75.884828763102604
20
183.20218277824245
30
0
40
6.0499999999999972
0
CIRCLE
5
120
100
AcDbEntity
8
0
100
AcDbCircle
10
-171.88698165082133
20
224.00747574844115
30
0
40
6.0500000000000078
0
CIRCLE
5
121
100
AcDbEntity
8
0
100
AcDbCircle
10
-174.99309447381123
20
174.99309447381125
30
0
40
6.0500000000000043
0
CIRCLE
5
122
100
AcDbEntity
8
0
100
AcDbCircle
10
-120.71532993316654
20
157.31928085980027
30
0
40
6.0499999999999972
0
CIRCLE
5
123
100
AcDbEntity
8
0
100
AcDbCircle
10
-224.00747574844107
20
171.88698165082138
30
0
40
6.0500000000000078
0
CIRCLE
5
124
100
AcDbEntity
8
0
100
AcDbCircle
10
-214.32189498574402
20
123.73880376325012
30
0
40
6.0500000000000043
0
CIRCLE
5
125
100
AcDbEntity
8
0
100
AcDbCircle
10
-157.31928085980016
20
120.71532993316669
30
0
40
6.0499999999999972
0
CIRCLE
5
126
100
AcDbEntity
8
0
100
AcDbCircle
10
-260.86223056366146
20
108.05267381036597
30
0
40
6.0500000000000078
0
CIRCLE
5
127
100
AcDbEntity
8
0
100
AcDbCircle
10
-239.04501253807635
20
64.051918064265266
30
0
40
6.0500000000000043
0
CIRCLE
5
128
100
AcDbEntity
8
0
100
AcDbCircle
10
-183.20218277824239
20
75.884828763102774
30
0
40
6.0499999999999972
0
CIRCLE
5
129
100
AcDbEntity
8
0
100
AcDbCircle
10
-279.93965546118721
20
36.85475481522041
30
0
40
6.0500000000000078
0
CIRCLE
5
130
100
AcDbEntity
8
0
100
AcDbCircle
10
-247.47760752650012
20
4.9042527769290583e-14
30
0
40
6.0500000000000043
0
CIRCLE
5
131
100
AcDbEntity
8
0
100
AcDbCircle
10
-196.60015869626929
20
25.882901918442304
30
0
40
6.0499999999999972
0
CIRCLE
5
132
100
AcDbEntity
8
0
100
AcDbCircle
10
-279.93965546118721
20
-36.854754815220325
30
0
40
6.0500000000000078
0
CIRCLE
5
133
100
AcDbEntity
8
0
100
AcDbCircle
10
-239.04501253807638
20
-64.051918064265095
30
0
40
6.0500000000000043
0
CIRCLE
5
134
100
AcDbEntity
8
0
100
AcDbCircle
10
-196.60015869626929
20
-25.882901918442144
30
0
40
6.0499999999999972
0
CIRCLE
5
135
100
AcDbEntity
8
0
100
AcDbCircle
10
-260.86223056366151
20
-108.0526738103658
30
0
40
6.0500000000000078
0
CIRCLE
5
136
100
AcDbEntity
8
0
100
AcDbCircle
10
-214.32189498574417
20
-123.73880376325002
30
0
40
6.0500000000000043
0
CIRCLE
5
137
100
AcDbEntity
8
0
100
AcDbCircle
10
-183.2021827782425
20
-75.884828763102576
30
0
40
6.0499999999999972
0
CIRCLE
5
138
100
AcDbEntity
8
0
100
AcDbCircle
10
-224.00747574844118
20
-171.8869816508213
30
0
40
6.0500000000000078
0
CIRCLE
5
139
100
AcDbEntity
8
0
100
AcDbCircle
10
-174.99309447381125
20
-174.9930944738112
30
0
40
6.0500000000000043
0
CIRCLE
5
140
100
AcDbEntity
8
0
100
AcDbCircle
10
-157.31928085980024
20
-120.7153299331665
30
0
40
6.0499999999999972
0
CIRCLE
5
141
100
AcDbEntity
8
0
100
AcDbCircle
10
-171.88698165082144
20
-224.00747574844104
30
0
40
6.0500000000000078
0
CIRCLE
5
142
100
AcDbEntity
8
0
100
AcDbCircle
10
-123.73880376325019
20
-214.32189498574402
30
0
40
6.0500000000000043
0
CIRCLE
5
143
100
AcDbEntity
8
0
100
AcDbCircle
10
-120.71532993316673
20
-157.31928085980007
30
0
40
6.0499999999999972
0
CIRCLE
5
144
100
AcDbEntity
8
0
100
AcDbCircle
10
-108.052673810366
20
-260.86223056366146
30
0
40
6.0500000000000078
0
CIRCLE
5
145
100
AcDbEntity
8
0
100
AcDbCircle
10
-64.05191806426528
20
-239.04501253807638
30
0
40
6.0500000000000043
0
CIRCLE
5
146
100
AcDbEntity
8
0
100
AcDbCircle
10
-75.884828763102789
20
-183.20218277824239
30
0
40
6.0499999999999972
0
CIRCLE
5
147
100
AcDbEntity
8
0
100
AcDbCircle
10
-36.854754815220431
20
-279.93965546118721
30
0
40
6.0500000000000078
0
CIRCLE
5
148
100
AcDbEntity
8
0
100
AcDbCircle
10
-6.4196160138683972e-14
20
-247.47760752650015
30
0
40
6.0500000000000043
0
CIRCLE
5
149
100
AcDbEntity
8
0
100
AcDbCircle
10
-25.882901918442318
20
-196.60015869626929
30
0
40
6.0499999999999972
0
CIRCLE
5
150
100
AcDbEntity
8
0
100
AcDbCircle
10
36.854754815220247
20
-279.93965546118727
30
0
40
6.0500000000000078
0
CIRCLE
5
151
100
AcDbEntity
8
0
100
AcDbCircle
10
64.051918064265038
20
-239.04501253807643
30
0
40
6.0500000000000043
0
CIRCLE
5
152
100
AcDbEntity
8
0
100
AcDbCircle
10
25.882901918442084
20
-196.60015869626929
30
0
40
6.0499999999999972
0
CIRCLE
5
153
100
AcDbEntity
8
0
100
AcDbCircle
10
108.05267381036579
20
-260.86223056366151
30
0
40
6.0500000000000078
0
CIRCLE
5
154
100
AcDbEntity
8
0
100
AcDbCircle
10
123.73880376324999
20
-214.32189498574422
30
0
40
6.0500000000000043
0
CIRCLE
5
155
100
AcDbEntity
8
0
100
AcDbCircle
10
75.884828763102561
20
-183.20218277824245
30
0
40
6.0499999999999972
0
CIRCLE
5
156
100
AcDbEntity
8
0
100
AcDbCircle
10
171.88698165082116
20
-224.00747574844127
30
0
40
6.0500000000000078
0
CIRCLE
5
157
100
AcDbEntity
8
0
100
AcDbCircle
10
174.99309447381111
20
-174.99309447381137
30
0
40
6.0500000000000043
0
CIRCLE
5
158
100
AcDbEntity
8
0
100
AcDbCircle
10
120.71532993316646
20
-157.3192808598003
30
0
40
6.0499999999999972
0
CIRCLE
5
159
100
AcDbEntity
8
0
100
AcDbCircle
10
224.00747574844101
20
-171.88698165082144
30
0
40
6.0500000000000078
0
CIRCLE
5
160
100
AcDbEntity
8
0
100
AcDbCircle
10
214.32189498574402
20
-123.7388037632502
30
0
40
6.0500000000000043
0
CIRCLE
5
161
100
AcDbEntity
8
0
100
AcDbCircle
10
157.31928085980007
20
-120.71532993316674
30
0
40
6.0499999999999972
0
CIRCLE
5
162
100
AcDbEntity
8
0
100
AcDbCircle
10
260.8622305636614
20
-108.05267381036613
30
0
40
6.0500000000000078
0
CIRCLE
5
163
100
AcDbEntity
8
0
100
AcDbCircle
10
239.04501253807638
20
-64.051918064265408
30
0
40
6.0500000000000043
0
CIRCLE
5
164
100
AcDbEntity
8
0
100
AcDbCircle
10
183.20218277824236
20
-75.884828763102874
30
0
40
6.0499999999999972
0
CIRCLE
5
165
100
AcDbEntity
8
0
100
AcDbCircle
10
279.93965546118721
20
-36.85475481522046
30
0
40
6.0500000000000078
0
CIRCLE
5
166
100
AcDbEntity
8
0
100
AcDbCircle
10
247.47760752650012
20
-7.9349792671353873e-14
30
0
40
6.0500000000000043
0
CIRCLE
5
167
100
AcDbEntity
8
0
100
AcDbCircle
10
196.60015869626929
20
-25.882901918442339
30
0
40
6.0499999999999972
0
CIRCLE
5
168
100
AcDbEntity
8
0
100
AcDbCircle
10
279.93965546118727
20
36.854754815220232
30
0
40
6.0500000000000078
0
CIRCLE
5
169
100
AcDbEntity
8
0
100
AcDbCircle
10
239.04501253807643
20
64.05191806426501
30
0
40
6.0500000000000043
0
CIRCLE
5
170
100
AcDbEntity
8
0
100
AcDbCircle
10
196.60015869626929
20
25.882901918442069
30
0
40
6.0499999999999972
0
CIRCLE
5
171
100
AcDbEntity
8
0
100
AcDbCircle
10
260.86223056366157
20
108.05267381036569
30
0
40
6.0500000000000078
0
CIRCLE
5
172
100
AcDbEntity
8
0
100
AcDbCircle
10
214.32189498574428
20
123.73880376324989
30
0
40
6.0500000000000043
0
CIRCLE
5
173
100
AcDbEntity
8
0
100
AcDbCircle
10
183.2021827782425
20
75.884828763102462
30
0
40
6.0499999999999972
0
CIRCLE
5
174
100
AcDbEntity
8
0
100
AcDbCircle
10
224.00747574844118
20
171.88698165082127
30
0
40
6.0500000000000078
0
CIRCLE
5
175
100
AcDbEntity
8
0
100
AcDbCircle
10
174.99309447381123
20
174.99309447381123
30
0
40
6.0500000000000043
0
CIRCLE
5
176
100
AcDbEntity
8
0
100
AcDbCircle
10
157.31928085980027
20
120.71532993316649
30
0
40
6.0499999999999972
0
CIRCLE
5
177
100
AcDbEntity
8
0
100
AcDbCircle
10
171.88698165082144
20
224.00747574844101
30
0
40
6.0500000000000078
0
CIRCLE
5
178
100
AcDbEntity
8
0
100
AcDbCircle
10
123.73880376325022
20
214.32189498574402
30
0
40
6.0500000000000043
0
CIRCLE
5
179
100
AcDbEntity
8
0
100
AcDbCircle
10
120.71532993316674
20
157.31928085980007
30
0
40
6.0499999999999972
0
CIRCLE
5
180
100
AcDbEntity
8
0
100
AcDbCircle
10
108.05267381036613
20
260.86223056366146
30
0
40
6.0500000000000078
0
CIRCLE
5
181
100
AcDbEntity
8
0
100
AcDbCircle
10
64.051918064265408
20
239.04501253807641
30
0
40
6.0500000000000043
0
CIRCLE
5
182
100
AcDbEntity
8
0
100
AcDbCircle
10
75.884828763102917
20
183.20218277824236
30
0
40
6.0499999999999972
0
CIRCLE
5
183
100
AcDbEntity
8
0
100
AcDbCircle
10
0
20
0
30
0
40
6.0499999999999998
0
ENDSEC
0
SECTION
2
OBJECTS
0
DICTIONARY
5
C
100
AcDbDictionary
3
ACAD_GROUP
350
D
3
ACAD_MLINESTYLE
350
17
0
DICTIONARY
5
D
100
AcDbDictionary
0
DICTIONARY
5
1A
330
C
100
AcDbDictionary
0
DICTIONARY
5
17
100
AcDbDictionary
0
ENDSEC
0
EOF
