0
SECTION
2
HEADER
9
$INSUNITS
70
4
9
$ACADVER
1
AC1014
9
$HANDSEED
5
FFFF
0
ENDSEC
0
SECTION
2
TABLES
0
TABLE
2
VPORT
5
8
100
AcDbSymbolTable
0
ENDTAB
0
TABLE
2
LTYPE
5
5
100
AcDbSymbolTable
0
LTYPE
5
14
100
AcDbSymbolTableRecord
100
AcDbLinetypeTableRecord
2
BYBLOCK
70
0
0
LTYPE
5
15
100
AcDbSymbolTableRecord
100
AcDbLinetypeTableRecord
2
BYLAYER
70
0
0
ENDTAB
0
TABLE
2
LAYER
5
2
100
AcDbSymbolTable
70
2
0
LAYER
5
50
100
AcDbSymbolTableRecord
100
AcDbLayerTableRecord
2
0
70
0
6
CONTINUOUS
0
ENDTAB
0
TABLE
2
STYLE
5
3
100
AcDbSymbolTable
70
1
0
STYLE
5
11
100
AcDbSymbolTableRecord
100
AcDbTextStyleTableRecord
2
STANDARD
70
0
0
ENDTAB
0
TABLE
2
VIEW
5
6
100
AcDbSymbolTable
70
0
0
ENDTAB
0
TABLE
2
UCS
5
7
100
AcDbSymbolTable
70
0
0
ENDTAB
0
TABLE
2
APPID
5
9
100
AcDbSymbolTable
70
2
0
APPID
5
12
100
AcDbSymbolTableRecord
100
AcDbRegAppTableRecord
2
ACAD
70
0
0
ENDTAB
0
TABLE
2
DIMSTYLE
5
A
100
AcDbSymbolTable
70
1
0
ENDTAB
0
TABLE
2
BLOCK_RECORD
5
1
100
AcDbSymbolTable
70
1
0
BLOCK_RECORD
5
1F
100
AcDbSymbolTableRecord
100
AcDbBlockTableRecord
2
*MODEL_SPACE
0
BLOCK_RECORD
5
1B
100
AcDbSymbolTableRecord
100
AcDbBlockTableRecord
2
*PAPER_SPACE
0
ENDTAB
0
ENDSEC
0
SECTION
2
BLOCKS
0
BLOCK
5
20
100
AcDbEntity
100
AcDbBlockBegin
2
*MODEL_SPACE
0
ENDBLK
5
21
100
AcDbEntity
100
AcDbBlockEnd
0
BLOCK
5
1C
100
AcDbEntity
100
AcDbBlockBegin
2
*PAPER_SPACE
0
ENDBLK
5
1D
100
AcDbEntity
100
AcDbBlockEnd
0
ENDSEC
0
SECTION
2
ENTITIES
0
SPLINE
5
100
100
AcDbEntity
8
0
100
AcDbSpline
70
1064
71
2
72
6
73
3
74
0
42
0.000000001
43
0.0000000001
44
0.0000000001
40
0
40
0
40
0
40
32.86715685908959
40
32.86715685908959
40
32.86715685908959
10
0
20
320
30
0
10
-50
20
160
30
0
10
0
20
0
30
0
0
SPLINE
5
101
100
AcDbEntity
8
0
100
AcDbSpline
70
1064
71
2
72
6
73
3
74
0
42
0.000000001
43
0.0000000001
44
0.0000000001
40
0
40
0
40
0
40
32.86715685908959
40
32.86715685908959
40
32.86715685908959
10
-82.822094432806637
20
309.09626441250185
30
0
10
6.8852440980500962
20
167.48908446137699
30
0
10
0
20
0
30
0
0
SPLINE
5
102
100
AcDbEntity
8
0
100
AcDbSpline
70
1064
71
2
72
6
73
3
74
0
42
0.000000001
43
0.0000000001
44
0.0000000001
40
0
40
0
40
0
40
32.86715685908959
40
32.86715685908959
40
32.86715685908959
10
0
20
320
30
0
10
50
20
160
30
0
10
0
20
0
30
0
0
SPLINE
5
103
100
AcDbEntity
8
0
100
AcDbSpline
70
1064
71
2
72
6
73
3
74
0
42
0.000000001
43
0.0000000001
44
0.0000000001
40
0
40
0
40
0
40
32.86715685908959
40
32.86715685908959
40
32.86715685908959
10
82.822094432806892
20
309.0962644125018
30
0
10
-6.885244098049963
20
167.48908446137699
30
0
10
0
20
0
30
0
0
LINE
5
104
100
AcDbEntity
8
0
100
AcDbLine
10
-28.947252453104934
20
219.87621187276457
30
0
11
28.947252453104898
21
219.87621187276403
31
0
0
CIRCLE
5
105
100
AcDbEntity
8
0
100
AcDbCircle
10
-1.7763568394002505e-14
20
219.87621187276432
30
0
40
6.0500000000000043
0
LINE
5
106
100
AcDbEntity
8
0
100
AcDbLine
10
0
20
320
30
0
11
-3.6416506691894361e-15
21
-5.4315469067350739e-14
31
0
0
CIRCLE
5
107
100
AcDbEntity
8
0
100
AcDbCircle
10
37.494671827911077
20
284.8003077421385
30
0
40
6.0500000000000078
0
CIRCLE
5
108
100
AcDbEntity
8
0
100
AcDbCircle
10
0
20
0
30
0
40
320
0
LINE
5
109
100
AcDbEntity
8
0
100
AcDbLine
10
82.036028754567269
20
408.75216183914642
30
0
11
82.036028754567269
21
623.12550280414973
31
0
0
LINE
5
110
100
AcDbEntity
8
0
100
AcDbLine
10
82.036028754567269
20
623.12550280414973
30
0
11
0
21
0
31
0
0
SPLINE
5
111
100
AcDbEntity
8
0
100
AcDbSpline
70
1064
71
2
72
6
73
3
74
0
42
0.000000001
43
0.0000000001
44
0.0000000001
40
0
40
0
40
0
40
32.86715685908959
40
32.86715685908959
40
32.86715685908959
10
160.00000000000014
20
277.12812921102028
30
0
10
36.698729810778147
20
163.56406460551017
30
0
10
0
20
0
30
0
0
LINE
5
112
100
AcDbEntity
8
0
100
AcDbLine
10
5.8286708792820718e-14
20
136.30796874066644
30
0
11
35.279098309323615
21
131.6633873356129
31
0
0
CIRCLE
5
113
100
AcDbEntity
8
0
100
AcDbCircle
10
17.639549154661836
20
133.98567803813967
30
0
40
6.0499999999999972
0
CIRCLE
5
114
100
AcDbEntity
8
0
100
AcDbCircle
10
-37.49467182791188
20
284.80030774213839
30
0
40
6.0500000000000078
0
CIRCLE
5
115
100
AcDbEntity
8
0
100
AcDbCircle
10
-56.908151197668417
20
212.38411163451013
30
0
40
6.0500000000000043
0
CIRCLE
5
116
100
AcDbEntity
8
0
100
AcDbCircle
10
-17.639549154661726
20
133.9856780381397
30
0
40
6.0499999999999972
0
CIRCLE
5
117
100
AcDbEntity
8
0
100
AcDbCircle
10
-109.92881556153753
20
265.39163742427343
30
0
40
6.0500000000000078
0
CIRCLE
5
118
100
AcDbEntity
8
0
100
AcDbCircle
10
-109.93810593638216
20
190.41838516970353
30
0
40
6.0500000000000043
0
CIRCLE
5
119
100
AcDbEntity
8
0
100
AcDbCircle
10
-51.716541339828353
20
124.85477550164264
30
0
40
6.0499999999999972
0
CIRCLE
5
120
100
AcDbEntity
8
0
100
AcDbCircle
10
-174.87149218060165
20
227.89696559636184
30
0
40
6.0500000000000078
0
CIRCLE
5
121
100
AcDbEntity
8
0
100
AcDbCircle
10
-155.47596043684175
20
155.47596043684169
30
0
40
6.0500000000000043
0
CIRCLE
5
122
100
AcDbEntity
8
0
100
AcDbCircle
10
-82.269136698311229
20
107.21522634698084
30
0
40
6.0499999999999972
0
CIRCLE
5
123
100
AcDbEntity
8
0
100
AcDbCircle
10
-227.89696559636235
20
174.871492180601
30
0
40
6.0500000000000078
0
CIRCLE
5
124
100
AcDbEntity
8
0
100
AcDbCircle
10
-190.41838516970347
20
109.93810593638216
30
0
40
6.0500000000000043
0
CIRCLE
5
125
100
AcDbEntity
8
0
100
AcDbCircle
10
-107.21522634698078
20
82.269136698311328
30
0
40
6.0499999999999972
0
CIRCLE
5
126
100
AcDbEntity
8
0
100
AcDbCircle
10
-265.39163742427371
20
109.92881556153685
30
0
40
6.0500000000000078
0
CIRCLE
5
127
100
AcDbEntity
8
0
100
AcDbCircle
10
-212.38411163451013
20
56.908151197668424
30
0
40
6.0500000000000043
0
CIRCLE
5
128
100
AcDbEntity
8
0
100
AcDbCircle
10
-124.85477550164259
20
51.716541339828495
30
0
40
6.0499999999999972
0
CIRCLE
5
129
100
AcDbEntity
8
0
100
AcDbCircle
10
-284.80030774213856
20
37.49467182791102
30
0
40
6.0500000000000078
0
CIRCLE
5
130
100
AcDbEntity
8
0
100
AcDbCircle
10
-219.87621187276434
20
-6.6585894991702935e-14
30
0
40
6.0500000000000043
0
CIRCLE
5
131
100
AcDbEntity
8
0
100
AcDbCircle
10
-133.98567803813972
20
17.639549154661811
30
0
40
6.0499999999999972
0
CIRCLE
5
132
100
AcDbEntity
8
0
100
AcDbCircle
10
-284.80030774213839
20
-37.49467182791188
30
0
40
6.0500000000000078
0
CIRCLE
5
133
100
AcDbEntity
8
0
100
AcDbCircle
10
-212.38411163451013
20
-56.908151197668417
30
0
40
6.0500000000000043
0
CIRCLE
5
134
100
AcDbEntity
8
0
100
AcDbCircle
10
-133.9856780381397
20
-17.639549154661726
30
0
40
6.0499999999999972
0
CIRCLE
5
135
100
AcDbEntity
8
0
100
AcDbCircle
10
-265.39163742427348
20
-109.92881556153748
30
0
40
6.0500000000000078
0
CIRCLE
5
136
100
AcDbEntity
8
0
100
AcDbCircle
10
-190.41838516970355
20
-109.93810593638213
30
0
40
6.0500000000000043
0
CIRCLE
5
137
100
AcDbEntity
8
0
100
AcDbCircle
10
-124.85477550164265
20
-51.716541339828339
30
0
40
6.0499999999999972
0
CIRCLE
5
138
100
AcDbEntity
8
0
100
AcDbCircle
10
-227.89696559636189
20
-174.87149218060159
30
0
40
6.0500000000000078
0
CIRCLE
5
139
100
AcDbEntity
8
0
100
AcDbCircle
10
-155.47596043684172
20
-155.47596043684172
30
0
40
6.0500000000000043
0
CIRCLE
5
140
100
AcDbEntity
8
0
100
AcDbCircle
10
-107.21522634698088
20
-82.269136698311215
30
0
40
6.0499999999999972
0
CIRCLE
5
141
100
AcDbEntity
8
0
100
AcDbCircle
10
-174.87149218060102
20
-227.89696559636226
30
0
40
6.0500000000000078
0
CIRCLE
5
142
100
AcDbEntity
8
0
100
AcDbCircle
10
-109.93810593638221
20
-190.41838516970344
30
0
40
6.0500000000000043
0
CIRCLE
5
143
100
AcDbEntity
8
0
100
AcDbCircle
10
-82.269136698311343
20
-107.21522634698076
30
0
40
6.0499999999999972
0
CIRCLE
5
144
100
AcDbEntity
8
0
100
AcDbCircle
10
-109.92881556153688
20
-265.39163742427371
30
0
40
6.0500000000000078
0
CIRCLE
5
145
100
AcDbEntity
8
0
100
AcDbCircle
10
-56.908151197668431
20
-212.38411163451008
30
0
40
6.0500000000000043
0
CIRCLE
5
146
100
AcDbEntity
8
0
100
AcDbCircle
10
-51.716541339828495
20
-124.85477550164256
30
0
40
6.0499999999999972
0
CIRCLE
5
147
100
AcDbEntity
8
0
100
AcDbCircle
10
-37.494671827911112
20
-284.8003077421385
30
0
40
6.0500000000000078
0
CIRCLE
5
148
100
AcDbEntity
8
0
100
AcDbCircle
10
-9.1635015138601043e-15
20
-219.87621187276432
30
0
40
6.0500000000000043
0
CIRCLE
5
149
100
AcDbEntity
8
0
100
AcDbCircle
10
-17.63954915466185
20
-133.98567803813967
30
0
40
6.0499999999999972
0
CIRCLE
5
150
100
AcDbEntity
8
0
100
AcDbCircle
10
37.494671827911752
20
-284.8003077421385
30
0
40
6.0500000000000078
0
CIRCLE
5
151
100
AcDbEntity
8
0
100
AcDbCircle
10
56.908151197668325
20
-212.38411163451019
30
0
40
6.0500000000000043
0
CIRCLE
5
152
100
AcDbEntity
8
0
100
AcDbCircle
10
17.639549154661669
20
-133.98567803813972
30
0
40
6.0499999999999972
0
CIRCLE
5
153
100
AcDbEntity
8
0
100
AcDbCircle
10
109.92881556153748
20
-265.39163742427348
30
0
40
6.0500000000000078
0
CIRCLE
5
154
100
AcDbEntity
8
0
100
AcDbCircle
10
109.93810593638213
20
-190.41838516970355
30
0
40
6.0500000000000043
0
CIRCLE
5
155
100
AcDbEntity
8
0
100
AcDbCircle
10
51.716541339828339
20
-124.85477550164265
30
0
40
6.0499999999999972
0
CIRCLE
5
156
100
AcDbEntity
8
0
100
AcDbCircle
10
174.87149218060148
20
-227.89696559636195
30
0
40
6.0500000000000078
0
CIRCLE
5
157
100
AcDbEntity
8
0
100
AcDbCircle
10
155.47596043684163
20
-155.47596043684177
30
0
40
6.0500000000000043
0
CIRCLE
5
158
100
AcDbEntity
8
0
100
AcDbCircle
10
82.269136698311172
20
-107.2152263469809
30
0
40
6.0499999999999972
0
CIRCLE
5
159
100
AcDbEntity
8
0
100
AcDbCircle
10
227.89696559636226
20
-174.87149218060102
30
0
40
6.0500000000000078
0
CIRCLE
5
160
100
AcDbEntity
8
0
100
AcDbCircle
10
190.41838516970344
20
-109.93810593638219
30
0
40
6.0500000000000043
0
CIRCLE
5
161
100
AcDbEntity
8
0
100
AcDbCircle
10
107.21522634698076
20
-82.269136698311328
30
0
40
6.0499999999999972
0
CIRCLE
5
162
100
AcDbEntity
8
0
100
AcDbCircle
10
265.39163742427371
20
-109.92881556153698
30
0
40
6.0500000000000078
0
CIRCLE
5
163
100
AcDbEntity
8
0
100
AcDbCircle
10
212.38411163451008
20
-56.908151197668523
30
0
40
6.0500000000000043
0
CIRCLE
5
164
100
AcDbEntity
8
0
100
AcDbCircle
10
124.85477550164255
20
-51.716541339828552
30
0
40
6.0499999999999972
0
CIRCLE
5
165
100
AcDbEntity
8
0
100
AcDbCircle
10
284.8003077421385
20
-37.494671827911141
30
0
40
6.0500000000000078
0
CIRCLE
5
166
100
AcDbEntity
8
0
100
AcDbCircle
10
219.87621187276432
20
-3.1058758203697926e-14
30
0
40
6.0500000000000043
0
CIRCLE
5
167
100
AcDbEntity
8
0
100
AcDbCircle
10
133.98567803813967
20
-17.639549154661864
30
0
40
6.0499999999999972
0
CIRCLE
5
168
100
AcDbEntity
8
0
100
AcDbCircle
10
284.80030774213844
20
37.494671827911709
30
0
40
6.0500000000000078
0
CIRCLE
5
169
100
AcDbEntity
8
0
100
AcDbCircle
10
212.38411163451016
20
56.908151197668289
30
0
40
6.0500000000000043
0
CIRCLE
5
170
100
AcDbEntity
8
0
100
AcDbCircle
10
133.98567803813972
20
17.639549154661648
30
0
40
6.0499999999999972
0
CIRCLE
5
171
100
AcDbEntity
8
0
100
AcDbCircle
10
265.39163742427354
20
109.92881556153733
30
0
40
6.0500000000000078
0
CIRCLE
5
172
100
AcDbEntity
8
0
100
AcDbCircle
10
190.41838516970358
20
109.93810593638203
30
0
40
6.0500000000000043
0
CIRCLE
5
173
100
AcDbEntity
8
0
100
AcDbCircle
10
124.85477550164265
20
51.716541339828275
30
0
40
6.0499999999999972
0
CIRCLE
5
174
100
AcDbEntity
8
0
100
AcDbCircle
10
227.89696559636189
20
174.87149218060154
30
0
40
6.0500000000000078
0
CIRCLE
5
175
100
AcDbEntity
8
0
100
AcDbCircle
10
155.47596043684172
20
155.47596043684169
30
0
40
6.0500000000000043
0
CIRCLE
5
176
100
AcDbEntity
8
0
100
AcDbCircle
10
107.21522634698088
20
82.2691366983112
30
0
40
6.0499999999999972
0
CIRCLE
5
177
100
AcDbEntity
8
0
100
AcDbCircle
10
174.87149218060108
20
227.89696559636226
30
0
40
6.0500000000000078
0
CIRCLE
5
178
100
AcDbEntity
8
0
100
AcDbCircle
10
109.93810593638223
20
190.41838516970344
30
0
40
6.0500000000000043
0
CIRCLE
5
179
100
AcDbEntity
8
0
100
AcDbCircle
10
82.269136698311357
20
107.21522634698074
30
0
40
6.0499999999999972
0
CIRCLE
5
180
100
AcDbEntity
8
0
100
AcDbCircle
10
109.92881556153699
20
265.39163742427365
30
0
40
6.0500000000000078
0
CIRCLE
5
181
100
AcDbEntity
8
0
100
AcDbCircle
10
56.908151197668545
20
212.38411163451008
30
0
40
6.0500000000000043
0
CIRCLE
5
182
100
AcDbEntity
8
0
100
AcDbCircle
10
51.716541339828566
20
124.85477550164255
30
0
40
6.0499999999999972
0
CIRCLE
5
183
100
AcDbEntity
8
0
100
AcDbCircle
10
0
20
0
30
0
40
6.0499999999999998
0
ENDSEC
0
SECTION
2
OBJECTS
0
DICTIONARY
5
C
100
AcDbDictionary
3
ACAD_GROUP
350
D
3
ACAD_MLINESTYLE
350
17
0
DICTIONARY
5
D
100
AcDbDictionary
0
DICTIONARY
5
1A
330
C
100
AcDbDictionary
0
DICTIONARY
5
17
100
AcDbDictionary
0
ENDSEC
0
EOF
